<svg width="409" height="249" viewBox="0 0 409 249" fill="none" xmlns="http://www.w3.org/2000/svg">
<g filter="url(#filter0_d_5_76)">
<path d="M204 42H190C188.939 42 187.922 42.4214 187.172 43.1716C186.421 43.9217 186 44.9391 186 46V78C186 79.0609 186.421 80.0783 187.172 80.8284C187.922 81.5786 188.939 82 190 82H214C215.061 82 216.078 81.5786 216.828 80.8284C217.579 80.0783 218 79.0609 218 78V56M204 42L218 56M204 42V56H218" stroke="#14AE5C" stroke-width="4" stroke-linecap="round" stroke-linejoin="round"/>
<path d="M189.516 69.0625C189.323 69.0625 189.158 68.9935 189.02 68.8555C188.882 68.7174 188.813 68.5521 188.813 68.3594C188.813 68.1667 188.882 68.0013 189.02 67.8633C189.158 67.7253 189.323 67.6562 189.516 67.6562C189.708 67.6562 189.874 67.7253 190.012 67.8633C190.15 68.0013 190.219 68.1667 190.219 68.3594C190.219 68.487 190.186 68.6042 190.121 68.7109C190.059 68.8177 189.974 68.9036 189.867 68.9687C189.763 69.0313 189.646 69.0625 189.516 69.0625ZM195.967 71.25V68.0781H195.889C195.821 68.1875 195.725 68.3255 195.6 68.4922C195.475 68.6562 195.296 68.8034 195.064 68.9336C194.833 69.0612 194.524 69.125 194.139 69.125C193.639 69.125 193.197 68.9987 192.814 68.7461C192.432 68.4909 192.132 68.1315 191.916 67.668C191.7 67.2018 191.592 66.651 191.592 66.0156C191.592 65.3854 191.7 64.8385 191.916 64.375C192.132 63.9115 192.433 63.5534 192.818 63.3008C193.204 63.0482 193.649 62.9219 194.154 62.9219C194.545 62.9219 194.854 62.987 195.08 63.1172C195.309 63.2448 195.484 63.3906 195.604 63.5547C195.726 63.7161 195.821 63.849 195.889 63.9531H195.998V63H196.889V71.25H195.967ZM194.264 68.2969C194.633 68.2969 194.946 68.2005 195.201 68.0078C195.456 67.8125 195.65 67.543 195.783 67.1992C195.916 66.8529 195.982 66.4531 195.982 66C195.982 65.5521 195.917 65.1602 195.787 64.8242C195.657 64.4857 195.464 64.2227 195.209 64.0352C194.954 63.8451 194.639 63.75 194.264 63.75C193.873 63.75 193.548 63.8503 193.287 64.0508C193.029 64.2487 192.835 64.5182 192.705 64.8594C192.577 65.1979 192.514 65.5781 192.514 66C192.514 66.4271 192.579 66.8151 192.709 67.1641C192.842 67.5104 193.037 67.7865 193.295 67.9922C193.555 68.1953 193.878 68.2969 194.264 68.2969ZM198.576 69V63H199.467V63.9375H199.545C199.67 63.6172 199.872 63.3685 200.15 63.1914C200.429 63.0117 200.764 62.9219 201.154 62.9219C201.55 62.9219 201.88 63.0117 202.143 63.1914C202.408 63.3685 202.615 63.6172 202.764 63.9375H202.826C202.98 63.6276 203.21 63.3815 203.518 63.1992C203.825 63.0143 204.193 62.9219 204.623 62.9219C205.16 62.9219 205.598 63.0898 205.939 63.4258C206.281 63.7591 206.451 64.2786 206.451 64.9844V69H205.529V64.9844C205.529 64.5417 205.408 64.2253 205.166 64.0352C204.924 63.8451 204.639 63.75 204.311 63.75C203.889 63.75 203.562 63.8776 203.33 64.1328C203.098 64.3854 202.982 64.7057 202.982 65.0937V69H202.045V64.8906C202.045 64.5495 201.934 64.2747 201.713 64.0664C201.492 63.8555 201.206 63.75 200.857 63.75C200.618 63.75 200.394 63.8138 200.186 63.9414C199.98 64.069 199.813 64.2461 199.686 64.4727C199.561 64.6966 199.498 64.9557 199.498 65.25V69H198.576ZM210.402 69.125C209.902 69.125 209.461 68.9987 209.078 68.7461C208.695 68.4909 208.396 68.1315 208.18 67.668C207.964 67.2018 207.855 66.651 207.855 66.0156C207.855 65.3854 207.964 64.8385 208.18 64.375C208.396 63.9115 208.697 63.5534 209.082 63.3008C209.467 63.0482 209.913 62.9219 210.418 62.9219C210.809 62.9219 211.117 62.987 211.344 63.1172C211.573 63.2448 211.747 63.3906 211.867 63.5547C211.99 63.7161 212.085 63.849 212.152 63.9531H212.23V61H213.152V69H212.262V68.0781H212.152C212.085 68.1875 211.988 68.3255 211.863 68.4922C211.738 68.6562 211.56 68.8034 211.328 68.9336C211.096 69.0612 210.788 69.125 210.402 69.125ZM210.527 68.2969C210.897 68.2969 211.21 68.2005 211.465 68.0078C211.72 67.8125 211.914 67.543 212.047 67.1992C212.18 66.8529 212.246 66.4531 212.246 66C212.246 65.5521 212.181 65.1602 212.051 64.8242C211.921 64.4857 211.728 64.2227 211.473 64.0352C211.217 63.8451 210.902 63.75 210.527 63.75C210.137 63.75 209.811 63.8503 209.551 64.0508C209.293 64.2487 209.099 64.5182 208.969 64.8594C208.841 65.1979 208.777 65.5781 208.777 66C208.777 66.4271 208.842 66.8151 208.973 67.1641C209.105 67.5104 209.301 67.7865 209.559 67.9922C209.819 68.1953 210.142 68.2969 210.527 68.2969Z" fill="white"/>
<path d="M178.391 21.3945V20H184.961V21.3945H182.512V28H180.84V21.3945H178.391ZM187.876 28.1172C187.259 28.1172 186.728 27.9922 186.282 27.7422C185.84 27.4896 185.498 27.1328 185.259 26.6719C185.019 26.2083 184.899 25.6602 184.899 25.0273C184.899 24.4102 185.019 23.8685 185.259 23.4023C185.498 22.9362 185.836 22.5729 186.271 22.3125C186.708 22.0521 187.221 21.9219 187.81 21.9219C188.205 21.9219 188.574 21.9857 188.915 22.1133C189.259 22.2383 189.558 22.4271 189.813 22.6797C190.071 22.9323 190.272 23.25 190.415 23.6328C190.558 24.013 190.63 24.4583 190.63 24.9687V25.4258H185.563V24.3945H189.063C189.063 24.1549 189.011 23.9427 188.907 23.7578C188.803 23.5729 188.659 23.4284 188.474 23.3242C188.291 23.2174 188.079 23.1641 187.837 23.1641C187.584 23.1641 187.36 23.2227 187.165 23.3398C186.972 23.4544 186.821 23.6094 186.712 23.8047C186.603 23.9974 186.547 24.2122 186.544 24.4492V25.4297C186.544 25.7266 186.599 25.9831 186.708 26.1992C186.82 26.4154 186.978 26.582 187.181 26.6992C187.384 26.8164 187.625 26.875 187.903 26.875C188.088 26.875 188.257 26.849 188.411 26.7969C188.565 26.7448 188.696 26.6667 188.806 26.5625C188.915 26.4583 188.998 26.3307 189.056 26.1797L190.595 26.2812C190.517 26.651 190.356 26.974 190.114 27.25C189.875 27.5234 189.565 27.737 189.185 27.8906C188.807 28.0417 188.371 28.1172 187.876 28.1172ZM191.716 28V22H193.302V23.0586H193.372C193.497 22.707 193.705 22.4297 193.997 22.2266C194.289 22.0234 194.638 21.9219 195.044 21.9219C195.455 21.9219 195.806 22.0247 196.095 22.2305C196.384 22.4336 196.576 22.7096 196.673 23.0586H196.735C196.858 22.7148 197.079 22.4401 197.399 22.2344C197.722 22.026 198.104 21.9219 198.544 21.9219C199.104 21.9219 199.558 22.1003 199.907 22.457C200.259 22.8112 200.435 23.3138 200.435 23.9648V28H198.774V24.293C198.774 23.9596 198.686 23.7096 198.509 23.543C198.332 23.3763 198.11 23.293 197.845 23.293C197.543 23.293 197.307 23.3893 197.138 23.582C196.968 23.7721 196.884 24.0234 196.884 24.3359V28H195.271V24.2578C195.271 23.9635 195.186 23.7292 195.017 23.5547C194.85 23.3802 194.63 23.293 194.356 23.293C194.172 23.293 194.005 23.3398 193.856 23.4336C193.711 23.5247 193.595 23.6536 193.509 23.8203C193.423 23.9844 193.38 24.1771 193.38 24.3984V28H191.716ZM201.749 30.25V22H203.39V23.0078H203.464C203.537 22.8464 203.642 22.6823 203.78 22.5156C203.921 22.3464 204.103 22.2057 204.327 22.0938C204.554 21.9792 204.835 21.9219 205.171 21.9219C205.608 21.9219 206.012 22.0365 206.382 22.2656C206.752 22.4922 207.047 22.8346 207.269 23.293C207.49 23.7487 207.601 24.3203 207.601 25.0078C207.601 25.6771 207.493 26.2422 207.276 26.7031C207.063 27.1615 206.771 27.5091 206.401 27.7461C206.034 27.9805 205.623 28.0977 205.167 28.0977C204.844 28.0977 204.569 28.0443 204.343 27.9375C204.119 27.8307 203.935 27.6966 203.792 27.5352C203.649 27.3711 203.539 27.2057 203.464 27.0391H203.413V30.25H201.749ZM203.378 25C203.378 25.3568 203.427 25.668 203.526 25.9336C203.625 26.1992 203.769 26.4062 203.956 26.5547C204.144 26.7005 204.371 26.7734 204.64 26.7734C204.91 26.7734 205.14 26.6992 205.327 26.5508C205.515 26.3997 205.657 26.1914 205.753 25.9258C205.852 25.6576 205.901 25.349 205.901 25C205.901 24.6536 205.853 24.349 205.757 24.0859C205.66 23.8229 205.519 23.6172 205.331 23.4687C205.144 23.3203 204.913 23.2461 204.64 23.2461C204.369 23.2461 204.14 23.3177 203.952 23.4609C203.767 23.6042 203.625 23.8073 203.526 24.0703C203.427 24.3333 203.378 24.6432 203.378 25ZM210.374 20V28H208.71V20H210.374ZM213.418 28.1133C213.035 28.1133 212.694 28.0469 212.395 27.9141C212.095 27.7786 211.858 27.5794 211.684 27.3164C211.512 27.0508 211.426 26.7201 211.426 26.3242C211.426 25.9909 211.487 25.7109 211.609 25.4844C211.732 25.2578 211.898 25.0755 212.109 24.9375C212.32 24.7995 212.56 24.6953 212.828 24.625C213.099 24.5547 213.383 24.5052 213.68 24.4766C214.029 24.4401 214.31 24.4062 214.523 24.375C214.737 24.3411 214.892 24.2917 214.988 24.2266C215.085 24.1615 215.133 24.0651 215.133 23.9375V23.9141C215.133 23.6667 215.055 23.4753 214.898 23.3398C214.745 23.2044 214.526 23.1367 214.242 23.1367C213.943 23.1367 213.704 23.2031 213.527 23.3359C213.35 23.4661 213.233 23.6302 213.176 23.8281L211.637 23.7031C211.715 23.3385 211.868 23.0234 212.098 22.7578C212.327 22.4896 212.622 22.2839 212.984 22.1406C213.349 21.9948 213.771 21.9219 214.25 21.9219C214.583 21.9219 214.902 21.9609 215.207 22.0391C215.514 22.1172 215.786 22.2383 216.023 22.4023C216.263 22.5664 216.452 22.7773 216.59 23.0352C216.728 23.2904 216.797 23.5964 216.797 23.9531V28H215.219V27.168H215.172C215.076 27.3555 214.947 27.5208 214.785 27.6641C214.624 27.8047 214.43 27.9154 214.203 27.9961C213.977 28.0742 213.715 28.1133 213.418 28.1133ZM213.895 26.9648C214.139 26.9648 214.355 26.9167 214.543 26.8203C214.73 26.7214 214.878 26.5885 214.984 26.4219C215.091 26.2552 215.145 26.0664 215.145 25.8555V25.2188C215.092 25.2526 215.021 25.2839 214.93 25.3125C214.841 25.3385 214.741 25.3633 214.629 25.3867C214.517 25.4076 214.405 25.4271 214.293 25.4453C214.181 25.4609 214.079 25.4753 213.988 25.4883C213.793 25.5169 213.622 25.5625 213.477 25.625C213.331 25.6875 213.217 25.7721 213.137 25.8789C213.056 25.9831 213.016 26.1133 213.016 26.2695C213.016 26.4961 213.098 26.6693 213.262 26.7891C213.428 26.9062 213.639 26.9648 213.895 26.9648ZM221.279 22V23.25H217.666V22H221.279ZM218.486 20.5625H220.15V26.1562C220.15 26.3099 220.174 26.4297 220.221 26.5156C220.268 26.599 220.333 26.6576 220.416 26.6914C220.502 26.7253 220.601 26.7422 220.713 26.7422C220.791 26.7422 220.869 26.7357 220.947 26.7227C221.025 26.707 221.085 26.6953 221.127 26.6875L221.389 27.9258C221.305 27.9518 221.188 27.9818 221.037 28.0156C220.886 28.0521 220.702 28.0742 220.486 28.082C220.085 28.0977 219.734 28.0443 219.432 27.9219C219.132 27.7995 218.899 27.6094 218.732 27.3516C218.566 27.0937 218.484 26.7682 218.486 26.375V20.5625ZM225.033 28.1172C224.416 28.1172 223.885 27.9922 223.439 27.7422C222.997 27.4896 222.656 27.1328 222.416 26.6719C222.176 26.2083 222.057 25.6602 222.057 25.0273C222.057 24.4102 222.176 23.8685 222.416 23.4023C222.656 22.9362 222.993 22.5729 223.428 22.3125C223.865 22.0521 224.378 21.9219 224.967 21.9219C225.363 21.9219 225.731 21.9857 226.072 22.1133C226.416 22.2383 226.715 22.4271 226.971 22.6797C227.229 22.9323 227.429 23.25 227.572 23.6328C227.715 24.013 227.787 24.4583 227.787 24.9687V25.4258H222.721V24.3945H226.221C226.221 24.1549 226.169 23.9427 226.064 23.7578C225.96 23.5729 225.816 23.4284 225.631 23.3242C225.449 23.2174 225.236 23.1641 224.994 23.1641C224.742 23.1641 224.518 23.2227 224.322 23.3398C224.13 23.4544 223.979 23.6094 223.869 23.8047C223.76 23.9974 223.704 24.2122 223.701 24.4492V25.4297C223.701 25.7266 223.756 25.9831 223.865 26.1992C223.977 26.4154 224.135 26.582 224.338 26.6992C224.541 26.8164 224.782 26.875 225.061 26.875C225.245 26.875 225.415 26.849 225.568 26.7969C225.722 26.7448 225.854 26.6667 225.963 26.5625C226.072 26.4583 226.156 26.3307 226.213 26.1797L227.752 26.2812C227.674 26.651 227.514 26.974 227.271 27.25C227.032 27.5234 226.722 27.737 226.342 27.8906C225.964 28.0417 225.528 28.1172 225.033 28.1172Z" fill="white"/>
</g>
<defs>
<filter id="filter0_d_5_76" x="-4" y="0" width="417" height="257" filterUnits="userSpaceOnUse" color-interpolation-filters="sRGB">
<feFlood flood-opacity="0" result="BackgroundImageFix"/>
<feColorMatrix in="SourceAlpha" type="matrix" values="0 0 0 0 0 0 0 0 0 0 0 0 0 0 0 0 0 0 127 0" result="hardAlpha"/>
<feOffset dy="4"/>
<feGaussianBlur stdDeviation="2"/>
<feComposite in2="hardAlpha" operator="out"/>
<feColorMatrix type="matrix" values="0 0 0 0 0 0 0 0 0 0 0 0 0 0 0 0 0 0 0.25 0"/>
<feBlend mode="normal" in2="BackgroundImageFix" result="effect1_dropShadow_5_76"/>
<feBlend mode="normal" in="SourceGraphic" in2="effect1_dropShadow_5_76" result="shape"/>
</filter>
</defs>
</svg>
