<svg width="409" height="249" viewBox="0 0 409 249" fill="none" xmlns="http://www.w3.org/2000/svg">
<g filter="url(#filter0_d_0_1)">
<path d="M204 42H190C188.939 42 187.922 42.4214 187.172 43.1716C186.421 43.9217 186 44.9391 186 46V78C186 79.0609 186.421 80.0783 187.172 80.8284C187.922 81.5786 188.939 82 190 82H214C215.061 82 216.078 81.5786 216.828 80.8284C217.579 80.0783 218 79.0609 218 78V56M204 42L218 56M204 42V56H218" stroke="#14AE5C" stroke-width="4" stroke-linecap="round" stroke-linejoin="round"/>
<path d="M191.3 69.11C191.021 69.11 190.798 69.0293 190.629 68.868C190.468 68.7067 190.387 68.4903 190.387 68.219C190.387 67.933 190.468 67.7057 190.629 67.537C190.798 67.3683 191.021 67.284 191.3 67.284C191.579 67.284 191.799 67.3683 191.96 67.537C192.129 67.7057 192.213 67.933 192.213 68.219C192.213 68.4903 192.129 68.7067 191.96 68.868C191.799 69.0293 191.579 69.11 191.3 69.11ZM199.194 70.98V69.22L199.216 67.845H198.996L199.194 67.614C199.194 68.0687 199.043 68.4317 198.743 68.703C198.442 68.9743 198.042 69.11 197.544 69.11C196.935 69.11 196.451 68.9083 196.092 68.505C195.74 68.1017 195.564 67.5517 195.564 66.855V65.084C195.564 64.3873 195.743 63.841 196.103 63.445C196.462 63.0417 196.942 62.84 197.544 62.84C198.042 62.84 198.442 62.9757 198.743 63.247C199.043 63.511 199.194 63.874 199.194 64.336L198.996 64.105H199.194V62.95H200.184V70.98H199.194ZM197.874 68.252C198.284 68.252 198.607 68.1237 198.842 67.867C199.076 67.6103 199.194 67.2547 199.194 66.8V65.15C199.194 64.6953 199.076 64.3397 198.842 64.083C198.607 63.8263 198.284 63.698 197.874 63.698C197.456 63.698 197.129 63.8227 196.895 64.072C196.667 64.3213 196.554 64.6807 196.554 65.15V66.8C196.554 67.2693 196.667 67.6287 196.895 67.878C197.129 68.1273 197.456 68.252 197.874 68.252ZM201.917 69V62.95H202.786V63.676H202.984L202.83 63.94C202.83 63.6027 202.918 63.335 203.094 63.137C203.278 62.939 203.523 62.84 203.831 62.84C204.169 62.84 204.429 62.9647 204.612 63.214C204.796 63.4633 204.887 63.8153 204.887 64.27L204.59 63.676H205.052L204.843 63.94C204.843 63.6027 204.935 63.335 205.118 63.137C205.309 62.939 205.558 62.84 205.866 62.84C206.248 62.84 206.541 62.983 206.746 63.269C206.959 63.555 207.065 63.9327 207.065 64.402V69H206.152V64.391C206.152 64.1417 206.097 63.9473 205.987 63.808C205.885 63.6687 205.731 63.599 205.525 63.599C205.327 63.599 205.17 63.6687 205.052 63.808C204.942 63.94 204.887 64.1307 204.887 64.38V69H204.095V64.391C204.095 64.1343 204.037 63.94 203.919 63.808C203.809 63.6687 203.652 63.599 203.446 63.599C203.241 63.599 203.087 63.6687 202.984 63.808C202.882 63.94 202.83 64.1307 202.83 64.38V69H201.917ZM210.735 69.11C210.134 69.11 209.646 68.9083 209.272 68.505C208.905 68.1017 208.722 67.5553 208.722 66.866V65.095C208.722 64.3983 208.905 63.8483 209.272 63.445C209.639 63.0417 210.126 62.84 210.735 62.84C211.234 62.84 211.633 62.9757 211.934 63.247C212.235 63.5183 212.385 63.8813 212.385 64.336L212.187 64.105H212.407L212.385 62.73V60.97H213.375V69H212.385V67.845H212.187L212.385 67.614C212.385 68.076 212.235 68.4427 211.934 68.714C211.633 68.978 211.234 69.11 210.735 69.11ZM211.065 68.252C211.476 68.252 211.798 68.1237 212.033 67.867C212.268 67.6103 212.385 67.2547 212.385 66.8V65.15C212.385 64.6953 212.268 64.3397 212.033 64.083C211.798 63.8263 211.476 63.698 211.065 63.698C210.647 63.698 210.317 63.8227 210.075 64.072C209.833 64.3213 209.712 64.6807 209.712 65.15V66.8C209.712 67.2693 209.833 67.6287 210.075 67.878C210.317 68.1273 210.647 68.252 211.065 68.252Z" fill="white"/>
<path d="M178.391 21.3945V20H184.961V21.3945H182.512V28H180.84V21.3945H178.391ZM187.876 28.1172C187.259 28.1172 186.728 27.9922 186.282 27.7422C185.84 27.4896 185.498 27.1328 185.259 26.6719C185.019 26.2083 184.899 25.6602 184.899 25.0273C184.899 24.4102 185.019 23.8685 185.259 23.4023C185.498 22.9362 185.836 22.5729 186.271 22.3125C186.708 22.0521 187.221 21.9219 187.81 21.9219C188.205 21.9219 188.574 21.9857 188.915 22.1133C189.259 22.2383 189.558 22.4271 189.813 22.6797C190.071 22.9323 190.272 23.25 190.415 23.6328C190.558 24.013 190.63 24.4583 190.63 24.9687V25.4258H185.563V24.3945H189.063C189.063 24.1549 189.011 23.9427 188.907 23.7578C188.803 23.5729 188.659 23.4284 188.474 23.3242C188.291 23.2174 188.079 23.1641 187.837 23.1641C187.584 23.1641 187.36 23.2227 187.165 23.3398C186.972 23.4544 186.821 23.6094 186.712 23.8047C186.603 23.9974 186.547 24.2122 186.544 24.4492V25.4297C186.544 25.7266 186.599 25.9831 186.708 26.1992C186.82 26.4154 186.978 26.582 187.181 26.6992C187.384 26.8164 187.625 26.875 187.903 26.875C188.088 26.875 188.257 26.849 188.411 26.7969C188.565 26.7448 188.696 26.6667 188.806 26.5625C188.915 26.4583 188.998 26.3307 189.056 26.1797L190.595 26.2812C190.517 26.651 190.356 26.974 190.114 27.25C189.875 27.5234 189.565 27.737 189.185 27.8906C188.807 28.0417 188.371 28.1172 187.876 28.1172ZM191.716 28V22H193.302V23.0586H193.372C193.497 22.707 193.705 22.4297 193.997 22.2266C194.289 22.0234 194.638 21.9219 195.044 21.9219C195.455 21.9219 195.806 22.0247 196.095 22.2305C196.384 22.4336 196.576 22.7096 196.673 23.0586H196.735C196.858 22.7148 197.079 22.4401 197.399 22.2344C197.722 22.026 198.104 21.9219 198.544 21.9219C199.104 21.9219 199.558 22.1003 199.907 22.457C200.259 22.8112 200.435 23.3138 200.435 23.9648V28H198.774V24.293C198.774 23.9596 198.686 23.7096 198.509 23.543C198.332 23.3763 198.11 23.293 197.845 23.293C197.543 23.293 197.307 23.3893 197.138 23.582C196.968 23.7721 196.884 24.0234 196.884 24.3359V28H195.271V24.2578C195.271 23.9635 195.186 23.7292 195.017 23.5547C194.85 23.3802 194.63 23.293 194.356 23.293C194.172 23.293 194.005 23.3398 193.856 23.4336C193.711 23.5247 193.595 23.6536 193.509 23.8203C193.423 23.9844 193.38 24.1771 193.38 24.3984V28H191.716ZM201.749 30.25V22H203.39V23.0078H203.464C203.537 22.8464 203.642 22.6823 203.78 22.5156C203.921 22.3464 204.103 22.2057 204.327 22.0938C204.554 21.9792 204.835 21.9219 205.171 21.9219C205.608 21.9219 206.012 22.0365 206.382 22.2656C206.752 22.4922 207.047 22.8346 207.269 23.293C207.49 23.7487 207.601 24.3203 207.601 25.0078C207.601 25.6771 207.493 26.2422 207.276 26.7031C207.063 27.1615 206.771 27.5091 206.401 27.7461C206.034 27.9805 205.623 28.0977 205.167 28.0977C204.844 28.0977 204.569 28.0443 204.343 27.9375C204.119 27.8307 203.935 27.6966 203.792 27.5352C203.649 27.3711 203.539 27.2057 203.464 27.0391H203.413V30.25H201.749ZM203.378 25C203.378 25.3568 203.427 25.668 203.526 25.9336C203.625 26.1992 203.769 26.4062 203.956 26.5547C204.144 26.7005 204.371 26.7734 204.64 26.7734C204.91 26.7734 205.14 26.6992 205.327 26.5508C205.515 26.3997 205.657 26.1914 205.753 25.9258C205.852 25.6576 205.901 25.349 205.901 25C205.901 24.6536 205.853 24.349 205.757 24.0859C205.66 23.8229 205.519 23.6172 205.331 23.4687C205.144 23.3203 204.913 23.2461 204.64 23.2461C204.369 23.2461 204.14 23.3177 203.952 23.4609C203.767 23.6042 203.625 23.8073 203.526 24.0703C203.427 24.3333 203.378 24.6432 203.378 25ZM210.374 20V28H208.71V20H210.374ZM213.418 28.1133C213.035 28.1133 212.694 28.0469 212.395 27.9141C212.095 27.7786 211.858 27.5794 211.684 27.3164C211.512 27.0508 211.426 26.7201 211.426 26.3242C211.426 25.9909 211.487 25.7109 211.609 25.4844C211.732 25.2578 211.898 25.0755 212.109 24.9375C212.32 24.7995 212.56 24.6953 212.828 24.625C213.099 24.5547 213.383 24.5052 213.68 24.4766C214.029 24.4401 214.31 24.4062 214.523 24.375C214.737 24.3411 214.892 24.2917 214.988 24.2266C215.085 24.1615 215.133 24.0651 215.133 23.9375V23.9141C215.133 23.6667 215.055 23.4753 214.898 23.3398C214.745 23.2044 214.526 23.1367 214.242 23.1367C213.943 23.1367 213.704 23.2031 213.527 23.3359C213.35 23.4661 213.233 23.6302 213.176 23.8281L211.637 23.7031C211.715 23.3385 211.868 23.0234 212.098 22.7578C212.327 22.4896 212.622 22.2839 212.984 22.1406C213.349 21.9948 213.771 21.9219 214.25 21.9219C214.583 21.9219 214.902 21.9609 215.207 22.0391C215.514 22.1172 215.786 22.2383 216.023 22.4023C216.263 22.5664 216.452 22.7773 216.59 23.0352C216.728 23.2904 216.797 23.5964 216.797 23.9531V28H215.219V27.168H215.172C215.076 27.3555 214.947 27.5208 214.785 27.6641C214.624 27.8047 214.43 27.9154 214.203 27.9961C213.977 28.0742 213.715 28.1133 213.418 28.1133ZM213.895 26.9648C214.139 26.9648 214.355 26.9167 214.543 26.8203C214.73 26.7214 214.878 26.5885 214.984 26.4219C215.091 26.2552 215.145 26.0664 215.145 25.8555V25.2188C215.092 25.2526 215.021 25.2839 214.93 25.3125C214.841 25.3385 214.741 25.3633 214.629 25.3867C214.517 25.4076 214.405 25.4271 214.293 25.4453C214.181 25.4609 214.079 25.4753 213.988 25.4883C213.793 25.5169 213.622 25.5625 213.477 25.625C213.331 25.6875 213.217 25.7721 213.137 25.8789C213.056 25.9831 213.016 26.1133 213.016 26.2695C213.016 26.4961 213.098 26.6693 213.262 26.7891C213.428 26.9062 213.639 26.9648 213.895 26.9648ZM221.279 22V23.25H217.666V22H221.279ZM218.486 20.5625H220.15V26.1562C220.15 26.3099 220.174 26.4297 220.221 26.5156C220.268 26.599 220.333 26.6576 220.416 26.6914C220.502 26.7253 220.601 26.7422 220.713 26.7422C220.791 26.7422 220.869 26.7357 220.947 26.7227C221.025 26.707 221.085 26.6953 221.127 26.6875L221.389 27.9258C221.305 27.9518 221.188 27.9818 221.037 28.0156C220.886 28.0521 220.702 28.0742 220.486 28.082C220.085 28.0977 219.734 28.0443 219.432 27.9219C219.132 27.7995 218.899 27.6094 218.732 27.3516C218.566 27.0937 218.484 26.7682 218.486 26.375V20.5625ZM225.033 28.1172C224.416 28.1172 223.885 27.9922 223.439 27.7422C222.997 27.4896 222.656 27.1328 222.416 26.6719C222.176 26.2083 222.057 25.6602 222.057 25.0273C222.057 24.4102 222.176 23.8685 222.416 23.4023C222.656 22.9362 222.993 22.5729 223.428 22.3125C223.865 22.0521 224.378 21.9219 224.967 21.9219C225.363 21.9219 225.731 21.9857 226.072 22.1133C226.416 22.2383 226.715 22.4271 226.971 22.6797C227.229 22.9323 227.429 23.25 227.572 23.6328C227.715 24.013 227.787 24.4583 227.787 24.9687V25.4258H222.721V24.3945H226.221C226.221 24.1549 226.169 23.9427 226.064 23.7578C225.96 23.5729 225.816 23.4284 225.631 23.3242C225.449 23.2174 225.236 23.1641 224.994 23.1641C224.742 23.1641 224.518 23.2227 224.322 23.3398C224.13 23.4544 223.979 23.6094 223.869 23.8047C223.76 23.9974 223.704 24.2122 223.701 24.4492V25.4297C223.701 25.7266 223.756 25.9831 223.865 26.1992C223.977 26.4154 224.135 26.582 224.338 26.6992C224.541 26.8164 224.782 26.875 225.061 26.875C225.245 26.875 225.415 26.849 225.568 26.7969C225.722 26.7448 225.854 26.6667 225.963 26.5625C226.072 26.4583 226.156 26.3307 226.213 26.1797L227.752 26.2812C227.674 26.651 227.514 26.974 227.271 27.25C227.032 27.5234 226.722 27.737 226.342 27.8906C225.964 28.0417 225.528 28.1172 225.033 28.1172Z" fill="white"/>
<path d="M233.293 64.2929C232.902 64.6834 232.902 65.3166 233.293 65.7071L239.657 72.0711C240.047 72.4616 240.681 72.4616 241.071 72.0711C241.462 71.6805 241.462 71.0474 241.071 70.6569L235.414 65L241.071 59.3431C241.462 58.9526 241.462 58.3195 241.071 57.9289C240.681 57.5384 240.047 57.5384 239.657 57.9289L233.293 64.2929ZM255 64H234V66H255V64Z" fill="white"/>
<path d="M264.695 57V49H267.852C268.458 49 268.975 49.1159 269.402 49.3477C269.829 49.5768 270.155 49.8958 270.379 50.3047C270.605 50.7109 270.719 51.1797 270.719 51.7109C270.719 52.2422 270.604 52.7109 270.375 53.1172C270.146 53.5234 269.814 53.8398 269.379 54.0664C268.947 54.293 268.423 54.4062 267.809 54.4062H265.797V53.0508H267.535C267.861 53.0508 268.129 52.9948 268.34 52.8828C268.553 52.7682 268.712 52.6107 268.816 52.4102C268.923 52.207 268.977 51.974 268.977 51.7109C268.977 51.4453 268.923 51.2135 268.816 51.0156C268.712 50.8151 268.553 50.6602 268.34 50.5508C268.126 50.4388 267.855 50.3828 267.527 50.3828H266.387V57H264.695ZM273.336 57.1133C272.953 57.1133 272.612 57.0469 272.313 56.9141C272.013 56.7786 271.776 56.5794 271.602 56.3164C271.43 56.0508 271.344 55.7201 271.344 55.3242C271.344 54.9909 271.405 54.7109 271.527 54.4844C271.65 54.2578 271.816 54.0755 272.027 53.9375C272.238 53.7995 272.478 53.6953 272.746 53.625C273.017 53.5547 273.301 53.5052 273.598 53.4766C273.947 53.4401 274.228 53.4062 274.441 53.375C274.655 53.3411 274.81 53.2917 274.906 53.2266C275.003 53.1615 275.051 53.0651 275.051 52.9375V52.9141C275.051 52.6667 274.973 52.4753 274.816 52.3398C274.663 52.2044 274.444 52.1367 274.16 52.1367C273.861 52.1367 273.622 52.2031 273.445 52.3359C273.268 52.4661 273.151 52.6302 273.094 52.8281L271.555 52.7031C271.633 52.3385 271.786 52.0234 272.016 51.7578C272.245 51.4896 272.54 51.2839 272.902 51.1406C273.267 50.9948 273.689 50.9219 274.168 50.9219C274.501 50.9219 274.82 50.9609 275.125 51.0391C275.432 51.1172 275.704 51.2383 275.941 51.4023C276.181 51.5664 276.37 51.7773 276.508 52.0352C276.646 52.2904 276.715 52.5964 276.715 52.9531V57H275.137V56.168H275.09C274.993 56.3555 274.865 56.5208 274.703 56.6641C274.542 56.8047 274.348 56.9154 274.121 56.9961C273.895 57.0742 273.633 57.1133 273.336 57.1133ZM273.813 55.9648C274.057 55.9648 274.273 55.9167 274.461 55.8203C274.648 55.7214 274.796 55.5885 274.902 55.4219C275.009 55.2552 275.063 55.0664 275.063 54.8555V54.2188C275.01 54.2526 274.939 54.2839 274.848 54.3125C274.759 54.3385 274.659 54.3633 274.547 54.3867C274.435 54.4076 274.323 54.4271 274.211 54.4453C274.099 54.4609 273.997 54.4753 273.906 54.4883C273.711 54.5169 273.54 54.5625 273.395 54.625C273.249 54.6875 273.135 54.7721 273.055 54.8789C272.974 54.9831 272.934 55.1133 272.934 55.2695C272.934 55.4961 273.016 55.6693 273.18 55.7891C273.346 55.9062 273.557 55.9648 273.813 55.9648ZM278.006 57V51H279.619V52.0469H279.682C279.791 51.6745 279.975 51.3932 280.232 51.2031C280.49 51.0104 280.787 50.9141 281.123 50.9141C281.206 50.9141 281.296 50.9193 281.393 50.9297C281.489 50.9401 281.574 50.9544 281.646 50.9727V52.4492C281.568 52.4258 281.46 52.4049 281.322 52.3867C281.184 52.3685 281.058 52.3594 280.943 52.3594C280.699 52.3594 280.48 52.4128 280.287 52.5195C280.097 52.6237 279.946 52.7695 279.834 52.957C279.725 53.1445 279.67 53.3607 279.67 53.6055V57H278.006ZM284.046 57.1133C283.663 57.1133 283.322 57.0469 283.022 56.9141C282.723 56.7786 282.486 56.5794 282.312 56.3164C282.14 56.0508 282.054 55.7201 282.054 55.3242C282.054 54.9909 282.115 54.7109 282.237 54.4844C282.36 54.2578 282.526 54.0755 282.737 53.9375C282.948 53.7995 283.188 53.6953 283.456 53.625C283.727 53.5547 284.011 53.5052 284.308 53.4766C284.657 53.4401 284.938 53.4062 285.151 53.375C285.365 53.3411 285.52 53.2917 285.616 53.2266C285.713 53.1615 285.761 53.0651 285.761 52.9375V52.9141C285.761 52.6667 285.683 52.4753 285.526 52.3398C285.373 52.2044 285.154 52.1367 284.87 52.1367C284.571 52.1367 284.332 52.2031 284.155 52.3359C283.978 52.4661 283.861 52.6302 283.804 52.8281L282.265 52.7031C282.343 52.3385 282.496 52.0234 282.726 51.7578C282.955 51.4896 283.25 51.2839 283.612 51.1406C283.977 50.9948 284.399 50.9219 284.878 50.9219C285.211 50.9219 285.53 50.9609 285.835 51.0391C286.142 51.1172 286.414 51.2383 286.651 51.4023C286.891 51.5664 287.08 51.7773 287.218 52.0352C287.356 52.2904 287.425 52.5964 287.425 52.9531V57H285.847V56.168H285.8C285.703 56.3555 285.575 56.5208 285.413 56.6641C285.252 56.8047 285.058 56.9154 284.831 56.9961C284.604 57.0742 284.343 57.1133 284.046 57.1133ZM284.522 55.9648C284.767 55.9648 284.983 55.9167 285.171 55.8203C285.358 55.7214 285.506 55.5885 285.612 55.4219C285.719 55.2552 285.772 55.0664 285.772 54.8555V54.2188C285.72 54.2526 285.649 54.2839 285.558 54.3125C285.469 54.3385 285.369 54.3633 285.257 54.3867C285.145 54.4076 285.033 54.4271 284.921 54.4453C284.809 54.4609 284.707 54.4753 284.616 54.4883C284.421 54.5169 284.25 54.5625 284.104 54.625C283.959 54.6875 283.845 54.7721 283.765 54.8789C283.684 54.9831 283.644 55.1133 283.644 55.2695C283.644 55.4961 283.726 55.6693 283.89 55.7891C284.056 55.9062 284.267 55.9648 284.522 55.9648ZM288.716 57V51H290.302V52.0586H290.372C290.497 51.707 290.705 51.4297 290.997 51.2266C291.289 51.0234 291.638 50.9219 292.044 50.9219C292.455 50.9219 292.806 51.0247 293.095 51.2305C293.384 51.4336 293.576 51.7096 293.673 52.0586H293.735C293.858 51.7148 294.079 51.4401 294.399 51.2344C294.722 51.026 295.104 50.9219 295.544 50.9219C296.104 50.9219 296.558 51.1003 296.907 51.457C297.259 51.8112 297.435 52.3138 297.435 52.9648V57H295.774V53.293C295.774 52.9596 295.686 52.7096 295.509 52.543C295.332 52.3763 295.11 52.293 294.845 52.293C294.543 52.293 294.307 52.3893 294.138 52.582C293.968 52.7721 293.884 53.0234 293.884 53.3359V57H292.271V53.2578C292.271 52.9635 292.186 52.7292 292.017 52.5547C291.85 52.3802 291.63 52.293 291.356 52.293C291.172 52.293 291.005 52.3398 290.856 52.4336C290.711 52.5247 290.595 52.6536 290.509 52.8203C290.423 52.9844 290.38 53.1771 290.38 53.3984V57H288.716ZM301.483 57.1172C300.866 57.1172 300.335 56.9922 299.89 56.7422C299.447 56.4896 299.106 56.1328 298.866 55.6719C298.627 55.2083 298.507 54.6602 298.507 54.0273C298.507 53.4102 298.627 52.8685 298.866 52.4023C299.106 51.9362 299.443 51.5729 299.878 51.3125C300.315 51.0521 300.828 50.9219 301.417 50.9219C301.813 50.9219 302.181 50.9857 302.522 51.1133C302.866 51.2383 303.166 51.4271 303.421 51.6797C303.679 51.9323 303.879 52.25 304.022 52.6328C304.166 53.013 304.237 53.4583 304.237 53.9687V54.4258H299.171V53.3945H302.671C302.671 53.1549 302.619 52.9427 302.515 52.7578C302.41 52.5729 302.266 52.4284 302.081 52.3242C301.899 52.2174 301.687 52.1641 301.444 52.1641C301.192 52.1641 300.968 52.2227 300.772 52.3398C300.58 52.4544 300.429 52.6094 300.319 52.8047C300.21 52.9974 300.154 53.2122 300.151 53.4492V54.4297C300.151 54.7266 300.206 54.9831 300.315 55.1992C300.427 55.4154 300.585 55.582 300.788 55.6992C300.991 55.8164 301.232 55.875 301.511 55.875C301.696 55.875 301.865 55.849 302.019 55.7969C302.172 55.7448 302.304 55.6667 302.413 55.5625C302.522 55.4583 302.606 55.3307 302.663 55.1797L304.202 55.2812C304.124 55.651 303.964 55.974 303.722 56.25C303.482 56.5234 303.172 56.737 302.792 56.8906C302.414 57.0417 301.978 57.1172 301.483 57.1172ZM308.515 51V52.25H304.901V51H308.515ZM305.722 49.5625H307.386V55.1562C307.386 55.3099 307.409 55.4297 307.456 55.5156C307.503 55.599 307.568 55.6576 307.651 55.6914C307.737 55.7253 307.836 55.7422 307.948 55.7422C308.026 55.7422 308.104 55.7357 308.183 55.7227C308.261 55.707 308.321 55.6953 308.362 55.6875L308.624 56.9258C308.541 56.9518 308.424 56.9818 308.272 57.0156C308.121 57.0521 307.938 57.0742 307.722 57.082C307.321 57.0977 306.969 57.0443 306.667 56.9219C306.368 56.7995 306.134 56.6094 305.968 56.3516C305.801 56.0937 305.719 55.7682 305.722 55.375V49.5625ZM312.269 57.1172C311.651 57.1172 311.12 56.9922 310.675 56.7422C310.232 56.4896 309.891 56.1328 309.651 55.6719C309.412 55.2083 309.292 54.6602 309.292 54.0273C309.292 53.4102 309.412 52.8685 309.651 52.4023C309.891 51.9362 310.228 51.5729 310.663 51.3125C311.101 51.0521 311.614 50.9219 312.202 50.9219C312.598 50.9219 312.966 50.9857 313.308 51.1133C313.651 51.2383 313.951 51.4271 314.206 51.6797C314.464 51.9323 314.664 52.25 314.808 52.6328C314.951 53.013 315.022 53.4583 315.022 53.9687V54.4258H309.956V53.3945H313.456C313.456 53.1549 313.404 52.9427 313.3 52.7578C313.196 52.5729 313.051 52.4284 312.866 52.3242C312.684 52.2174 312.472 52.1641 312.229 52.1641C311.977 52.1641 311.753 52.2227 311.558 52.3398C311.365 52.4544 311.214 52.6094 311.104 52.8047C310.995 52.9974 310.939 53.2122 310.937 53.4492V54.4297C310.937 54.7266 310.991 54.9831 311.101 55.1992C311.213 55.4154 311.37 55.582 311.573 55.6992C311.776 55.8164 312.017 55.875 312.296 55.875C312.481 55.875 312.65 55.849 312.804 55.7969C312.957 55.7448 313.089 55.6667 313.198 55.5625C313.308 55.4583 313.391 55.3307 313.448 55.1797L314.987 55.2812C314.909 55.651 314.749 55.974 314.507 56.25C314.267 56.5234 313.957 56.737 313.577 56.8906C313.2 57.0417 312.763 57.1172 312.269 57.1172ZM316.108 57V51H317.722V52.0469H317.784C317.894 51.6745 318.077 51.3932 318.335 51.2031C318.593 51.0104 318.89 50.9141 319.226 50.9141C319.309 50.9141 319.399 50.9193 319.495 50.9297C319.591 50.9401 319.676 50.9544 319.749 50.9727V52.4492C319.671 52.4258 319.563 52.4049 319.425 52.3867C319.287 52.3685 319.16 52.3594 319.046 52.3594C318.801 52.3594 318.582 52.4128 318.39 52.5195C318.2 52.6237 318.049 52.7695 317.937 52.957C317.827 53.1445 317.772 53.3607 317.772 53.6055V57H316.108ZM325.602 52.7109L324.078 52.8047C324.052 52.6745 323.996 52.5573 323.91 52.4531C323.824 52.3464 323.711 52.2617 323.57 52.1992C323.432 52.1341 323.267 52.1016 323.074 52.1016C322.816 52.1016 322.599 52.1562 322.422 52.2656C322.245 52.3724 322.156 52.5156 322.156 52.6953C322.156 52.8385 322.214 52.9596 322.328 53.0586C322.443 53.1576 322.639 53.237 322.918 53.2969L324.004 53.5156C324.587 53.6354 325.022 53.8281 325.309 54.0937C325.595 54.3594 325.738 54.7083 325.738 55.1406C325.738 55.5339 325.622 55.8789 325.391 56.1758C325.161 56.4727 324.846 56.7044 324.445 56.8711C324.047 57.0352 323.587 57.1172 323.066 57.1172C322.272 57.1172 321.639 56.9518 321.168 56.6211C320.699 56.2878 320.424 55.8346 320.344 55.2617L321.98 55.1758C322.03 55.418 322.15 55.6029 322.34 55.7305C322.53 55.8555 322.773 55.918 323.07 55.918C323.362 55.918 323.596 55.862 323.773 55.75C323.953 55.6354 324.044 55.4883 324.047 55.3086C324.044 55.1576 323.98 55.0339 323.855 54.9375C323.73 54.8385 323.538 54.763 323.277 54.7109L322.238 54.5039C321.652 54.3867 321.216 54.1836 320.93 53.8945C320.646 53.6055 320.504 53.237 320.504 52.7891C320.504 52.4036 320.608 52.0716 320.816 51.793C321.027 51.5143 321.323 51.2995 321.703 51.1484C322.086 50.9974 322.534 50.9219 323.047 50.9219C323.805 50.9219 324.401 51.082 324.836 51.4023C325.273 51.7227 325.529 52.1589 325.602 52.7109ZM330.271 48.625L327.692 58.2031H326.259L328.837 48.625H330.271ZM332.795 49V57H331.104V49H332.795ZM335.819 53.5313V57H334.155V51H335.741V52.0586H335.812C335.944 51.7096 336.167 51.4336 336.479 51.2305C336.792 51.0247 337.171 50.9219 337.616 50.9219C338.033 50.9219 338.396 51.013 338.706 51.1953C339.016 51.3776 339.257 51.638 339.429 51.9766C339.601 52.3125 339.687 52.7135 339.687 53.1797V57H338.022V53.4766C338.025 53.1094 337.931 52.8229 337.741 52.6172C337.551 52.4089 337.289 52.3047 336.956 52.3047C336.732 52.3047 336.534 52.3529 336.362 52.4492C336.193 52.5456 336.06 52.6862 335.964 52.8711C335.87 53.0534 335.822 53.2734 335.819 53.5313ZM340.998 59.25V51H342.639V52.0078H342.713C342.786 51.8464 342.891 51.6823 343.029 51.5156C343.17 51.3464 343.352 51.2057 343.576 51.0938C343.803 50.9792 344.084 50.9219 344.42 50.9219C344.857 50.9219 345.261 51.0365 345.631 51.2656C346.001 51.4922 346.296 51.8346 346.518 52.293C346.739 52.7487 346.85 53.3203 346.85 54.0078C346.85 54.6771 346.742 55.2422 346.525 55.7031C346.312 56.1615 346.02 56.5091 345.65 56.7461C345.283 56.9805 344.872 57.0977 344.416 57.0977C344.093 57.0977 343.818 57.0443 343.592 56.9375C343.368 56.8307 343.184 56.6966 343.041 56.5352C342.898 56.3711 342.788 56.2057 342.713 56.0391H342.662V59.25H340.998ZM342.627 54C342.627 54.3568 342.676 54.668 342.775 54.9336C342.874 55.1992 343.018 55.4062 343.205 55.5547C343.393 55.7005 343.62 55.7734 343.889 55.7734C344.16 55.7734 344.389 55.6992 344.576 55.5508C344.764 55.3997 344.906 55.1914 345.002 54.9258C345.101 54.6576 345.15 54.349 345.15 54C345.15 53.6536 345.102 53.349 345.006 53.0859C344.91 52.8229 344.768 52.6172 344.58 52.4687C344.393 52.3203 344.162 52.2461 343.889 52.2461C343.618 52.2461 343.389 52.3177 343.201 52.4609C343.016 52.6042 342.874 52.8073 342.775 53.0703C342.676 53.3333 342.627 53.6432 342.627 54ZM351.807 54.4453V51H353.471V57H351.873V55.9102H351.811C351.675 56.2617 351.45 56.5443 351.135 56.7578C350.822 56.9714 350.441 57.0781 349.99 57.0781C349.589 57.0781 349.236 56.987 348.932 56.8047C348.627 56.6224 348.389 56.3633 348.217 56.0273C348.048 55.6914 347.962 55.2891 347.959 54.8203V51H349.623V54.5234C349.626 54.8776 349.721 55.1576 349.908 55.3633C350.096 55.569 350.347 55.6719 350.662 55.6719C350.863 55.6719 351.05 55.6263 351.225 55.5352C351.399 55.4414 351.54 55.3034 351.646 55.1211C351.756 54.9388 351.809 54.7135 351.807 54.4453ZM357.993 51V52.25H354.38V51H357.993ZM355.2 49.5625H356.864V55.1562C356.864 55.3099 356.888 55.4297 356.935 55.5156C356.981 55.599 357.047 55.6576 357.13 55.6914C357.216 55.7253 357.315 55.7422 357.427 55.7422C357.505 55.7422 357.583 55.7357 357.661 55.7227C357.739 55.707 357.799 55.6953 357.841 55.6875L358.103 56.9258C358.019 56.9518 357.902 56.9818 357.751 57.0156C357.6 57.0521 357.416 57.0742 357.2 57.082C356.799 57.0977 356.448 57.0443 356.146 56.9219C355.846 56.7995 355.613 56.6094 355.446 56.3516C355.28 56.0937 355.198 55.7682 355.2 55.375V49.5625Z" fill="white"/>
<path d="M265.012 74.98V66.95H266.002V68.105H266.2L266.002 68.336C266.002 67.874 266.152 67.511 266.453 67.247C266.761 66.9757 267.164 66.84 267.663 66.84C268.272 66.84 268.756 67.0417 269.115 67.445C269.482 67.841 269.665 68.3873 269.665 69.084V70.855C269.665 71.317 269.581 71.7167 269.412 72.054C269.251 72.3913 269.02 72.6517 268.719 72.835C268.426 73.0183 268.074 73.11 267.663 73.11C267.172 73.11 266.772 72.9743 266.464 72.703C266.156 72.4317 266.002 72.0687 266.002 71.614L266.2 71.845H265.98L266.002 73.22V74.98H265.012ZM267.333 72.252C267.751 72.252 268.077 72.1273 268.312 71.878C268.554 71.6287 268.675 71.2693 268.675 70.8V69.15C268.675 68.6807 268.554 68.3213 268.312 68.072C268.077 67.8227 267.751 67.698 267.333 67.698C266.93 67.698 266.607 67.8263 266.365 68.083C266.123 68.3397 266.002 68.6953 266.002 69.15V70.8C266.002 71.2547 266.123 71.6103 266.365 71.867C266.607 72.1237 266.93 72.252 267.333 72.252ZM273.368 73.11C272.73 73.11 272.227 72.9487 271.861 72.626C271.494 72.296 271.311 71.8523 271.311 71.295C271.311 70.7303 271.494 70.2867 271.861 69.964C272.227 69.6413 272.722 69.48 273.346 69.48H275.216V68.875C275.216 68.501 275.102 68.215 274.875 68.017C274.655 67.8117 274.339 67.709 273.929 67.709C273.569 67.709 273.269 67.786 273.027 67.94C272.785 68.0867 272.645 68.2883 272.609 68.545H271.619C271.685 68.0243 271.93 67.61 272.356 67.302C272.781 66.994 273.313 66.84 273.951 66.84C274.647 66.84 275.197 67.0197 275.601 67.379C276.004 67.7383 276.206 68.226 276.206 68.842V73H275.238V71.845H275.073L275.238 71.68C275.238 72.12 275.065 72.4683 274.721 72.725C274.383 72.9817 273.932 73.11 273.368 73.11ZM273.61 72.329C274.079 72.329 274.464 72.2117 274.765 71.977C275.065 71.7423 275.216 71.4417 275.216 71.075V70.217H273.368C273.038 70.217 272.777 70.3087 272.587 70.492C272.396 70.6753 272.301 70.9247 272.301 71.24C272.301 71.5773 272.414 71.845 272.642 72.043C272.876 72.2337 273.199 72.329 273.61 72.329ZM278.412 73V66.95H279.38V68.105H279.611L279.292 68.82C279.292 68.1673 279.432 67.676 279.71 67.346C279.996 67.0087 280.418 66.84 280.975 66.84C281.613 66.84 282.119 67.0417 282.493 67.445C282.875 67.841 283.065 68.38 283.065 69.062V69.425H282.075V69.15C282.075 68.6733 281.958 68.3103 281.723 68.061C281.496 67.8043 281.17 67.676 280.744 67.676C280.326 67.676 279.996 67.8043 279.754 68.061C279.52 68.3177 279.402 68.6807 279.402 69.15V73H278.412ZM286.559 73.11C285.921 73.11 285.419 72.9487 285.052 72.626C284.685 72.296 284.502 71.8523 284.502 71.295C284.502 70.7303 284.685 70.2867 285.052 69.964C285.419 69.6413 285.914 69.48 286.537 69.48H288.407V68.875C288.407 68.501 288.293 68.215 288.066 68.017C287.846 67.8117 287.531 67.709 287.12 67.709C286.761 67.709 286.46 67.786 286.218 67.94C285.976 68.0867 285.837 68.2883 285.8 68.545H284.81C284.876 68.0243 285.122 67.61 285.547 67.302C285.972 66.994 286.504 66.84 287.142 66.84C287.839 66.84 288.389 67.0197 288.792 67.379C289.195 67.7383 289.397 68.226 289.397 68.842V73H288.429V71.845H288.264L288.429 71.68C288.429 72.12 288.257 72.4683 287.912 72.725C287.575 72.9817 287.124 73.11 286.559 73.11ZM286.801 72.329C287.27 72.329 287.655 72.2117 287.956 71.977C288.257 71.7423 288.407 71.4417 288.407 71.075V70.217H286.559C286.229 70.217 285.969 70.3087 285.778 70.492C285.587 70.6753 285.492 70.9247 285.492 71.24C285.492 71.5773 285.606 71.845 285.833 72.043C286.068 72.2337 286.39 72.329 286.801 72.329ZM291.109 73V66.95H291.978V67.676H292.176L292.022 67.94C292.022 67.6027 292.11 67.335 292.286 67.137C292.469 66.939 292.715 66.84 293.023 66.84C293.36 66.84 293.62 66.9647 293.804 67.214C293.987 67.4633 294.079 67.8153 294.079 68.27L293.782 67.676H294.244L294.035 67.94C294.035 67.6027 294.126 67.335 294.31 67.137C294.5 66.939 294.75 66.84 295.058 66.84C295.439 66.84 295.732 66.983 295.938 67.269C296.15 67.555 296.257 67.9327 296.257 68.402V73H295.344V68.391C295.344 68.1417 295.289 67.9473 295.179 67.808C295.076 67.6687 294.922 67.599 294.717 67.599C294.519 67.599 294.361 67.6687 294.244 67.808C294.134 67.94 294.079 68.1307 294.079 68.38V73H293.287V68.391C293.287 68.1343 293.228 67.94 293.111 67.808C293.001 67.6687 292.843 67.599 292.638 67.599C292.432 67.599 292.278 67.6687 292.176 67.808C292.073 67.94 292.022 68.1307 292.022 68.38V73H291.109ZM300.092 73.088C299.681 73.088 299.322 73.0257 299.014 72.901C298.713 72.769 298.471 72.5857 298.288 72.351C298.112 72.1163 298.005 71.8377 297.969 71.515H298.959C299.003 71.7277 299.12 71.8963 299.311 72.021C299.509 72.1457 299.769 72.208 300.092 72.208H300.554C300.942 72.208 301.232 72.131 301.423 71.977C301.613 71.8157 301.709 71.603 301.709 71.339C301.709 71.0823 301.621 70.8807 301.445 70.734C301.276 70.58 301.023 70.4773 300.686 70.426L299.872 70.294C299.278 70.1913 298.834 70.008 298.541 69.744C298.255 69.4727 298.112 69.0803 298.112 68.567C298.112 68.0243 298.284 67.6063 298.629 67.313C298.973 67.0123 299.49 66.862 300.18 66.862H300.598C301.177 66.862 301.643 66.9977 301.995 67.269C302.347 67.5403 302.559 67.907 302.633 68.369H301.643C301.599 68.1783 301.489 68.028 301.313 67.918C301.137 67.8007 300.898 67.742 300.598 67.742H300.18C299.806 67.742 299.531 67.8117 299.355 67.951C299.186 68.0903 299.102 68.2993 299.102 68.578C299.102 68.8273 299.175 69.0107 299.322 69.128C299.468 69.2453 299.699 69.3297 300.015 69.381L300.829 69.513C301.481 69.6157 301.954 69.8063 302.248 70.085C302.548 70.3637 302.699 70.767 302.699 71.295C302.699 71.8523 302.519 72.2923 302.16 72.615C301.808 72.9303 301.272 73.088 300.554 73.088H300.092ZM306.599 74.54V73.099C305.91 73.0403 305.367 72.8203 304.971 72.439C304.583 72.0503 304.381 71.5407 304.366 70.91H305.356C305.356 71.2693 305.463 71.5627 305.675 71.79C305.895 72.0173 306.203 72.1567 306.599 72.208V69.326L306.302 69.238C305.752 69.0693 305.327 68.787 305.026 68.391C304.733 67.995 304.586 67.5293 304.586 66.994C304.586 66.4073 304.766 65.9233 305.125 65.542C305.492 65.1607 305.983 64.9407 306.599 64.882V63.43H307.259V64.871C307.868 64.9297 308.356 65.1497 308.722 65.531C309.089 65.9123 309.276 66.4037 309.283 67.005H308.293C308.293 66.6603 308.202 66.3817 308.018 66.169C307.842 65.949 307.589 65.8133 307.259 65.762V68.49L307.699 68.633C308.235 68.8017 308.649 69.0877 308.942 69.491C309.236 69.8943 309.382 70.3673 309.382 70.91C309.382 71.5113 309.188 72.01 308.799 72.406C308.418 72.802 307.905 73.033 307.259 73.099V74.54H306.599ZM307.259 72.208C307.619 72.1493 307.897 72.01 308.095 71.79C308.293 71.57 308.392 71.284 308.392 70.932C308.392 70.6093 308.304 70.327 308.128 70.085C307.96 69.843 307.714 69.6743 307.391 69.579L307.259 69.535V72.208ZM306.599 68.721V65.762C306.277 65.8133 306.024 65.938 305.84 66.136C305.664 66.334 305.576 66.5907 305.576 66.906C305.576 67.2873 305.694 67.61 305.928 67.874C306.163 68.1307 306.5 68.292 306.94 68.358L306.599 68.721ZM311.182 74.98V66.95H312.172V68.105H312.37L312.172 68.336C312.172 67.874 312.322 67.511 312.623 67.247C312.931 66.9757 313.334 66.84 313.833 66.84C314.442 66.84 314.926 67.0417 315.285 67.445C315.652 67.841 315.835 68.3873 315.835 69.084V70.855C315.835 71.317 315.751 71.7167 315.582 72.054C315.421 72.3913 315.19 72.6517 314.889 72.835C314.596 73.0183 314.244 73.11 313.833 73.11C313.342 73.11 312.942 72.9743 312.634 72.703C312.326 72.4317 312.172 72.0687 312.172 71.614L312.37 71.845H312.15L312.172 73.22V74.98H311.182ZM313.503 72.252C313.921 72.252 314.247 72.1273 314.482 71.878C314.724 71.6287 314.845 71.2693 314.845 70.8V69.15C314.845 68.6807 314.724 68.3213 314.482 68.072C314.247 67.8227 313.921 67.698 313.503 67.698C313.1 67.698 312.777 67.8263 312.535 68.083C312.293 68.3397 312.172 68.6953 312.172 69.15V70.8C312.172 71.2547 312.293 71.6103 312.535 71.867C312.777 72.1237 313.1 72.252 313.503 72.252ZM319.538 73.11C318.9 73.11 318.397 72.9487 318.031 72.626C317.664 72.296 317.481 71.8523 317.481 71.295C317.481 70.7303 317.664 70.2867 318.031 69.964C318.397 69.6413 318.892 69.48 319.516 69.48H321.386V68.875C321.386 68.501 321.272 68.215 321.045 68.017C320.825 67.8117 320.509 67.709 320.099 67.709C319.739 67.709 319.439 67.786 319.197 67.94C318.955 68.0867 318.815 68.2883 318.779 68.545H317.789C317.855 68.0243 318.1 67.61 318.526 67.302C318.951 66.994 319.483 66.84 320.121 66.84C320.817 66.84 321.367 67.0197 321.771 67.379C322.174 67.7383 322.376 68.226 322.376 68.842V73H321.408V71.845H321.243L321.408 71.68C321.408 72.12 321.235 72.4683 320.891 72.725C320.553 72.9817 320.102 73.11 319.538 73.11ZM319.78 72.329C320.249 72.329 320.634 72.2117 320.935 71.977C321.235 71.7423 321.386 71.4417 321.386 71.075V70.217H319.538C319.208 70.217 318.947 70.3087 318.757 70.492C318.566 70.6753 318.471 70.9247 318.471 71.24C318.471 71.5773 318.584 71.845 318.812 72.043C319.046 72.2337 319.369 72.329 319.78 72.329ZM327.321 73C326.801 73 326.394 72.8607 326.1 72.582C325.814 72.3033 325.671 71.911 325.671 71.405V67.852H323.966V66.95H325.671V65.245H326.661V66.95H329.081V67.852H326.661V71.405C326.661 71.867 326.881 72.098 327.321 72.098H328.971V73H327.321ZM330.969 73V64.97H331.959V66.95V68.105H332.168L331.959 68.336C331.959 67.8593 332.102 67.4927 332.388 67.236C332.674 66.972 333.07 66.84 333.576 66.84C334.185 66.84 334.669 67.027 335.028 67.401C335.387 67.775 335.567 68.2847 335.567 68.93V73H334.577V69.04C334.577 68.6073 334.46 68.2737 334.225 68.039C333.998 67.797 333.686 67.676 333.29 67.676C332.879 67.676 332.553 67.8043 332.311 68.061C332.076 68.3177 331.959 68.6807 331.959 69.15V73H330.969ZM339.853 73.088C339.369 73.088 338.951 72.9963 338.599 72.813C338.247 72.6297 337.972 72.3657 337.774 72.021C337.583 71.669 337.488 71.2547 337.488 70.778V69.172C337.488 68.688 337.583 68.2737 337.774 67.929C337.972 67.5843 338.247 67.3203 338.599 67.137C338.951 66.9537 339.369 66.862 339.853 66.862C340.337 66.862 340.755 66.9537 341.107 67.137C341.459 67.3203 341.73 67.5843 341.921 67.929C342.119 68.2737 342.218 68.6843 342.218 69.161V70.778C342.218 71.2547 342.119 71.669 341.921 72.021C341.73 72.3657 341.459 72.6297 341.107 72.813C340.755 72.9963 340.337 73.088 339.853 73.088ZM339.853 72.208C340.285 72.208 340.623 72.087 340.865 71.845C341.107 71.603 341.228 71.2473 341.228 70.778V69.172C341.228 68.7027 341.107 68.347 340.865 68.105C340.623 67.863 340.285 67.742 339.853 67.742C339.427 67.742 339.09 67.863 338.841 68.105C338.599 68.347 338.478 68.7027 338.478 69.172V70.778C338.478 71.2473 338.599 71.603 338.841 71.845C339.09 72.087 339.427 72.208 339.853 72.208ZM344.919 74.98V74.078H346.844C347.152 74.078 347.376 74.0083 347.515 73.869C347.662 73.7297 347.735 73.5133 347.735 73.22V72.45L347.757 71.35H347.559L347.746 71.185C347.746 71.625 347.6 71.9733 347.306 72.23C347.013 72.4867 346.621 72.615 346.129 72.615C345.506 72.615 345.015 72.4133 344.655 72.01C344.296 71.5993 344.116 71.0493 344.116 70.36V69.084C344.116 68.3947 344.296 67.8483 344.655 67.445C345.015 67.0417 345.506 66.84 346.129 66.84C346.621 66.84 347.013 66.9683 347.306 67.225C347.6 67.4817 347.746 67.83 347.746 68.27L347.559 68.105H347.746V66.95H348.725V73.22C348.725 73.7627 348.557 74.1917 348.219 74.507C347.889 74.8223 347.427 74.98 346.833 74.98H344.919ZM346.426 71.757C346.837 71.757 347.16 71.6287 347.394 71.372C347.629 71.1153 347.746 70.7597 347.746 70.305V69.15C347.746 68.6953 347.629 68.3397 347.394 68.083C347.16 67.8263 346.837 67.698 346.426 67.698C346.008 67.698 345.682 67.8227 345.447 68.072C345.22 68.3213 345.106 68.6807 345.106 69.15V70.305C345.106 70.7743 345.22 71.1337 345.447 71.383C345.682 71.6323 346.008 71.757 346.426 71.757ZM353.044 73.11C352.567 73.11 352.149 73.0147 351.79 72.824C351.438 72.6333 351.163 72.3657 350.965 72.021C350.774 71.669 350.679 71.262 350.679 70.8V69.15C350.679 68.6807 350.774 68.2737 350.965 67.929C351.163 67.5843 351.438 67.3167 351.79 67.126C352.149 66.9353 352.567 66.84 353.044 66.84C353.521 66.84 353.935 66.9353 354.287 67.126C354.646 67.3167 354.921 67.5843 355.112 67.929C355.31 68.2737 355.409 68.6807 355.409 69.15V70.217H351.647V70.8C351.647 71.2767 351.768 71.6433 352.01 71.9C352.252 72.1493 352.597 72.274 353.044 72.274C353.425 72.274 353.733 72.208 353.968 72.076C354.203 71.9367 354.346 71.7313 354.397 71.46H355.387C355.321 71.966 355.072 72.3693 354.639 72.67C354.214 72.9633 353.682 73.11 353.044 73.11ZM354.441 69.557V69.15C354.441 68.6733 354.32 68.3067 354.078 68.05C353.843 67.7933 353.499 67.665 353.044 67.665C352.597 67.665 352.252 67.7933 352.01 68.05C351.768 68.3067 351.647 68.6733 351.647 69.15V69.469H354.518L354.441 69.557ZM357.352 73V66.95H358.342V68.105H358.551L358.342 68.336C358.342 67.8593 358.485 67.4927 358.771 67.236C359.057 66.972 359.453 66.84 359.959 66.84C360.568 66.84 361.052 67.027 361.411 67.401C361.77 67.775 361.95 68.2847 361.95 68.93V73H360.96V69.04C360.96 68.6073 360.843 68.2773 360.608 68.05C360.381 67.8153 360.069 67.698 359.673 67.698C359.262 67.698 358.936 67.8227 358.694 68.072C358.459 68.3213 358.342 68.6807 358.342 69.15V73H357.352Z" fill="white"/>
</g>
<defs>
<filter id="filter0_d_0_1" x="-4" y="0" width="417" height="257" filterUnits="userSpaceOnUse" color-interpolation-filters="sRGB">
<feFlood flood-opacity="0" result="BackgroundImageFix"/>
<feColorMatrix in="SourceAlpha" type="matrix" values="0 0 0 0 0 0 0 0 0 0 0 0 0 0 0 0 0 0 127 0" result="hardAlpha"/>
<feOffset dy="4"/>
<feGaussianBlur stdDeviation="2"/>
<feComposite in2="hardAlpha" operator="out"/>
<feColorMatrix type="matrix" values="0 0 0 0 0 0 0 0 0 0 0 0 0 0 0 0 0 0 0.25 0"/>
<feBlend mode="normal" in2="BackgroundImageFix" result="effect1_dropShadow_0_1"/>
<feBlend mode="normal" in="SourceGraphic" in2="effect1_dropShadow_0_1" result="shape"/>
</filter>
</defs>
</svg>
