<svg width="409" height="249" viewBox="0 0 409 249" fill="none" xmlns="http://www.w3.org/2000/svg">
<g filter="url(#filter0_d_5_76)">
<path d="M204 42H190C188.939 42 187.922 42.4214 187.172 43.1716C186.421 43.9217 186 44.9391 186 46V78C186 79.0609 186.421 80.0783 187.172 80.8284C187.922 81.5786 188.939 82 190 82H214C215.061 82 216.078 81.5786 216.828 80.8284C217.579 80.0783 218 79.0609 218 78V56M204 42L218 56M204 42V56H218" stroke="#14AE5C" stroke-width="4" stroke-linecap="round" stroke-linejoin="round"/>
<path d="M68 157H52C50.9391 157 49.9217 157.421 49.1716 158.172C48.4214 158.922 48 159.939 48 161V193C48 194.061 48.4214 195.078 49.1716 195.828C49.9217 196.579 50.9391 197 52 197H76C77.0609 197 78.0783 196.579 78.8284 195.828C79.5786 195.078 80 194.061 80 193V169M68 157L80 169M68 157V169H80M72 179H56M72 187H56M60 171H56" stroke="white" stroke-width="4" stroke-linecap="round" stroke-linejoin="round"/>
<path d="M204 157H188C186.939 157 185.922 157.421 185.172 158.172C184.421 158.922 184 159.939 184 161V193C184 194.061 184.421 195.078 185.172 195.828C185.922 196.579 186.939 197 188 197H212C213.061 197 214.078 196.579 214.828 195.828C215.579 195.078 216 194.061 216 193V169M204 157L216 169M204 157V169H216M208 179H192M208 187H192M196 171H192" stroke="white" stroke-width="4" stroke-linecap="round" stroke-linejoin="round"/>
<path d="M135 157H119C117.939 157 116.922 157.421 116.172 158.172C115.421 158.922 115 159.939 115 161V193C115 194.061 115.421 195.078 116.172 195.828C116.922 196.579 117.939 197 119 197H143C144.061 197 145.078 196.579 145.828 195.828C146.579 195.078 147 194.061 147 193V169M135 157L147 169M135 157V169H147M139 179H123M139 187H123M127 171H123" stroke="white" stroke-width="4" stroke-linecap="round" stroke-linejoin="round"/>
<path d="M273 157H257C255.939 157 254.922 157.421 254.172 158.172C253.421 158.922 253 159.939 253 161V193C253 194.061 253.421 195.078 254.172 195.828C254.922 196.579 255.939 197 257 197H281C282.061 197 283.078 196.579 283.828 195.828C284.579 195.078 285 194.061 285 193V169M273 157L285 169M273 157V169H285M277 179H261M277 187H261M265 171H261" stroke="white" stroke-width="4" stroke-linecap="round" stroke-linejoin="round"/>
<path d="M340 157H324C322.939 157 321.922 157.421 321.172 158.172C320.421 158.922 320 159.939 320 161V193C320 194.061 320.421 195.078 321.172 195.828C321.922 196.579 322.939 197 324 197H348C349.061 197 350.078 196.579 350.828 195.828C351.579 195.078 352 194.061 352 193V169M340 157L352 169M340 157V169H352M344 179H328M344 187H328M332 171H328" stroke="white" stroke-width="4" stroke-linecap="round" stroke-linejoin="round"/>
<path d="M189.516 69.0625C189.323 69.0625 189.158 68.9935 189.02 68.8555C188.882 68.7174 188.813 68.5521 188.813 68.3594C188.813 68.1667 188.882 68.0013 189.02 67.8633C189.158 67.7253 189.323 67.6562 189.516 67.6562C189.708 67.6562 189.874 67.7253 190.012 67.8633C190.15 68.0013 190.219 68.1667 190.219 68.3594C190.219 68.487 190.186 68.6042 190.121 68.7109C190.059 68.8177 189.974 68.9036 189.867 68.9687C189.763 69.0313 189.646 69.0625 189.516 69.0625ZM195.967 71.25V68.0781H195.889C195.821 68.1875 195.725 68.3255 195.6 68.4922C195.475 68.6562 195.296 68.8034 195.064 68.9336C194.833 69.0612 194.524 69.125 194.139 69.125C193.639 69.125 193.197 68.9987 192.814 68.7461C192.432 68.4909 192.132 68.1315 191.916 67.668C191.7 67.2018 191.592 66.651 191.592 66.0156C191.592 65.3854 191.7 64.8385 191.916 64.375C192.132 63.9115 192.433 63.5534 192.818 63.3008C193.204 63.0482 193.649 62.9219 194.154 62.9219C194.545 62.9219 194.854 62.987 195.08 63.1172C195.309 63.2448 195.484 63.3906 195.604 63.5547C195.726 63.7161 195.821 63.849 195.889 63.9531H195.998V63H196.889V71.25H195.967ZM194.264 68.2969C194.633 68.2969 194.946 68.2005 195.201 68.0078C195.456 67.8125 195.65 67.543 195.783 67.1992C195.916 66.8529 195.982 66.4531 195.982 66C195.982 65.5521 195.917 65.1602 195.787 64.8242C195.657 64.4857 195.464 64.2227 195.209 64.0352C194.954 63.8451 194.639 63.75 194.264 63.75C193.873 63.75 193.548 63.8503 193.287 64.0508C193.029 64.2487 192.835 64.5182 192.705 64.8594C192.577 65.1979 192.514 65.5781 192.514 66C192.514 66.4271 192.579 66.8151 192.709 67.1641C192.842 67.5104 193.037 67.7865 193.295 67.9922C193.555 68.1953 193.878 68.2969 194.264 68.2969ZM198.576 69V63H199.467V63.9375H199.545C199.67 63.6172 199.872 63.3685 200.15 63.1914C200.429 63.0117 200.764 62.9219 201.154 62.9219C201.55 62.9219 201.88 63.0117 202.143 63.1914C202.408 63.3685 202.615 63.6172 202.764 63.9375H202.826C202.98 63.6276 203.21 63.3815 203.518 63.1992C203.825 63.0143 204.193 62.9219 204.623 62.9219C205.16 62.9219 205.598 63.0898 205.939 63.4258C206.281 63.7591 206.451 64.2786 206.451 64.9844V69H205.529V64.9844C205.529 64.5417 205.408 64.2253 205.166 64.0352C204.924 63.8451 204.639 63.75 204.311 63.75C203.889 63.75 203.562 63.8776 203.33 64.1328C203.098 64.3854 202.982 64.7057 202.982 65.0937V69H202.045V64.8906C202.045 64.5495 201.934 64.2747 201.713 64.0664C201.492 63.8555 201.206 63.75 200.857 63.75C200.618 63.75 200.394 63.8138 200.186 63.9414C199.98 64.069 199.813 64.2461 199.686 64.4727C199.561 64.6966 199.498 64.9557 199.498 65.25V69H198.576ZM210.402 69.125C209.902 69.125 209.461 68.9987 209.078 68.7461C208.695 68.4909 208.396 68.1315 208.18 67.668C207.964 67.2018 207.855 66.651 207.855 66.0156C207.855 65.3854 207.964 64.8385 208.18 64.375C208.396 63.9115 208.697 63.5534 209.082 63.3008C209.467 63.0482 209.913 62.9219 210.418 62.9219C210.809 62.9219 211.117 62.987 211.344 63.1172C211.573 63.2448 211.747 63.3906 211.867 63.5547C211.99 63.7161 212.085 63.849 212.152 63.9531H212.23V61H213.152V69H212.262V68.0781H212.152C212.085 68.1875 211.988 68.3255 211.863 68.4922C211.738 68.6562 211.56 68.8034 211.328 68.9336C211.096 69.0612 210.788 69.125 210.402 69.125ZM210.527 68.2969C210.897 68.2969 211.21 68.2005 211.465 68.0078C211.72 67.8125 211.914 67.543 212.047 67.1992C212.18 66.8529 212.246 66.4531 212.246 66C212.246 65.5521 212.181 65.1602 212.051 64.8242C211.921 64.4857 211.728 64.2227 211.473 64.0352C211.217 63.8451 210.902 63.75 210.527 63.75C210.137 63.75 209.811 63.8503 209.551 64.0508C209.293 64.2487 209.099 64.5182 208.969 64.8594C208.841 65.1979 208.777 65.5781 208.777 66C208.777 66.4271 208.842 66.8151 208.973 67.1641C209.105 67.5104 209.301 67.7865 209.559 67.9922C209.819 68.1953 210.142 68.2969 210.527 68.2969Z" fill="white"/>
<line x1="200.5" y1="93.0076" x2="200" y2="126.008" stroke="white"/>
<line x1="60" y1="125.5" x2="336" y2="125.5" stroke="white"/>
<path d="M59.6464 153.354C59.8417 153.549 60.1583 153.549 60.3536 153.354L63.5355 150.172C63.7308 149.976 63.7308 149.66 63.5355 149.464C63.3403 149.269 63.0237 149.269 62.8284 149.464L60 152.293L57.1716 149.464C56.9763 149.269 56.6597 149.269 56.4645 149.464C56.2692 149.66 56.2692 149.976 56.4645 150.172L59.6464 153.354ZM59.5 126V153H60.5V126H59.5Z" fill="white"/>
<path d="M130.646 153.354C130.842 153.549 131.158 153.549 131.354 153.354L134.536 150.172C134.731 149.976 134.731 149.66 134.536 149.464C134.34 149.269 134.024 149.269 133.828 149.464L131 152.293L128.172 149.464C127.976 149.269 127.66 149.269 127.464 149.464C127.269 149.66 127.269 149.976 127.464 150.172L130.646 153.354ZM130.5 126V153H131.5V126H130.5Z" fill="white"/>
<path d="M199.646 153.354C199.842 153.549 200.158 153.549 200.354 153.354L203.536 150.172C203.731 149.976 203.731 149.66 203.536 149.464C203.34 149.269 203.024 149.269 202.828 149.464L200 152.293L197.172 149.464C196.976 149.269 196.66 149.269 196.464 149.464C196.269 149.66 196.269 149.976 196.464 150.172L199.646 153.354ZM199.5 126V153H200.5V126H199.5Z" fill="white"/>
<path d="M268.646 153.354C268.842 153.549 269.158 153.549 269.354 153.354L272.536 150.172C272.731 149.976 272.731 149.66 272.536 149.464C272.34 149.269 272.024 149.269 271.828 149.464L269 152.293L266.172 149.464C265.976 149.269 265.66 149.269 265.464 149.464C265.269 149.66 265.269 149.976 265.464 150.172L268.646 153.354ZM268.5 126V153H269.5V126H268.5Z" fill="white"/>
<path d="M335.646 151.354C335.842 151.549 336.158 151.549 336.354 151.354L339.536 148.172C339.731 147.976 339.731 147.66 339.536 147.464C339.34 147.269 339.024 147.269 338.828 147.464L336 150.293L333.172 147.464C332.976 147.269 332.66 147.269 332.464 147.464C332.269 147.66 332.269 147.976 332.464 148.172L335.646 151.354ZM335.5 126V151H336.5V126H335.5Z" fill="white"/>
<path d="M178.391 21.3945V20H184.961V21.3945H182.512V28H180.84V21.3945H178.391ZM187.876 28.1172C187.259 28.1172 186.728 27.9922 186.282 27.7422C185.84 27.4896 185.498 27.1328 185.259 26.6719C185.019 26.2083 184.899 25.6602 184.899 25.0273C184.899 24.4102 185.019 23.8685 185.259 23.4023C185.498 22.9362 185.836 22.5729 186.271 22.3125C186.708 22.0521 187.221 21.9219 187.81 21.9219C188.205 21.9219 188.574 21.9857 188.915 22.1133C189.259 22.2383 189.558 22.4271 189.813 22.6797C190.071 22.9323 190.272 23.25 190.415 23.6328C190.558 24.013 190.63 24.4583 190.63 24.9687V25.4258H185.563V24.3945H189.063C189.063 24.1549 189.011 23.9427 188.907 23.7578C188.803 23.5729 188.659 23.4284 188.474 23.3242C188.291 23.2174 188.079 23.1641 187.837 23.1641C187.584 23.1641 187.36 23.2227 187.165 23.3398C186.972 23.4544 186.821 23.6094 186.712 23.8047C186.603 23.9974 186.547 24.2122 186.544 24.4492V25.4297C186.544 25.7266 186.599 25.9831 186.708 26.1992C186.82 26.4154 186.978 26.582 187.181 26.6992C187.384 26.8164 187.625 26.875 187.903 26.875C188.088 26.875 188.257 26.849 188.411 26.7969C188.565 26.7448 188.696 26.6667 188.806 26.5625C188.915 26.4583 188.998 26.3307 189.056 26.1797L190.595 26.2812C190.517 26.651 190.356 26.974 190.114 27.25C189.875 27.5234 189.565 27.737 189.185 27.8906C188.807 28.0417 188.371 28.1172 187.876 28.1172ZM191.716 28V22H193.302V23.0586H193.372C193.497 22.707 193.705 22.4297 193.997 22.2266C194.289 22.0234 194.638 21.9219 195.044 21.9219C195.455 21.9219 195.806 22.0247 196.095 22.2305C196.384 22.4336 196.576 22.7096 196.673 23.0586H196.735C196.858 22.7148 197.079 22.4401 197.399 22.2344C197.722 22.026 198.104 21.9219 198.544 21.9219C199.104 21.9219 199.558 22.1003 199.907 22.457C200.259 22.8112 200.435 23.3138 200.435 23.9648V28H198.774V24.293C198.774 23.9596 198.686 23.7096 198.509 23.543C198.332 23.3763 198.11 23.293 197.845 23.293C197.543 23.293 197.307 23.3893 197.138 23.582C196.968 23.7721 196.884 24.0234 196.884 24.3359V28H195.271V24.2578C195.271 23.9635 195.186 23.7292 195.017 23.5547C194.85 23.3802 194.63 23.293 194.356 23.293C194.172 23.293 194.005 23.3398 193.856 23.4336C193.711 23.5247 193.595 23.6536 193.509 23.8203C193.423 23.9844 193.38 24.1771 193.38 24.3984V28H191.716ZM201.749 30.25V22H203.39V23.0078H203.464C203.537 22.8464 203.642 22.6823 203.78 22.5156C203.921 22.3464 204.103 22.2057 204.327 22.0938C204.554 21.9792 204.835 21.9219 205.171 21.9219C205.608 21.9219 206.012 22.0365 206.382 22.2656C206.752 22.4922 207.047 22.8346 207.269 23.293C207.49 23.7487 207.601 24.3203 207.601 25.0078C207.601 25.6771 207.493 26.2422 207.276 26.7031C207.063 27.1615 206.771 27.5091 206.401 27.7461C206.034 27.9805 205.623 28.0977 205.167 28.0977C204.844 28.0977 204.569 28.0443 204.343 27.9375C204.119 27.8307 203.935 27.6966 203.792 27.5352C203.649 27.3711 203.539 27.2057 203.464 27.0391H203.413V30.25H201.749ZM203.378 25C203.378 25.3568 203.427 25.668 203.526 25.9336C203.625 26.1992 203.769 26.4062 203.956 26.5547C204.144 26.7005 204.371 26.7734 204.64 26.7734C204.91 26.7734 205.14 26.6992 205.327 26.5508C205.515 26.3997 205.657 26.1914 205.753 25.9258C205.852 25.6576 205.901 25.349 205.901 25C205.901 24.6536 205.853 24.349 205.757 24.0859C205.66 23.8229 205.519 23.6172 205.331 23.4687C205.144 23.3203 204.913 23.2461 204.64 23.2461C204.369 23.2461 204.14 23.3177 203.952 23.4609C203.767 23.6042 203.625 23.8073 203.526 24.0703C203.427 24.3333 203.378 24.6432 203.378 25ZM210.374 20V28H208.71V20H210.374ZM213.418 28.1133C213.035 28.1133 212.694 28.0469 212.395 27.9141C212.095 27.7786 211.858 27.5794 211.684 27.3164C211.512 27.0508 211.426 26.7201 211.426 26.3242C211.426 25.9909 211.487 25.7109 211.609 25.4844C211.732 25.2578 211.898 25.0755 212.109 24.9375C212.32 24.7995 212.56 24.6953 212.828 24.625C213.099 24.5547 213.383 24.5052 213.68 24.4766C214.029 24.4401 214.31 24.4062 214.523 24.375C214.737 24.3411 214.892 24.2917 214.988 24.2266C215.085 24.1615 215.133 24.0651 215.133 23.9375V23.9141C215.133 23.6667 215.055 23.4753 214.898 23.3398C214.745 23.2044 214.526 23.1367 214.242 23.1367C213.943 23.1367 213.704 23.2031 213.527 23.3359C213.35 23.4661 213.233 23.6302 213.176 23.8281L211.637 23.7031C211.715 23.3385 211.868 23.0234 212.098 22.7578C212.327 22.4896 212.622 22.2839 212.984 22.1406C213.349 21.9948 213.771 21.9219 214.25 21.9219C214.583 21.9219 214.902 21.9609 215.207 22.0391C215.514 22.1172 215.786 22.2383 216.023 22.4023C216.263 22.5664 216.452 22.7773 216.59 23.0352C216.728 23.2904 216.797 23.5964 216.797 23.9531V28H215.219V27.168H215.172C215.076 27.3555 214.947 27.5208 214.785 27.6641C214.624 27.8047 214.43 27.9154 214.203 27.9961C213.977 28.0742 213.715 28.1133 213.418 28.1133ZM213.895 26.9648C214.139 26.9648 214.355 26.9167 214.543 26.8203C214.73 26.7214 214.878 26.5885 214.984 26.4219C215.091 26.2552 215.145 26.0664 215.145 25.8555V25.2188C215.092 25.2526 215.021 25.2839 214.93 25.3125C214.841 25.3385 214.741 25.3633 214.629 25.3867C214.517 25.4076 214.405 25.4271 214.293 25.4453C214.181 25.4609 214.079 25.4753 213.988 25.4883C213.793 25.5169 213.622 25.5625 213.477 25.625C213.331 25.6875 213.217 25.7721 213.137 25.8789C213.056 25.9831 213.016 26.1133 213.016 26.2695C213.016 26.4961 213.098 26.6693 213.262 26.7891C213.428 26.9062 213.639 26.9648 213.895 26.9648ZM221.279 22V23.25H217.666V22H221.279ZM218.486 20.5625H220.15V26.1562C220.15 26.3099 220.174 26.4297 220.221 26.5156C220.268 26.599 220.333 26.6576 220.416 26.6914C220.502 26.7253 220.601 26.7422 220.713 26.7422C220.791 26.7422 220.869 26.7357 220.947 26.7227C221.025 26.707 221.085 26.6953 221.127 26.6875L221.389 27.9258C221.305 27.9518 221.188 27.9818 221.037 28.0156C220.886 28.0521 220.702 28.0742 220.486 28.082C220.085 28.0977 219.734 28.0443 219.432 27.9219C219.132 27.7995 218.899 27.6094 218.732 27.3516C218.566 27.0937 218.484 26.7682 218.486 26.375V20.5625ZM225.033 28.1172C224.416 28.1172 223.885 27.9922 223.439 27.7422C222.997 27.4896 222.656 27.1328 222.416 26.6719C222.176 26.2083 222.057 25.6602 222.057 25.0273C222.057 24.4102 222.176 23.8685 222.416 23.4023C222.656 22.9362 222.993 22.5729 223.428 22.3125C223.865 22.0521 224.378 21.9219 224.967 21.9219C225.363 21.9219 225.731 21.9857 226.072 22.1133C226.416 22.2383 226.715 22.4271 226.971 22.6797C227.229 22.9323 227.429 23.25 227.572 23.6328C227.715 24.013 227.787 24.4583 227.787 24.9687V25.4258H222.721V24.3945H226.221C226.221 24.1549 226.169 23.9427 226.064 23.7578C225.96 23.5729 225.816 23.4284 225.631 23.3242C225.449 23.2174 225.236 23.1641 224.994 23.1641C224.742 23.1641 224.518 23.2227 224.322 23.3398C224.13 23.4544 223.979 23.6094 223.869 23.8047C223.76 23.9974 223.704 24.2122 223.701 24.4492V25.4297C223.701 25.7266 223.756 25.9831 223.865 26.1992C223.977 26.4154 224.135 26.582 224.338 26.6992C224.541 26.8164 224.782 26.875 225.061 26.875C225.245 26.875 225.415 26.849 225.568 26.7969C225.722 26.7448 225.854 26.6667 225.963 26.5625C226.072 26.4583 226.156 26.3307 226.213 26.1797L227.752 26.2812C227.674 26.651 227.514 26.974 227.271 27.25C227.032 27.5234 226.722 27.737 226.342 27.8906C225.964 28.0417 225.528 28.1172 225.033 28.1172Z" fill="white"/>
<path d="M233.293 64.2929C232.902 64.6834 232.902 65.3166 233.293 65.7071L239.657 72.0711C240.047 72.4616 240.681 72.4616 241.071 72.0711C241.462 71.6805 241.462 71.0474 241.071 70.6569L235.414 65L241.071 59.3431C241.462 58.9526 241.462 58.3195 241.071 57.9289C240.681 57.5384 240.047 57.5384 239.657 57.9289L233.293 64.2929ZM255 64H234V66H255V64Z" fill="white"/>
<path d="M264.695 57V49H267.852C268.458 49 268.975 49.1159 269.402 49.3477C269.829 49.5768 270.155 49.8958 270.379 50.3047C270.605 50.7109 270.719 51.1797 270.719 51.7109C270.719 52.2422 270.604 52.7109 270.375 53.1172C270.146 53.5234 269.814 53.8398 269.379 54.0664C268.947 54.293 268.423 54.4062 267.809 54.4062H265.797V53.0508H267.535C267.861 53.0508 268.129 52.9948 268.34 52.8828C268.553 52.7682 268.712 52.6107 268.816 52.4102C268.923 52.207 268.977 51.974 268.977 51.7109C268.977 51.4453 268.923 51.2135 268.816 51.0156C268.712 50.8151 268.553 50.6602 268.34 50.5508C268.126 50.4388 267.855 50.3828 267.527 50.3828H266.387V57H264.695ZM273.336 57.1133C272.953 57.1133 272.612 57.0469 272.313 56.9141C272.013 56.7786 271.776 56.5794 271.602 56.3164C271.43 56.0508 271.344 55.7201 271.344 55.3242C271.344 54.9909 271.405 54.7109 271.527 54.4844C271.65 54.2578 271.816 54.0755 272.027 53.9375C272.238 53.7995 272.478 53.6953 272.746 53.625C273.017 53.5547 273.301 53.5052 273.598 53.4766C273.947 53.4401 274.228 53.4062 274.441 53.375C274.655 53.3411 274.81 53.2917 274.906 53.2266C275.003 53.1615 275.051 53.0651 275.051 52.9375V52.9141C275.051 52.6667 274.973 52.4753 274.816 52.3398C274.663 52.2044 274.444 52.1367 274.16 52.1367C273.861 52.1367 273.622 52.2031 273.445 52.3359C273.268 52.4661 273.151 52.6302 273.094 52.8281L271.555 52.7031C271.633 52.3385 271.786 52.0234 272.016 51.7578C272.245 51.4896 272.54 51.2839 272.902 51.1406C273.267 50.9948 273.689 50.9219 274.168 50.9219C274.501 50.9219 274.82 50.9609 275.125 51.0391C275.432 51.1172 275.704 51.2383 275.941 51.4023C276.181 51.5664 276.37 51.7773 276.508 52.0352C276.646 52.2904 276.715 52.5964 276.715 52.9531V57H275.137V56.168H275.09C274.993 56.3555 274.865 56.5208 274.703 56.6641C274.542 56.8047 274.348 56.9154 274.121 56.9961C273.895 57.0742 273.633 57.1133 273.336 57.1133ZM273.813 55.9648C274.057 55.9648 274.273 55.9167 274.461 55.8203C274.648 55.7214 274.796 55.5885 274.902 55.4219C275.009 55.2552 275.063 55.0664 275.063 54.8555V54.2188C275.01 54.2526 274.939 54.2839 274.848 54.3125C274.759 54.3385 274.659 54.3633 274.547 54.3867C274.435 54.4076 274.323 54.4271 274.211 54.4453C274.099 54.4609 273.997 54.4753 273.906 54.4883C273.711 54.5169 273.54 54.5625 273.395 54.625C273.249 54.6875 273.135 54.7721 273.055 54.8789C272.974 54.9831 272.934 55.1133 272.934 55.2695C272.934 55.4961 273.016 55.6693 273.18 55.7891C273.346 55.9062 273.557 55.9648 273.813 55.9648ZM278.006 57V51H279.619V52.0469H279.682C279.791 51.6745 279.975 51.3932 280.232 51.2031C280.49 51.0104 280.787 50.9141 281.123 50.9141C281.206 50.9141 281.296 50.9193 281.393 50.9297C281.489 50.9401 281.574 50.9544 281.646 50.9727V52.4492C281.568 52.4258 281.46 52.4049 281.322 52.3867C281.184 52.3685 281.058 52.3594 280.943 52.3594C280.699 52.3594 280.48 52.4128 280.287 52.5195C280.097 52.6237 279.946 52.7695 279.834 52.957C279.725 53.1445 279.67 53.3607 279.67 53.6055V57H278.006ZM284.046 57.1133C283.663 57.1133 283.322 57.0469 283.022 56.9141C282.723 56.7786 282.486 56.5794 282.312 56.3164C282.14 56.0508 282.054 55.7201 282.054 55.3242C282.054 54.9909 282.115 54.7109 282.237 54.4844C282.36 54.2578 282.526 54.0755 282.737 53.9375C282.948 53.7995 283.188 53.6953 283.456 53.625C283.727 53.5547 284.011 53.5052 284.308 53.4766C284.657 53.4401 284.938 53.4062 285.151 53.375C285.365 53.3411 285.52 53.2917 285.616 53.2266C285.713 53.1615 285.761 53.0651 285.761 52.9375V52.9141C285.761 52.6667 285.683 52.4753 285.526 52.3398C285.373 52.2044 285.154 52.1367 284.87 52.1367C284.571 52.1367 284.332 52.2031 284.155 52.3359C283.978 52.4661 283.861 52.6302 283.804 52.8281L282.265 52.7031C282.343 52.3385 282.496 52.0234 282.726 51.7578C282.955 51.4896 283.25 51.2839 283.612 51.1406C283.977 50.9948 284.399 50.9219 284.878 50.9219C285.211 50.9219 285.53 50.9609 285.835 51.0391C286.142 51.1172 286.414 51.2383 286.651 51.4023C286.891 51.5664 287.08 51.7773 287.218 52.0352C287.356 52.2904 287.425 52.5964 287.425 52.9531V57H285.847V56.168H285.8C285.703 56.3555 285.575 56.5208 285.413 56.6641C285.252 56.8047 285.058 56.9154 284.831 56.9961C284.604 57.0742 284.343 57.1133 284.046 57.1133ZM284.522 55.9648C284.767 55.9648 284.983 55.9167 285.171 55.8203C285.358 55.7214 285.506 55.5885 285.612 55.4219C285.719 55.2552 285.772 55.0664 285.772 54.8555V54.2188C285.72 54.2526 285.649 54.2839 285.558 54.3125C285.469 54.3385 285.369 54.3633 285.257 54.3867C285.145 54.4076 285.033 54.4271 284.921 54.4453C284.809 54.4609 284.707 54.4753 284.616 54.4883C284.421 54.5169 284.25 54.5625 284.104 54.625C283.959 54.6875 283.845 54.7721 283.765 54.8789C283.684 54.9831 283.644 55.1133 283.644 55.2695C283.644 55.4961 283.726 55.6693 283.89 55.7891C284.056 55.9062 284.267 55.9648 284.522 55.9648ZM288.716 57V51H290.302V52.0586H290.372C290.497 51.707 290.705 51.4297 290.997 51.2266C291.289 51.0234 291.638 50.9219 292.044 50.9219C292.455 50.9219 292.806 51.0247 293.095 51.2305C293.384 51.4336 293.576 51.7096 293.673 52.0586H293.735C293.858 51.7148 294.079 51.4401 294.399 51.2344C294.722 51.026 295.104 50.9219 295.544 50.9219C296.104 50.9219 296.558 51.1003 296.907 51.457C297.259 51.8112 297.435 52.3138 297.435 52.9648V57H295.774V53.293C295.774 52.9596 295.686 52.7096 295.509 52.543C295.332 52.3763 295.11 52.293 294.845 52.293C294.543 52.293 294.307 52.3893 294.138 52.582C293.968 52.7721 293.884 53.0234 293.884 53.3359V57H292.271V53.2578C292.271 52.9635 292.186 52.7292 292.017 52.5547C291.85 52.3802 291.63 52.293 291.356 52.293C291.172 52.293 291.005 52.3398 290.856 52.4336C290.711 52.5247 290.595 52.6536 290.509 52.8203C290.423 52.9844 290.38 53.1771 290.38 53.3984V57H288.716ZM301.483 57.1172C300.866 57.1172 300.335 56.9922 299.89 56.7422C299.447 56.4896 299.106 56.1328 298.866 55.6719C298.627 55.2083 298.507 54.6602 298.507 54.0273C298.507 53.4102 298.627 52.8685 298.866 52.4023C299.106 51.9362 299.443 51.5729 299.878 51.3125C300.315 51.0521 300.828 50.9219 301.417 50.9219C301.813 50.9219 302.181 50.9857 302.522 51.1133C302.866 51.2383 303.166 51.4271 303.421 51.6797C303.679 51.9323 303.879 52.25 304.022 52.6328C304.166 53.013 304.237 53.4583 304.237 53.9687V54.4258H299.171V53.3945H302.671C302.671 53.1549 302.619 52.9427 302.515 52.7578C302.41 52.5729 302.266 52.4284 302.081 52.3242C301.899 52.2174 301.687 52.1641 301.444 52.1641C301.192 52.1641 300.968 52.2227 300.772 52.3398C300.58 52.4544 300.429 52.6094 300.319 52.8047C300.21 52.9974 300.154 53.2122 300.151 53.4492V54.4297C300.151 54.7266 300.206 54.9831 300.315 55.1992C300.427 55.4154 300.585 55.582 300.788 55.6992C300.991 55.8164 301.232 55.875 301.511 55.875C301.696 55.875 301.865 55.849 302.019 55.7969C302.172 55.7448 302.304 55.6667 302.413 55.5625C302.522 55.4583 302.606 55.3307 302.663 55.1797L304.202 55.2812C304.124 55.651 303.964 55.974 303.722 56.25C303.482 56.5234 303.172 56.737 302.792 56.8906C302.414 57.0417 301.978 57.1172 301.483 57.1172ZM308.515 51V52.25H304.901V51H308.515ZM305.722 49.5625H307.386V55.1562C307.386 55.3099 307.409 55.4297 307.456 55.5156C307.503 55.599 307.568 55.6576 307.651 55.6914C307.737 55.7253 307.836 55.7422 307.948 55.7422C308.026 55.7422 308.104 55.7357 308.183 55.7227C308.261 55.707 308.321 55.6953 308.362 55.6875L308.624 56.9258C308.541 56.9518 308.424 56.9818 308.272 57.0156C308.121 57.0521 307.938 57.0742 307.722 57.082C307.321 57.0977 306.969 57.0443 306.667 56.9219C306.368 56.7995 306.134 56.6094 305.968 56.3516C305.801 56.0937 305.719 55.7682 305.722 55.375V49.5625ZM312.269 57.1172C311.651 57.1172 311.12 56.9922 310.675 56.7422C310.232 56.4896 309.891 56.1328 309.651 55.6719C309.412 55.2083 309.292 54.6602 309.292 54.0273C309.292 53.4102 309.412 52.8685 309.651 52.4023C309.891 51.9362 310.228 51.5729 310.663 51.3125C311.101 51.0521 311.614 50.9219 312.202 50.9219C312.598 50.9219 312.966 50.9857 313.308 51.1133C313.651 51.2383 313.951 51.4271 314.206 51.6797C314.464 51.9323 314.664 52.25 314.808 52.6328C314.951 53.013 315.022 53.4583 315.022 53.9687V54.4258H309.956V53.3945H313.456C313.456 53.1549 313.404 52.9427 313.3 52.7578C313.196 52.5729 313.051 52.4284 312.866 52.3242C312.684 52.2174 312.472 52.1641 312.229 52.1641C311.977 52.1641 311.753 52.2227 311.558 52.3398C311.365 52.4544 311.214 52.6094 311.104 52.8047C310.995 52.9974 310.939 53.2122 310.937 53.4492V54.4297C310.937 54.7266 310.991 54.9831 311.101 55.1992C311.213 55.4154 311.37 55.582 311.573 55.6992C311.776 55.8164 312.017 55.875 312.296 55.875C312.481 55.875 312.65 55.849 312.804 55.7969C312.957 55.7448 313.089 55.6667 313.198 55.5625C313.308 55.4583 313.391 55.3307 313.448 55.1797L314.987 55.2812C314.909 55.651 314.749 55.974 314.507 56.25C314.267 56.5234 313.957 56.737 313.577 56.8906C313.2 57.0417 312.763 57.1172 312.269 57.1172ZM316.108 57V51H317.722V52.0469H317.784C317.894 51.6745 318.077 51.3932 318.335 51.2031C318.593 51.0104 318.89 50.9141 319.226 50.9141C319.309 50.9141 319.399 50.9193 319.495 50.9297C319.591 50.9401 319.676 50.9544 319.749 50.9727V52.4492C319.671 52.4258 319.563 52.4049 319.425 52.3867C319.287 52.3685 319.16 52.3594 319.046 52.3594C318.801 52.3594 318.582 52.4128 318.39 52.5195C318.2 52.6237 318.049 52.7695 317.937 52.957C317.827 53.1445 317.772 53.3607 317.772 53.6055V57H316.108ZM325.602 52.7109L324.078 52.8047C324.052 52.6745 323.996 52.5573 323.91 52.4531C323.824 52.3464 323.711 52.2617 323.57 52.1992C323.432 52.1341 323.267 52.1016 323.074 52.1016C322.816 52.1016 322.599 52.1562 322.422 52.2656C322.245 52.3724 322.156 52.5156 322.156 52.6953C322.156 52.8385 322.214 52.9596 322.328 53.0586C322.443 53.1576 322.639 53.237 322.918 53.2969L324.004 53.5156C324.587 53.6354 325.022 53.8281 325.309 54.0937C325.595 54.3594 325.738 54.7083 325.738 55.1406C325.738 55.5339 325.622 55.8789 325.391 56.1758C325.161 56.4727 324.846 56.7044 324.445 56.8711C324.047 57.0352 323.587 57.1172 323.066 57.1172C322.272 57.1172 321.639 56.9518 321.168 56.6211C320.699 56.2878 320.424 55.8346 320.344 55.2617L321.98 55.1758C322.03 55.418 322.15 55.6029 322.34 55.7305C322.53 55.8555 322.773 55.918 323.07 55.918C323.362 55.918 323.596 55.862 323.773 55.75C323.953 55.6354 324.044 55.4883 324.047 55.3086C324.044 55.1576 323.98 55.0339 323.855 54.9375C323.73 54.8385 323.538 54.763 323.277 54.7109L322.238 54.5039C321.652 54.3867 321.216 54.1836 320.93 53.8945C320.646 53.6055 320.504 53.237 320.504 52.7891C320.504 52.4036 320.608 52.0716 320.816 51.793C321.027 51.5143 321.323 51.2995 321.703 51.1484C322.086 50.9974 322.534 50.9219 323.047 50.9219C323.805 50.9219 324.401 51.082 324.836 51.4023C325.273 51.7227 325.529 52.1589 325.602 52.7109ZM330.271 48.625L327.692 58.2031H326.259L328.837 48.625H330.271ZM332.795 49V57H331.104V49H332.795ZM335.819 53.5313V57H334.155V51H335.741V52.0586H335.812C335.944 51.7096 336.167 51.4336 336.479 51.2305C336.792 51.0247 337.171 50.9219 337.616 50.9219C338.033 50.9219 338.396 51.013 338.706 51.1953C339.016 51.3776 339.257 51.638 339.429 51.9766C339.601 52.3125 339.687 52.7135 339.687 53.1797V57H338.022V53.4766C338.025 53.1094 337.931 52.8229 337.741 52.6172C337.551 52.4089 337.289 52.3047 336.956 52.3047C336.732 52.3047 336.534 52.3529 336.362 52.4492C336.193 52.5456 336.06 52.6862 335.964 52.8711C335.87 53.0534 335.822 53.2734 335.819 53.5313ZM340.998 59.25V51H342.639V52.0078H342.713C342.786 51.8464 342.891 51.6823 343.029 51.5156C343.17 51.3464 343.352 51.2057 343.576 51.0938C343.803 50.9792 344.084 50.9219 344.42 50.9219C344.857 50.9219 345.261 51.0365 345.631 51.2656C346.001 51.4922 346.296 51.8346 346.518 52.293C346.739 52.7487 346.85 53.3203 346.85 54.0078C346.85 54.6771 346.742 55.2422 346.525 55.7031C346.312 56.1615 346.02 56.5091 345.65 56.7461C345.283 56.9805 344.872 57.0977 344.416 57.0977C344.093 57.0977 343.818 57.0443 343.592 56.9375C343.368 56.8307 343.184 56.6966 343.041 56.5352C342.898 56.3711 342.788 56.2057 342.713 56.0391H342.662V59.25H340.998ZM342.627 54C342.627 54.3568 342.676 54.668 342.775 54.9336C342.874 55.1992 343.018 55.4062 343.205 55.5547C343.393 55.7005 343.62 55.7734 343.889 55.7734C344.16 55.7734 344.389 55.6992 344.576 55.5508C344.764 55.3997 344.906 55.1914 345.002 54.9258C345.101 54.6576 345.15 54.349 345.15 54C345.15 53.6536 345.102 53.349 345.006 53.0859C344.91 52.8229 344.768 52.6172 344.58 52.4687C344.393 52.3203 344.162 52.2461 343.889 52.2461C343.618 52.2461 343.389 52.3177 343.201 52.4609C343.016 52.6042 342.874 52.8073 342.775 53.0703C342.676 53.3333 342.627 53.6432 342.627 54ZM351.807 54.4453V51H353.471V57H351.873V55.9102H351.811C351.675 56.2617 351.45 56.5443 351.135 56.7578C350.822 56.9714 350.441 57.0781 349.99 57.0781C349.589 57.0781 349.236 56.987 348.932 56.8047C348.627 56.6224 348.389 56.3633 348.217 56.0273C348.048 55.6914 347.962 55.2891 347.959 54.8203V51H349.623V54.5234C349.626 54.8776 349.721 55.1576 349.908 55.3633C350.096 55.569 350.347 55.6719 350.662 55.6719C350.863 55.6719 351.05 55.6263 351.225 55.5352C351.399 55.4414 351.54 55.3034 351.646 55.1211C351.756 54.9388 351.809 54.7135 351.807 54.4453ZM357.993 51V52.25H354.38V51H357.993ZM355.2 49.5625H356.864V55.1562C356.864 55.3099 356.888 55.4297 356.935 55.5156C356.981 55.599 357.047 55.6576 357.13 55.6914C357.216 55.7253 357.315 55.7422 357.427 55.7422C357.505 55.7422 357.583 55.7357 357.661 55.7227C357.739 55.707 357.799 55.6953 357.841 55.6875L358.103 56.9258C358.019 56.9518 357.902 56.9818 357.751 57.0156C357.6 57.0521 357.416 57.0742 357.2 57.082C356.799 57.0977 356.448 57.0443 356.146 56.9219C355.846 56.7995 355.613 56.6094 355.446 56.3516C355.28 56.0937 355.198 55.7682 355.2 55.375V49.5625Z" fill="white"/>
<path d="M50.8281 216V215.297L53.4687 212.406C53.7786 212.068 54.0339 211.773 54.2344 211.523C54.4349 211.271 54.5833 211.034 54.6797 210.812C54.7786 210.589 54.8281 210.354 54.8281 210.109C54.8281 209.828 54.7604 209.585 54.625 209.379C54.4922 209.173 54.3099 209.014 54.0781 208.902C53.8464 208.79 53.5859 208.734 53.2969 208.734C52.9896 208.734 52.7214 208.798 52.4922 208.926C52.2656 209.051 52.0898 209.227 51.9648 209.453C51.8424 209.68 51.7813 209.945 51.7813 210.25H50.8594C50.8594 209.781 50.9674 209.37 51.1836 209.016C51.3997 208.661 51.694 208.385 52.0664 208.187C52.4414 207.99 52.862 207.891 53.3281 207.891C53.7969 207.891 54.2122 207.99 54.5742 208.187C54.9362 208.385 55.2201 208.652 55.4258 208.988C55.6315 209.324 55.7344 209.698 55.7344 210.109C55.7344 210.404 55.681 210.691 55.5742 210.973C55.4701 211.251 55.2878 211.562 55.0273 211.906C54.7695 212.247 54.4115 212.664 53.9531 213.156L52.1563 215.078V215.141H55.875V216H50.8281ZM60.0977 216.109C59.5091 216.109 59.0078 215.949 58.5938 215.629C58.1797 215.306 57.8633 214.839 57.6445 214.227C57.4258 213.612 57.3164 212.87 57.3164 212C57.3164 211.135 57.4258 210.397 57.6445 209.785C57.8659 209.171 58.1836 208.702 58.5977 208.379C59.0143 208.053 59.5143 207.891 60.0977 207.891C60.681 207.891 61.1797 208.053 61.5938 208.379C62.0104 208.702 62.3281 209.171 62.5469 209.785C62.7682 210.397 62.8789 211.135 62.8789 212C62.8789 212.87 62.7695 213.612 62.5508 214.227C62.332 214.839 62.0156 215.306 61.6016 215.629C61.1875 215.949 60.6862 216.109 60.0977 216.109ZM60.0977 215.25C60.681 215.25 61.1341 214.969 61.457 214.406C61.7799 213.844 61.9414 213.042 61.9414 212C61.9414 211.307 61.8672 210.717 61.7188 210.23C61.5729 209.743 61.362 209.372 61.0859 209.117C60.8125 208.862 60.4831 208.734 60.0977 208.734C59.5195 208.734 59.0677 209.02 58.7422 209.59C58.4167 210.158 58.2539 210.961 58.2539 212C58.2539 212.693 58.3268 213.281 58.4727 213.766C58.6185 214.25 58.8281 214.618 59.1016 214.871C59.3776 215.124 59.7096 215.25 60.0977 215.25ZM64.3633 216V215.297L67.0039 212.406C67.3138 212.068 67.569 211.773 67.7695 211.523C67.9701 211.271 68.1185 211.034 68.2148 210.812C68.3138 210.589 68.3633 210.354 68.3633 210.109C68.3633 209.828 68.2956 209.585 68.1602 209.379C68.0273 209.173 67.8451 209.014 67.6133 208.902C67.3815 208.79 67.1211 208.734 66.832 208.734C66.5247 208.734 66.2565 208.798 66.0273 208.926C65.8008 209.051 65.625 209.227 65.5 209.453C65.3776 209.68 65.3164 209.945 65.3164 210.25H64.3945C64.3945 209.781 64.5026 209.37 64.7188 209.016C64.9349 208.661 65.2292 208.385 65.6016 208.187C65.9766 207.99 66.3971 207.891 66.8633 207.891C67.332 207.891 67.7474 207.99 68.1094 208.187C68.4714 208.385 68.7552 208.652 68.9609 208.988C69.1667 209.324 69.2695 209.698 69.2695 210.109C69.2695 210.404 69.2161 210.691 69.1094 210.973C69.0052 211.251 68.8229 211.562 68.5625 211.906C68.3047 212.247 67.9466 212.664 67.4883 213.156L65.6914 215.078V215.141H69.4102V216H64.3633ZM73.6328 216.109C73.0443 216.109 72.543 215.949 72.1289 215.629C71.7148 215.306 71.3984 214.839 71.1797 214.227C70.9609 213.612 70.8516 212.87 70.8516 212C70.8516 211.135 70.9609 210.397 71.1797 209.785C71.401 209.171 71.7188 208.702 72.1328 208.379C72.5495 208.053 73.0495 207.891 73.6328 207.891C74.2161 207.891 74.7148 208.053 75.1289 208.379C75.5456 208.702 75.8633 209.171 76.082 209.785C76.3034 210.397 76.4141 211.135 76.4141 212C76.4141 212.87 76.3047 213.612 76.0859 214.227C75.8672 214.839 75.5508 215.306 75.1367 215.629C74.7227 215.949 74.2214 216.109 73.6328 216.109ZM73.6328 215.25C74.2161 215.25 74.6693 214.969 74.9922 214.406C75.3151 213.844 75.4766 213.042 75.4766 212C75.4766 211.307 75.4023 210.717 75.2539 210.23C75.1081 209.743 74.8971 209.372 74.6211 209.117C74.3477 208.862 74.0182 208.734 73.6328 208.734C73.0547 208.734 72.6029 209.02 72.2773 209.59C71.9518 210.158 71.7891 210.961 71.7891 212C71.7891 212.693 71.862 213.281 72.0078 213.766C72.1536 214.25 72.3633 214.618 72.6367 214.871C72.9128 215.124 73.2448 215.25 73.6328 215.25Z" fill="white"/>
<path d="M322.828 216V215.297L325.469 212.406C325.779 212.068 326.034 211.773 326.234 211.523C326.435 211.271 326.583 211.034 326.68 210.812C326.779 210.589 326.828 210.354 326.828 210.109C326.828 209.828 326.76 209.585 326.625 209.379C326.492 209.173 326.31 209.014 326.078 208.902C325.846 208.79 325.586 208.734 325.297 208.734C324.99 208.734 324.721 208.798 324.492 208.926C324.266 209.051 324.09 209.227 323.965 209.453C323.842 209.68 323.781 209.945 323.781 210.25H322.859C322.859 209.781 322.967 209.37 323.184 209.016C323.4 208.661 323.694 208.385 324.066 208.187C324.441 207.99 324.862 207.891 325.328 207.891C325.797 207.891 326.212 207.99 326.574 208.187C326.936 208.385 327.22 208.652 327.426 208.988C327.632 209.324 327.734 209.698 327.734 210.109C327.734 210.404 327.681 210.691 327.574 210.973C327.47 211.251 327.288 211.562 327.027 211.906C326.77 212.247 326.411 212.664 325.953 213.156L324.156 215.078V215.141H327.875V216H322.828ZM332.098 216.109C331.509 216.109 331.008 215.949 330.594 215.629C330.18 215.306 329.863 214.839 329.645 214.227C329.426 213.612 329.316 212.87 329.316 212C329.316 211.135 329.426 210.397 329.645 209.785C329.866 209.171 330.184 208.702 330.598 208.379C331.014 208.053 331.514 207.891 332.098 207.891C332.681 207.891 333.18 208.053 333.594 208.379C334.01 208.702 334.328 209.171 334.547 209.785C334.768 210.397 334.879 211.135 334.879 212C334.879 212.87 334.77 213.612 334.551 214.227C334.332 214.839 334.016 215.306 333.602 215.629C333.188 215.949 332.686 216.109 332.098 216.109ZM332.098 215.25C332.681 215.25 333.134 214.969 333.457 214.406C333.78 213.844 333.941 213.042 333.941 212C333.941 211.307 333.867 210.717 333.719 210.23C333.573 209.743 333.362 209.372 333.086 209.117C332.813 208.862 332.483 208.734 332.098 208.734C331.52 208.734 331.068 209.02 330.742 209.59C330.417 210.158 330.254 210.961 330.254 212C330.254 212.693 330.327 213.281 330.473 213.766C330.618 214.25 330.828 214.618 331.102 214.871C331.378 215.124 331.71 215.25 332.098 215.25ZM336.363 216V215.297L339.004 212.406C339.314 212.068 339.569 211.773 339.77 211.523C339.97 211.271 340.118 211.034 340.215 210.812C340.314 210.589 340.363 210.354 340.363 210.109C340.363 209.828 340.296 209.585 340.16 209.379C340.027 209.173 339.845 209.014 339.613 208.902C339.382 208.79 339.121 208.734 338.832 208.734C338.525 208.734 338.257 208.798 338.027 208.926C337.801 209.051 337.625 209.227 337.5 209.453C337.378 209.68 337.316 209.945 337.316 210.25H336.395C336.395 209.781 336.503 209.37 336.719 209.016C336.935 208.661 337.229 208.385 337.602 208.187C337.977 207.99 338.397 207.891 338.863 207.891C339.332 207.891 339.747 207.99 340.109 208.187C340.471 208.385 340.755 208.652 340.961 208.988C341.167 209.324 341.27 209.698 341.27 210.109C341.27 210.404 341.216 210.691 341.109 210.973C341.005 211.251 340.823 211.562 340.562 211.906C340.305 212.247 339.947 212.664 339.488 213.156L337.691 215.078V215.141H341.41V216H336.363ZM342.664 214.359V213.562L346.18 208H346.758V209.234H346.367L343.711 213.437V213.5H348.445V214.359H342.664ZM346.43 216V214.117V213.746V208H347.352V216H346.43Z" fill="white"/>
<path d="M255.828 216V215.297L258.469 212.406C258.779 212.068 259.034 211.773 259.234 211.523C259.435 211.271 259.583 211.034 259.68 210.812C259.779 210.589 259.828 210.354 259.828 210.109C259.828 209.828 259.76 209.585 259.625 209.379C259.492 209.173 259.31 209.014 259.078 208.902C258.846 208.79 258.586 208.734 258.297 208.734C257.99 208.734 257.721 208.798 257.492 208.926C257.266 209.051 257.09 209.227 256.965 209.453C256.842 209.68 256.781 209.945 256.781 210.25H255.859C255.859 209.781 255.967 209.37 256.184 209.016C256.4 208.661 256.694 208.385 257.066 208.187C257.441 207.99 257.862 207.891 258.328 207.891C258.797 207.891 259.212 207.99 259.574 208.187C259.936 208.385 260.22 208.652 260.426 208.988C260.632 209.324 260.734 209.698 260.734 210.109C260.734 210.404 260.681 210.691 260.574 210.973C260.47 211.251 260.288 211.562 260.027 211.906C259.77 212.247 259.411 212.664 258.953 213.156L257.156 215.078V215.141H260.875V216H255.828ZM265.098 216.109C264.509 216.109 264.008 215.949 263.594 215.629C263.18 215.306 262.863 214.839 262.645 214.227C262.426 213.612 262.316 212.87 262.316 212C262.316 211.135 262.426 210.397 262.645 209.785C262.866 209.171 263.184 208.702 263.598 208.379C264.014 208.053 264.514 207.891 265.098 207.891C265.681 207.891 266.18 208.053 266.594 208.379C267.01 208.702 267.328 209.171 267.547 209.785C267.768 210.397 267.879 211.135 267.879 212C267.879 212.87 267.77 213.612 267.551 214.227C267.332 214.839 267.016 215.306 266.602 215.629C266.188 215.949 265.686 216.109 265.098 216.109ZM265.098 215.25C265.681 215.25 266.134 214.969 266.457 214.406C266.78 213.844 266.941 213.042 266.941 212C266.941 211.307 266.867 210.717 266.719 210.23C266.573 209.743 266.362 209.372 266.086 209.117C265.813 208.862 265.483 208.734 265.098 208.734C264.52 208.734 264.068 209.02 263.742 209.59C263.417 210.158 263.254 210.961 263.254 212C263.254 212.693 263.327 213.281 263.473 213.766C263.618 214.25 263.828 214.618 264.102 214.871C264.378 215.124 264.71 215.25 265.098 215.25ZM269.363 216V215.297L272.004 212.406C272.314 212.068 272.569 211.773 272.77 211.523C272.97 211.271 273.118 211.034 273.215 210.812C273.314 210.589 273.363 210.354 273.363 210.109C273.363 209.828 273.296 209.585 273.16 209.379C273.027 209.173 272.845 209.014 272.613 208.902C272.382 208.79 272.121 208.734 271.832 208.734C271.525 208.734 271.257 208.798 271.027 208.926C270.801 209.051 270.625 209.227 270.5 209.453C270.378 209.68 270.316 209.945 270.316 210.25H269.395C269.395 209.781 269.503 209.37 269.719 209.016C269.935 208.661 270.229 208.385 270.602 208.187C270.977 207.99 271.397 207.891 271.863 207.891C272.332 207.891 272.747 207.99 273.109 208.187C273.471 208.385 273.755 208.652 273.961 208.988C274.167 209.324 274.27 209.698 274.27 210.109C274.27 210.404 274.216 210.691 274.109 210.973C274.005 211.251 273.823 211.562 273.562 211.906C273.305 212.247 272.947 212.664 272.488 213.156L270.691 215.078V215.141H274.41V216H269.363ZM278.727 216.109C278.211 216.109 277.751 216.021 277.348 215.844C276.947 215.667 276.628 215.421 276.391 215.105C276.156 214.788 276.029 214.419 276.008 214H276.992C277.013 214.258 277.102 214.48 277.258 214.668C277.414 214.853 277.618 214.996 277.871 215.098C278.124 215.199 278.404 215.25 278.711 215.25C279.055 215.25 279.359 215.19 279.625 215.07C279.891 214.951 280.099 214.784 280.25 214.57C280.401 214.357 280.477 214.109 280.477 213.828C280.477 213.534 280.404 213.275 280.258 213.051C280.112 212.824 279.898 212.647 279.617 212.52C279.336 212.392 278.992 212.328 278.586 212.328H277.945V211.469H278.586C278.904 211.469 279.182 211.411 279.422 211.297C279.664 211.182 279.853 211.021 279.988 210.812C280.126 210.604 280.195 210.359 280.195 210.078C280.195 209.807 280.135 209.572 280.016 209.371C279.896 209.171 279.727 209.014 279.508 208.902C279.292 208.79 279.036 208.734 278.742 208.734C278.466 208.734 278.206 208.785 277.961 208.887C277.719 208.986 277.521 209.13 277.367 209.32C277.214 209.508 277.13 209.734 277.117 210H276.18C276.195 209.581 276.322 209.214 276.559 208.898C276.796 208.581 277.105 208.333 277.488 208.156C277.874 207.979 278.297 207.891 278.758 207.891C279.253 207.891 279.677 207.991 280.031 208.191C280.385 208.389 280.658 208.651 280.848 208.977C281.038 209.302 281.133 209.654 281.133 210.031C281.133 210.482 281.014 210.866 280.777 211.184C280.543 211.501 280.224 211.721 279.82 211.844V211.906C280.326 211.99 280.72 212.204 281.004 212.551C281.288 212.895 281.43 213.32 281.43 213.828C281.43 214.263 281.311 214.654 281.074 215C280.84 215.344 280.52 215.615 280.113 215.812C279.707 216.01 279.245 216.109 278.727 216.109Z" fill="white"/>
<path d="M186.828 216V215.297L189.469 212.406C189.779 212.068 190.034 211.773 190.234 211.523C190.435 211.271 190.583 211.034 190.68 210.812C190.779 210.589 190.828 210.354 190.828 210.109C190.828 209.828 190.76 209.585 190.625 209.379C190.492 209.173 190.31 209.014 190.078 208.902C189.846 208.79 189.586 208.734 189.297 208.734C188.99 208.734 188.721 208.798 188.492 208.926C188.266 209.051 188.09 209.227 187.965 209.453C187.842 209.68 187.781 209.945 187.781 210.25H186.859C186.859 209.781 186.967 209.37 187.184 209.016C187.4 208.661 187.694 208.385 188.066 208.187C188.441 207.99 188.862 207.891 189.328 207.891C189.797 207.891 190.212 207.99 190.574 208.187C190.936 208.385 191.22 208.652 191.426 208.988C191.632 209.324 191.734 209.698 191.734 210.109C191.734 210.404 191.681 210.691 191.574 210.973C191.47 211.251 191.288 211.562 191.027 211.906C190.77 212.247 190.411 212.664 189.953 213.156L188.156 215.078V215.141H191.875V216H186.828ZM196.098 216.109C195.509 216.109 195.008 215.949 194.594 215.629C194.18 215.306 193.863 214.839 193.645 214.227C193.426 213.612 193.316 212.87 193.316 212C193.316 211.135 193.426 210.397 193.645 209.785C193.866 209.171 194.184 208.702 194.598 208.379C195.014 208.053 195.514 207.891 196.098 207.891C196.681 207.891 197.18 208.053 197.594 208.379C198.01 208.702 198.328 209.171 198.547 209.785C198.768 210.397 198.879 211.135 198.879 212C198.879 212.87 198.77 213.612 198.551 214.227C198.332 214.839 198.016 215.306 197.602 215.629C197.188 215.949 196.686 216.109 196.098 216.109ZM196.098 215.25C196.681 215.25 197.134 214.969 197.457 214.406C197.78 213.844 197.941 213.042 197.941 212C197.941 211.307 197.867 210.717 197.719 210.23C197.573 209.743 197.362 209.372 197.086 209.117C196.813 208.862 196.483 208.734 196.098 208.734C195.52 208.734 195.068 209.02 194.742 209.59C194.417 210.158 194.254 210.961 194.254 212C194.254 212.693 194.327 213.281 194.473 213.766C194.618 214.25 194.828 214.618 195.102 214.871C195.378 215.124 195.71 215.25 196.098 215.25ZM200.363 216V215.297L203.004 212.406C203.314 212.068 203.569 211.773 203.77 211.523C203.97 211.271 204.118 211.034 204.215 210.812C204.314 210.589 204.363 210.354 204.363 210.109C204.363 209.828 204.296 209.585 204.16 209.379C204.027 209.173 203.845 209.014 203.613 208.902C203.382 208.79 203.121 208.734 202.832 208.734C202.525 208.734 202.257 208.798 202.027 208.926C201.801 209.051 201.625 209.227 201.5 209.453C201.378 209.68 201.316 209.945 201.316 210.25H200.395C200.395 209.781 200.503 209.37 200.719 209.016C200.935 208.661 201.229 208.385 201.602 208.187C201.977 207.99 202.397 207.891 202.863 207.891C203.332 207.891 203.747 207.99 204.109 208.187C204.471 208.385 204.755 208.652 204.961 208.988C205.167 209.324 205.27 209.698 205.27 210.109C205.27 210.404 205.216 210.691 205.109 210.973C205.005 211.251 204.823 211.562 204.562 211.906C204.305 212.247 203.947 212.664 203.488 213.156L201.691 215.078V215.141H205.41V216H200.363ZM207.023 216V215.297L209.664 212.406C209.974 212.068 210.229 211.773 210.43 211.523C210.63 211.271 210.779 211.034 210.875 210.812C210.974 210.589 211.023 210.354 211.023 210.109C211.023 209.828 210.956 209.585 210.82 209.379C210.688 209.173 210.505 209.014 210.273 208.902C210.042 208.79 209.781 208.734 209.492 208.734C209.185 208.734 208.917 208.798 208.688 208.926C208.461 209.051 208.285 209.227 208.16 209.453C208.038 209.68 207.977 209.945 207.977 210.25H207.055C207.055 209.781 207.163 209.37 207.379 209.016C207.595 208.661 207.889 208.385 208.262 208.187C208.637 207.99 209.057 207.891 209.523 207.891C209.992 207.891 210.408 207.99 210.77 208.187C211.132 208.385 211.415 208.652 211.621 208.988C211.827 209.324 211.93 209.698 211.93 210.109C211.93 210.404 211.876 210.691 211.77 210.973C211.665 211.251 211.483 211.562 211.223 211.906C210.965 212.247 210.607 212.664 210.148 213.156L208.352 215.078V215.141H212.07V216H207.023Z" fill="white"/>
<path d="M117.828 216V215.297L120.469 212.406C120.779 212.068 121.034 211.773 121.234 211.523C121.435 211.271 121.583 211.034 121.68 210.812C121.779 210.589 121.828 210.354 121.828 210.109C121.828 209.828 121.76 209.585 121.625 209.379C121.492 209.173 121.31 209.014 121.078 208.902C120.846 208.79 120.586 208.734 120.297 208.734C119.99 208.734 119.721 208.798 119.492 208.926C119.266 209.051 119.09 209.227 118.965 209.453C118.842 209.68 118.781 209.945 118.781 210.25H117.859C117.859 209.781 117.967 209.37 118.184 209.016C118.4 208.661 118.694 208.385 119.066 208.187C119.441 207.99 119.862 207.891 120.328 207.891C120.797 207.891 121.212 207.99 121.574 208.187C121.936 208.385 122.22 208.652 122.426 208.988C122.632 209.324 122.734 209.698 122.734 210.109C122.734 210.404 122.681 210.691 122.574 210.973C122.47 211.251 122.288 211.562 122.027 211.906C121.77 212.247 121.411 212.664 120.953 213.156L119.156 215.078V215.141H122.875V216H117.828ZM127.098 216.109C126.509 216.109 126.008 215.949 125.594 215.629C125.18 215.306 124.863 214.839 124.645 214.227C124.426 213.612 124.316 212.87 124.316 212C124.316 211.135 124.426 210.397 124.645 209.785C124.866 209.171 125.184 208.702 125.598 208.379C126.014 208.053 126.514 207.891 127.098 207.891C127.681 207.891 128.18 208.053 128.594 208.379C129.01 208.702 129.328 209.171 129.547 209.785C129.768 210.397 129.879 211.135 129.879 212C129.879 212.87 129.77 213.612 129.551 214.227C129.332 214.839 129.016 215.306 128.602 215.629C128.188 215.949 127.686 216.109 127.098 216.109ZM127.098 215.25C127.681 215.25 128.134 214.969 128.457 214.406C128.78 213.844 128.941 213.042 128.941 212C128.941 211.307 128.867 210.717 128.719 210.23C128.573 209.743 128.362 209.372 128.086 209.117C127.813 208.862 127.483 208.734 127.098 208.734C126.52 208.734 126.068 209.02 125.742 209.59C125.417 210.158 125.254 210.961 125.254 212C125.254 212.693 125.327 213.281 125.473 213.766C125.618 214.25 125.828 214.618 126.102 214.871C126.378 215.124 126.71 215.25 127.098 215.25ZM131.363 216V215.297L134.004 212.406C134.314 212.068 134.569 211.773 134.77 211.523C134.97 211.271 135.118 211.034 135.215 210.812C135.314 210.589 135.363 210.354 135.363 210.109C135.363 209.828 135.296 209.585 135.16 209.379C135.027 209.173 134.845 209.014 134.613 208.902C134.382 208.79 134.121 208.734 133.832 208.734C133.525 208.734 133.257 208.798 133.027 208.926C132.801 209.051 132.625 209.227 132.5 209.453C132.378 209.68 132.316 209.945 132.316 210.25H131.395C131.395 209.781 131.503 209.37 131.719 209.016C131.935 208.661 132.229 208.385 132.602 208.187C132.977 207.99 133.397 207.891 133.863 207.891C134.332 207.891 134.747 207.99 135.109 208.187C135.471 208.385 135.755 208.652 135.961 208.988C136.167 209.324 136.27 209.698 136.27 210.109C136.27 210.404 136.216 210.691 136.109 210.973C136.005 211.251 135.823 211.562 135.562 211.906C135.305 212.247 134.947 212.664 134.488 213.156L132.691 215.078V215.141H136.41V216H131.363ZM140.836 208V216H139.867V209.016H139.82L137.867 210.312V209.328L139.867 208H140.836Z" fill="white"/>
<path d="M275.012 74.98V66.95H276.002V68.105H276.2L276.002 68.336C276.002 67.874 276.152 67.511 276.453 67.247C276.761 66.9757 277.164 66.84 277.663 66.84C278.272 66.84 278.756 67.0417 279.115 67.445C279.482 67.841 279.665 68.3873 279.665 69.084V70.855C279.665 71.317 279.581 71.7167 279.412 72.054C279.251 72.3913 279.02 72.6517 278.719 72.835C278.426 73.0183 278.074 73.11 277.663 73.11C277.172 73.11 276.772 72.9743 276.464 72.703C276.156 72.4317 276.002 72.0687 276.002 71.614L276.2 71.845H275.98L276.002 73.22V74.98H275.012ZM277.333 72.252C277.751 72.252 278.077 72.1273 278.312 71.878C278.554 71.6287 278.675 71.2693 278.675 70.8V69.15C278.675 68.6807 278.554 68.3213 278.312 68.072C278.077 67.8227 277.751 67.698 277.333 67.698C276.93 67.698 276.607 67.8263 276.365 68.083C276.123 68.3397 276.002 68.6953 276.002 69.15V70.8C276.002 71.2547 276.123 71.6103 276.365 71.867C276.607 72.1237 276.93 72.252 277.333 72.252ZM283.368 73.11C282.73 73.11 282.227 72.9487 281.861 72.626C281.494 72.296 281.311 71.8523 281.311 71.295C281.311 70.7303 281.494 70.2867 281.861 69.964C282.227 69.6413 282.722 69.48 283.346 69.48H285.216V68.875C285.216 68.501 285.102 68.215 284.875 68.017C284.655 67.8117 284.339 67.709 283.929 67.709C283.569 67.709 283.269 67.786 283.027 67.94C282.785 68.0867 282.645 68.2883 282.609 68.545H281.619C281.685 68.0243 281.93 67.61 282.356 67.302C282.781 66.994 283.313 66.84 283.951 66.84C284.647 66.84 285.197 67.0197 285.601 67.379C286.004 67.7383 286.206 68.226 286.206 68.842V73H285.238V71.845H285.073L285.238 71.68C285.238 72.12 285.065 72.4683 284.721 72.725C284.383 72.9817 283.932 73.11 283.368 73.11ZM283.61 72.329C284.079 72.329 284.464 72.2117 284.765 71.977C285.065 71.7423 285.216 71.4417 285.216 71.075V70.217H283.368C283.038 70.217 282.777 70.3087 282.587 70.492C282.396 70.6753 282.301 70.9247 282.301 71.24C282.301 71.5773 282.414 71.845 282.642 72.043C282.876 72.2337 283.199 72.329 283.61 72.329ZM288.412 73V66.95H289.38V68.105H289.611L289.292 68.82C289.292 68.1673 289.432 67.676 289.71 67.346C289.996 67.0087 290.418 66.84 290.975 66.84C291.613 66.84 292.119 67.0417 292.493 67.445C292.875 67.841 293.065 68.38 293.065 69.062V69.425H292.075V69.15C292.075 68.6733 291.958 68.3103 291.723 68.061C291.496 67.8043 291.17 67.676 290.744 67.676C290.326 67.676 289.996 67.8043 289.754 68.061C289.52 68.3177 289.402 68.6807 289.402 69.15V73H288.412ZM296.559 73.11C295.921 73.11 295.419 72.9487 295.052 72.626C294.685 72.296 294.502 71.8523 294.502 71.295C294.502 70.7303 294.685 70.2867 295.052 69.964C295.419 69.6413 295.914 69.48 296.537 69.48H298.407V68.875C298.407 68.501 298.293 68.215 298.066 68.017C297.846 67.8117 297.531 67.709 297.12 67.709C296.761 67.709 296.46 67.786 296.218 67.94C295.976 68.0867 295.837 68.2883 295.8 68.545H294.81C294.876 68.0243 295.122 67.61 295.547 67.302C295.972 66.994 296.504 66.84 297.142 66.84C297.839 66.84 298.389 67.0197 298.792 67.379C299.195 67.7383 299.397 68.226 299.397 68.842V73H298.429V71.845H298.264L298.429 71.68C298.429 72.12 298.257 72.4683 297.912 72.725C297.575 72.9817 297.124 73.11 296.559 73.11ZM296.801 72.329C297.27 72.329 297.655 72.2117 297.956 71.977C298.257 71.7423 298.407 71.4417 298.407 71.075V70.217H296.559C296.229 70.217 295.969 70.3087 295.778 70.492C295.587 70.6753 295.492 70.9247 295.492 71.24C295.492 71.5773 295.606 71.845 295.833 72.043C296.068 72.2337 296.39 72.329 296.801 72.329ZM301.109 73V66.95H301.978V67.676H302.176L302.022 67.94C302.022 67.6027 302.11 67.335 302.286 67.137C302.469 66.939 302.715 66.84 303.023 66.84C303.36 66.84 303.62 66.9647 303.804 67.214C303.987 67.4633 304.079 67.8153 304.079 68.27L303.782 67.676H304.244L304.035 67.94C304.035 67.6027 304.126 67.335 304.31 67.137C304.5 66.939 304.75 66.84 305.058 66.84C305.439 66.84 305.732 66.983 305.938 67.269C306.15 67.555 306.257 67.9327 306.257 68.402V73H305.344V68.391C305.344 68.1417 305.289 67.9473 305.179 67.808C305.076 67.6687 304.922 67.599 304.717 67.599C304.519 67.599 304.361 67.6687 304.244 67.808C304.134 67.94 304.079 68.1307 304.079 68.38V73H303.287V68.391C303.287 68.1343 303.228 67.94 303.111 67.808C303.001 67.6687 302.843 67.599 302.638 67.599C302.432 67.599 302.278 67.6687 302.176 67.808C302.073 67.94 302.022 68.1307 302.022 68.38V73H301.109ZM310.092 73.088C309.681 73.088 309.322 73.0257 309.014 72.901C308.713 72.769 308.471 72.5857 308.288 72.351C308.112 72.1163 308.005 71.8377 307.969 71.515H308.959C309.003 71.7277 309.12 71.8963 309.311 72.021C309.509 72.1457 309.769 72.208 310.092 72.208H310.554C310.942 72.208 311.232 72.131 311.423 71.977C311.613 71.8157 311.709 71.603 311.709 71.339C311.709 71.0823 311.621 70.8807 311.445 70.734C311.276 70.58 311.023 70.4773 310.686 70.426L309.872 70.294C309.278 70.1913 308.834 70.008 308.541 69.744C308.255 69.4727 308.112 69.0803 308.112 68.567C308.112 68.0243 308.284 67.6063 308.629 67.313C308.973 67.0123 309.49 66.862 310.18 66.862H310.598C311.177 66.862 311.643 66.9977 311.995 67.269C312.347 67.5403 312.559 67.907 312.633 68.369H311.643C311.599 68.1783 311.489 68.028 311.313 67.918C311.137 67.8007 310.898 67.742 310.598 67.742H310.18C309.806 67.742 309.531 67.8117 309.355 67.951C309.186 68.0903 309.102 68.2993 309.102 68.578C309.102 68.8273 309.175 69.0107 309.322 69.128C309.468 69.2453 309.699 69.3297 310.015 69.381L310.829 69.513C311.481 69.6157 311.954 69.8063 312.248 70.085C312.548 70.3637 312.699 70.767 312.699 71.295C312.699 71.8523 312.519 72.2923 312.16 72.615C311.808 72.9303 311.272 73.088 310.554 73.088H310.092ZM316.599 74.54V73.099C315.91 73.0403 315.367 72.8203 314.971 72.439C314.583 72.0503 314.381 71.5407 314.366 70.91H315.356C315.356 71.2693 315.463 71.5627 315.675 71.79C315.895 72.0173 316.203 72.1567 316.599 72.208V69.326L316.302 69.238C315.752 69.0693 315.327 68.787 315.026 68.391C314.733 67.995 314.586 67.5293 314.586 66.994C314.586 66.4073 314.766 65.9233 315.125 65.542C315.492 65.1607 315.983 64.9407 316.599 64.882V63.43H317.259V64.871C317.868 64.9297 318.356 65.1497 318.722 65.531C319.089 65.9123 319.276 66.4037 319.283 67.005H318.293C318.293 66.6603 318.202 66.3817 318.018 66.169C317.842 65.949 317.589 65.8133 317.259 65.762V68.49L317.699 68.633C318.235 68.8017 318.649 69.0877 318.942 69.491C319.236 69.8943 319.382 70.3673 319.382 70.91C319.382 71.5113 319.188 72.01 318.799 72.406C318.418 72.802 317.905 73.033 317.259 73.099V74.54H316.599ZM317.259 72.208C317.619 72.1493 317.897 72.01 318.095 71.79C318.293 71.57 318.392 71.284 318.392 70.932C318.392 70.6093 318.304 70.327 318.128 70.085C317.96 69.843 317.714 69.6743 317.391 69.579L317.259 69.535V72.208ZM316.599 68.721V65.762C316.277 65.8133 316.024 65.938 315.84 66.136C315.664 66.334 315.576 66.5907 315.576 66.906C315.576 67.2873 315.694 67.61 315.928 67.874C316.163 68.1307 316.5 68.292 316.94 68.358L316.599 68.721ZM322.128 74.98L323.019 72.626L320.775 66.95H321.875L323.283 70.69C323.334 70.8147 323.382 70.965 323.426 71.141C323.47 71.3097 323.507 71.4527 323.536 71.57C323.565 71.4527 323.602 71.3097 323.646 71.141C323.69 70.965 323.734 70.8147 323.778 70.69L325.098 66.95H326.165L323.184 74.98H322.128ZM330.066 73.11C329.589 73.11 329.171 73.0147 328.812 72.824C328.46 72.6333 328.185 72.3657 327.987 72.021C327.796 71.669 327.701 71.262 327.701 70.8V69.15C327.701 68.6807 327.796 68.2737 327.987 67.929C328.185 67.5843 328.46 67.3167 328.812 67.126C329.171 66.9353 329.589 66.84 330.066 66.84C330.542 66.84 330.957 66.9353 331.309 67.126C331.668 67.3167 331.943 67.5843 332.134 67.929C332.332 68.2737 332.431 68.6807 332.431 69.15V70.217H328.669V70.8C328.669 71.2767 328.79 71.6433 329.032 71.9C329.274 72.1493 329.618 72.274 330.066 72.274C330.447 72.274 330.755 72.208 330.99 72.076C331.224 71.9367 331.367 71.7313 331.419 71.46H332.409C332.343 71.966 332.093 72.3693 331.661 72.67C331.235 72.9633 330.704 73.11 330.066 73.11ZM331.463 69.557V69.15C331.463 68.6733 331.342 68.3067 331.1 68.05C330.865 67.7933 330.52 67.665 330.066 67.665C329.618 67.665 329.274 67.7933 329.032 68.05C328.79 68.3067 328.669 68.6733 328.669 69.15V69.469H331.54L331.463 69.557ZM336.133 73.11C335.495 73.11 334.993 72.9487 334.626 72.626C334.26 72.296 334.076 71.8523 334.076 71.295C334.076 70.7303 334.26 70.2867 334.626 69.964C334.993 69.6413 335.488 69.48 336.111 69.48H337.981V68.875C337.981 68.501 337.868 68.215 337.64 68.017C337.42 67.8117 337.105 67.709 336.694 67.709C336.335 67.709 336.034 67.786 335.792 67.94C335.55 68.0867 335.411 68.2883 335.374 68.545H334.384C334.45 68.0243 334.696 67.61 335.121 67.302C335.547 66.994 336.078 66.84 336.716 66.84C337.413 66.84 337.963 67.0197 338.366 67.379C338.77 67.7383 338.971 68.226 338.971 68.842V73H338.003V71.845H337.838L338.003 71.68C338.003 72.12 337.831 72.4683 337.486 72.725C337.149 72.9817 336.698 73.11 336.133 73.11ZM336.375 72.329C336.845 72.329 337.23 72.2117 337.53 71.977C337.831 71.7423 337.981 71.4417 337.981 71.075V70.217H336.133C335.803 70.217 335.543 70.3087 335.352 70.492C335.162 70.6753 335.066 70.9247 335.066 71.24C335.066 71.5773 335.18 71.845 335.407 72.043C335.642 72.2337 335.965 72.329 336.375 72.329ZM341.178 73V66.95H342.146V68.105H342.377L342.058 68.82C342.058 68.1673 342.197 67.676 342.476 67.346C342.762 67.0087 343.184 66.84 343.741 66.84C344.379 66.84 344.885 67.0417 345.259 67.445C345.64 67.841 345.831 68.38 345.831 69.062V69.425H344.841V69.15C344.841 68.6733 344.724 68.3103 344.489 68.061C344.262 67.8043 343.935 67.676 343.51 67.676C343.092 67.676 342.762 67.8043 342.52 68.061C342.285 68.3177 342.168 68.6807 342.168 69.15V73H341.178Z" fill="white"/>
<path d="M210.695 118V110H213.852C214.456 110 214.971 110.108 215.398 110.324C215.828 110.538 216.155 110.841 216.379 111.234C216.605 111.625 216.719 112.085 216.719 112.613C216.719 113.145 216.604 113.602 216.375 113.984C216.146 114.365 215.814 114.656 215.379 114.859C214.947 115.062 214.423 115.164 213.809 115.164H211.695V113.805H213.535C213.858 113.805 214.126 113.76 214.34 113.672C214.553 113.583 214.712 113.451 214.816 113.273C214.923 113.096 214.977 112.876 214.977 112.613C214.977 112.348 214.923 112.124 214.816 111.941C214.712 111.759 214.552 111.621 214.336 111.527C214.122 111.431 213.853 111.383 213.527 111.383H212.387V118H210.695ZM215.016 114.359L217.004 118H215.137L213.191 114.359H215.016ZM220.521 118.117C219.903 118.117 219.372 117.992 218.927 117.742C218.484 117.49 218.143 117.133 217.903 116.672C217.664 116.208 217.544 115.66 217.544 115.027C217.544 114.41 217.664 113.868 217.903 113.402C218.143 112.936 218.48 112.573 218.915 112.312C219.353 112.052 219.866 111.922 220.454 111.922C220.85 111.922 221.218 111.986 221.56 112.113C221.903 112.238 222.203 112.427 222.458 112.68C222.716 112.932 222.916 113.25 223.06 113.633C223.203 114.013 223.274 114.458 223.274 114.969V115.426H218.208V114.395H221.708C221.708 114.155 221.656 113.943 221.552 113.758C221.448 113.573 221.303 113.428 221.118 113.324C220.936 113.217 220.724 113.164 220.481 113.164C220.229 113.164 220.005 113.223 219.81 113.34C219.617 113.454 219.466 113.609 219.356 113.805C219.247 113.997 219.191 114.212 219.188 114.449V115.43C219.188 115.727 219.243 115.983 219.353 116.199C219.465 116.415 219.622 116.582 219.825 116.699C220.028 116.816 220.269 116.875 220.548 116.875C220.733 116.875 220.902 116.849 221.056 116.797C221.209 116.745 221.341 116.667 221.45 116.562C221.56 116.458 221.643 116.331 221.7 116.18L223.239 116.281C223.161 116.651 223.001 116.974 222.759 117.25C222.519 117.523 222.209 117.737 221.829 117.891C221.451 118.042 221.015 118.117 220.521 118.117ZM224.36 120.25V112H226.001V113.008H226.075C226.148 112.846 226.254 112.682 226.392 112.516C226.532 112.346 226.715 112.206 226.938 112.094C227.165 111.979 227.446 111.922 227.782 111.922C228.22 111.922 228.623 112.036 228.993 112.266C229.363 112.492 229.659 112.835 229.88 113.293C230.101 113.749 230.212 114.32 230.212 115.008C230.212 115.677 230.104 116.242 229.888 116.703C229.674 117.161 229.382 117.509 229.013 117.746C228.646 117.98 228.234 118.098 227.778 118.098C227.455 118.098 227.181 118.044 226.954 117.937C226.73 117.831 226.547 117.697 226.403 117.535C226.26 117.371 226.151 117.206 226.075 117.039H226.024V120.25H224.36ZM225.989 115C225.989 115.357 226.039 115.668 226.138 115.934C226.237 116.199 226.38 116.406 226.567 116.555C226.755 116.701 226.983 116.773 227.251 116.773C227.522 116.773 227.751 116.699 227.938 116.551C228.126 116.4 228.268 116.191 228.364 115.926C228.463 115.658 228.513 115.349 228.513 115C228.513 114.654 228.465 114.349 228.368 114.086C228.272 113.823 228.13 113.617 227.942 113.469C227.755 113.32 227.524 113.246 227.251 113.246C226.98 113.246 226.751 113.318 226.563 113.461C226.379 113.604 226.237 113.807 226.138 114.07C226.039 114.333 225.989 114.643 225.989 115ZM234.032 118.117C233.425 118.117 232.901 117.988 232.458 117.73C232.018 117.47 231.678 117.108 231.438 116.645C231.199 116.178 231.079 115.638 231.079 115.023C231.079 114.404 231.199 113.862 231.438 113.398C231.678 112.932 232.018 112.57 232.458 112.312C232.901 112.052 233.425 111.922 234.032 111.922C234.639 111.922 235.162 112.052 235.603 112.312C236.045 112.57 236.386 112.932 236.626 113.398C236.866 113.862 236.985 114.404 236.985 115.023C236.985 115.638 236.866 116.178 236.626 116.645C236.386 117.108 236.045 117.47 235.603 117.73C235.162 117.988 234.639 118.117 234.032 118.117ZM234.04 116.828C234.316 116.828 234.547 116.75 234.731 116.594C234.916 116.435 235.056 116.219 235.149 115.945C235.246 115.672 235.294 115.361 235.294 115.012C235.294 114.663 235.246 114.352 235.149 114.078C235.056 113.805 234.916 113.589 234.731 113.43C234.547 113.271 234.316 113.191 234.04 113.191C233.761 113.191 233.527 113.271 233.337 113.43C233.149 113.589 233.007 113.805 232.911 114.078C232.817 114.352 232.771 114.663 232.771 115.012C232.771 115.361 232.817 115.672 232.911 115.945C233.007 116.219 233.149 116.435 233.337 116.594C233.527 116.75 233.761 116.828 234.04 116.828ZM238.067 118V112H239.681V113.047H239.743C239.853 112.674 240.036 112.393 240.294 112.203C240.552 112.01 240.849 111.914 241.185 111.914C241.268 111.914 241.358 111.919 241.454 111.93C241.55 111.94 241.635 111.954 241.708 111.973V113.449C241.63 113.426 241.522 113.405 241.384 113.387C241.246 113.368 241.119 113.359 241.005 113.359C240.76 113.359 240.541 113.413 240.349 113.52C240.159 113.624 240.007 113.77 239.896 113.957C239.786 114.145 239.731 114.361 239.731 114.605V118H238.067ZM246.061 112V113.25H242.447V112H246.061ZM243.268 110.562H244.932V116.156C244.932 116.31 244.955 116.43 245.002 116.516C245.049 116.599 245.114 116.658 245.197 116.691C245.283 116.725 245.382 116.742 245.494 116.742C245.572 116.742 245.65 116.736 245.729 116.723C245.807 116.707 245.867 116.695 245.908 116.687L246.17 117.926C246.087 117.952 245.969 117.982 245.818 118.016C245.667 118.052 245.484 118.074 245.268 118.082C244.867 118.098 244.515 118.044 244.213 117.922C243.913 117.799 243.68 117.609 243.514 117.352C243.347 117.094 243.265 116.768 243.268 116.375V110.562ZM252.062 113.711L250.538 113.805C250.512 113.674 250.456 113.557 250.37 113.453C250.284 113.346 250.171 113.262 250.03 113.199C249.892 113.134 249.727 113.102 249.534 113.102C249.276 113.102 249.059 113.156 248.882 113.266C248.705 113.372 248.616 113.516 248.616 113.695C248.616 113.839 248.674 113.96 248.788 114.059C248.903 114.158 249.099 114.237 249.378 114.297L250.464 114.516C251.047 114.635 251.482 114.828 251.769 115.094C252.055 115.359 252.198 115.708 252.198 116.141C252.198 116.534 252.082 116.879 251.851 117.176C251.621 117.473 251.306 117.704 250.905 117.871C250.507 118.035 250.047 118.117 249.526 118.117C248.732 118.117 248.099 117.952 247.628 117.621C247.159 117.288 246.884 116.835 246.804 116.262L248.44 116.176C248.49 116.418 248.61 116.603 248.8 116.73C248.99 116.855 249.233 116.918 249.53 116.918C249.822 116.918 250.056 116.862 250.233 116.75C250.413 116.635 250.504 116.488 250.507 116.309C250.504 116.158 250.44 116.034 250.315 115.938C250.19 115.839 249.998 115.763 249.737 115.711L248.698 115.504C248.112 115.387 247.676 115.184 247.39 114.895C247.106 114.605 246.964 114.237 246.964 113.789C246.964 113.404 247.068 113.072 247.276 112.793C247.487 112.514 247.783 112.299 248.163 112.148C248.546 111.997 248.994 111.922 249.507 111.922C250.265 111.922 250.861 112.082 251.296 112.402C251.733 112.723 251.989 113.159 252.062 113.711ZM256.73 109.625L254.152 119.203H252.719L255.297 109.625H256.73ZM264.915 114C264.915 114.872 264.75 115.615 264.419 116.227C264.091 116.839 263.643 117.306 263.075 117.629C262.51 117.949 261.875 118.109 261.169 118.109C260.458 118.109 259.82 117.948 259.255 117.625C258.69 117.302 258.243 116.835 257.915 116.223C257.587 115.611 257.423 114.87 257.423 114C257.423 113.128 257.587 112.385 257.915 111.773C258.243 111.161 258.69 110.695 259.255 110.375C259.82 110.052 260.458 109.891 261.169 109.891C261.875 109.891 262.51 110.052 263.075 110.375C263.643 110.695 264.091 111.161 264.419 111.773C264.75 112.385 264.915 113.128 264.915 114ZM263.2 114C263.2 113.435 263.116 112.958 262.946 112.57C262.78 112.182 262.544 111.888 262.239 111.688C261.935 111.487 261.578 111.387 261.169 111.387C260.76 111.387 260.403 111.487 260.099 111.688C259.794 111.888 259.557 112.182 259.388 112.57C259.221 112.958 259.138 113.435 259.138 114C259.138 114.565 259.221 115.042 259.388 115.43C259.557 115.818 259.794 116.112 260.099 116.312C260.403 116.513 260.76 116.613 261.169 116.613C261.578 116.613 261.935 116.513 262.239 116.312C262.544 116.112 262.78 115.818 262.946 115.43C263.116 115.042 263.2 114.565 263.2 114ZM269.984 115.445V112H271.648V118H270.051V116.91H269.988C269.853 117.262 269.628 117.544 269.313 117.758C269 117.971 268.618 118.078 268.168 118.078C267.767 118.078 267.414 117.987 267.109 117.805C266.805 117.622 266.566 117.363 266.395 117.027C266.225 116.691 266.139 116.289 266.137 115.82V112H267.801V115.523C267.803 115.878 267.898 116.158 268.086 116.363C268.273 116.569 268.525 116.672 268.84 116.672C269.04 116.672 269.228 116.626 269.402 116.535C269.577 116.441 269.717 116.303 269.824 116.121C269.934 115.939 269.987 115.714 269.984 115.445ZM276.171 112V113.25H272.558V112H276.171ZM273.378 110.562H275.042V116.156C275.042 116.31 275.065 116.43 275.112 116.516C275.159 116.599 275.224 116.658 275.308 116.691C275.394 116.725 275.493 116.742 275.604 116.742C275.683 116.742 275.761 116.736 275.839 116.723C275.917 116.707 275.977 116.695 276.019 116.687L276.28 117.926C276.197 117.952 276.08 117.982 275.929 118.016C275.778 118.052 275.594 118.074 275.378 118.082C274.977 118.098 274.625 118.044 274.323 117.922C274.024 117.799 273.791 117.609 273.624 117.352C273.457 117.094 273.375 116.768 273.378 116.375V110.562ZM277.255 120.25V112H278.896V113.008H278.97C279.043 112.846 279.148 112.682 279.286 112.516C279.427 112.346 279.609 112.206 279.833 112.094C280.06 111.979 280.341 111.922 280.677 111.922C281.114 111.922 281.518 112.036 281.888 112.266C282.257 112.492 282.553 112.835 282.774 113.293C282.996 113.749 283.106 114.32 283.106 115.008C283.106 115.677 282.998 116.242 282.782 116.703C282.569 117.161 282.277 117.509 281.907 117.746C281.54 117.98 281.129 118.098 280.673 118.098C280.35 118.098 280.075 118.044 279.849 117.937C279.625 117.831 279.441 117.697 279.298 117.535C279.155 117.371 279.045 117.206 278.97 117.039H278.919V120.25H277.255ZM278.884 115C278.884 115.357 278.933 115.668 279.032 115.934C279.131 116.199 279.274 116.406 279.462 116.555C279.649 116.701 279.877 116.773 280.146 116.773C280.416 116.773 280.646 116.699 280.833 116.551C281.021 116.4 281.162 116.191 281.259 115.926C281.358 115.658 281.407 115.349 281.407 115C281.407 114.654 281.359 114.349 281.263 114.086C281.166 113.823 281.024 113.617 280.837 113.469C280.649 113.32 280.419 113.246 280.146 113.246C279.875 113.246 279.646 113.318 279.458 113.461C279.273 113.604 279.131 113.807 279.032 114.07C278.933 114.333 278.884 114.643 278.884 115ZM288.063 115.445V112H289.728V118H288.13V116.91H288.067C287.932 117.262 287.707 117.544 287.392 117.758C287.079 117.971 286.698 118.078 286.247 118.078C285.846 118.078 285.493 117.987 285.188 117.805C284.884 117.622 284.646 117.363 284.474 117.027C284.304 116.691 284.218 116.289 284.216 115.82V112H285.88V115.523C285.882 115.878 285.978 116.158 286.165 116.363C286.353 116.569 286.604 116.672 286.919 116.672C287.119 116.672 287.307 116.626 287.481 116.535C287.656 116.441 287.797 116.303 287.903 116.121C288.013 115.939 288.066 115.714 288.063 115.445ZM294.25 112V113.25H290.637V112H294.25ZM291.457 110.562H293.121V116.156C293.121 116.31 293.145 116.43 293.191 116.516C293.238 116.599 293.303 116.658 293.387 116.691C293.473 116.725 293.572 116.742 293.684 116.742C293.762 116.742 293.84 116.736 293.918 116.723C293.996 116.707 294.056 116.695 294.098 116.687L294.359 117.926C294.276 117.952 294.159 117.982 294.008 118.016C293.857 118.052 293.673 118.074 293.457 118.082C293.056 118.098 292.704 118.044 292.402 117.922C292.103 117.799 291.87 117.609 291.703 117.352C291.536 117.094 291.454 116.768 291.457 116.375V110.562Z" fill="white"/>
</g>
<defs>
<filter id="filter0_d_5_76" x="-4" y="0" width="417" height="257" filterUnits="userSpaceOnUse" color-interpolation-filters="sRGB">
<feFlood flood-opacity="0" result="BackgroundImageFix"/>
<feColorMatrix in="SourceAlpha" type="matrix" values="0 0 0 0 0 0 0 0 0 0 0 0 0 0 0 0 0 0 127 0" result="hardAlpha"/>
<feOffset dy="4"/>
<feGaussianBlur stdDeviation="2"/>
<feComposite in2="hardAlpha" operator="out"/>
<feColorMatrix type="matrix" values="0 0 0 0 0 0 0 0 0 0 0 0 0 0 0 0 0 0 0.25 0"/>
<feBlend mode="normal" in2="BackgroundImageFix" result="effect1_dropShadow_5_76"/>
<feBlend mode="normal" in="SourceGraphic" in2="effect1_dropShadow_5_76" result="shape"/>
</filter>
</defs>
</svg>
