<svg width="409" height="249" viewBox="0 0 409 249" fill="none" xmlns="http://www.w3.org/2000/svg">
<g filter="url(#filter0_d_0_1)">
<path d="M204 42H190C188.939 42 187.922 42.4214 187.172 43.1716C186.421 43.9217 186 44.9391 186 46V78C186 79.0609 186.421 80.0783 187.172 80.8284C187.922 81.5786 188.939 82 190 82H214C215.061 82 216.078 81.5786 216.828 80.8284C217.579 80.0783 218 79.0609 218 78V56M204 42L218 56M204 42V56H218" stroke="#14AE5C" stroke-width="4" stroke-linecap="round" stroke-linejoin="round"/>
<path d="M191.3 69.11C191.021 69.11 190.798 69.0293 190.629 68.868C190.468 68.7067 190.387 68.4903 190.387 68.219C190.387 67.933 190.468 67.7057 190.629 67.537C190.798 67.3683 191.021 67.284 191.3 67.284C191.579 67.284 191.799 67.3683 191.96 67.537C192.129 67.7057 192.213 67.933 192.213 68.219C192.213 68.4903 192.129 68.7067 191.96 68.868C191.799 69.0293 191.579 69.11 191.3 69.11ZM199.194 70.98V69.22L199.216 67.845H198.996L199.194 67.614C199.194 68.0687 199.043 68.4317 198.743 68.703C198.442 68.9743 198.042 69.11 197.544 69.11C196.935 69.11 196.451 68.9083 196.092 68.505C195.74 68.1017 195.564 67.5517 195.564 66.855V65.084C195.564 64.3873 195.743 63.841 196.103 63.445C196.462 63.0417 196.942 62.84 197.544 62.84C198.042 62.84 198.442 62.9757 198.743 63.247C199.043 63.511 199.194 63.874 199.194 64.336L198.996 64.105H199.194V62.95H200.184V70.98H199.194ZM197.874 68.252C198.284 68.252 198.607 68.1237 198.842 67.867C199.076 67.6103 199.194 67.2547 199.194 66.8V65.15C199.194 64.6953 199.076 64.3397 198.842 64.083C198.607 63.8263 198.284 63.698 197.874 63.698C197.456 63.698 197.129 63.8227 196.895 64.072C196.667 64.3213 196.554 64.6807 196.554 65.15V66.8C196.554 67.2693 196.667 67.6287 196.895 67.878C197.129 68.1273 197.456 68.252 197.874 68.252ZM201.917 69V62.95H202.786V63.676H202.984L202.83 63.94C202.83 63.6027 202.918 63.335 203.094 63.137C203.278 62.939 203.523 62.84 203.831 62.84C204.169 62.84 204.429 62.9647 204.612 63.214C204.796 63.4633 204.887 63.8153 204.887 64.27L204.59 63.676H205.052L204.843 63.94C204.843 63.6027 204.935 63.335 205.118 63.137C205.309 62.939 205.558 62.84 205.866 62.84C206.248 62.84 206.541 62.983 206.746 63.269C206.959 63.555 207.065 63.9327 207.065 64.402V69H206.152V64.391C206.152 64.1417 206.097 63.9473 205.987 63.808C205.885 63.6687 205.731 63.599 205.525 63.599C205.327 63.599 205.17 63.6687 205.052 63.808C204.942 63.94 204.887 64.1307 204.887 64.38V69H204.095V64.391C204.095 64.1343 204.037 63.94 203.919 63.808C203.809 63.6687 203.652 63.599 203.446 63.599C203.241 63.599 203.087 63.6687 202.984 63.808C202.882 63.94 202.83 64.1307 202.83 64.38V69H201.917ZM210.735 69.11C210.134 69.11 209.646 68.9083 209.272 68.505C208.905 68.1017 208.722 67.5553 208.722 66.866V65.095C208.722 64.3983 208.905 63.8483 209.272 63.445C209.639 63.0417 210.126 62.84 210.735 62.84C211.234 62.84 211.633 62.9757 211.934 63.247C212.235 63.5183 212.385 63.8813 212.385 64.336L212.187 64.105H212.407L212.385 62.73V60.97H213.375V69H212.385V67.845H212.187L212.385 67.614C212.385 68.076 212.235 68.4427 211.934 68.714C211.633 68.978 211.234 69.11 210.735 69.11ZM211.065 68.252C211.476 68.252 211.798 68.1237 212.033 67.867C212.268 67.6103 212.385 67.2547 212.385 66.8V65.15C212.385 64.6953 212.268 64.3397 212.033 64.083C211.798 63.8263 211.476 63.698 211.065 63.698C210.647 63.698 210.317 63.8227 210.075 64.072C209.833 64.3213 209.712 64.6807 209.712 65.15V66.8C209.712 67.2693 209.833 67.6287 210.075 67.878C210.317 68.1273 210.647 68.252 211.065 68.252Z" fill="#070813"/>
<path d="M178.391 21.3945V20H184.961V21.3945H182.512V28H180.84V21.3945H178.391ZM187.876 28.1172C187.259 28.1172 186.728 27.9922 186.282 27.7422C185.84 27.4896 185.498 27.1328 185.259 26.6719C185.019 26.2083 184.899 25.6602 184.899 25.0273C184.899 24.4102 185.019 23.8685 185.259 23.4023C185.498 22.9362 185.836 22.5729 186.271 22.3125C186.708 22.0521 187.221 21.9219 187.81 21.9219C188.205 21.9219 188.574 21.9857 188.915 22.1133C189.259 22.2383 189.558 22.4271 189.813 22.6797C190.071 22.9323 190.272 23.25 190.415 23.6328C190.558 24.013 190.63 24.4583 190.63 24.9687V25.4258H185.563V24.3945H189.063C189.063 24.1549 189.011 23.9427 188.907 23.7578C188.803 23.5729 188.659 23.4284 188.474 23.3242C188.291 23.2174 188.079 23.1641 187.837 23.1641C187.584 23.1641 187.36 23.2227 187.165 23.3398C186.972 23.4544 186.821 23.6094 186.712 23.8047C186.603 23.9974 186.547 24.2122 186.544 24.4492V25.4297C186.544 25.7266 186.599 25.9831 186.708 26.1992C186.82 26.4154 186.978 26.582 187.181 26.6992C187.384 26.8164 187.625 26.875 187.903 26.875C188.088 26.875 188.257 26.849 188.411 26.7969C188.565 26.7448 188.696 26.6667 188.806 26.5625C188.915 26.4583 188.998 26.3307 189.056 26.1797L190.595 26.2812C190.517 26.651 190.356 26.974 190.114 27.25C189.875 27.5234 189.565 27.737 189.185 27.8906C188.807 28.0417 188.371 28.1172 187.876 28.1172ZM191.716 28V22H193.302V23.0586H193.372C193.497 22.707 193.705 22.4297 193.997 22.2266C194.289 22.0234 194.638 21.9219 195.044 21.9219C195.455 21.9219 195.806 22.0247 196.095 22.2305C196.384 22.4336 196.576 22.7096 196.673 23.0586H196.735C196.858 22.7148 197.079 22.4401 197.399 22.2344C197.722 22.026 198.104 21.9219 198.544 21.9219C199.104 21.9219 199.558 22.1003 199.907 22.457C200.259 22.8112 200.435 23.3138 200.435 23.9648V28H198.774V24.293C198.774 23.9596 198.686 23.7096 198.509 23.543C198.332 23.3763 198.11 23.293 197.845 23.293C197.543 23.293 197.307 23.3893 197.138 23.582C196.968 23.7721 196.884 24.0234 196.884 24.3359V28H195.271V24.2578C195.271 23.9635 195.186 23.7292 195.017 23.5547C194.85 23.3802 194.63 23.293 194.356 23.293C194.172 23.293 194.005 23.3398 193.856 23.4336C193.711 23.5247 193.595 23.6536 193.509 23.8203C193.423 23.9844 193.38 24.1771 193.38 24.3984V28H191.716ZM201.749 30.25V22H203.39V23.0078H203.464C203.537 22.8464 203.642 22.6823 203.78 22.5156C203.921 22.3464 204.103 22.2057 204.327 22.0938C204.554 21.9792 204.835 21.9219 205.171 21.9219C205.608 21.9219 206.012 22.0365 206.382 22.2656C206.752 22.4922 207.047 22.8346 207.269 23.293C207.49 23.7487 207.601 24.3203 207.601 25.0078C207.601 25.6771 207.493 26.2422 207.276 26.7031C207.063 27.1615 206.771 27.5091 206.401 27.7461C206.034 27.9805 205.623 28.0977 205.167 28.0977C204.844 28.0977 204.569 28.0443 204.343 27.9375C204.119 27.8307 203.935 27.6966 203.792 27.5352C203.649 27.3711 203.539 27.2057 203.464 27.0391H203.413V30.25H201.749ZM203.378 25C203.378 25.3568 203.427 25.668 203.526 25.9336C203.625 26.1992 203.769 26.4062 203.956 26.5547C204.144 26.7005 204.371 26.7734 204.64 26.7734C204.91 26.7734 205.14 26.6992 205.327 26.5508C205.515 26.3997 205.657 26.1914 205.753 25.9258C205.852 25.6576 205.901 25.349 205.901 25C205.901 24.6536 205.853 24.349 205.757 24.0859C205.66 23.8229 205.519 23.6172 205.331 23.4687C205.144 23.3203 204.913 23.2461 204.64 23.2461C204.369 23.2461 204.14 23.3177 203.952 23.4609C203.767 23.6042 203.625 23.8073 203.526 24.0703C203.427 24.3333 203.378 24.6432 203.378 25ZM210.374 20V28H208.71V20H210.374ZM213.418 28.1133C213.035 28.1133 212.694 28.0469 212.395 27.9141C212.095 27.7786 211.858 27.5794 211.684 27.3164C211.512 27.0508 211.426 26.7201 211.426 26.3242C211.426 25.9909 211.487 25.7109 211.609 25.4844C211.732 25.2578 211.898 25.0755 212.109 24.9375C212.32 24.7995 212.56 24.6953 212.828 24.625C213.099 24.5547 213.383 24.5052 213.68 24.4766C214.029 24.4401 214.31 24.4062 214.523 24.375C214.737 24.3411 214.892 24.2917 214.988 24.2266C215.085 24.1615 215.133 24.0651 215.133 23.9375V23.9141C215.133 23.6667 215.055 23.4753 214.898 23.3398C214.745 23.2044 214.526 23.1367 214.242 23.1367C213.943 23.1367 213.704 23.2031 213.527 23.3359C213.35 23.4661 213.233 23.6302 213.176 23.8281L211.637 23.7031C211.715 23.3385 211.868 23.0234 212.098 22.7578C212.327 22.4896 212.622 22.2839 212.984 22.1406C213.349 21.9948 213.771 21.9219 214.25 21.9219C214.583 21.9219 214.902 21.9609 215.207 22.0391C215.514 22.1172 215.786 22.2383 216.023 22.4023C216.263 22.5664 216.452 22.7773 216.59 23.0352C216.728 23.2904 216.797 23.5964 216.797 23.9531V28H215.219V27.168H215.172C215.076 27.3555 214.947 27.5208 214.785 27.6641C214.624 27.8047 214.43 27.9154 214.203 27.9961C213.977 28.0742 213.715 28.1133 213.418 28.1133ZM213.895 26.9648C214.139 26.9648 214.355 26.9167 214.543 26.8203C214.73 26.7214 214.878 26.5885 214.984 26.4219C215.091 26.2552 215.145 26.0664 215.145 25.8555V25.2188C215.092 25.2526 215.021 25.2839 214.93 25.3125C214.841 25.3385 214.741 25.3633 214.629 25.3867C214.517 25.4076 214.405 25.4271 214.293 25.4453C214.181 25.4609 214.079 25.4753 213.988 25.4883C213.793 25.5169 213.622 25.5625 213.477 25.625C213.331 25.6875 213.217 25.7721 213.137 25.8789C213.056 25.9831 213.016 26.1133 213.016 26.2695C213.016 26.4961 213.098 26.6693 213.262 26.7891C213.428 26.9062 213.639 26.9648 213.895 26.9648ZM221.279 22V23.25H217.666V22H221.279ZM218.486 20.5625H220.15V26.1562C220.15 26.3099 220.174 26.4297 220.221 26.5156C220.268 26.599 220.333 26.6576 220.416 26.6914C220.502 26.7253 220.601 26.7422 220.713 26.7422C220.791 26.7422 220.869 26.7357 220.947 26.7227C221.025 26.707 221.085 26.6953 221.127 26.6875L221.389 27.9258C221.305 27.9518 221.188 27.9818 221.037 28.0156C220.886 28.0521 220.702 28.0742 220.486 28.082C220.085 28.0977 219.734 28.0443 219.432 27.9219C219.132 27.7995 218.899 27.6094 218.732 27.3516C218.566 27.0937 218.484 26.7682 218.486 26.375V20.5625ZM225.033 28.1172C224.416 28.1172 223.885 27.9922 223.439 27.7422C222.997 27.4896 222.656 27.1328 222.416 26.6719C222.176 26.2083 222.057 25.6602 222.057 25.0273C222.057 24.4102 222.176 23.8685 222.416 23.4023C222.656 22.9362 222.993 22.5729 223.428 22.3125C223.865 22.0521 224.378 21.9219 224.967 21.9219C225.363 21.9219 225.731 21.9857 226.072 22.1133C226.416 22.2383 226.715 22.4271 226.971 22.6797C227.229 22.9323 227.429 23.25 227.572 23.6328C227.715 24.013 227.787 24.4583 227.787 24.9687V25.4258H222.721V24.3945H226.221C226.221 24.1549 226.169 23.9427 226.064 23.7578C225.96 23.5729 225.816 23.4284 225.631 23.3242C225.449 23.2174 225.236 23.1641 224.994 23.1641C224.742 23.1641 224.518 23.2227 224.322 23.3398C224.13 23.4544 223.979 23.6094 223.869 23.8047C223.76 23.9974 223.704 24.2122 223.701 24.4492V25.4297C223.701 25.7266 223.756 25.9831 223.865 26.1992C223.977 26.4154 224.135 26.582 224.338 26.6992C224.541 26.8164 224.782 26.875 225.061 26.875C225.245 26.875 225.415 26.849 225.568 26.7969C225.722 26.7448 225.854 26.6667 225.963 26.5625C226.072 26.4583 226.156 26.3307 226.213 26.1797L227.752 26.2812C227.674 26.651 227.514 26.974 227.271 27.25C227.032 27.5234 226.722 27.737 226.342 27.8906C225.964 28.0417 225.528 28.1172 225.033 28.1172Z" fill="#070813"/>
<path d="M233.293 64.2929C232.902 64.6834 232.902 65.3166 233.293 65.7071L239.657 72.0711C240.047 72.4616 240.681 72.4616 241.071 72.0711C241.462 71.6805 241.462 71.0474 241.071 70.6569L235.414 65L241.071 59.3431C241.462 58.9526 241.462 58.3195 241.071 57.9289C240.681 57.5384 240.047 57.5384 239.657 57.9289L233.293 64.2929ZM255 64H234V66H255V64Z" fill="#070813"/>
<path d="M264.605 57V49H267.91C268.509 49 269.026 49.1172 269.461 49.3516C269.898 49.5833 270.236 49.9076 270.473 50.3242C270.71 50.7383 270.828 51.2201 270.828 51.7695C270.828 52.3216 270.707 52.8047 270.465 53.2188C270.225 53.6302 269.883 53.9492 269.438 54.1758C268.992 54.4023 268.464 54.5156 267.852 54.5156H265.813V52.9922H267.492C267.784 52.9922 268.027 52.9414 268.223 52.8398C268.421 52.7383 268.57 52.5964 268.672 52.4141C268.773 52.2292 268.824 52.0143 268.824 51.7695C268.824 51.5221 268.773 51.3086 268.672 51.1289C268.57 50.9466 268.421 50.806 268.223 50.707C268.025 50.6081 267.781 50.5586 267.492 50.5586H266.539V57H264.605ZM273.258 57.1016C272.875 57.1016 272.535 57.0378 272.238 56.9102C271.944 56.7799 271.711 56.5846 271.539 56.3242C271.37 56.0612 271.285 55.7318 271.285 55.3359C271.285 55.0026 271.344 54.7214 271.461 54.4922C271.578 54.263 271.74 54.0768 271.945 53.9336C272.151 53.7904 272.388 53.6823 272.656 53.6094C272.924 53.5339 273.211 53.4831 273.516 53.457C273.857 53.4258 274.132 53.3932 274.34 53.3594C274.548 53.3229 274.699 53.2721 274.793 53.207C274.889 53.1393 274.938 53.0443 274.938 52.9219V52.9023C274.938 52.7018 274.868 52.5469 274.73 52.4375C274.592 52.3281 274.406 52.2734 274.172 52.2734C273.919 52.2734 273.716 52.3281 273.563 52.4375C273.409 52.5469 273.311 52.6979 273.27 52.8906L271.508 52.8281C271.56 52.4635 271.694 52.138 271.91 51.8516C272.129 51.5625 272.428 51.3359 272.809 51.1719C273.191 51.0052 273.651 50.9219 274.188 50.9219C274.57 50.9219 274.923 50.9674 275.246 51.0586C275.569 51.1471 275.85 51.2773 276.09 51.4492C276.329 51.6185 276.514 51.8268 276.645 52.0742C276.777 52.3216 276.844 52.6042 276.844 52.9219V57H275.047V56.1641H275C274.893 56.3672 274.757 56.5391 274.59 56.6797C274.426 56.8203 274.232 56.9258 274.008 56.9961C273.786 57.0664 273.536 57.1016 273.258 57.1016ZM273.848 55.8516C274.053 55.8516 274.238 55.8099 274.402 55.7266C274.569 55.6432 274.702 55.5286 274.801 55.3828C274.9 55.2344 274.949 55.0625 274.949 54.8672V54.2969C274.895 54.3255 274.828 54.3516 274.75 54.375C274.674 54.3984 274.591 54.4206 274.5 54.4414C274.409 54.4622 274.315 54.4805 274.219 54.4961C274.122 54.5117 274.03 54.526 273.941 54.5391C273.762 54.5677 273.608 54.612 273.48 54.6719C273.355 54.7318 273.259 54.8099 273.191 54.9062C273.126 55 273.094 55.112 273.094 55.2422C273.094 55.4401 273.164 55.5911 273.305 55.6953C273.448 55.7995 273.629 55.8516 273.848 55.8516ZM278.012 57V51H279.867V52.0937H279.93C280.039 51.6979 280.217 51.4036 280.465 51.2109C280.712 51.0156 281 50.918 281.328 50.918C281.417 50.918 281.508 50.9245 281.602 50.9375C281.695 50.9479 281.783 50.9648 281.863 50.9883V52.6484C281.772 52.6172 281.652 52.5924 281.504 52.5742C281.358 52.556 281.228 52.5469 281.113 52.5469C280.887 52.5469 280.682 52.5977 280.5 52.6992C280.32 52.7982 280.178 52.9375 280.074 53.1172C279.973 53.2943 279.922 53.5026 279.922 53.7422V57H278.012ZM284.107 57.1016C283.725 57.1016 283.385 57.0378 283.088 56.9102C282.794 56.7799 282.561 56.5846 282.389 56.3242C282.219 56.0612 282.135 55.7318 282.135 55.3359C282.135 55.0026 282.193 54.7214 282.311 54.4922C282.428 54.263 282.589 54.0768 282.795 53.9336C283.001 53.7904 283.238 53.6823 283.506 53.6094C283.774 53.5339 284.061 53.4831 284.365 53.457C284.706 53.4258 284.981 53.3932 285.189 53.3594C285.398 53.3229 285.549 53.2721 285.643 53.207C285.739 53.1393 285.787 53.0443 285.787 52.9219V52.9023C285.787 52.7018 285.718 52.5469 285.58 52.4375C285.442 52.3281 285.256 52.2734 285.021 52.2734C284.769 52.2734 284.566 52.3281 284.412 52.4375C284.258 52.5469 284.161 52.6979 284.119 52.8906L282.357 52.8281C282.41 52.4635 282.544 52.138 282.76 51.8516C282.979 51.5625 283.278 51.3359 283.658 51.1719C284.041 51.0052 284.501 50.9219 285.037 50.9219C285.42 50.9219 285.773 50.9674 286.096 51.0586C286.419 51.1471 286.7 51.2773 286.939 51.4492C287.179 51.6185 287.364 51.8268 287.494 52.0742C287.627 52.3216 287.693 52.6042 287.693 52.9219V57H285.896V56.1641H285.85C285.743 56.3672 285.606 56.5391 285.439 56.6797C285.275 56.8203 285.081 56.9258 284.857 56.9961C284.636 57.0664 284.386 57.1016 284.107 57.1016ZM284.697 55.8516C284.903 55.8516 285.088 55.8099 285.252 55.7266C285.419 55.6432 285.551 55.5286 285.65 55.3828C285.749 55.2344 285.799 55.0625 285.799 54.8672V54.2969C285.744 54.3255 285.678 54.3516 285.6 54.375C285.524 54.3984 285.441 54.4206 285.35 54.4414C285.258 54.4622 285.165 54.4805 285.068 54.4961C284.972 54.5117 284.88 54.526 284.791 54.5391C284.611 54.5677 284.458 54.612 284.33 54.6719C284.205 54.7318 284.109 54.8099 284.041 54.9062C283.976 55 283.943 55.112 283.943 55.2422C283.943 55.4401 284.014 55.5911 284.154 55.6953C284.298 55.7995 284.479 55.8516 284.697 55.8516ZM288.861 57V51H290.678V52.1016H290.744C290.869 51.737 291.08 51.4492 291.377 51.2383C291.674 51.0273 292.028 50.9219 292.439 50.9219C292.856 50.9219 293.213 51.0286 293.51 51.2422C293.807 51.4557 293.995 51.7422 294.076 52.1016H294.139C294.251 51.7448 294.469 51.4596 294.795 51.2461C295.12 51.0299 295.505 50.9219 295.947 50.9219C296.515 50.9219 296.976 51.1042 297.33 51.4687C297.684 51.8307 297.861 52.3281 297.861 52.9609V57H295.951V53.3984C295.951 53.099 295.874 52.8711 295.721 52.7148C295.567 52.556 295.368 52.4766 295.123 52.4766C294.86 52.4766 294.653 52.5625 294.502 52.7344C294.354 52.9036 294.279 53.1315 294.279 53.418V57H292.443V53.3789C292.443 53.1003 292.368 52.8802 292.217 52.7187C292.066 52.5573 291.867 52.4766 291.619 52.4766C291.452 52.4766 291.305 52.5169 291.178 52.5977C291.05 52.6758 290.95 52.7878 290.877 52.9336C290.807 53.0794 290.771 53.2513 290.771 53.4492V57H288.861ZM301.85 57.1133C301.222 57.1133 300.68 56.9896 300.225 56.7422C299.771 56.4922 299.423 56.1367 299.178 55.6758C298.936 55.2122 298.814 54.6615 298.814 54.0234C298.814 53.4036 298.937 52.862 299.182 52.3984C299.426 51.9323 299.771 51.5703 300.217 51.3125C300.662 51.0521 301.187 50.9219 301.791 50.9219C302.218 50.9219 302.609 50.9883 302.963 51.1211C303.317 51.2539 303.623 51.4505 303.881 51.7109C304.139 51.9714 304.339 52.293 304.482 52.6758C304.626 53.056 304.697 53.4922 304.697 53.9844V54.4609H299.482V53.3516H302.92C302.917 53.1484 302.869 52.9674 302.775 52.8086C302.682 52.6497 302.553 52.526 302.389 52.4375C302.227 52.3464 302.041 52.3008 301.83 52.3008C301.617 52.3008 301.425 52.349 301.256 52.4453C301.087 52.5391 300.952 52.668 300.854 52.832C300.755 52.9935 300.702 53.1771 300.697 53.3828V54.5117C300.697 54.7565 300.745 54.9714 300.842 55.1562C300.938 55.3385 301.075 55.4805 301.252 55.582C301.429 55.6836 301.64 55.7344 301.885 55.7344C302.054 55.7344 302.208 55.7109 302.346 55.6641C302.484 55.6172 302.602 55.5482 302.701 55.457C302.8 55.3659 302.874 55.2539 302.924 55.1211L304.678 55.1719C304.605 55.5651 304.445 55.9076 304.197 56.1992C303.952 56.4883 303.631 56.7135 303.232 56.875C302.834 57.0339 302.373 57.1133 301.85 57.1133ZM309.06 51V52.4062H305.274V51H309.06ZM306.067 49.5625H307.978V55.1133C307.978 55.2305 307.996 55.3255 308.032 55.3984C308.071 55.4687 308.127 55.5195 308.2 55.5508C308.273 55.5794 308.36 55.5938 308.462 55.5938C308.535 55.5938 308.612 55.5872 308.692 55.5742C308.776 55.5586 308.838 55.5456 308.88 55.5352L309.169 56.9141C309.078 56.9401 308.949 56.9727 308.782 57.0117C308.618 57.0508 308.422 57.0755 308.192 57.0859C307.744 57.1068 307.36 57.0547 307.04 56.9297C306.722 56.8021 306.479 56.6042 306.31 56.3359C306.143 56.0677 306.062 55.7305 306.067 55.3242V49.5625ZM312.774 57.1133C312.147 57.1133 311.605 56.9896 311.149 56.7422C310.696 56.4922 310.347 56.1367 310.103 55.6758C309.86 55.2122 309.739 54.6615 309.739 54.0234C309.739 53.4036 309.862 52.862 310.106 52.3984C310.351 51.9323 310.696 51.5703 311.142 51.3125C311.587 51.0521 312.112 50.9219 312.716 50.9219C313.143 50.9219 313.534 50.9883 313.888 51.1211C314.242 51.2539 314.548 51.4505 314.806 51.7109C315.063 51.9714 315.264 52.293 315.407 52.6758C315.55 53.056 315.622 53.4922 315.622 53.9844V54.4609H310.407V53.3516H313.845C313.842 53.1484 313.794 52.9674 313.7 52.8086C313.606 52.6497 313.478 52.526 313.313 52.4375C313.152 52.3464 312.966 52.3008 312.755 52.3008C312.541 52.3008 312.35 52.349 312.181 52.4453C312.011 52.5391 311.877 52.668 311.778 52.832C311.679 52.9935 311.627 53.1771 311.622 53.3828V54.5117C311.622 54.7565 311.67 54.9714 311.767 55.1562C311.863 55.3385 312 55.4805 312.177 55.582C312.354 55.6836 312.565 55.7344 312.81 55.7344C312.979 55.7344 313.132 55.7109 313.271 55.6641C313.409 55.6172 313.527 55.5482 313.626 55.457C313.725 55.3659 313.799 55.2539 313.849 55.1211L315.603 55.1719C315.53 55.5651 315.369 55.9076 315.122 56.1992C314.877 56.4883 314.556 56.7135 314.157 56.875C313.759 57.0339 313.298 57.1133 312.774 57.1133ZM316.598 57V51H318.453V52.0937H318.516C318.625 51.6979 318.803 51.4036 319.051 51.2109C319.298 51.0156 319.586 50.918 319.914 50.918C320.003 50.918 320.094 50.9245 320.188 50.9375C320.281 50.9479 320.368 50.9648 320.449 50.9883V52.6484C320.358 52.6172 320.238 52.5924 320.09 52.5742C319.944 52.556 319.814 52.5469 319.699 52.5469C319.473 52.5469 319.268 52.5977 319.086 52.6992C318.906 52.7982 318.764 52.9375 318.66 53.1172C318.559 53.2943 318.508 53.5026 318.508 53.7422V57H316.598ZM326.466 52.832L324.712 52.8789C324.694 52.7539 324.644 52.6432 324.563 52.5469C324.483 52.4479 324.377 52.3711 324.247 52.3164C324.119 52.2591 323.971 52.2305 323.802 52.2305C323.58 52.2305 323.392 52.2747 323.235 52.3633C323.082 52.4518 323.006 52.5716 323.009 52.7227C323.006 52.8398 323.053 52.9414 323.149 53.0273C323.248 53.1133 323.424 53.1823 323.677 53.2344L324.833 53.4531C325.432 53.5677 325.877 53.7578 326.169 54.0234C326.463 54.2891 326.612 54.6406 326.614 55.0781C326.612 55.4896 326.489 55.8477 326.247 56.1523C326.007 56.457 325.679 56.694 325.263 56.8633C324.846 57.0299 324.369 57.1133 323.833 57.1133C322.976 57.1133 322.3 56.9375 321.806 56.5859C321.313 56.2318 321.032 55.7578 320.962 55.1641L322.849 55.1172C322.89 55.3359 322.998 55.5026 323.173 55.6172C323.347 55.7318 323.57 55.7891 323.841 55.7891C324.086 55.7891 324.285 55.7435 324.438 55.6523C324.592 55.5612 324.67 55.4401 324.673 55.2891C324.67 55.1536 324.61 55.0456 324.493 54.9648C324.376 54.8815 324.192 54.8164 323.942 54.7695L322.896 54.5703C322.294 54.4609 321.846 54.2591 321.552 53.9648C321.257 53.668 321.112 53.2904 321.114 52.832C321.112 52.431 321.218 52.0885 321.435 51.8047C321.651 51.5182 321.958 51.2995 322.356 51.1484C322.755 50.9974 323.225 50.9219 323.767 50.9219C324.579 50.9219 325.22 51.0924 325.688 51.4336C326.157 51.7721 326.416 52.2383 326.466 52.832ZM331.258 48.625L328.68 58.2031H327.051L329.629 48.625H331.258ZM333.903 49V57H331.97V49H333.903ZM337.027 53.5781V57H335.117V51H336.934V52.1016H337C337.133 51.7344 337.359 51.4466 337.68 51.2383C338 51.0273 338.382 50.9219 338.824 50.9219C339.246 50.9219 339.612 51.0169 339.922 51.207C340.234 51.3945 340.477 51.6576 340.648 51.9961C340.823 52.332 340.909 52.7253 340.906 53.1758V57H338.996V53.5508C338.999 53.2174 338.914 52.957 338.742 52.7695C338.573 52.582 338.337 52.4883 338.035 52.4883C337.835 52.4883 337.658 52.5326 337.504 52.6211C337.353 52.707 337.236 52.8307 337.152 52.9922C337.072 53.1536 337.03 53.349 337.027 53.5781ZM342.089 59.25V51H343.979V52.0273H344.038C344.116 51.8451 344.227 51.6693 344.37 51.5C344.516 51.3307 344.701 51.1927 344.925 51.0859C345.151 50.9766 345.422 50.9219 345.737 50.9219C346.154 50.9219 346.543 51.0312 346.905 51.25C347.27 51.4687 347.564 51.806 347.788 52.2617C348.012 52.7174 348.124 53.2982 348.124 54.0039C348.124 54.6836 348.016 55.2526 347.8 55.7109C347.586 56.1693 347.297 56.513 346.933 56.7422C346.571 56.9714 346.168 57.0859 345.726 57.0859C345.424 57.0859 345.162 57.0365 344.94 56.9375C344.719 56.8385 344.533 56.7083 344.382 56.5469C344.233 56.3854 344.119 56.2122 344.038 56.0273H343.999V59.25H342.089ZM343.96 54C343.96 54.3229 344.003 54.6042 344.089 54.8437C344.177 55.0833 344.304 55.2695 344.468 55.4023C344.634 55.5326 344.834 55.5977 345.065 55.5977C345.3 55.5977 345.499 55.5326 345.663 55.4023C345.827 55.2695 345.951 55.0833 346.034 54.8437C346.12 54.6042 346.163 54.3229 346.163 54C346.163 53.6771 346.12 53.3971 346.034 53.1602C345.951 52.9232 345.827 52.7396 345.663 52.6094C345.502 52.4792 345.302 52.4141 345.065 52.4141C344.831 52.4141 344.632 52.4779 344.468 52.6055C344.304 52.7331 344.177 52.9154 344.089 53.1523C344.003 53.3893 343.96 53.6719 343.96 54ZM352.996 54.4102V51H354.902V57H353.082V55.8828H353.02C352.887 56.25 352.66 56.5417 352.34 56.7578C352.022 56.9714 351.638 57.0781 351.188 57.0781C350.779 57.0781 350.419 56.9844 350.109 56.7969C349.799 56.6094 349.559 56.3477 349.387 56.0117C349.215 55.6732 349.128 55.2773 349.125 54.8242V51H351.035V54.4492C351.038 54.7747 351.124 55.0312 351.293 55.2187C351.462 55.4062 351.693 55.5 351.984 55.5C352.174 55.5 352.345 55.4583 352.496 55.375C352.65 55.2891 352.771 55.1654 352.859 55.0039C352.951 54.8398 352.996 54.6419 352.996 54.4102ZM359.505 51V52.4062H355.72V51H359.505ZM356.513 49.5625H358.423V55.1133C358.423 55.2305 358.441 55.3255 358.478 55.3984C358.517 55.4687 358.573 55.5195 358.646 55.5508C358.718 55.5794 358.806 55.5938 358.907 55.5938C358.98 55.5938 359.057 55.5872 359.138 55.5742C359.221 55.5586 359.284 55.5456 359.325 55.5352L359.614 56.9141C359.523 56.9401 359.394 56.9727 359.228 57.0117C359.063 57.0508 358.867 57.0755 358.638 57.0859C358.19 57.1068 357.806 57.0547 357.485 56.9297C357.168 56.8021 356.924 56.6042 356.755 56.3359C356.588 56.0677 356.507 55.7305 356.513 55.3242V49.5625Z" fill="#070813"/>
<path d="M264.924 74.98V66.95H266.101V68.105H266.354L266.101 68.38C266.101 67.9033 266.248 67.5293 266.541 67.258C266.842 66.9793 267.241 66.84 267.74 66.84C268.349 66.84 268.833 67.0453 269.192 67.456C269.559 67.8593 269.742 68.413 269.742 69.117V70.822C269.742 71.2913 269.658 71.6983 269.489 72.043C269.328 72.3803 269.097 72.6443 268.796 72.835C268.503 73.0183 268.151 73.11 267.74 73.11C267.249 73.11 266.853 72.9743 266.552 72.703C266.251 72.4243 266.101 72.0467 266.101 71.57L266.354 71.845H266.079L266.112 73.253V74.98H264.924ZM267.333 72.076C267.722 72.076 268.022 71.966 268.235 71.746C268.455 71.5187 268.565 71.1923 268.565 70.767V69.183C268.565 68.7577 268.455 68.435 268.235 68.215C268.022 67.9877 267.722 67.874 267.333 67.874C266.959 67.874 266.662 67.9913 266.442 68.226C266.222 68.4533 266.112 68.7723 266.112 69.183V70.767C266.112 71.1777 266.222 71.5003 266.442 71.735C266.662 71.9623 266.959 72.076 267.333 72.076ZM273.291 73.11C272.66 73.11 272.161 72.9487 271.795 72.626C271.435 72.296 271.256 71.8487 271.256 71.284C271.256 70.712 271.446 70.2647 271.828 69.942C272.216 69.612 272.748 69.447 273.423 69.447H275.106V68.886C275.106 68.556 275.003 68.2993 274.798 68.116C274.592 67.9327 274.303 67.841 273.929 67.841C273.599 67.841 273.324 67.9143 273.104 68.061C272.884 68.2003 272.755 68.3873 272.719 68.622H271.553C271.619 68.0793 271.868 67.6467 272.301 67.324C272.741 67.0013 273.294 66.84 273.962 66.84C274.68 66.84 275.249 67.0233 275.667 67.39C276.085 67.7493 276.294 68.2407 276.294 68.864V73H275.139V71.889H274.941L275.139 71.669C275.139 72.109 274.97 72.461 274.633 72.725C274.295 72.9817 273.848 73.11 273.291 73.11ZM273.643 72.197C274.068 72.197 274.416 72.0907 274.688 71.878C274.966 71.658 275.106 71.3793 275.106 71.042V70.25H273.445C273.137 70.25 272.891 70.3343 272.708 70.503C272.532 70.6717 272.444 70.9027 272.444 71.196C272.444 71.504 272.55 71.7497 272.763 71.933C272.975 72.109 273.269 72.197 273.643 72.197ZM278.313 73V66.95H279.457V68.105H279.743L279.38 68.82C279.38 68.1673 279.523 67.676 279.809 67.346C280.095 67.0087 280.521 66.84 281.085 66.84C281.731 66.84 282.24 67.0417 282.614 67.445C282.996 67.841 283.186 68.3873 283.186 69.084V69.491H281.965V69.183C281.965 68.7503 281.855 68.4203 281.635 68.193C281.423 67.9583 281.122 67.841 280.733 67.841C280.345 67.841 280.04 67.9583 279.82 68.193C279.608 68.4277 279.501 68.7577 279.501 69.183V73H278.313ZM286.482 73.11C285.851 73.11 285.353 72.9487 284.986 72.626C284.627 72.296 284.447 71.8487 284.447 71.284C284.447 70.712 284.638 70.2647 285.019 69.942C285.408 69.612 285.939 69.447 286.614 69.447H288.297V68.886C288.297 68.556 288.194 68.2993 287.989 68.116C287.784 67.9327 287.494 67.841 287.12 67.841C286.79 67.841 286.515 67.9143 286.295 68.061C286.075 68.2003 285.947 68.3873 285.91 68.622H284.744C284.81 68.0793 285.059 67.6467 285.492 67.324C285.932 67.0013 286.486 66.84 287.153 66.84C287.872 66.84 288.44 67.0233 288.858 67.39C289.276 67.7493 289.485 68.2407 289.485 68.864V73H288.33V71.889H288.132L288.33 71.669C288.33 72.109 288.161 72.461 287.824 72.725C287.487 72.9817 287.039 73.11 286.482 73.11ZM286.834 72.197C287.259 72.197 287.608 72.0907 287.879 71.878C288.158 71.658 288.297 71.3793 288.297 71.042V70.25H286.636C286.328 70.25 286.082 70.3343 285.899 70.503C285.723 70.6717 285.635 70.9027 285.635 71.196C285.635 71.504 285.741 71.7497 285.954 71.933C286.167 72.109 286.46 72.197 286.834 72.197ZM291.032 73V66.95H292.022V67.72H292.242L292.077 67.951C292.077 67.6137 292.168 67.346 292.352 67.148C292.535 66.9427 292.781 66.84 293.089 66.84C293.419 66.84 293.672 66.9683 293.848 67.225C294.031 67.4817 294.123 67.8337 294.123 68.281L293.859 67.72H294.277L294.101 67.951C294.101 67.6137 294.192 67.346 294.376 67.148C294.566 66.9427 294.819 66.84 295.135 66.84C295.509 66.84 295.802 66.983 296.015 67.269C296.227 67.5477 296.334 67.9217 296.334 68.391V73H295.278V68.424C295.278 68.1967 295.226 68.0207 295.124 67.896C295.028 67.7713 294.889 67.709 294.706 67.709C294.522 67.709 294.379 67.7713 294.277 67.896C294.181 68.0133 294.134 68.1857 294.134 68.413V73H293.243V68.424C293.243 68.1893 293.191 68.0133 293.089 67.896C292.986 67.7713 292.839 67.709 292.649 67.709C292.465 67.709 292.326 67.7713 292.231 67.896C292.143 68.0133 292.099 68.1857 292.099 68.413V73H291.032ZM300.07 73.099C299.637 73.099 299.256 73.0293 298.926 72.89C298.603 72.7507 298.346 72.56 298.156 72.318C297.972 72.0687 297.866 71.7753 297.837 71.438H299.025C299.054 71.636 299.16 71.7973 299.344 71.922C299.527 72.0393 299.769 72.098 300.07 72.098H300.543C300.902 72.098 301.173 72.0247 301.357 71.878C301.54 71.7313 301.632 71.537 301.632 71.295C301.632 71.0603 301.547 70.877 301.379 70.745C301.217 70.6057 300.975 70.514 300.653 70.47L299.872 70.349C299.226 70.2463 298.75 70.063 298.442 69.799C298.141 69.5277 297.991 69.128 297.991 68.6C297.991 68.0427 298.17 67.6137 298.53 67.313C298.896 67.005 299.435 66.851 300.147 66.851H300.565C301.195 66.851 301.698 66.9977 302.072 67.291C302.453 67.577 302.669 67.962 302.721 68.446H301.533C301.503 68.27 301.404 68.127 301.236 68.017C301.074 67.907 300.851 67.852 300.565 67.852H300.147C299.802 67.852 299.549 67.918 299.388 68.05C299.234 68.1747 299.157 68.3617 299.157 68.611C299.157 68.831 299.226 68.996 299.366 69.106C299.505 69.216 299.721 69.293 300.015 69.337L300.818 69.469C301.5 69.5643 301.998 69.755 302.314 70.041C302.636 70.3197 302.798 70.7267 302.798 71.262C302.798 71.8413 302.607 72.2923 302.226 72.615C301.852 72.9377 301.291 73.099 300.543 73.099H300.07ZM306.566 74.54V73.099C305.862 73.0403 305.309 72.8167 304.905 72.428C304.502 72.032 304.297 71.515 304.289 70.877H305.466C305.466 71.1923 305.562 71.4527 305.752 71.658C305.95 71.856 306.222 71.9807 306.566 72.032V69.436L306.313 69.37C305.727 69.2013 305.272 68.9153 304.949 68.512C304.634 68.1013 304.476 67.6137 304.476 67.049C304.476 66.4403 304.663 65.9417 305.037 65.553C305.411 65.1643 305.921 64.9407 306.566 64.882V63.43H307.237V64.871C307.883 64.9297 308.396 65.1533 308.777 65.542C309.159 65.9233 309.353 66.422 309.36 67.038H308.172C308.172 66.7373 308.092 66.4917 307.93 66.301C307.769 66.103 307.538 65.9783 307.237 65.927V68.402L307.633 68.523C308.22 68.6843 308.671 68.9703 308.986 69.381C309.302 69.7917 309.459 70.283 309.459 70.855C309.459 71.4783 309.258 71.9917 308.854 72.395C308.458 72.7983 307.919 73.033 307.237 73.099V74.54H306.566ZM307.237 72.043C307.567 71.9917 307.824 71.867 308.007 71.669C308.191 71.471 308.282 71.2143 308.282 70.899C308.282 70.5763 308.18 70.3013 307.974 70.074C307.776 69.8467 307.498 69.7037 307.138 69.645L307.237 69.414V72.043ZM306.566 68.732V65.927C306.273 65.9783 306.046 66.0957 305.884 66.279C305.73 66.455 305.653 66.686 305.653 66.972C305.653 67.324 305.767 67.621 305.994 67.863C306.229 68.0977 306.559 68.237 306.984 68.281L306.566 68.732ZM311.094 74.98V66.95H312.271V68.105H312.524L312.271 68.38C312.271 67.9033 312.418 67.5293 312.711 67.258C313.012 66.9793 313.411 66.84 313.91 66.84C314.519 66.84 315.003 67.0453 315.362 67.456C315.729 67.8593 315.912 68.413 315.912 69.117V70.822C315.912 71.2913 315.828 71.6983 315.659 72.043C315.498 72.3803 315.267 72.6443 314.966 72.835C314.673 73.0183 314.321 73.11 313.91 73.11C313.419 73.11 313.023 72.9743 312.722 72.703C312.421 72.4243 312.271 72.0467 312.271 71.57L312.524 71.845H312.249L312.282 73.253V74.98H311.094ZM313.503 72.076C313.892 72.076 314.192 71.966 314.405 71.746C314.625 71.5187 314.735 71.1923 314.735 70.767V69.183C314.735 68.7577 314.625 68.435 314.405 68.215C314.192 67.9877 313.892 67.874 313.503 67.874C313.129 67.874 312.832 67.9913 312.612 68.226C312.392 68.4533 312.282 68.7723 312.282 69.183V70.767C312.282 71.1777 312.392 71.5003 312.612 71.735C312.832 71.9623 313.129 72.076 313.503 72.076ZM319.461 73.11C318.83 73.11 318.331 72.9487 317.965 72.626C317.605 72.296 317.426 71.8487 317.426 71.284C317.426 70.712 317.616 70.2647 317.998 69.942C318.386 69.612 318.918 69.447 319.593 69.447H321.276V68.886C321.276 68.556 321.173 68.2993 320.968 68.116C320.762 67.9327 320.473 67.841 320.099 67.841C319.769 67.841 319.494 67.9143 319.274 68.061C319.054 68.2003 318.925 68.3873 318.889 68.622H317.723C317.789 68.0793 318.038 67.6467 318.471 67.324C318.911 67.0013 319.464 66.84 320.132 66.84C320.85 66.84 321.419 67.0233 321.837 67.39C322.255 67.7493 322.464 68.2407 322.464 68.864V73H321.309V71.889H321.111L321.309 71.669C321.309 72.109 321.14 72.461 320.803 72.725C320.465 72.9817 320.018 73.11 319.461 73.11ZM319.813 72.197C320.238 72.197 320.586 72.0907 320.858 71.878C321.136 71.658 321.276 71.3793 321.276 71.042V70.25H319.615C319.307 70.25 319.061 70.3343 318.878 70.503C318.702 70.6717 318.614 70.9027 318.614 71.196C318.614 71.504 318.72 71.7497 318.933 71.933C319.145 72.109 319.439 72.197 319.813 72.197ZM327.321 73C326.771 73 326.342 72.8497 326.034 72.549C325.726 72.2483 325.572 71.8303 325.572 71.295V68.028H323.9V66.95H325.572V65.245H326.76V66.95H329.125V68.028H326.76V71.295C326.76 71.713 326.962 71.922 327.365 71.922H329.015V73H327.321ZM330.881 73V64.97H332.069V66.95L332.058 68.105H332.344L332.058 68.38C332.058 67.896 332.201 67.5183 332.487 67.247C332.773 66.9757 333.169 66.84 333.675 66.84C334.276 66.84 334.757 67.0343 335.116 67.423C335.475 67.8043 335.655 68.3213 335.655 68.974V73H334.467V69.106C334.467 68.71 334.361 68.402 334.148 68.182C333.935 67.962 333.646 67.852 333.279 67.852C332.905 67.852 332.608 67.9693 332.388 68.204C332.175 68.4313 332.069 68.7577 332.069 69.183V73H330.881ZM339.853 73.099C339.354 73.099 338.921 73.0037 338.555 72.813C338.188 72.6223 337.906 72.351 337.708 71.999C337.51 71.647 337.411 71.2327 337.411 70.756V69.194C337.411 68.71 337.51 68.2957 337.708 67.951C337.906 67.599 338.188 67.3277 338.555 67.137C338.921 66.9463 339.354 66.851 339.853 66.851C340.351 66.851 340.784 66.9463 341.151 67.137C341.517 67.3277 341.8 67.599 341.998 67.951C342.196 68.2957 342.295 68.71 342.295 69.194V70.756C342.295 71.2327 342.196 71.647 341.998 71.999C341.8 72.351 341.517 72.6223 341.151 72.813C340.784 73.0037 340.351 73.099 339.853 73.099ZM339.853 72.054C340.256 72.054 340.568 71.944 340.788 71.724C341.008 71.4967 341.118 71.174 341.118 70.756V69.194C341.118 68.7687 341.008 68.446 340.788 68.226C340.568 68.006 340.256 67.896 339.853 67.896C339.457 67.896 339.145 68.006 338.918 68.226C338.698 68.446 338.588 68.7687 338.588 69.194V70.756C338.588 71.174 338.698 71.4967 338.918 71.724C339.145 71.944 339.457 72.054 339.853 72.054ZM344.864 74.98V73.957H346.723C347.031 73.957 347.259 73.8837 347.405 73.737C347.559 73.5903 347.636 73.374 347.636 73.088V72.483L347.658 71.361H347.405L347.647 71.141C347.647 71.603 347.501 71.966 347.207 72.23C346.921 72.494 346.533 72.626 346.041 72.626C345.418 72.626 344.927 72.4207 344.567 72.01C344.208 71.5993 344.028 71.0457 344.028 70.349V69.117C344.028 68.4203 344.208 67.8667 344.567 67.456C344.927 67.0453 345.418 66.84 346.041 66.84C346.533 66.84 346.921 66.9757 347.207 67.247C347.501 67.511 347.647 67.874 347.647 68.336L347.405 68.105H347.647L347.636 66.95H348.813V73.11C348.813 73.6893 348.63 74.144 348.263 74.474C347.897 74.8113 347.387 74.98 346.734 74.98H344.864ZM346.426 71.603C346.8 71.603 347.094 71.4893 347.306 71.262C347.526 71.0273 347.636 70.7047 347.636 70.294V69.183C347.636 68.7723 347.526 68.4533 347.306 68.226C347.094 67.9913 346.8 67.874 346.426 67.874C346.038 67.874 345.737 67.9877 345.524 68.215C345.319 68.435 345.216 68.7577 345.216 69.183V70.294C345.216 70.712 345.319 71.0347 345.524 71.262C345.737 71.4893 346.038 71.603 346.426 71.603ZM353.044 73.11C352.553 73.11 352.12 73.0147 351.746 72.824C351.379 72.626 351.097 72.351 350.899 71.999C350.701 71.647 350.602 71.2363 350.602 70.767V69.183C350.602 68.7063 350.701 68.2957 350.899 67.951C351.097 67.599 351.379 67.3277 351.746 67.137C352.12 66.939 352.553 66.84 353.044 66.84C353.543 66.84 353.975 66.939 354.342 67.137C354.709 67.3277 354.991 67.599 355.189 67.951C355.387 68.2957 355.486 68.7063 355.486 69.183V70.261H351.746V70.767C351.746 71.2143 351.856 71.5553 352.076 71.79C352.303 72.0247 352.63 72.142 353.055 72.142C353.4 72.142 353.678 72.0833 353.891 71.966C354.104 71.8413 354.236 71.6617 354.287 71.427H355.464C355.376 71.9403 355.112 72.351 354.672 72.659C354.232 72.9597 353.689 73.11 353.044 73.11ZM354.342 69.546V69.172C354.342 68.732 354.232 68.391 354.012 68.149C353.792 67.907 353.469 67.786 353.044 67.786C352.626 67.786 352.303 67.907 352.076 68.149C351.856 68.391 351.746 68.7357 351.746 69.183V69.458L354.43 69.447L354.342 69.546ZM357.264 73V66.95H358.441V68.105H358.727L358.441 68.38C358.441 67.896 358.584 67.5183 358.87 67.247C359.156 66.9757 359.552 66.84 360.058 66.84C360.659 66.84 361.14 67.0343 361.499 67.423C361.858 67.8043 362.038 68.3213 362.038 68.974V73H360.85V69.106C360.85 68.71 360.744 68.4057 360.531 68.193C360.318 67.9803 360.029 67.874 359.662 67.874C359.288 67.874 358.991 67.9877 358.771 68.215C358.558 68.435 358.452 68.7577 358.452 69.183V73H357.264Z" fill="#070813"/>
</g>
<defs>
<filter id="filter0_d_0_1" x="-4" y="0" width="417" height="257" filterUnits="userSpaceOnUse" color-interpolation-filters="sRGB">
<feFlood flood-opacity="0" result="BackgroundImageFix"/>
<feColorMatrix in="SourceAlpha" type="matrix" values="0 0 0 0 0 0 0 0 0 0 0 0 0 0 0 0 0 0 127 0" result="hardAlpha"/>
<feOffset dy="4"/>
<feGaussianBlur stdDeviation="2"/>
<feComposite in2="hardAlpha" operator="out"/>
<feColorMatrix type="matrix" values="0 0 0 0 0 0 0 0 0 0 0 0 0 0 0 0 0 0 0.25 0"/>
<feBlend mode="normal" in2="BackgroundImageFix" result="effect1_dropShadow_0_1"/>
<feBlend mode="normal" in="SourceGraphic" in2="effect1_dropShadow_0_1" result="shape"/>
</filter>
</defs>
</svg>
