<svg width="409" height="249" viewBox="0 0 409 249" fill="none" xmlns="http://www.w3.org/2000/svg">
<g filter="url(#filter0_d_0_1)">
<path d="M204 42H190C188.939 42 187.922 42.4214 187.172 43.1716C186.421 43.9217 186 44.9391 186 46V78C186 79.0609 186.421 80.0783 187.172 80.8284C187.922 81.5786 188.939 82 190 82H214C215.061 82 216.078 81.5786 216.828 80.8284C217.579 80.0783 218 79.0609 218 78V56M204 42L218 56M204 42V56H218" stroke="#14AE5C" stroke-width="4" stroke-linecap="round" stroke-linejoin="round"/>
<path d="M191.3 69.11C191.021 69.11 190.798 69.0293 190.629 68.868C190.468 68.7067 190.387 68.4903 190.387 68.219C190.387 67.933 190.468 67.7057 190.629 67.537C190.798 67.3683 191.021 67.284 191.3 67.284C191.579 67.284 191.799 67.3683 191.96 67.537C192.129 67.7057 192.213 67.933 192.213 68.219C192.213 68.4903 192.129 68.7067 191.96 68.868C191.799 69.0293 191.579 69.11 191.3 69.11ZM199.194 70.98V69.22L199.216 67.845H198.996L199.194 67.614C199.194 68.0687 199.043 68.4317 198.743 68.703C198.442 68.9743 198.042 69.11 197.544 69.11C196.935 69.11 196.451 68.9083 196.092 68.505C195.74 68.1017 195.564 67.5517 195.564 66.855V65.084C195.564 64.3873 195.743 63.841 196.103 63.445C196.462 63.0417 196.942 62.84 197.544 62.84C198.042 62.84 198.442 62.9757 198.743 63.247C199.043 63.511 199.194 63.874 199.194 64.336L198.996 64.105H199.194V62.95H200.184V70.98H199.194ZM197.874 68.252C198.284 68.252 198.607 68.1237 198.842 67.867C199.076 67.6103 199.194 67.2547 199.194 66.8V65.15C199.194 64.6953 199.076 64.3397 198.842 64.083C198.607 63.8263 198.284 63.698 197.874 63.698C197.456 63.698 197.129 63.8227 196.895 64.072C196.667 64.3213 196.554 64.6807 196.554 65.15V66.8C196.554 67.2693 196.667 67.6287 196.895 67.878C197.129 68.1273 197.456 68.252 197.874 68.252ZM201.917 69V62.95H202.786V63.676H202.984L202.83 63.94C202.83 63.6027 202.918 63.335 203.094 63.137C203.278 62.939 203.523 62.84 203.831 62.84C204.169 62.84 204.429 62.9647 204.612 63.214C204.796 63.4633 204.887 63.8153 204.887 64.27L204.59 63.676H205.052L204.843 63.94C204.843 63.6027 204.935 63.335 205.118 63.137C205.309 62.939 205.558 62.84 205.866 62.84C206.248 62.84 206.541 62.983 206.746 63.269C206.959 63.555 207.065 63.9327 207.065 64.402V69H206.152V64.391C206.152 64.1417 206.097 63.9473 205.987 63.808C205.885 63.6687 205.731 63.599 205.525 63.599C205.327 63.599 205.17 63.6687 205.052 63.808C204.942 63.94 204.887 64.1307 204.887 64.38V69H204.095V64.391C204.095 64.1343 204.037 63.94 203.919 63.808C203.809 63.6687 203.652 63.599 203.446 63.599C203.241 63.599 203.087 63.6687 202.984 63.808C202.882 63.94 202.83 64.1307 202.83 64.38V69H201.917ZM210.735 69.11C210.134 69.11 209.646 68.9083 209.272 68.505C208.905 68.1017 208.722 67.5553 208.722 66.866V65.095C208.722 64.3983 208.905 63.8483 209.272 63.445C209.639 63.0417 210.126 62.84 210.735 62.84C211.234 62.84 211.633 62.9757 211.934 63.247C212.235 63.5183 212.385 63.8813 212.385 64.336L212.187 64.105H212.407L212.385 62.73V60.97H213.375V69H212.385V67.845H212.187L212.385 67.614C212.385 68.076 212.235 68.4427 211.934 68.714C211.633 68.978 211.234 69.11 210.735 69.11ZM211.065 68.252C211.476 68.252 211.798 68.1237 212.033 67.867C212.268 67.6103 212.385 67.2547 212.385 66.8V65.15C212.385 64.6953 212.268 64.3397 212.033 64.083C211.798 63.8263 211.476 63.698 211.065 63.698C210.647 63.698 210.317 63.8227 210.075 64.072C209.833 64.3213 209.712 64.6807 209.712 65.15V66.8C209.712 67.2693 209.833 67.6287 210.075 67.878C210.317 68.1273 210.647 68.252 211.065 68.252Z" fill="white"/>
<path d="M178.391 21.3945V20H184.961V21.3945H182.512V28H180.84V21.3945H178.391ZM187.876 28.1172C187.259 28.1172 186.728 27.9922 186.282 27.7422C185.84 27.4896 185.498 27.1328 185.259 26.6719C185.019 26.2083 184.899 25.6602 184.899 25.0273C184.899 24.4102 185.019 23.8685 185.259 23.4023C185.498 22.9362 185.836 22.5729 186.271 22.3125C186.708 22.0521 187.221 21.9219 187.81 21.9219C188.205 21.9219 188.574 21.9857 188.915 22.1133C189.259 22.2383 189.558 22.4271 189.813 22.6797C190.071 22.9323 190.272 23.25 190.415 23.6328C190.558 24.013 190.63 24.4583 190.63 24.9687V25.4258H185.563V24.3945H189.063C189.063 24.1549 189.011 23.9427 188.907 23.7578C188.803 23.5729 188.659 23.4284 188.474 23.3242C188.291 23.2174 188.079 23.1641 187.837 23.1641C187.584 23.1641 187.36 23.2227 187.165 23.3398C186.972 23.4544 186.821 23.6094 186.712 23.8047C186.603 23.9974 186.547 24.2122 186.544 24.4492V25.4297C186.544 25.7266 186.599 25.9831 186.708 26.1992C186.82 26.4154 186.978 26.582 187.181 26.6992C187.384 26.8164 187.625 26.875 187.903 26.875C188.088 26.875 188.257 26.849 188.411 26.7969C188.565 26.7448 188.696 26.6667 188.806 26.5625C188.915 26.4583 188.998 26.3307 189.056 26.1797L190.595 26.2812C190.517 26.651 190.356 26.974 190.114 27.25C189.875 27.5234 189.565 27.737 189.185 27.8906C188.807 28.0417 188.371 28.1172 187.876 28.1172ZM191.716 28V22H193.302V23.0586H193.372C193.497 22.707 193.705 22.4297 193.997 22.2266C194.289 22.0234 194.638 21.9219 195.044 21.9219C195.455 21.9219 195.806 22.0247 196.095 22.2305C196.384 22.4336 196.576 22.7096 196.673 23.0586H196.735C196.858 22.7148 197.079 22.4401 197.399 22.2344C197.722 22.026 198.104 21.9219 198.544 21.9219C199.104 21.9219 199.558 22.1003 199.907 22.457C200.259 22.8112 200.435 23.3138 200.435 23.9648V28H198.774V24.293C198.774 23.9596 198.686 23.7096 198.509 23.543C198.332 23.3763 198.11 23.293 197.845 23.293C197.543 23.293 197.307 23.3893 197.138 23.582C196.968 23.7721 196.884 24.0234 196.884 24.3359V28H195.271V24.2578C195.271 23.9635 195.186 23.7292 195.017 23.5547C194.85 23.3802 194.63 23.293 194.356 23.293C194.172 23.293 194.005 23.3398 193.856 23.4336C193.711 23.5247 193.595 23.6536 193.509 23.8203C193.423 23.9844 193.38 24.1771 193.38 24.3984V28H191.716ZM201.749 30.25V22H203.39V23.0078H203.464C203.537 22.8464 203.642 22.6823 203.78 22.5156C203.921 22.3464 204.103 22.2057 204.327 22.0938C204.554 21.9792 204.835 21.9219 205.171 21.9219C205.608 21.9219 206.012 22.0365 206.382 22.2656C206.752 22.4922 207.047 22.8346 207.269 23.293C207.49 23.7487 207.601 24.3203 207.601 25.0078C207.601 25.6771 207.493 26.2422 207.276 26.7031C207.063 27.1615 206.771 27.5091 206.401 27.7461C206.034 27.9805 205.623 28.0977 205.167 28.0977C204.844 28.0977 204.569 28.0443 204.343 27.9375C204.119 27.8307 203.935 27.6966 203.792 27.5352C203.649 27.3711 203.539 27.2057 203.464 27.0391H203.413V30.25H201.749ZM203.378 25C203.378 25.3568 203.427 25.668 203.526 25.9336C203.625 26.1992 203.769 26.4062 203.956 26.5547C204.144 26.7005 204.371 26.7734 204.64 26.7734C204.91 26.7734 205.14 26.6992 205.327 26.5508C205.515 26.3997 205.657 26.1914 205.753 25.9258C205.852 25.6576 205.901 25.349 205.901 25C205.901 24.6536 205.853 24.349 205.757 24.0859C205.66 23.8229 205.519 23.6172 205.331 23.4687C205.144 23.3203 204.913 23.2461 204.64 23.2461C204.369 23.2461 204.14 23.3177 203.952 23.4609C203.767 23.6042 203.625 23.8073 203.526 24.0703C203.427 24.3333 203.378 24.6432 203.378 25ZM210.374 20V28H208.71V20H210.374ZM213.418 28.1133C213.035 28.1133 212.694 28.0469 212.395 27.9141C212.095 27.7786 211.858 27.5794 211.684 27.3164C211.512 27.0508 211.426 26.7201 211.426 26.3242C211.426 25.9909 211.487 25.7109 211.609 25.4844C211.732 25.2578 211.898 25.0755 212.109 24.9375C212.32 24.7995 212.56 24.6953 212.828 24.625C213.099 24.5547 213.383 24.5052 213.68 24.4766C214.029 24.4401 214.31 24.4062 214.523 24.375C214.737 24.3411 214.892 24.2917 214.988 24.2266C215.085 24.1615 215.133 24.0651 215.133 23.9375V23.9141C215.133 23.6667 215.055 23.4753 214.898 23.3398C214.745 23.2044 214.526 23.1367 214.242 23.1367C213.943 23.1367 213.704 23.2031 213.527 23.3359C213.35 23.4661 213.233 23.6302 213.176 23.8281L211.637 23.7031C211.715 23.3385 211.868 23.0234 212.098 22.7578C212.327 22.4896 212.622 22.2839 212.984 22.1406C213.349 21.9948 213.771 21.9219 214.25 21.9219C214.583 21.9219 214.902 21.9609 215.207 22.0391C215.514 22.1172 215.786 22.2383 216.023 22.4023C216.263 22.5664 216.452 22.7773 216.59 23.0352C216.728 23.2904 216.797 23.5964 216.797 23.9531V28H215.219V27.168H215.172C215.076 27.3555 214.947 27.5208 214.785 27.6641C214.624 27.8047 214.43 27.9154 214.203 27.9961C213.977 28.0742 213.715 28.1133 213.418 28.1133ZM213.895 26.9648C214.139 26.9648 214.355 26.9167 214.543 26.8203C214.73 26.7214 214.878 26.5885 214.984 26.4219C215.091 26.2552 215.145 26.0664 215.145 25.8555V25.2188C215.092 25.2526 215.021 25.2839 214.93 25.3125C214.841 25.3385 214.741 25.3633 214.629 25.3867C214.517 25.4076 214.405 25.4271 214.293 25.4453C214.181 25.4609 214.079 25.4753 213.988 25.4883C213.793 25.5169 213.622 25.5625 213.477 25.625C213.331 25.6875 213.217 25.7721 213.137 25.8789C213.056 25.9831 213.016 26.1133 213.016 26.2695C213.016 26.4961 213.098 26.6693 213.262 26.7891C213.428 26.9062 213.639 26.9648 213.895 26.9648ZM221.279 22V23.25H217.666V22H221.279ZM218.486 20.5625H220.15V26.1562C220.15 26.3099 220.174 26.4297 220.221 26.5156C220.268 26.599 220.333 26.6576 220.416 26.6914C220.502 26.7253 220.601 26.7422 220.713 26.7422C220.791 26.7422 220.869 26.7357 220.947 26.7227C221.025 26.707 221.085 26.6953 221.127 26.6875L221.389 27.9258C221.305 27.9518 221.188 27.9818 221.037 28.0156C220.886 28.0521 220.702 28.0742 220.486 28.082C220.085 28.0977 219.734 28.0443 219.432 27.9219C219.132 27.7995 218.899 27.6094 218.732 27.3516C218.566 27.0937 218.484 26.7682 218.486 26.375V20.5625ZM225.033 28.1172C224.416 28.1172 223.885 27.9922 223.439 27.7422C222.997 27.4896 222.656 27.1328 222.416 26.6719C222.176 26.2083 222.057 25.6602 222.057 25.0273C222.057 24.4102 222.176 23.8685 222.416 23.4023C222.656 22.9362 222.993 22.5729 223.428 22.3125C223.865 22.0521 224.378 21.9219 224.967 21.9219C225.363 21.9219 225.731 21.9857 226.072 22.1133C226.416 22.2383 226.715 22.4271 226.971 22.6797C227.229 22.9323 227.429 23.25 227.572 23.6328C227.715 24.013 227.787 24.4583 227.787 24.9687V25.4258H222.721V24.3945H226.221C226.221 24.1549 226.169 23.9427 226.064 23.7578C225.96 23.5729 225.816 23.4284 225.631 23.3242C225.449 23.2174 225.236 23.1641 224.994 23.1641C224.742 23.1641 224.518 23.2227 224.322 23.3398C224.13 23.4544 223.979 23.6094 223.869 23.8047C223.76 23.9974 223.704 24.2122 223.701 24.4492V25.4297C223.701 25.7266 223.756 25.9831 223.865 26.1992C223.977 26.4154 224.135 26.582 224.338 26.6992C224.541 26.8164 224.782 26.875 225.061 26.875C225.245 26.875 225.415 26.849 225.568 26.7969C225.722 26.7448 225.854 26.6667 225.963 26.5625C226.072 26.4583 226.156 26.3307 226.213 26.1797L227.752 26.2812C227.674 26.651 227.514 26.974 227.271 27.25C227.032 27.5234 226.722 27.737 226.342 27.8906C225.964 28.0417 225.528 28.1172 225.033 28.1172Z" fill="white"/>
<path d="M233.293 64.2929C232.902 64.6834 232.902 65.3166 233.293 65.7071L239.657 72.0711C240.047 72.4616 240.681 72.4616 241.071 72.0711C241.462 71.6805 241.462 71.0474 241.071 70.6569L235.414 65L241.071 59.3431C241.462 58.9526 241.462 58.3195 241.071 57.9289C240.681 57.5384 240.047 57.5384 239.657 57.9289L233.293 64.2929ZM255 64H234V66H255V64Z" fill="white"/>
<path d="M264.695 57V49H267.852C268.458 49 268.975 49.1159 269.402 49.3477C269.829 49.5768 270.155 49.8958 270.379 50.3047C270.605 50.7109 270.719 51.1797 270.719 51.7109C270.719 52.2422 270.604 52.7109 270.375 53.1172C270.146 53.5234 269.814 53.8398 269.379 54.0664C268.947 54.293 268.423 54.4062 267.809 54.4062H265.797V53.0508H267.535C267.861 53.0508 268.129 52.9948 268.34 52.8828C268.553 52.7682 268.712 52.6107 268.816 52.4102C268.923 52.207 268.977 51.974 268.977 51.7109C268.977 51.4453 268.923 51.2135 268.816 51.0156C268.712 50.8151 268.553 50.6602 268.34 50.5508C268.126 50.4388 267.855 50.3828 267.527 50.3828H266.387V57H264.695ZM273.336 57.1133C272.953 57.1133 272.612 57.0469 272.313 56.9141C272.013 56.7786 271.776 56.5794 271.602 56.3164C271.43 56.0508 271.344 55.7201 271.344 55.3242C271.344 54.9909 271.405 54.7109 271.527 54.4844C271.65 54.2578 271.816 54.0755 272.027 53.9375C272.238 53.7995 272.478 53.6953 272.746 53.625C273.017 53.5547 273.301 53.5052 273.598 53.4766C273.947 53.4401 274.228 53.4062 274.441 53.375C274.655 53.3411 274.81 53.2917 274.906 53.2266C275.003 53.1615 275.051 53.0651 275.051 52.9375V52.9141C275.051 52.6667 274.973 52.4753 274.816 52.3398C274.663 52.2044 274.444 52.1367 274.16 52.1367C273.861 52.1367 273.622 52.2031 273.445 52.3359C273.268 52.4661 273.151 52.6302 273.094 52.8281L271.555 52.7031C271.633 52.3385 271.786 52.0234 272.016 51.7578C272.245 51.4896 272.54 51.2839 272.902 51.1406C273.267 50.9948 273.689 50.9219 274.168 50.9219C274.501 50.9219 274.82 50.9609 275.125 51.0391C275.432 51.1172 275.704 51.2383 275.941 51.4023C276.181 51.5664 276.37 51.7773 276.508 52.0352C276.646 52.2904 276.715 52.5964 276.715 52.9531V57H275.137V56.168H275.09C274.993 56.3555 274.865 56.5208 274.703 56.6641C274.542 56.8047 274.348 56.9154 274.121 56.9961C273.895 57.0742 273.633 57.1133 273.336 57.1133ZM273.813 55.9648C274.057 55.9648 274.273 55.9167 274.461 55.8203C274.648 55.7214 274.796 55.5885 274.902 55.4219C275.009 55.2552 275.063 55.0664 275.063 54.8555V54.2188C275.01 54.2526 274.939 54.2839 274.848 54.3125C274.759 54.3385 274.659 54.3633 274.547 54.3867C274.435 54.4076 274.323 54.4271 274.211 54.4453C274.099 54.4609 273.997 54.4753 273.906 54.4883C273.711 54.5169 273.54 54.5625 273.395 54.625C273.249 54.6875 273.135 54.7721 273.055 54.8789C272.974 54.9831 272.934 55.1133 272.934 55.2695C272.934 55.4961 273.016 55.6693 273.18 55.7891C273.346 55.9062 273.557 55.9648 273.813 55.9648ZM278.006 57V51H279.619V52.0469H279.682C279.791 51.6745 279.975 51.3932 280.232 51.2031C280.49 51.0104 280.787 50.9141 281.123 50.9141C281.206 50.9141 281.296 50.9193 281.393 50.9297C281.489 50.9401 281.574 50.9544 281.646 50.9727V52.4492C281.568 52.4258 281.46 52.4049 281.322 52.3867C281.184 52.3685 281.058 52.3594 280.943 52.3594C280.699 52.3594 280.48 52.4128 280.287 52.5195C280.097 52.6237 279.946 52.7695 279.834 52.957C279.725 53.1445 279.67 53.3607 279.67 53.6055V57H278.006ZM284.046 57.1133C283.663 57.1133 283.322 57.0469 283.022 56.9141C282.723 56.7786 282.486 56.5794 282.312 56.3164C282.14 56.0508 282.054 55.7201 282.054 55.3242C282.054 54.9909 282.115 54.7109 282.237 54.4844C282.36 54.2578 282.526 54.0755 282.737 53.9375C282.948 53.7995 283.188 53.6953 283.456 53.625C283.727 53.5547 284.011 53.5052 284.308 53.4766C284.657 53.4401 284.938 53.4062 285.151 53.375C285.365 53.3411 285.52 53.2917 285.616 53.2266C285.713 53.1615 285.761 53.0651 285.761 52.9375V52.9141C285.761 52.6667 285.683 52.4753 285.526 52.3398C285.373 52.2044 285.154 52.1367 284.87 52.1367C284.571 52.1367 284.332 52.2031 284.155 52.3359C283.978 52.4661 283.861 52.6302 283.804 52.8281L282.265 52.7031C282.343 52.3385 282.496 52.0234 282.726 51.7578C282.955 51.4896 283.25 51.2839 283.612 51.1406C283.977 50.9948 284.399 50.9219 284.878 50.9219C285.211 50.9219 285.53 50.9609 285.835 51.0391C286.142 51.1172 286.414 51.2383 286.651 51.4023C286.891 51.5664 287.08 51.7773 287.218 52.0352C287.356 52.2904 287.425 52.5964 287.425 52.9531V57H285.847V56.168H285.8C285.703 56.3555 285.575 56.5208 285.413 56.6641C285.252 56.8047 285.058 56.9154 284.831 56.9961C284.604 57.0742 284.343 57.1133 284.046 57.1133ZM284.522 55.9648C284.767 55.9648 284.983 55.9167 285.171 55.8203C285.358 55.7214 285.506 55.5885 285.612 55.4219C285.719 55.2552 285.772 55.0664 285.772 54.8555V54.2188C285.72 54.2526 285.649 54.2839 285.558 54.3125C285.469 54.3385 285.369 54.3633 285.257 54.3867C285.145 54.4076 285.033 54.4271 284.921 54.4453C284.809 54.4609 284.707 54.4753 284.616 54.4883C284.421 54.5169 284.25 54.5625 284.104 54.625C283.959 54.6875 283.845 54.7721 283.765 54.8789C283.684 54.9831 283.644 55.1133 283.644 55.2695C283.644 55.4961 283.726 55.6693 283.89 55.7891C284.056 55.9062 284.267 55.9648 284.522 55.9648ZM288.716 57V51H290.302V52.0586H290.372C290.497 51.707 290.705 51.4297 290.997 51.2266C291.289 51.0234 291.638 50.9219 292.044 50.9219C292.455 50.9219 292.806 51.0247 293.095 51.2305C293.384 51.4336 293.576 51.7096 293.673 52.0586H293.735C293.858 51.7148 294.079 51.4401 294.399 51.2344C294.722 51.026 295.104 50.9219 295.544 50.9219C296.104 50.9219 296.558 51.1003 296.907 51.457C297.259 51.8112 297.435 52.3138 297.435 52.9648V57H295.774V53.293C295.774 52.9596 295.686 52.7096 295.509 52.543C295.332 52.3763 295.11 52.293 294.845 52.293C294.543 52.293 294.307 52.3893 294.138 52.582C293.968 52.7721 293.884 53.0234 293.884 53.3359V57H292.271V53.2578C292.271 52.9635 292.186 52.7292 292.017 52.5547C291.85 52.3802 291.63 52.293 291.356 52.293C291.172 52.293 291.005 52.3398 290.856 52.4336C290.711 52.5247 290.595 52.6536 290.509 52.8203C290.423 52.9844 290.38 53.1771 290.38 53.3984V57H288.716ZM301.483 57.1172C300.866 57.1172 300.335 56.9922 299.89 56.7422C299.447 56.4896 299.106 56.1328 298.866 55.6719C298.627 55.2083 298.507 54.6602 298.507 54.0273C298.507 53.4102 298.627 52.8685 298.866 52.4023C299.106 51.9362 299.443 51.5729 299.878 51.3125C300.315 51.0521 300.828 50.9219 301.417 50.9219C301.813 50.9219 302.181 50.9857 302.522 51.1133C302.866 51.2383 303.166 51.4271 303.421 51.6797C303.679 51.9323 303.879 52.25 304.022 52.6328C304.166 53.013 304.237 53.4583 304.237 53.9687V54.4258H299.171V53.3945H302.671C302.671 53.1549 302.619 52.9427 302.515 52.7578C302.41 52.5729 302.266 52.4284 302.081 52.3242C301.899 52.2174 301.687 52.1641 301.444 52.1641C301.192 52.1641 300.968 52.2227 300.772 52.3398C300.58 52.4544 300.429 52.6094 300.319 52.8047C300.21 52.9974 300.154 53.2122 300.151 53.4492V54.4297C300.151 54.7266 300.206 54.9831 300.315 55.1992C300.427 55.4154 300.585 55.582 300.788 55.6992C300.991 55.8164 301.232 55.875 301.511 55.875C301.696 55.875 301.865 55.849 302.019 55.7969C302.172 55.7448 302.304 55.6667 302.413 55.5625C302.522 55.4583 302.606 55.3307 302.663 55.1797L304.202 55.2812C304.124 55.651 303.964 55.974 303.722 56.25C303.482 56.5234 303.172 56.737 302.792 56.8906C302.414 57.0417 301.978 57.1172 301.483 57.1172ZM308.515 51V52.25H304.901V51H308.515ZM305.722 49.5625H307.386V55.1562C307.386 55.3099 307.409 55.4297 307.456 55.5156C307.503 55.599 307.568 55.6576 307.651 55.6914C307.737 55.7253 307.836 55.7422 307.948 55.7422C308.026 55.7422 308.104 55.7357 308.183 55.7227C308.261 55.707 308.321 55.6953 308.362 55.6875L308.624 56.9258C308.541 56.9518 308.424 56.9818 308.272 57.0156C308.121 57.0521 307.938 57.0742 307.722 57.082C307.321 57.0977 306.969 57.0443 306.667 56.9219C306.368 56.7995 306.134 56.6094 305.968 56.3516C305.801 56.0937 305.719 55.7682 305.722 55.375V49.5625ZM312.269 57.1172C311.651 57.1172 311.12 56.9922 310.675 56.7422C310.232 56.4896 309.891 56.1328 309.651 55.6719C309.412 55.2083 309.292 54.6602 309.292 54.0273C309.292 53.4102 309.412 52.8685 309.651 52.4023C309.891 51.9362 310.228 51.5729 310.663 51.3125C311.101 51.0521 311.614 50.9219 312.202 50.9219C312.598 50.9219 312.966 50.9857 313.308 51.1133C313.651 51.2383 313.951 51.4271 314.206 51.6797C314.464 51.9323 314.664 52.25 314.808 52.6328C314.951 53.013 315.022 53.4583 315.022 53.9687V54.4258H309.956V53.3945H313.456C313.456 53.1549 313.404 52.9427 313.3 52.7578C313.196 52.5729 313.051 52.4284 312.866 52.3242C312.684 52.2174 312.472 52.1641 312.229 52.1641C311.977 52.1641 311.753 52.2227 311.558 52.3398C311.365 52.4544 311.214 52.6094 311.104 52.8047C310.995 52.9974 310.939 53.2122 310.937 53.4492V54.4297C310.937 54.7266 310.991 54.9831 311.101 55.1992C311.213 55.4154 311.37 55.582 311.573 55.6992C311.776 55.8164 312.017 55.875 312.296 55.875C312.481 55.875 312.65 55.849 312.804 55.7969C312.957 55.7448 313.089 55.6667 313.198 55.5625C313.308 55.4583 313.391 55.3307 313.448 55.1797L314.987 55.2812C314.909 55.651 314.749 55.974 314.507 56.25C314.267 56.5234 313.957 56.737 313.577 56.8906C313.2 57.0417 312.763 57.1172 312.269 57.1172ZM316.108 57V51H317.722V52.0469H317.784C317.894 51.6745 318.077 51.3932 318.335 51.2031C318.593 51.0104 318.89 50.9141 319.226 50.9141C319.309 50.9141 319.399 50.9193 319.495 50.9297C319.591 50.9401 319.676 50.9544 319.749 50.9727V52.4492C319.671 52.4258 319.563 52.4049 319.425 52.3867C319.287 52.3685 319.16 52.3594 319.046 52.3594C318.801 52.3594 318.582 52.4128 318.39 52.5195C318.2 52.6237 318.049 52.7695 317.937 52.957C317.827 53.1445 317.772 53.3607 317.772 53.6055V57H316.108ZM325.602 52.7109L324.078 52.8047C324.052 52.6745 323.996 52.5573 323.91 52.4531C323.824 52.3464 323.711 52.2617 323.57 52.1992C323.432 52.1341 323.267 52.1016 323.074 52.1016C322.816 52.1016 322.599 52.1562 322.422 52.2656C322.245 52.3724 322.156 52.5156 322.156 52.6953C322.156 52.8385 322.214 52.9596 322.328 53.0586C322.443 53.1576 322.639 53.237 322.918 53.2969L324.004 53.5156C324.587 53.6354 325.022 53.8281 325.309 54.0937C325.595 54.3594 325.738 54.7083 325.738 55.1406C325.738 55.5339 325.622 55.8789 325.391 56.1758C325.161 56.4727 324.846 56.7044 324.445 56.8711C324.047 57.0352 323.587 57.1172 323.066 57.1172C322.272 57.1172 321.639 56.9518 321.168 56.6211C320.699 56.2878 320.424 55.8346 320.344 55.2617L321.98 55.1758C322.03 55.418 322.15 55.6029 322.34 55.7305C322.53 55.8555 322.773 55.918 323.07 55.918C323.362 55.918 323.596 55.862 323.773 55.75C323.953 55.6354 324.044 55.4883 324.047 55.3086C324.044 55.1576 323.98 55.0339 323.855 54.9375C323.73 54.8385 323.538 54.763 323.277 54.7109L322.238 54.5039C321.652 54.3867 321.216 54.1836 320.93 53.8945C320.646 53.6055 320.504 53.237 320.504 52.7891C320.504 52.4036 320.608 52.0716 320.816 51.793C321.027 51.5143 321.323 51.2995 321.703 51.1484C322.086 50.9974 322.534 50.9219 323.047 50.9219C323.805 50.9219 324.401 51.082 324.836 51.4023C325.273 51.7227 325.529 52.1589 325.602 52.7109ZM330.271 48.625L327.692 58.2031H326.259L328.837 48.625H330.271ZM332.795 49V57H331.104V49H332.795ZM335.819 53.5313V57H334.155V51H335.741V52.0586H335.812C335.944 51.7096 336.167 51.4336 336.479 51.2305C336.792 51.0247 337.171 50.9219 337.616 50.9219C338.033 50.9219 338.396 51.013 338.706 51.1953C339.016 51.3776 339.257 51.638 339.429 51.9766C339.601 52.3125 339.687 52.7135 339.687 53.1797V57H338.022V53.4766C338.025 53.1094 337.931 52.8229 337.741 52.6172C337.551 52.4089 337.289 52.3047 336.956 52.3047C336.732 52.3047 336.534 52.3529 336.362 52.4492C336.193 52.5456 336.06 52.6862 335.964 52.8711C335.87 53.0534 335.822 53.2734 335.819 53.5313ZM340.998 59.25V51H342.639V52.0078H342.713C342.786 51.8464 342.891 51.6823 343.029 51.5156C343.17 51.3464 343.352 51.2057 343.576 51.0938C343.803 50.9792 344.084 50.9219 344.42 50.9219C344.857 50.9219 345.261 51.0365 345.631 51.2656C346.001 51.4922 346.296 51.8346 346.518 52.293C346.739 52.7487 346.85 53.3203 346.85 54.0078C346.85 54.6771 346.742 55.2422 346.525 55.7031C346.312 56.1615 346.02 56.5091 345.65 56.7461C345.283 56.9805 344.872 57.0977 344.416 57.0977C344.093 57.0977 343.818 57.0443 343.592 56.9375C343.368 56.8307 343.184 56.6966 343.041 56.5352C342.898 56.3711 342.788 56.2057 342.713 56.0391H342.662V59.25H340.998ZM342.627 54C342.627 54.3568 342.676 54.668 342.775 54.9336C342.874 55.1992 343.018 55.4062 343.205 55.5547C343.393 55.7005 343.62 55.7734 343.889 55.7734C344.16 55.7734 344.389 55.6992 344.576 55.5508C344.764 55.3997 344.906 55.1914 345.002 54.9258C345.101 54.6576 345.15 54.349 345.15 54C345.15 53.6536 345.102 53.349 345.006 53.0859C344.91 52.8229 344.768 52.6172 344.58 52.4687C344.393 52.3203 344.162 52.2461 343.889 52.2461C343.618 52.2461 343.389 52.3177 343.201 52.4609C343.016 52.6042 342.874 52.8073 342.775 53.0703C342.676 53.3333 342.627 53.6432 342.627 54ZM351.807 54.4453V51H353.471V57H351.873V55.9102H351.811C351.675 56.2617 351.45 56.5443 351.135 56.7578C350.822 56.9714 350.441 57.0781 349.99 57.0781C349.589 57.0781 349.236 56.987 348.932 56.8047C348.627 56.6224 348.389 56.3633 348.217 56.0273C348.048 55.6914 347.962 55.2891 347.959 54.8203V51H349.623V54.5234C349.626 54.8776 349.721 55.1576 349.908 55.3633C350.096 55.569 350.347 55.6719 350.662 55.6719C350.863 55.6719 351.05 55.6263 351.225 55.5352C351.399 55.4414 351.54 55.3034 351.646 55.1211C351.756 54.9388 351.809 54.7135 351.807 54.4453ZM357.993 51V52.25H354.38V51H357.993ZM355.2 49.5625H356.864V55.1562C356.864 55.3099 356.888 55.4297 356.935 55.5156C356.981 55.599 357.047 55.6576 357.13 55.6914C357.216 55.7253 357.315 55.7422 357.427 55.7422C357.505 55.7422 357.583 55.7357 357.661 55.7227C357.739 55.707 357.799 55.6953 357.841 55.6875L358.103 56.9258C358.019 56.9518 357.902 56.9818 357.751 57.0156C357.6 57.0521 357.416 57.0742 357.2 57.082C356.799 57.0977 356.448 57.0443 356.146 56.9219C355.846 56.7995 355.613 56.6094 355.446 56.3516C355.28 56.0937 355.198 55.7682 355.2 55.375V49.5625Z" fill="white"/>
<path d="M64.0938 211.344L63.2656 211.578C63.2135 211.44 63.1367 211.306 63.0352 211.176C62.9362 211.043 62.8008 210.934 62.6289 210.848C62.457 210.762 62.237 210.719 61.9688 210.719C61.6016 210.719 61.2956 210.803 61.0508 210.973C60.8086 211.139 60.6875 211.352 60.6875 211.609C60.6875 211.839 60.7708 212.02 60.9375 212.152C61.1042 212.285 61.3646 212.396 61.7188 212.484L62.6094 212.703C63.1458 212.833 63.5456 213.033 63.8086 213.301C64.0716 213.566 64.2031 213.909 64.2031 214.328C64.2031 214.672 64.1042 214.979 63.9063 215.25C63.7109 215.521 63.4375 215.734 63.0859 215.891C62.7344 216.047 62.3255 216.125 61.8594 216.125C61.2474 216.125 60.7409 215.992 60.3398 215.727C59.9388 215.461 59.6849 215.073 59.5781 214.562L60.4531 214.344C60.5365 214.667 60.694 214.909 60.9258 215.07C61.1602 215.232 61.4661 215.312 61.8438 215.312C62.2734 215.312 62.6146 215.221 62.8672 215.039C63.1224 214.854 63.25 214.633 63.25 214.375C63.25 214.167 63.1771 213.992 63.0313 213.852C62.8854 213.708 62.6615 213.602 62.3594 213.531L61.3594 213.297C60.8099 213.167 60.4062 212.965 60.1484 212.691C59.8932 212.415 59.7656 212.07 59.7656 211.656C59.7656 211.318 59.8607 211.018 60.0508 210.758C60.2435 210.497 60.5052 210.293 60.8359 210.145C61.1693 209.996 61.5469 209.922 61.9688 209.922C62.5625 209.922 63.0286 210.052 63.3672 210.312C63.7083 210.573 63.9505 210.917 64.0938 211.344ZM67.3564 216.141C66.9762 216.141 66.6312 216.069 66.3213 215.926C66.0114 215.78 65.7653 215.57 65.583 215.297C65.4007 215.021 65.3096 214.687 65.3096 214.297C65.3096 213.953 65.3773 213.674 65.5127 213.461C65.6481 213.245 65.8291 213.076 66.0557 212.953C66.2822 212.831 66.5322 212.74 66.8057 212.68C67.0817 212.617 67.359 212.568 67.6377 212.531C68.0023 212.484 68.2979 212.449 68.5244 212.426C68.7536 212.4 68.9202 212.357 69.0244 212.297C69.1312 212.237 69.1846 212.133 69.1846 211.984V211.953C69.1846 211.568 69.0791 211.268 68.8682 211.055C68.6598 210.841 68.3434 210.734 67.9189 210.734C67.4788 210.734 67.1338 210.831 66.8838 211.023C66.6338 211.216 66.458 211.422 66.3564 211.641L65.4814 211.328C65.6377 210.964 65.846 210.68 66.1064 210.477C66.3695 210.271 66.6559 210.128 66.9658 210.047C67.2783 209.964 67.5856 209.922 67.8877 209.922C68.0804 209.922 68.3018 209.945 68.5518 209.992C68.8044 210.036 69.0479 210.129 69.2822 210.27C69.5192 210.41 69.7158 210.622 69.8721 210.906C70.0283 211.19 70.1064 211.57 70.1064 212.047V216H69.1846V215.187H69.1377C69.0752 215.318 68.971 215.457 68.8252 215.605C68.6794 215.754 68.4854 215.88 68.2432 215.984C68.001 216.089 67.7054 216.141 67.3564 216.141ZM67.4971 215.312C67.8617 215.312 68.1689 215.241 68.4189 215.098C68.6715 214.954 68.8617 214.77 68.9893 214.543C69.1195 214.316 69.1846 214.078 69.1846 213.828V212.984C69.1455 213.031 69.0596 213.074 68.9268 213.113C68.7965 213.15 68.6455 213.182 68.4736 213.211C68.3044 213.237 68.139 213.26 67.9775 213.281C67.8187 213.299 67.6898 213.315 67.5908 213.328C67.3512 213.359 67.1273 213.41 66.9189 213.48C66.7132 213.548 66.5465 213.651 66.4189 213.789C66.2939 213.924 66.2314 214.109 66.2314 214.344C66.2314 214.664 66.3499 214.906 66.5869 215.07C66.8265 215.232 67.1299 215.312 67.4971 215.312ZM71.7891 216V210H72.6797V210.906H72.7422C72.8516 210.609 73.0495 210.368 73.3359 210.184C73.6224 209.999 73.9453 209.906 74.3047 209.906C74.3724 209.906 74.457 209.908 74.5586 209.91C74.6602 209.913 74.737 209.917 74.7891 209.922V210.859C74.7578 210.852 74.6862 210.84 74.5742 210.824C74.4648 210.806 74.349 210.797 74.2266 210.797C73.9349 210.797 73.6745 210.858 73.4453 210.98C73.2188 211.1 73.0391 211.267 72.9063 211.48C72.776 211.691 72.7109 211.932 72.7109 212.203V216H71.7891ZM80.1318 211.344L79.3037 211.578C79.2516 211.44 79.1748 211.306 79.0732 211.176C78.9743 211.043 78.8389 210.934 78.667 210.848C78.4951 210.762 78.2751 210.719 78.0068 210.719C77.6396 210.719 77.3337 210.803 77.0889 210.973C76.8467 211.139 76.7256 211.352 76.7256 211.609C76.7256 211.839 76.8089 212.02 76.9756 212.152C77.1423 212.285 77.4027 212.396 77.7568 212.484L78.6475 212.703C79.1839 212.833 79.5837 213.033 79.8467 213.301C80.1097 213.566 80.2412 213.909 80.2412 214.328C80.2412 214.672 80.1423 214.979 79.9443 215.25C79.749 215.521 79.4756 215.734 79.124 215.891C78.7725 216.047 78.3636 216.125 77.8975 216.125C77.2855 216.125 76.779 215.992 76.3779 215.727C75.9769 215.461 75.723 215.073 75.6162 214.562L76.4912 214.344C76.5745 214.667 76.7321 214.909 76.9639 215.07C77.1982 215.232 77.5042 215.312 77.8818 215.312C78.3115 215.312 78.6527 215.221 78.9053 215.039C79.1605 214.854 79.2881 214.633 79.2881 214.375C79.2881 214.167 79.2152 213.992 79.0693 213.852C78.9235 213.708 78.6995 213.602 78.3975 213.531L77.3975 213.297C76.848 213.167 76.4443 212.965 76.1865 212.691C75.9313 212.415 75.8037 212.07 75.8037 211.656C75.8037 211.318 75.8988 211.018 76.0889 210.758C76.2816 210.497 76.5433 210.293 76.874 210.145C77.2074 209.996 77.585 209.922 78.0068 209.922C78.6006 209.922 79.0667 210.052 79.4053 210.312C79.7464 210.573 79.9886 210.917 80.1318 211.344Z" fill="white"/>
<path d="M326.844 216V210H327.734V210.906H327.797C327.906 210.609 328.104 210.368 328.391 210.184C328.677 209.999 329 209.906 329.359 209.906C329.427 209.906 329.512 209.908 329.613 209.91C329.715 209.913 329.792 209.917 329.844 209.922V210.859C329.813 210.852 329.741 210.84 329.629 210.824C329.52 210.806 329.404 210.797 329.281 210.797C328.99 210.797 328.729 210.858 328.5 210.98C328.273 211.1 328.094 211.267 327.961 211.48C327.831 211.691 327.766 211.932 327.766 212.203V216H326.844ZM335.187 211.344L334.358 211.578C334.306 211.44 334.229 211.306 334.128 211.176C334.029 211.043 333.894 210.934 333.722 210.848C333.55 210.762 333.33 210.719 333.062 210.719C332.694 210.719 332.388 210.803 332.144 210.973C331.901 211.139 331.78 211.352 331.78 211.609C331.78 211.839 331.864 212.02 332.03 212.152C332.197 212.285 332.457 212.396 332.812 212.484L333.702 212.703C334.239 212.833 334.638 213.033 334.901 213.301C335.164 213.566 335.296 213.909 335.296 214.328C335.296 214.672 335.197 214.979 334.999 215.25C334.804 215.521 334.53 215.734 334.179 215.891C333.827 216.047 333.418 216.125 332.952 216.125C332.34 216.125 331.834 215.992 331.433 215.727C331.032 215.461 330.778 215.073 330.671 214.562L331.546 214.344C331.629 214.667 331.787 214.909 332.019 215.07C332.253 215.232 332.559 215.312 332.937 215.312C333.366 215.312 333.707 215.221 333.96 215.039C334.215 214.854 334.343 214.633 334.343 214.375C334.343 214.167 334.27 213.992 334.124 213.852C333.978 213.708 333.754 213.602 333.452 213.531L332.452 213.297C331.903 213.167 331.499 212.965 331.241 212.691C330.986 212.415 330.858 212.07 330.858 211.656C330.858 211.318 330.953 211.018 331.144 210.758C331.336 210.497 331.598 210.293 331.929 210.145C332.262 209.996 332.64 209.922 333.062 209.922C333.655 209.922 334.121 210.052 334.46 210.312C334.801 210.573 335.043 210.917 335.187 211.344ZM341.59 210L339.371 216H338.434L336.215 210H337.215L338.871 214.781H338.934L340.59 210H341.59Z" fill="white"/>
<path d="M260.844 216V210H261.734V210.937H261.813C261.938 210.617 262.139 210.368 262.418 210.191C262.697 210.012 263.031 209.922 263.422 209.922C263.818 209.922 264.147 210.012 264.41 210.191C264.676 210.368 264.883 210.617 265.031 210.937H265.094C265.247 210.628 265.478 210.382 265.785 210.199C266.092 210.014 266.461 209.922 266.891 209.922C267.427 209.922 267.866 210.09 268.207 210.426C268.548 210.759 268.719 211.279 268.719 211.984V216H267.797V211.984C267.797 211.542 267.676 211.225 267.434 211.035C267.191 210.845 266.906 210.75 266.578 210.75C266.156 210.75 265.829 210.878 265.598 211.133C265.366 211.385 265.25 211.706 265.25 212.094V216H264.313V211.891C264.313 211.549 264.202 211.275 263.98 211.066C263.759 210.855 263.474 210.75 263.125 210.75C262.885 210.75 262.661 210.814 262.453 210.941C262.247 211.069 262.081 211.246 261.953 211.473C261.828 211.697 261.766 211.956 261.766 212.25V216H260.844ZM270.404 218.25V210H271.295V210.953H271.404C271.472 210.849 271.566 210.716 271.686 210.555C271.808 210.391 271.982 210.245 272.209 210.117C272.438 209.987 272.748 209.922 273.139 209.922C273.644 209.922 274.089 210.048 274.475 210.301C274.86 210.553 275.161 210.911 275.377 211.375C275.593 211.839 275.701 212.385 275.701 213.016C275.701 213.651 275.593 214.202 275.377 214.668C275.161 215.132 274.861 215.491 274.479 215.746C274.096 215.999 273.654 216.125 273.154 216.125C272.769 216.125 272.46 216.061 272.229 215.934C271.997 215.803 271.818 215.656 271.693 215.492C271.568 215.326 271.472 215.187 271.404 215.078H271.326V218.25H270.404ZM271.311 213C271.311 213.453 271.377 213.853 271.51 214.199C271.643 214.543 271.837 214.812 272.092 215.008C272.347 215.201 272.66 215.297 273.029 215.297C273.415 215.297 273.736 215.195 273.994 214.992C274.255 214.786 274.45 214.51 274.58 214.164C274.713 213.815 274.779 213.427 274.779 213C274.779 212.578 274.714 212.198 274.584 211.859C274.456 211.518 274.262 211.249 274.002 211.051C273.744 210.85 273.42 210.75 273.029 210.75C272.654 210.75 272.339 210.845 272.084 211.035C271.829 211.223 271.636 211.486 271.506 211.824C271.376 212.16 271.311 212.552 271.311 213ZM281.799 210L279.58 216H278.643L276.424 210H277.424L279.08 214.781H279.143L280.799 210H281.799Z" fill="white"/>
<path d="M199.094 211.344L198.266 211.578C198.214 211.44 198.137 211.306 198.035 211.176C197.936 211.043 197.801 210.934 197.629 210.848C197.457 210.762 197.237 210.719 196.969 210.719C196.602 210.719 196.296 210.803 196.051 210.973C195.809 211.139 195.688 211.352 195.688 211.609C195.688 211.839 195.771 212.02 195.938 212.152C196.104 212.285 196.365 212.396 196.719 212.484L197.609 212.703C198.146 212.833 198.546 213.033 198.809 213.301C199.072 213.566 199.203 213.909 199.203 214.328C199.203 214.672 199.104 214.979 198.906 215.25C198.711 215.521 198.438 215.734 198.086 215.891C197.734 216.047 197.326 216.125 196.859 216.125C196.247 216.125 195.741 215.992 195.34 215.727C194.939 215.461 194.685 215.073 194.578 214.562L195.453 214.344C195.536 214.667 195.694 214.909 195.926 215.07C196.16 215.232 196.466 215.312 196.844 215.312C197.273 215.312 197.615 215.221 197.867 215.039C198.122 214.854 198.25 214.633 198.25 214.375C198.25 214.167 198.177 213.992 198.031 213.852C197.885 213.708 197.661 213.602 197.359 213.531L196.359 213.297C195.81 213.167 195.406 212.965 195.148 212.691C194.893 212.415 194.766 212.07 194.766 211.656C194.766 211.318 194.861 211.018 195.051 210.758C195.243 210.497 195.505 210.293 195.836 210.145C196.169 209.996 196.547 209.922 196.969 209.922C197.563 209.922 198.029 210.052 198.367 210.312C198.708 210.573 198.951 210.917 199.094 211.344ZM201.513 212.391V216H200.591V208H201.513V210.937H201.591C201.731 210.628 201.942 210.382 202.224 210.199C202.507 210.014 202.885 209.922 203.356 209.922C203.765 209.922 204.123 210.004 204.431 210.168C204.738 210.329 204.976 210.578 205.146 210.914C205.317 211.247 205.403 211.672 205.403 212.188V216H204.481V212.25C204.481 211.773 204.358 211.405 204.11 211.145C203.866 210.882 203.526 210.75 203.091 210.75C202.789 210.75 202.518 210.814 202.278 210.941C202.041 211.069 201.854 211.255 201.716 211.5C201.58 211.745 201.513 212.042 201.513 212.391ZM207.09 216V210H208.012V216H207.09ZM207.559 209C207.379 209 207.224 208.939 207.094 208.816C206.966 208.694 206.902 208.547 206.902 208.375C206.902 208.203 206.966 208.056 207.094 207.934C207.224 207.811 207.379 207.75 207.559 207.75C207.738 207.75 207.892 207.811 208.02 207.934C208.15 208.056 208.215 208.203 208.215 208.375C208.215 208.547 208.15 208.694 208.02 208.816C207.892 208.939 207.738 209 207.559 209ZM212.122 218.375C211.677 218.375 211.294 218.318 210.974 218.203C210.653 218.091 210.386 217.943 210.173 217.758C209.962 217.576 209.794 217.38 209.669 217.172L210.403 216.656C210.487 216.766 210.592 216.891 210.72 217.031C210.847 217.174 211.022 217.298 211.243 217.402C211.467 217.509 211.76 217.562 212.122 217.562C212.606 217.562 213.006 217.445 213.321 217.211C213.636 216.977 213.794 216.609 213.794 216.109V214.891H213.716C213.648 215 213.552 215.135 213.427 215.297C213.304 215.456 213.127 215.598 212.896 215.723C212.666 215.845 212.356 215.906 211.966 215.906C211.481 215.906 211.047 215.792 210.661 215.563C210.278 215.333 209.975 215 209.751 214.562C209.53 214.125 209.419 213.594 209.419 212.969C209.419 212.354 209.527 211.819 209.743 211.363C209.959 210.905 210.26 210.551 210.646 210.301C211.031 210.048 211.476 209.922 211.981 209.922C212.372 209.922 212.682 209.987 212.911 210.117C213.143 210.245 213.32 210.391 213.442 210.555C213.567 210.716 213.664 210.849 213.731 210.953H213.825V210H214.716V216.172C214.716 216.688 214.599 217.107 214.364 217.43C214.132 217.755 213.82 217.993 213.427 218.145C213.036 218.298 212.601 218.375 212.122 218.375ZM212.091 215.078C212.461 215.078 212.773 214.993 213.028 214.824C213.284 214.655 213.478 214.411 213.61 214.094C213.743 213.776 213.81 213.396 213.81 212.953C213.81 212.521 213.744 212.139 213.614 211.809C213.484 211.478 213.291 211.219 213.036 211.031C212.781 210.844 212.466 210.75 212.091 210.75C211.7 210.75 211.375 210.849 211.114 211.047C210.856 211.245 210.662 211.51 210.532 211.844C210.405 212.177 210.341 212.547 210.341 212.953C210.341 213.37 210.406 213.738 210.536 214.059C210.669 214.376 210.864 214.626 211.122 214.809C211.382 214.988 211.705 215.078 212.091 215.078Z" fill="white"/>
<path d="M132.516 210V210.781H129.281V210H132.516ZM130.25 216V209.172C130.25 208.828 130.331 208.542 130.492 208.312C130.654 208.083 130.863 207.911 131.121 207.797C131.379 207.682 131.651 207.625 131.938 207.625C132.164 207.625 132.349 207.643 132.492 207.68C132.635 207.716 132.742 207.75 132.812 207.781L132.547 208.578C132.5 208.562 132.435 208.543 132.352 208.52C132.271 208.496 132.164 208.484 132.031 208.484C131.727 208.484 131.507 208.561 131.371 208.715C131.238 208.868 131.172 209.094 131.172 209.391V216H130.25ZM134.729 208V216H133.808V208H134.729ZM140.199 213.547V210H141.121V216H140.199V214.984H140.137C139.996 215.289 139.777 215.548 139.48 215.762C139.184 215.973 138.809 216.078 138.355 216.078C137.98 216.078 137.647 215.996 137.355 215.832C137.064 215.665 136.835 215.415 136.668 215.082C136.501 214.746 136.418 214.323 136.418 213.812V210H137.34V213.75C137.34 214.187 137.462 214.536 137.707 214.797C137.954 215.057 138.27 215.187 138.652 215.187C138.882 215.187 139.115 215.129 139.352 215.012C139.591 214.895 139.792 214.715 139.953 214.473C140.117 214.23 140.199 213.922 140.199 213.547Z" fill="white"/>
<path d="M265.012 74.98V66.95H266.002V68.105H266.2L266.002 68.336C266.002 67.874 266.152 67.511 266.453 67.247C266.761 66.9757 267.164 66.84 267.663 66.84C268.272 66.84 268.756 67.0417 269.115 67.445C269.482 67.841 269.665 68.3873 269.665 69.084V70.855C269.665 71.317 269.581 71.7167 269.412 72.054C269.251 72.3913 269.02 72.6517 268.719 72.835C268.426 73.0183 268.074 73.11 267.663 73.11C267.172 73.11 266.772 72.9743 266.464 72.703C266.156 72.4317 266.002 72.0687 266.002 71.614L266.2 71.845H265.98L266.002 73.22V74.98H265.012ZM267.333 72.252C267.751 72.252 268.077 72.1273 268.312 71.878C268.554 71.6287 268.675 71.2693 268.675 70.8V69.15C268.675 68.6807 268.554 68.3213 268.312 68.072C268.077 67.8227 267.751 67.698 267.333 67.698C266.93 67.698 266.607 67.8263 266.365 68.083C266.123 68.3397 266.002 68.6953 266.002 69.15V70.8C266.002 71.2547 266.123 71.6103 266.365 71.867C266.607 72.1237 266.93 72.252 267.333 72.252ZM273.368 73.11C272.73 73.11 272.227 72.9487 271.861 72.626C271.494 72.296 271.311 71.8523 271.311 71.295C271.311 70.7303 271.494 70.2867 271.861 69.964C272.227 69.6413 272.722 69.48 273.346 69.48H275.216V68.875C275.216 68.501 275.102 68.215 274.875 68.017C274.655 67.8117 274.339 67.709 273.929 67.709C273.569 67.709 273.269 67.786 273.027 67.94C272.785 68.0867 272.645 68.2883 272.609 68.545H271.619C271.685 68.0243 271.93 67.61 272.356 67.302C272.781 66.994 273.313 66.84 273.951 66.84C274.647 66.84 275.197 67.0197 275.601 67.379C276.004 67.7383 276.206 68.226 276.206 68.842V73H275.238V71.845H275.073L275.238 71.68C275.238 72.12 275.065 72.4683 274.721 72.725C274.383 72.9817 273.932 73.11 273.368 73.11ZM273.61 72.329C274.079 72.329 274.464 72.2117 274.765 71.977C275.065 71.7423 275.216 71.4417 275.216 71.075V70.217H273.368C273.038 70.217 272.777 70.3087 272.587 70.492C272.396 70.6753 272.301 70.9247 272.301 71.24C272.301 71.5773 272.414 71.845 272.642 72.043C272.876 72.2337 273.199 72.329 273.61 72.329ZM278.412 73V66.95H279.38V68.105H279.611L279.292 68.82C279.292 68.1673 279.432 67.676 279.71 67.346C279.996 67.0087 280.418 66.84 280.975 66.84C281.613 66.84 282.119 67.0417 282.493 67.445C282.875 67.841 283.065 68.38 283.065 69.062V69.425H282.075V69.15C282.075 68.6733 281.958 68.3103 281.723 68.061C281.496 67.8043 281.17 67.676 280.744 67.676C280.326 67.676 279.996 67.8043 279.754 68.061C279.52 68.3177 279.402 68.6807 279.402 69.15V73H278.412ZM286.559 73.11C285.921 73.11 285.419 72.9487 285.052 72.626C284.685 72.296 284.502 71.8523 284.502 71.295C284.502 70.7303 284.685 70.2867 285.052 69.964C285.419 69.6413 285.914 69.48 286.537 69.48H288.407V68.875C288.407 68.501 288.293 68.215 288.066 68.017C287.846 67.8117 287.531 67.709 287.12 67.709C286.761 67.709 286.46 67.786 286.218 67.94C285.976 68.0867 285.837 68.2883 285.8 68.545H284.81C284.876 68.0243 285.122 67.61 285.547 67.302C285.972 66.994 286.504 66.84 287.142 66.84C287.839 66.84 288.389 67.0197 288.792 67.379C289.195 67.7383 289.397 68.226 289.397 68.842V73H288.429V71.845H288.264L288.429 71.68C288.429 72.12 288.257 72.4683 287.912 72.725C287.575 72.9817 287.124 73.11 286.559 73.11ZM286.801 72.329C287.27 72.329 287.655 72.2117 287.956 71.977C288.257 71.7423 288.407 71.4417 288.407 71.075V70.217H286.559C286.229 70.217 285.969 70.3087 285.778 70.492C285.587 70.6753 285.492 70.9247 285.492 71.24C285.492 71.5773 285.606 71.845 285.833 72.043C286.068 72.2337 286.39 72.329 286.801 72.329ZM291.109 73V66.95H291.978V67.676H292.176L292.022 67.94C292.022 67.6027 292.11 67.335 292.286 67.137C292.469 66.939 292.715 66.84 293.023 66.84C293.36 66.84 293.62 66.9647 293.804 67.214C293.987 67.4633 294.079 67.8153 294.079 68.27L293.782 67.676H294.244L294.035 67.94C294.035 67.6027 294.126 67.335 294.31 67.137C294.5 66.939 294.75 66.84 295.058 66.84C295.439 66.84 295.732 66.983 295.938 67.269C296.15 67.555 296.257 67.9327 296.257 68.402V73H295.344V68.391C295.344 68.1417 295.289 67.9473 295.179 67.808C295.076 67.6687 294.922 67.599 294.717 67.599C294.519 67.599 294.361 67.6687 294.244 67.808C294.134 67.94 294.079 68.1307 294.079 68.38V73H293.287V68.391C293.287 68.1343 293.228 67.94 293.111 67.808C293.001 67.6687 292.843 67.599 292.638 67.599C292.432 67.599 292.278 67.6687 292.176 67.808C292.073 67.94 292.022 68.1307 292.022 68.38V73H291.109ZM300.092 73.088C299.681 73.088 299.322 73.0257 299.014 72.901C298.713 72.769 298.471 72.5857 298.288 72.351C298.112 72.1163 298.005 71.8377 297.969 71.515H298.959C299.003 71.7277 299.12 71.8963 299.311 72.021C299.509 72.1457 299.769 72.208 300.092 72.208H300.554C300.942 72.208 301.232 72.131 301.423 71.977C301.613 71.8157 301.709 71.603 301.709 71.339C301.709 71.0823 301.621 70.8807 301.445 70.734C301.276 70.58 301.023 70.4773 300.686 70.426L299.872 70.294C299.278 70.1913 298.834 70.008 298.541 69.744C298.255 69.4727 298.112 69.0803 298.112 68.567C298.112 68.0243 298.284 67.6063 298.629 67.313C298.973 67.0123 299.49 66.862 300.18 66.862H300.598C301.177 66.862 301.643 66.9977 301.995 67.269C302.347 67.5403 302.559 67.907 302.633 68.369H301.643C301.599 68.1783 301.489 68.028 301.313 67.918C301.137 67.8007 300.898 67.742 300.598 67.742H300.18C299.806 67.742 299.531 67.8117 299.355 67.951C299.186 68.0903 299.102 68.2993 299.102 68.578C299.102 68.8273 299.175 69.0107 299.322 69.128C299.468 69.2453 299.699 69.3297 300.015 69.381L300.829 69.513C301.481 69.6157 301.954 69.8063 302.248 70.085C302.548 70.3637 302.699 70.767 302.699 71.295C302.699 71.8523 302.519 72.2923 302.16 72.615C301.808 72.9303 301.272 73.088 300.554 73.088H300.092ZM306.599 74.54V73.099C305.91 73.0403 305.367 72.8203 304.971 72.439C304.583 72.0503 304.381 71.5407 304.366 70.91H305.356C305.356 71.2693 305.463 71.5627 305.675 71.79C305.895 72.0173 306.203 72.1567 306.599 72.208V69.326L306.302 69.238C305.752 69.0693 305.327 68.787 305.026 68.391C304.733 67.995 304.586 67.5293 304.586 66.994C304.586 66.4073 304.766 65.9233 305.125 65.542C305.492 65.1607 305.983 64.9407 306.599 64.882V63.43H307.259V64.871C307.868 64.9297 308.356 65.1497 308.722 65.531C309.089 65.9123 309.276 66.4037 309.283 67.005H308.293C308.293 66.6603 308.202 66.3817 308.018 66.169C307.842 65.949 307.589 65.8133 307.259 65.762V68.49L307.699 68.633C308.235 68.8017 308.649 69.0877 308.942 69.491C309.236 69.8943 309.382 70.3673 309.382 70.91C309.382 71.5113 309.188 72.01 308.799 72.406C308.418 72.802 307.905 73.033 307.259 73.099V74.54H306.599ZM307.259 72.208C307.619 72.1493 307.897 72.01 308.095 71.79C308.293 71.57 308.392 71.284 308.392 70.932C308.392 70.6093 308.304 70.327 308.128 70.085C307.96 69.843 307.714 69.6743 307.391 69.579L307.259 69.535V72.208ZM306.599 68.721V65.762C306.277 65.8133 306.024 65.938 305.84 66.136C305.664 66.334 305.576 66.5907 305.576 66.906C305.576 67.2873 305.694 67.61 305.928 67.874C306.163 68.1307 306.5 68.292 306.94 68.358L306.599 68.721ZM311.182 74.98V66.95H312.172V68.105H312.37L312.172 68.336C312.172 67.874 312.322 67.511 312.623 67.247C312.931 66.9757 313.334 66.84 313.833 66.84C314.442 66.84 314.926 67.0417 315.285 67.445C315.652 67.841 315.835 68.3873 315.835 69.084V70.855C315.835 71.317 315.751 71.7167 315.582 72.054C315.421 72.3913 315.19 72.6517 314.889 72.835C314.596 73.0183 314.244 73.11 313.833 73.11C313.342 73.11 312.942 72.9743 312.634 72.703C312.326 72.4317 312.172 72.0687 312.172 71.614L312.37 71.845H312.15L312.172 73.22V74.98H311.182ZM313.503 72.252C313.921 72.252 314.247 72.1273 314.482 71.878C314.724 71.6287 314.845 71.2693 314.845 70.8V69.15C314.845 68.6807 314.724 68.3213 314.482 68.072C314.247 67.8227 313.921 67.698 313.503 67.698C313.1 67.698 312.777 67.8263 312.535 68.083C312.293 68.3397 312.172 68.6953 312.172 69.15V70.8C312.172 71.2547 312.293 71.6103 312.535 71.867C312.777 72.1237 313.1 72.252 313.503 72.252ZM319.538 73.11C318.9 73.11 318.397 72.9487 318.031 72.626C317.664 72.296 317.481 71.8523 317.481 71.295C317.481 70.7303 317.664 70.2867 318.031 69.964C318.397 69.6413 318.892 69.48 319.516 69.48H321.386V68.875C321.386 68.501 321.272 68.215 321.045 68.017C320.825 67.8117 320.509 67.709 320.099 67.709C319.739 67.709 319.439 67.786 319.197 67.94C318.955 68.0867 318.815 68.2883 318.779 68.545H317.789C317.855 68.0243 318.1 67.61 318.526 67.302C318.951 66.994 319.483 66.84 320.121 66.84C320.817 66.84 321.367 67.0197 321.771 67.379C322.174 67.7383 322.376 68.226 322.376 68.842V73H321.408V71.845H321.243L321.408 71.68C321.408 72.12 321.235 72.4683 320.891 72.725C320.553 72.9817 320.102 73.11 319.538 73.11ZM319.78 72.329C320.249 72.329 320.634 72.2117 320.935 71.977C321.235 71.7423 321.386 71.4417 321.386 71.075V70.217H319.538C319.208 70.217 318.947 70.3087 318.757 70.492C318.566 70.6753 318.471 70.9247 318.471 71.24C318.471 71.5773 318.584 71.845 318.812 72.043C319.046 72.2337 319.369 72.329 319.78 72.329ZM327.321 73C326.801 73 326.394 72.8607 326.1 72.582C325.814 72.3033 325.671 71.911 325.671 71.405V67.852H323.966V66.95H325.671V65.245H326.661V66.95H329.081V67.852H326.661V71.405C326.661 71.867 326.881 72.098 327.321 72.098H328.971V73H327.321ZM330.969 73V64.97H331.959V66.95V68.105H332.168L331.959 68.336C331.959 67.8593 332.102 67.4927 332.388 67.236C332.674 66.972 333.07 66.84 333.576 66.84C334.185 66.84 334.669 67.027 335.028 67.401C335.387 67.775 335.567 68.2847 335.567 68.93V73H334.577V69.04C334.577 68.6073 334.46 68.2737 334.225 68.039C333.998 67.797 333.686 67.676 333.29 67.676C332.879 67.676 332.553 67.8043 332.311 68.061C332.076 68.3177 331.959 68.6807 331.959 69.15V73H330.969ZM339.853 73.088C339.369 73.088 338.951 72.9963 338.599 72.813C338.247 72.6297 337.972 72.3657 337.774 72.021C337.583 71.669 337.488 71.2547 337.488 70.778V69.172C337.488 68.688 337.583 68.2737 337.774 67.929C337.972 67.5843 338.247 67.3203 338.599 67.137C338.951 66.9537 339.369 66.862 339.853 66.862C340.337 66.862 340.755 66.9537 341.107 67.137C341.459 67.3203 341.73 67.5843 341.921 67.929C342.119 68.2737 342.218 68.6843 342.218 69.161V70.778C342.218 71.2547 342.119 71.669 341.921 72.021C341.73 72.3657 341.459 72.6297 341.107 72.813C340.755 72.9963 340.337 73.088 339.853 73.088ZM339.853 72.208C340.285 72.208 340.623 72.087 340.865 71.845C341.107 71.603 341.228 71.2473 341.228 70.778V69.172C341.228 68.7027 341.107 68.347 340.865 68.105C340.623 67.863 340.285 67.742 339.853 67.742C339.427 67.742 339.09 67.863 338.841 68.105C338.599 68.347 338.478 68.7027 338.478 69.172V70.778C338.478 71.2473 338.599 71.603 338.841 71.845C339.09 72.087 339.427 72.208 339.853 72.208ZM344.919 74.98V74.078H346.844C347.152 74.078 347.376 74.0083 347.515 73.869C347.662 73.7297 347.735 73.5133 347.735 73.22V72.45L347.757 71.35H347.559L347.746 71.185C347.746 71.625 347.6 71.9733 347.306 72.23C347.013 72.4867 346.621 72.615 346.129 72.615C345.506 72.615 345.015 72.4133 344.655 72.01C344.296 71.5993 344.116 71.0493 344.116 70.36V69.084C344.116 68.3947 344.296 67.8483 344.655 67.445C345.015 67.0417 345.506 66.84 346.129 66.84C346.621 66.84 347.013 66.9683 347.306 67.225C347.6 67.4817 347.746 67.83 347.746 68.27L347.559 68.105H347.746V66.95H348.725V73.22C348.725 73.7627 348.557 74.1917 348.219 74.507C347.889 74.8223 347.427 74.98 346.833 74.98H344.919ZM346.426 71.757C346.837 71.757 347.16 71.6287 347.394 71.372C347.629 71.1153 347.746 70.7597 347.746 70.305V69.15C347.746 68.6953 347.629 68.3397 347.394 68.083C347.16 67.8263 346.837 67.698 346.426 67.698C346.008 67.698 345.682 67.8227 345.447 68.072C345.22 68.3213 345.106 68.6807 345.106 69.15V70.305C345.106 70.7743 345.22 71.1337 345.447 71.383C345.682 71.6323 346.008 71.757 346.426 71.757ZM353.044 73.11C352.567 73.11 352.149 73.0147 351.79 72.824C351.438 72.6333 351.163 72.3657 350.965 72.021C350.774 71.669 350.679 71.262 350.679 70.8V69.15C350.679 68.6807 350.774 68.2737 350.965 67.929C351.163 67.5843 351.438 67.3167 351.79 67.126C352.149 66.9353 352.567 66.84 353.044 66.84C353.521 66.84 353.935 66.9353 354.287 67.126C354.646 67.3167 354.921 67.5843 355.112 67.929C355.31 68.2737 355.409 68.6807 355.409 69.15V70.217H351.647V70.8C351.647 71.2767 351.768 71.6433 352.01 71.9C352.252 72.1493 352.597 72.274 353.044 72.274C353.425 72.274 353.733 72.208 353.968 72.076C354.203 71.9367 354.346 71.7313 354.397 71.46H355.387C355.321 71.966 355.072 72.3693 354.639 72.67C354.214 72.9633 353.682 73.11 353.044 73.11ZM354.441 69.557V69.15C354.441 68.6733 354.32 68.3067 354.078 68.05C353.843 67.7933 353.499 67.665 353.044 67.665C352.597 67.665 352.252 67.7933 352.01 68.05C351.768 68.3067 351.647 68.6733 351.647 69.15V69.469H354.518L354.441 69.557ZM357.352 73V66.95H358.342V68.105H358.551L358.342 68.336C358.342 67.8593 358.485 67.4927 358.771 67.236C359.057 66.972 359.453 66.84 359.959 66.84C360.568 66.84 361.052 67.027 361.411 67.401C361.77 67.775 361.95 68.2847 361.95 68.93V73H360.96V69.04C360.96 68.6073 360.843 68.2773 360.608 68.05C360.381 67.8153 360.069 67.698 359.673 67.698C359.262 67.698 358.936 67.8227 358.694 68.072C358.459 68.3213 358.342 68.6807 358.342 69.15V73H357.352Z" fill="white"/>
<path d="M203.293 148.707C203.683 149.098 204.317 149.098 204.707 148.707L211.071 142.343C211.462 141.953 211.462 141.319 211.071 140.929C210.681 140.538 210.047 140.538 209.657 140.929L204 146.586L198.343 140.929C197.953 140.538 197.319 140.538 196.929 140.929C196.538 141.319 196.538 141.953 196.929 142.343L203.293 148.707ZM203 89V148H205V89H203Z" fill="white"/>
<line x1="69" y1="117.5" x2="340" y2="117.5" stroke="white"/>
<path d="M136.293 148.857C136.683 149.247 137.317 149.247 137.707 148.857L144.071 142.493C144.462 142.102 144.462 141.469 144.071 141.079C143.681 140.688 143.047 140.688 142.657 141.079L137 146.735L131.343 141.079C130.953 140.688 130.319 140.688 129.929 141.079C129.538 141.469 129.538 142.102 129.929 142.493L136.293 148.857ZM136 118V148.15H138V118H136Z" fill="white"/>
<path d="M68.7929 148.782C69.1834 149.172 69.8166 149.172 70.2071 148.782L76.5711 142.418C76.9616 142.027 76.9616 141.394 76.5711 141.004C76.1805 140.613 75.5474 140.613 75.1569 141.004L69.5 146.661L63.8431 141.004C63.4526 140.613 62.8195 140.613 62.4289 141.004C62.0384 141.394 62.0384 142.027 62.4289 142.418L68.7929 148.782ZM68.5 117.925V148.075H70.5V117.925H68.5Z" fill="white"/>
<path d="M339.293 148.857C339.683 149.247 340.317 149.247 340.707 148.857L347.071 142.493C347.462 142.102 347.462 141.469 347.071 141.079C346.681 140.688 346.047 140.688 345.657 141.079L340 146.735L334.343 141.079C333.953 140.688 333.319 140.688 332.929 141.079C332.538 141.469 332.538 142.102 332.929 142.493L339.293 148.857ZM339 118V148.15H341V118H339Z" fill="white"/>
<path d="M270.293 148.857C270.683 149.247 271.317 149.247 271.707 148.857L278.071 142.493C278.462 142.102 278.462 141.469 278.071 141.079C277.681 140.688 277.047 140.688 276.657 141.079L271 146.735L265.343 141.079C264.953 140.688 264.319 140.688 263.929 141.079C263.538 141.469 263.538 142.102 263.929 142.493L270.293 148.857ZM270 118V148.15H272V118H270Z" fill="white"/>
</g>
<path d="M75 155H59C57.9391 155 56.9217 155.421 56.1716 156.172C55.4214 156.922 55 157.939 55 159V191C55 192.061 55.4214 193.078 56.1716 193.828C56.9217 194.579 57.9391 195 59 195H83C84.0609 195 85.0783 194.579 85.8284 193.828C86.5786 193.078 87 192.061 87 191V167M75 155L87 167M75 155V167H87M79 177H63M79 185H63M67 169H63" stroke="#F1F1F1" stroke-width="4" stroke-linecap="round" stroke-linejoin="round"/>
<path d="M208 155H192C190.939 155 189.922 155.421 189.172 156.172C188.421 156.922 188 157.939 188 159V191C188 192.061 188.421 193.078 189.172 193.828C189.922 194.579 190.939 195 192 195H216C217.061 195 218.078 194.579 218.828 193.828C219.579 193.078 220 192.061 220 191V167M208 155L220 167M208 155V167H220M212 177H196M212 185H196M200 169H196" stroke="#F1F1F1" stroke-width="4" stroke-linecap="round" stroke-linejoin="round"/>
<path d="M340 155H324C322.939 155 321.922 155.421 321.172 156.172C320.421 156.922 320 157.939 320 159V191C320 192.061 320.421 193.078 321.172 193.828C321.922 194.579 322.939 195 324 195H348C349.061 195 350.078 194.579 350.828 193.828C351.579 193.078 352 192.061 352 191V167M340 155L352 167M340 155V167H352M344 177H328M344 185H328M332 169H328" stroke="#F1F1F1" stroke-width="4" stroke-linecap="round" stroke-linejoin="round"/>
<path d="M274 155H258C256.939 155 255.922 155.421 255.172 156.172C254.421 156.922 254 157.939 254 159V191C254 192.061 254.421 193.078 255.172 193.828C255.922 194.579 256.939 195 258 195H282C283.061 195 284.078 194.579 284.828 193.828C285.579 193.078 286 192.061 286 191V167M274 155L286 167M274 155V167H286M278 177H262M278 185H262M266 169H262" stroke="#F1F1F1" stroke-width="4" stroke-linecap="round" stroke-linejoin="round"/>
<path d="M141 155H125C123.939 155 122.922 155.421 122.172 156.172C121.421 156.922 121 157.939 121 159V191C121 192.061 121.421 193.078 122.172 193.828C122.922 194.579 123.939 195 125 195H149C150.061 195 151.078 194.579 151.828 193.828C152.579 193.078 153 192.061 153 191V167M141 155L153 167M141 155V167H153M145 177H129M145 185H129M133 169H129" stroke="#F1F1F1" stroke-width="4" stroke-linecap="round" stroke-linejoin="round"/>
<path d="M218.695 112V104H221.852C222.456 104 222.971 104.108 223.398 104.324C223.828 104.538 224.155 104.841 224.379 105.234C224.605 105.625 224.719 106.085 224.719 106.613C224.719 107.145 224.604 107.602 224.375 107.984C224.146 108.365 223.814 108.656 223.379 108.859C222.947 109.062 222.423 109.164 221.809 109.164H219.695V107.805H221.535C221.858 107.805 222.126 107.76 222.34 107.672C222.553 107.583 222.712 107.451 222.816 107.273C222.923 107.096 222.977 106.876 222.977 106.613C222.977 106.348 222.923 106.124 222.816 105.941C222.712 105.759 222.552 105.621 222.336 105.527C222.122 105.431 221.853 105.383 221.527 105.383H220.387V112H218.695ZM223.016 108.359L225.004 112H223.137L221.191 108.359H223.016ZM228.521 112.117C227.903 112.117 227.372 111.992 226.927 111.742C226.484 111.49 226.143 111.133 225.903 110.672C225.664 110.208 225.544 109.66 225.544 109.027C225.544 108.41 225.664 107.868 225.903 107.402C226.143 106.936 226.48 106.573 226.915 106.312C227.353 106.052 227.866 105.922 228.454 105.922C228.85 105.922 229.218 105.986 229.56 106.113C229.903 106.238 230.203 106.427 230.458 106.68C230.716 106.932 230.916 107.25 231.06 107.633C231.203 108.013 231.274 108.458 231.274 108.969V109.426H226.208V108.395H229.708C229.708 108.155 229.656 107.943 229.552 107.758C229.448 107.573 229.303 107.428 229.118 107.324C228.936 107.217 228.724 107.164 228.481 107.164C228.229 107.164 228.005 107.223 227.81 107.34C227.617 107.454 227.466 107.609 227.356 107.805C227.247 107.997 227.191 108.212 227.188 108.449V109.43C227.188 109.727 227.243 109.983 227.353 110.199C227.465 110.415 227.622 110.582 227.825 110.699C228.028 110.816 228.269 110.875 228.548 110.875C228.733 110.875 228.902 110.849 229.056 110.797C229.209 110.745 229.341 110.667 229.45 110.562C229.56 110.458 229.643 110.331 229.7 110.18L231.239 110.281C231.161 110.651 231.001 110.974 230.759 111.25C230.519 111.523 230.209 111.737 229.829 111.891C229.451 112.042 229.015 112.117 228.521 112.117ZM232.36 114.25V106H234.001V107.008H234.075C234.148 106.846 234.254 106.682 234.392 106.516C234.532 106.346 234.715 106.206 234.938 106.094C235.165 105.979 235.446 105.922 235.782 105.922C236.22 105.922 236.623 106.036 236.993 106.266C237.363 106.492 237.659 106.835 237.88 107.293C238.101 107.749 238.212 108.32 238.212 109.008C238.212 109.677 238.104 110.242 237.888 110.703C237.674 111.161 237.382 111.509 237.013 111.746C236.646 111.98 236.234 112.098 235.778 112.098C235.455 112.098 235.181 112.044 234.954 111.937C234.73 111.831 234.547 111.697 234.403 111.535C234.26 111.371 234.151 111.206 234.075 111.039H234.024V114.25H232.36ZM233.989 109C233.989 109.357 234.039 109.668 234.138 109.934C234.237 110.199 234.38 110.406 234.567 110.555C234.755 110.701 234.983 110.773 235.251 110.773C235.522 110.773 235.751 110.699 235.938 110.551C236.126 110.4 236.268 110.191 236.364 109.926C236.463 109.658 236.513 109.349 236.513 109C236.513 108.654 236.465 108.349 236.368 108.086C236.272 107.823 236.13 107.617 235.942 107.469C235.755 107.32 235.524 107.246 235.251 107.246C234.98 107.246 234.751 107.318 234.563 107.461C234.379 107.604 234.237 107.807 234.138 108.07C234.039 108.333 233.989 108.643 233.989 109ZM242.032 112.117C241.425 112.117 240.901 111.988 240.458 111.73C240.018 111.47 239.678 111.108 239.438 110.645C239.199 110.178 239.079 109.638 239.079 109.023C239.079 108.404 239.199 107.862 239.438 107.398C239.678 106.932 240.018 106.57 240.458 106.312C240.901 106.052 241.425 105.922 242.032 105.922C242.639 105.922 243.162 106.052 243.603 106.312C244.045 106.57 244.386 106.932 244.626 107.398C244.866 107.862 244.985 108.404 244.985 109.023C244.985 109.638 244.866 110.178 244.626 110.645C244.386 111.108 244.045 111.47 243.603 111.73C243.162 111.988 242.639 112.117 242.032 112.117ZM242.04 110.828C242.316 110.828 242.547 110.75 242.731 110.594C242.916 110.435 243.056 110.219 243.149 109.945C243.246 109.672 243.294 109.361 243.294 109.012C243.294 108.663 243.246 108.352 243.149 108.078C243.056 107.805 242.916 107.589 242.731 107.43C242.547 107.271 242.316 107.191 242.04 107.191C241.761 107.191 241.527 107.271 241.337 107.43C241.149 107.589 241.007 107.805 240.911 108.078C240.817 108.352 240.771 108.663 240.771 109.012C240.771 109.361 240.817 109.672 240.911 109.945C241.007 110.219 241.149 110.435 241.337 110.594C241.527 110.75 241.761 110.828 242.04 110.828ZM246.067 112V106H247.681V107.047H247.743C247.853 106.674 248.036 106.393 248.294 106.203C248.552 106.01 248.849 105.914 249.185 105.914C249.268 105.914 249.358 105.919 249.454 105.93C249.55 105.94 249.635 105.954 249.708 105.973V107.449C249.63 107.426 249.522 107.405 249.384 107.387C249.246 107.368 249.119 107.359 249.005 107.359C248.76 107.359 248.541 107.413 248.349 107.52C248.159 107.624 248.007 107.77 247.896 107.957C247.786 108.145 247.731 108.361 247.731 108.605V112H246.067ZM254.061 106V107.25H250.447V106H254.061ZM251.268 104.562H252.932V110.156C252.932 110.31 252.955 110.43 253.002 110.516C253.049 110.599 253.114 110.658 253.197 110.691C253.283 110.725 253.382 110.742 253.494 110.742C253.572 110.742 253.65 110.736 253.729 110.723C253.807 110.707 253.867 110.695 253.908 110.687L254.17 111.926C254.087 111.952 253.969 111.982 253.818 112.016C253.667 112.052 253.484 112.074 253.268 112.082C252.867 112.098 252.515 112.044 252.213 111.922C251.913 111.799 251.68 111.609 251.514 111.352C251.347 111.094 251.265 110.768 251.268 110.375V104.562ZM260.062 107.711L258.538 107.805C258.512 107.674 258.456 107.557 258.37 107.453C258.284 107.346 258.171 107.262 258.03 107.199C257.892 107.134 257.727 107.102 257.534 107.102C257.276 107.102 257.059 107.156 256.882 107.266C256.705 107.372 256.616 107.516 256.616 107.695C256.616 107.839 256.674 107.96 256.788 108.059C256.903 108.158 257.099 108.237 257.378 108.297L258.464 108.516C259.047 108.635 259.482 108.828 259.769 109.094C260.055 109.359 260.198 109.708 260.198 110.141C260.198 110.534 260.082 110.879 259.851 111.176C259.621 111.473 259.306 111.704 258.905 111.871C258.507 112.035 258.047 112.117 257.526 112.117C256.732 112.117 256.099 111.952 255.628 111.621C255.159 111.288 254.884 110.835 254.804 110.262L256.44 110.176C256.49 110.418 256.61 110.603 256.8 110.73C256.99 110.855 257.233 110.918 257.53 110.918C257.822 110.918 258.056 110.862 258.233 110.75C258.413 110.635 258.504 110.488 258.507 110.309C258.504 110.158 258.44 110.034 258.315 109.938C258.19 109.839 257.998 109.763 257.737 109.711L256.698 109.504C256.112 109.387 255.676 109.184 255.39 108.895C255.106 108.605 254.964 108.237 254.964 107.789C254.964 107.404 255.068 107.072 255.276 106.793C255.487 106.514 255.783 106.299 256.163 106.148C256.546 105.997 256.994 105.922 257.507 105.922C258.265 105.922 258.861 106.082 259.296 106.402C259.733 106.723 259.989 107.159 260.062 107.711ZM264.73 103.625L262.152 113.203H260.719L263.297 103.625H264.73ZM272.915 108C272.915 108.872 272.75 109.615 272.419 110.227C272.091 110.839 271.643 111.306 271.075 111.629C270.51 111.949 269.875 112.109 269.169 112.109C268.458 112.109 267.82 111.948 267.255 111.625C266.69 111.302 266.243 110.835 265.915 110.223C265.587 109.611 265.423 108.87 265.423 108C265.423 107.128 265.587 106.385 265.915 105.773C266.243 105.161 266.69 104.695 267.255 104.375C267.82 104.052 268.458 103.891 269.169 103.891C269.875 103.891 270.51 104.052 271.075 104.375C271.643 104.695 272.091 105.161 272.419 105.773C272.75 106.385 272.915 107.128 272.915 108ZM271.2 108C271.2 107.435 271.116 106.958 270.946 106.57C270.78 106.182 270.544 105.888 270.239 105.688C269.935 105.487 269.578 105.387 269.169 105.387C268.76 105.387 268.403 105.487 268.099 105.688C267.794 105.888 267.557 106.182 267.388 106.57C267.221 106.958 267.138 107.435 267.138 108C267.138 108.565 267.221 109.042 267.388 109.43C267.557 109.818 267.794 110.112 268.099 110.312C268.403 110.513 268.76 110.613 269.169 110.613C269.578 110.613 269.935 110.513 270.239 110.312C270.544 110.112 270.78 109.818 270.946 109.43C271.116 109.042 271.2 108.565 271.2 108ZM277.984 109.445V106H279.648V112H278.051V110.91H277.988C277.853 111.262 277.628 111.544 277.313 111.758C277 111.971 276.618 112.078 276.168 112.078C275.767 112.078 275.414 111.987 275.109 111.805C274.805 111.622 274.566 111.363 274.395 111.027C274.225 110.691 274.139 110.289 274.137 109.82V106H275.801V109.523C275.803 109.878 275.898 110.158 276.086 110.363C276.273 110.569 276.525 110.672 276.84 110.672C277.04 110.672 277.228 110.626 277.402 110.535C277.577 110.441 277.717 110.303 277.824 110.121C277.934 109.939 277.987 109.714 277.984 109.445ZM284.171 106V107.25H280.558V106H284.171ZM281.378 104.562H283.042V110.156C283.042 110.31 283.065 110.43 283.112 110.516C283.159 110.599 283.224 110.658 283.308 110.691C283.394 110.725 283.493 110.742 283.604 110.742C283.683 110.742 283.761 110.736 283.839 110.723C283.917 110.707 283.977 110.695 284.019 110.687L284.28 111.926C284.197 111.952 284.08 111.982 283.929 112.016C283.778 112.052 283.594 112.074 283.378 112.082C282.977 112.098 282.625 112.044 282.323 111.922C282.024 111.799 281.791 111.609 281.624 111.352C281.457 111.094 281.375 110.768 281.378 110.375V104.562ZM285.255 114.25V106H286.896V107.008H286.97C287.043 106.846 287.148 106.682 287.286 106.516C287.427 106.346 287.609 106.206 287.833 106.094C288.06 105.979 288.341 105.922 288.677 105.922C289.114 105.922 289.518 106.036 289.888 106.266C290.257 106.492 290.553 106.835 290.774 107.293C290.996 107.749 291.106 108.32 291.106 109.008C291.106 109.677 290.998 110.242 290.782 110.703C290.569 111.161 290.277 111.509 289.907 111.746C289.54 111.98 289.129 112.098 288.673 112.098C288.35 112.098 288.075 112.044 287.849 111.937C287.625 111.831 287.441 111.697 287.298 111.535C287.155 111.371 287.045 111.206 286.97 111.039H286.919V114.25H285.255ZM286.884 109C286.884 109.357 286.933 109.668 287.032 109.934C287.131 110.199 287.274 110.406 287.462 110.555C287.649 110.701 287.877 110.773 288.146 110.773C288.416 110.773 288.646 110.699 288.833 110.551C289.021 110.4 289.162 110.191 289.259 109.926C289.358 109.658 289.407 109.349 289.407 109C289.407 108.654 289.359 108.349 289.263 108.086C289.166 107.823 289.024 107.617 288.837 107.469C288.649 107.32 288.419 107.246 288.146 107.246C287.875 107.246 287.646 107.318 287.458 107.461C287.273 107.604 287.131 107.807 287.032 108.07C286.933 108.333 286.884 108.643 286.884 109ZM296.063 109.445V106H297.728V112H296.13V110.91H296.067C295.932 111.262 295.707 111.544 295.392 111.758C295.079 111.971 294.698 112.078 294.247 112.078C293.846 112.078 293.493 111.987 293.188 111.805C292.884 111.622 292.646 111.363 292.474 111.027C292.304 110.691 292.218 110.289 292.216 109.82V106H293.88V109.523C293.882 109.878 293.978 110.158 294.165 110.363C294.353 110.569 294.604 110.672 294.919 110.672C295.119 110.672 295.307 110.626 295.481 110.535C295.656 110.441 295.797 110.303 295.903 110.121C296.013 109.939 296.066 109.714 296.063 109.445ZM302.25 106V107.25H298.637V106H302.25ZM299.457 104.562H301.121V110.156C301.121 110.31 301.145 110.43 301.191 110.516C301.238 110.599 301.303 110.658 301.387 110.691C301.473 110.725 301.572 110.742 301.684 110.742C301.762 110.742 301.84 110.736 301.918 110.723C301.996 110.707 302.056 110.695 302.098 110.687L302.359 111.926C302.276 111.952 302.159 111.982 302.008 112.016C301.857 112.052 301.673 112.074 301.457 112.082C301.056 112.098 300.704 112.044 300.402 111.922C300.103 111.799 299.87 111.609 299.703 111.352C299.536 111.094 299.454 110.768 299.457 110.375V104.562Z" fill="white"/>
<defs>
<filter id="filter0_d_0_1" x="-4" y="0" width="417" height="257" filterUnits="userSpaceOnUse" color-interpolation-filters="sRGB">
<feFlood flood-opacity="0" result="BackgroundImageFix"/>
<feColorMatrix in="SourceAlpha" type="matrix" values="0 0 0 0 0 0 0 0 0 0 0 0 0 0 0 0 0 0 127 0" result="hardAlpha"/>
<feOffset dy="4"/>
<feGaussianBlur stdDeviation="2"/>
<feComposite in2="hardAlpha" operator="out"/>
<feColorMatrix type="matrix" values="0 0 0 0 0 0 0 0 0 0 0 0 0 0 0 0 0 0 0.25 0"/>
<feBlend mode="normal" in2="BackgroundImageFix" result="effect1_dropShadow_0_1"/>
<feBlend mode="normal" in="SourceGraphic" in2="effect1_dropShadow_0_1" result="shape"/>
</filter>
</defs>
</svg>
