<svg width="409" height="249" viewBox="0 0 409 249" fill="none" xmlns="http://www.w3.org/2000/svg">
<g filter="url(#filter0_d_5_76)">
<path d="M204 42H190C188.939 42 187.922 42.4214 187.172 43.1716C186.421 43.9217 186 44.9391 186 46V78C186 79.0609 186.421 80.0783 187.172 80.8284C187.922 81.5786 188.939 82 190 82H214C215.061 82 216.078 81.5786 216.828 80.8284C217.579 80.0783 218 79.0609 218 78V56M204 42L218 56M204 42V56H218" stroke="#14AE5C" stroke-width="4" stroke-linecap="round" stroke-linejoin="round"/>
<path d="M189.516 69.0625C189.323 69.0625 189.158 68.9935 189.02 68.8555C188.882 68.7174 188.813 68.5521 188.813 68.3594C188.813 68.1667 188.882 68.0013 189.02 67.8633C189.158 67.7253 189.323 67.6562 189.516 67.6562C189.708 67.6562 189.874 67.7253 190.012 67.8633C190.15 68.0013 190.219 68.1667 190.219 68.3594C190.219 68.487 190.186 68.6042 190.121 68.7109C190.059 68.8177 189.974 68.9036 189.867 68.9687C189.763 69.0313 189.646 69.0625 189.516 69.0625ZM195.967 71.25V68.0781H195.889C195.821 68.1875 195.725 68.3255 195.6 68.4922C195.475 68.6562 195.296 68.8034 195.064 68.9336C194.833 69.0612 194.524 69.125 194.139 69.125C193.639 69.125 193.197 68.9987 192.814 68.7461C192.432 68.4909 192.132 68.1315 191.916 67.668C191.7 67.2018 191.592 66.651 191.592 66.0156C191.592 65.3854 191.7 64.8385 191.916 64.375C192.132 63.9115 192.433 63.5534 192.818 63.3008C193.204 63.0482 193.649 62.9219 194.154 62.9219C194.545 62.9219 194.854 62.987 195.08 63.1172C195.309 63.2448 195.484 63.3906 195.604 63.5547C195.726 63.7161 195.821 63.849 195.889 63.9531H195.998V63H196.889V71.25H195.967ZM194.264 68.2969C194.633 68.2969 194.946 68.2005 195.201 68.0078C195.456 67.8125 195.65 67.543 195.783 67.1992C195.916 66.8529 195.982 66.4531 195.982 66C195.982 65.5521 195.917 65.1602 195.787 64.8242C195.657 64.4857 195.464 64.2227 195.209 64.0352C194.954 63.8451 194.639 63.75 194.264 63.75C193.873 63.75 193.548 63.8503 193.287 64.0508C193.029 64.2487 192.835 64.5182 192.705 64.8594C192.577 65.1979 192.514 65.5781 192.514 66C192.514 66.4271 192.579 66.8151 192.709 67.1641C192.842 67.5104 193.037 67.7865 193.295 67.9922C193.555 68.1953 193.878 68.2969 194.264 68.2969ZM198.576 69V63H199.467V63.9375H199.545C199.67 63.6172 199.872 63.3685 200.15 63.1914C200.429 63.0117 200.764 62.9219 201.154 62.9219C201.55 62.9219 201.88 63.0117 202.143 63.1914C202.408 63.3685 202.615 63.6172 202.764 63.9375H202.826C202.98 63.6276 203.21 63.3815 203.518 63.1992C203.825 63.0143 204.193 62.9219 204.623 62.9219C205.16 62.9219 205.598 63.0898 205.939 63.4258C206.281 63.7591 206.451 64.2786 206.451 64.9844V69H205.529V64.9844C205.529 64.5417 205.408 64.2253 205.166 64.0352C204.924 63.8451 204.639 63.75 204.311 63.75C203.889 63.75 203.562 63.8776 203.33 64.1328C203.098 64.3854 202.982 64.7057 202.982 65.0937V69H202.045V64.8906C202.045 64.5495 201.934 64.2747 201.713 64.0664C201.492 63.8555 201.206 63.75 200.857 63.75C200.618 63.75 200.394 63.8138 200.186 63.9414C199.98 64.069 199.813 64.2461 199.686 64.4727C199.561 64.6966 199.498 64.9557 199.498 65.25V69H198.576ZM210.402 69.125C209.902 69.125 209.461 68.9987 209.078 68.7461C208.695 68.4909 208.396 68.1315 208.18 67.668C207.964 67.2018 207.855 66.651 207.855 66.0156C207.855 65.3854 207.964 64.8385 208.18 64.375C208.396 63.9115 208.697 63.5534 209.082 63.3008C209.467 63.0482 209.913 62.9219 210.418 62.9219C210.809 62.9219 211.117 62.987 211.344 63.1172C211.573 63.2448 211.747 63.3906 211.867 63.5547C211.99 63.7161 212.085 63.849 212.152 63.9531H212.23V61H213.152V69H212.262V68.0781H212.152C212.085 68.1875 211.988 68.3255 211.863 68.4922C211.738 68.6562 211.56 68.8034 211.328 68.9336C211.096 69.0612 210.788 69.125 210.402 69.125ZM210.527 68.2969C210.897 68.2969 211.21 68.2005 211.465 68.0078C211.72 67.8125 211.914 67.543 212.047 67.1992C212.18 66.8529 212.246 66.4531 212.246 66C212.246 65.5521 212.181 65.1602 212.051 64.8242C211.921 64.4857 211.728 64.2227 211.473 64.0352C211.217 63.8451 210.902 63.75 210.527 63.75C210.137 63.75 209.811 63.8503 209.551 64.0508C209.293 64.2487 209.099 64.5182 208.969 64.8594C208.841 65.1979 208.777 65.5781 208.777 66C208.777 66.4271 208.842 66.8151 208.973 67.1641C209.105 67.5104 209.301 67.7865 209.559 67.9922C209.819 68.1953 210.142 68.2969 210.527 68.2969Z" fill="white"/>
<path d="M178.391 21.3945V20H184.961V21.3945H182.512V28H180.84V21.3945H178.391ZM187.876 28.1172C187.259 28.1172 186.728 27.9922 186.282 27.7422C185.84 27.4896 185.498 27.1328 185.259 26.6719C185.019 26.2083 184.899 25.6602 184.899 25.0273C184.899 24.4102 185.019 23.8685 185.259 23.4023C185.498 22.9362 185.836 22.5729 186.271 22.3125C186.708 22.0521 187.221 21.9219 187.81 21.9219C188.205 21.9219 188.574 21.9857 188.915 22.1133C189.259 22.2383 189.558 22.4271 189.813 22.6797C190.071 22.9323 190.272 23.25 190.415 23.6328C190.558 24.013 190.63 24.4583 190.63 24.9687V25.4258H185.563V24.3945H189.063C189.063 24.1549 189.011 23.9427 188.907 23.7578C188.803 23.5729 188.659 23.4284 188.474 23.3242C188.291 23.2174 188.079 23.1641 187.837 23.1641C187.584 23.1641 187.36 23.2227 187.165 23.3398C186.972 23.4544 186.821 23.6094 186.712 23.8047C186.603 23.9974 186.547 24.2122 186.544 24.4492V25.4297C186.544 25.7266 186.599 25.9831 186.708 26.1992C186.82 26.4154 186.978 26.582 187.181 26.6992C187.384 26.8164 187.625 26.875 187.903 26.875C188.088 26.875 188.257 26.849 188.411 26.7969C188.565 26.7448 188.696 26.6667 188.806 26.5625C188.915 26.4583 188.998 26.3307 189.056 26.1797L190.595 26.2812C190.517 26.651 190.356 26.974 190.114 27.25C189.875 27.5234 189.565 27.737 189.185 27.8906C188.807 28.0417 188.371 28.1172 187.876 28.1172ZM191.716 28V22H193.302V23.0586H193.372C193.497 22.707 193.705 22.4297 193.997 22.2266C194.289 22.0234 194.638 21.9219 195.044 21.9219C195.455 21.9219 195.806 22.0247 196.095 22.2305C196.384 22.4336 196.576 22.7096 196.673 23.0586H196.735C196.858 22.7148 197.079 22.4401 197.399 22.2344C197.722 22.026 198.104 21.9219 198.544 21.9219C199.104 21.9219 199.558 22.1003 199.907 22.457C200.259 22.8112 200.435 23.3138 200.435 23.9648V28H198.774V24.293C198.774 23.9596 198.686 23.7096 198.509 23.543C198.332 23.3763 198.11 23.293 197.845 23.293C197.543 23.293 197.307 23.3893 197.138 23.582C196.968 23.7721 196.884 24.0234 196.884 24.3359V28H195.271V24.2578C195.271 23.9635 195.186 23.7292 195.017 23.5547C194.85 23.3802 194.63 23.293 194.356 23.293C194.172 23.293 194.005 23.3398 193.856 23.4336C193.711 23.5247 193.595 23.6536 193.509 23.8203C193.423 23.9844 193.38 24.1771 193.38 24.3984V28H191.716ZM201.749 30.25V22H203.39V23.0078H203.464C203.537 22.8464 203.642 22.6823 203.78 22.5156C203.921 22.3464 204.103 22.2057 204.327 22.0938C204.554 21.9792 204.835 21.9219 205.171 21.9219C205.608 21.9219 206.012 22.0365 206.382 22.2656C206.752 22.4922 207.047 22.8346 207.269 23.293C207.49 23.7487 207.601 24.3203 207.601 25.0078C207.601 25.6771 207.493 26.2422 207.276 26.7031C207.063 27.1615 206.771 27.5091 206.401 27.7461C206.034 27.9805 205.623 28.0977 205.167 28.0977C204.844 28.0977 204.569 28.0443 204.343 27.9375C204.119 27.8307 203.935 27.6966 203.792 27.5352C203.649 27.3711 203.539 27.2057 203.464 27.0391H203.413V30.25H201.749ZM203.378 25C203.378 25.3568 203.427 25.668 203.526 25.9336C203.625 26.1992 203.769 26.4062 203.956 26.5547C204.144 26.7005 204.371 26.7734 204.64 26.7734C204.91 26.7734 205.14 26.6992 205.327 26.5508C205.515 26.3997 205.657 26.1914 205.753 25.9258C205.852 25.6576 205.901 25.349 205.901 25C205.901 24.6536 205.853 24.349 205.757 24.0859C205.66 23.8229 205.519 23.6172 205.331 23.4687C205.144 23.3203 204.913 23.2461 204.64 23.2461C204.369 23.2461 204.14 23.3177 203.952 23.4609C203.767 23.6042 203.625 23.8073 203.526 24.0703C203.427 24.3333 203.378 24.6432 203.378 25ZM210.374 20V28H208.71V20H210.374ZM213.418 28.1133C213.035 28.1133 212.694 28.0469 212.395 27.9141C212.095 27.7786 211.858 27.5794 211.684 27.3164C211.512 27.0508 211.426 26.7201 211.426 26.3242C211.426 25.9909 211.487 25.7109 211.609 25.4844C211.732 25.2578 211.898 25.0755 212.109 24.9375C212.32 24.7995 212.56 24.6953 212.828 24.625C213.099 24.5547 213.383 24.5052 213.68 24.4766C214.029 24.4401 214.31 24.4062 214.523 24.375C214.737 24.3411 214.892 24.2917 214.988 24.2266C215.085 24.1615 215.133 24.0651 215.133 23.9375V23.9141C215.133 23.6667 215.055 23.4753 214.898 23.3398C214.745 23.2044 214.526 23.1367 214.242 23.1367C213.943 23.1367 213.704 23.2031 213.527 23.3359C213.35 23.4661 213.233 23.6302 213.176 23.8281L211.637 23.7031C211.715 23.3385 211.868 23.0234 212.098 22.7578C212.327 22.4896 212.622 22.2839 212.984 22.1406C213.349 21.9948 213.771 21.9219 214.25 21.9219C214.583 21.9219 214.902 21.9609 215.207 22.0391C215.514 22.1172 215.786 22.2383 216.023 22.4023C216.263 22.5664 216.452 22.7773 216.59 23.0352C216.728 23.2904 216.797 23.5964 216.797 23.9531V28H215.219V27.168H215.172C215.076 27.3555 214.947 27.5208 214.785 27.6641C214.624 27.8047 214.43 27.9154 214.203 27.9961C213.977 28.0742 213.715 28.1133 213.418 28.1133ZM213.895 26.9648C214.139 26.9648 214.355 26.9167 214.543 26.8203C214.73 26.7214 214.878 26.5885 214.984 26.4219C215.091 26.2552 215.145 26.0664 215.145 25.8555V25.2188C215.092 25.2526 215.021 25.2839 214.93 25.3125C214.841 25.3385 214.741 25.3633 214.629 25.3867C214.517 25.4076 214.405 25.4271 214.293 25.4453C214.181 25.4609 214.079 25.4753 213.988 25.4883C213.793 25.5169 213.622 25.5625 213.477 25.625C213.331 25.6875 213.217 25.7721 213.137 25.8789C213.056 25.9831 213.016 26.1133 213.016 26.2695C213.016 26.4961 213.098 26.6693 213.262 26.7891C213.428 26.9062 213.639 26.9648 213.895 26.9648ZM221.279 22V23.25H217.666V22H221.279ZM218.486 20.5625H220.15V26.1562C220.15 26.3099 220.174 26.4297 220.221 26.5156C220.268 26.599 220.333 26.6576 220.416 26.6914C220.502 26.7253 220.601 26.7422 220.713 26.7422C220.791 26.7422 220.869 26.7357 220.947 26.7227C221.025 26.707 221.085 26.6953 221.127 26.6875L221.389 27.9258C221.305 27.9518 221.188 27.9818 221.037 28.0156C220.886 28.0521 220.702 28.0742 220.486 28.082C220.085 28.0977 219.734 28.0443 219.432 27.9219C219.132 27.7995 218.899 27.6094 218.732 27.3516C218.566 27.0937 218.484 26.7682 218.486 26.375V20.5625ZM225.033 28.1172C224.416 28.1172 223.885 27.9922 223.439 27.7422C222.997 27.4896 222.656 27.1328 222.416 26.6719C222.176 26.2083 222.057 25.6602 222.057 25.0273C222.057 24.4102 222.176 23.8685 222.416 23.4023C222.656 22.9362 222.993 22.5729 223.428 22.3125C223.865 22.0521 224.378 21.9219 224.967 21.9219C225.363 21.9219 225.731 21.9857 226.072 22.1133C226.416 22.2383 226.715 22.4271 226.971 22.6797C227.229 22.9323 227.429 23.25 227.572 23.6328C227.715 24.013 227.787 24.4583 227.787 24.9687V25.4258H222.721V24.3945H226.221C226.221 24.1549 226.169 23.9427 226.064 23.7578C225.96 23.5729 225.816 23.4284 225.631 23.3242C225.449 23.2174 225.236 23.1641 224.994 23.1641C224.742 23.1641 224.518 23.2227 224.322 23.3398C224.13 23.4544 223.979 23.6094 223.869 23.8047C223.76 23.9974 223.704 24.2122 223.701 24.4492V25.4297C223.701 25.7266 223.756 25.9831 223.865 26.1992C223.977 26.4154 224.135 26.582 224.338 26.6992C224.541 26.8164 224.782 26.875 225.061 26.875C225.245 26.875 225.415 26.849 225.568 26.7969C225.722 26.7448 225.854 26.6667 225.963 26.5625C226.072 26.4583 226.156 26.3307 226.213 26.1797L227.752 26.2812C227.674 26.651 227.514 26.974 227.271 27.25C227.032 27.5234 226.722 27.737 226.342 27.8906C225.964 28.0417 225.528 28.1172 225.033 28.1172Z" fill="white"/>
<path d="M233.293 64.2929C232.902 64.6834 232.902 65.3166 233.293 65.7071L239.657 72.0711C240.047 72.4616 240.681 72.4616 241.071 72.0711C241.462 71.6805 241.462 71.0474 241.071 70.6569L235.414 65L241.071 59.3431C241.462 58.9526 241.462 58.3195 241.071 57.9289C240.681 57.5384 240.047 57.5384 239.657 57.9289L233.293 64.2929ZM255 64H234V66H255V64Z" fill="white"/>
<path d="M264.695 57V49H267.852C268.458 49 268.975 49.1159 269.402 49.3477C269.829 49.5768 270.155 49.8958 270.379 50.3047C270.605 50.7109 270.719 51.1797 270.719 51.7109C270.719 52.2422 270.604 52.7109 270.375 53.1172C270.146 53.5234 269.814 53.8398 269.379 54.0664C268.947 54.293 268.423 54.4062 267.809 54.4062H265.797V53.0508H267.535C267.861 53.0508 268.129 52.9948 268.34 52.8828C268.553 52.7682 268.712 52.6107 268.816 52.4102C268.923 52.207 268.977 51.974 268.977 51.7109C268.977 51.4453 268.923 51.2135 268.816 51.0156C268.712 50.8151 268.553 50.6602 268.34 50.5508C268.126 50.4388 267.855 50.3828 267.527 50.3828H266.387V57H264.695ZM273.336 57.1133C272.953 57.1133 272.612 57.0469 272.313 56.9141C272.013 56.7786 271.776 56.5794 271.602 56.3164C271.43 56.0508 271.344 55.7201 271.344 55.3242C271.344 54.9909 271.405 54.7109 271.527 54.4844C271.65 54.2578 271.816 54.0755 272.027 53.9375C272.238 53.7995 272.478 53.6953 272.746 53.625C273.017 53.5547 273.301 53.5052 273.598 53.4766C273.947 53.4401 274.228 53.4062 274.441 53.375C274.655 53.3411 274.81 53.2917 274.906 53.2266C275.003 53.1615 275.051 53.0651 275.051 52.9375V52.9141C275.051 52.6667 274.973 52.4753 274.816 52.3398C274.663 52.2044 274.444 52.1367 274.16 52.1367C273.861 52.1367 273.622 52.2031 273.445 52.3359C273.268 52.4661 273.151 52.6302 273.094 52.8281L271.555 52.7031C271.633 52.3385 271.786 52.0234 272.016 51.7578C272.245 51.4896 272.54 51.2839 272.902 51.1406C273.267 50.9948 273.689 50.9219 274.168 50.9219C274.501 50.9219 274.82 50.9609 275.125 51.0391C275.432 51.1172 275.704 51.2383 275.941 51.4023C276.181 51.5664 276.37 51.7773 276.508 52.0352C276.646 52.2904 276.715 52.5964 276.715 52.9531V57H275.137V56.168H275.09C274.993 56.3555 274.865 56.5208 274.703 56.6641C274.542 56.8047 274.348 56.9154 274.121 56.9961C273.895 57.0742 273.633 57.1133 273.336 57.1133ZM273.813 55.9648C274.057 55.9648 274.273 55.9167 274.461 55.8203C274.648 55.7214 274.796 55.5885 274.902 55.4219C275.009 55.2552 275.063 55.0664 275.063 54.8555V54.2188C275.01 54.2526 274.939 54.2839 274.848 54.3125C274.759 54.3385 274.659 54.3633 274.547 54.3867C274.435 54.4076 274.323 54.4271 274.211 54.4453C274.099 54.4609 273.997 54.4753 273.906 54.4883C273.711 54.5169 273.54 54.5625 273.395 54.625C273.249 54.6875 273.135 54.7721 273.055 54.8789C272.974 54.9831 272.934 55.1133 272.934 55.2695C272.934 55.4961 273.016 55.6693 273.18 55.7891C273.346 55.9062 273.557 55.9648 273.813 55.9648ZM278.006 57V51H279.619V52.0469H279.682C279.791 51.6745 279.975 51.3932 280.232 51.2031C280.49 51.0104 280.787 50.9141 281.123 50.9141C281.206 50.9141 281.296 50.9193 281.393 50.9297C281.489 50.9401 281.574 50.9544 281.646 50.9727V52.4492C281.568 52.4258 281.46 52.4049 281.322 52.3867C281.184 52.3685 281.058 52.3594 280.943 52.3594C280.699 52.3594 280.48 52.4128 280.287 52.5195C280.097 52.6237 279.946 52.7695 279.834 52.957C279.725 53.1445 279.67 53.3607 279.67 53.6055V57H278.006ZM284.046 57.1133C283.663 57.1133 283.322 57.0469 283.022 56.9141C282.723 56.7786 282.486 56.5794 282.312 56.3164C282.14 56.0508 282.054 55.7201 282.054 55.3242C282.054 54.9909 282.115 54.7109 282.237 54.4844C282.36 54.2578 282.526 54.0755 282.737 53.9375C282.948 53.7995 283.188 53.6953 283.456 53.625C283.727 53.5547 284.011 53.5052 284.308 53.4766C284.657 53.4401 284.938 53.4062 285.151 53.375C285.365 53.3411 285.52 53.2917 285.616 53.2266C285.713 53.1615 285.761 53.0651 285.761 52.9375V52.9141C285.761 52.6667 285.683 52.4753 285.526 52.3398C285.373 52.2044 285.154 52.1367 284.87 52.1367C284.571 52.1367 284.332 52.2031 284.155 52.3359C283.978 52.4661 283.861 52.6302 283.804 52.8281L282.265 52.7031C282.343 52.3385 282.496 52.0234 282.726 51.7578C282.955 51.4896 283.25 51.2839 283.612 51.1406C283.977 50.9948 284.399 50.9219 284.878 50.9219C285.211 50.9219 285.53 50.9609 285.835 51.0391C286.142 51.1172 286.414 51.2383 286.651 51.4023C286.891 51.5664 287.08 51.7773 287.218 52.0352C287.356 52.2904 287.425 52.5964 287.425 52.9531V57H285.847V56.168H285.8C285.703 56.3555 285.575 56.5208 285.413 56.6641C285.252 56.8047 285.058 56.9154 284.831 56.9961C284.604 57.0742 284.343 57.1133 284.046 57.1133ZM284.522 55.9648C284.767 55.9648 284.983 55.9167 285.171 55.8203C285.358 55.7214 285.506 55.5885 285.612 55.4219C285.719 55.2552 285.772 55.0664 285.772 54.8555V54.2188C285.72 54.2526 285.649 54.2839 285.558 54.3125C285.469 54.3385 285.369 54.3633 285.257 54.3867C285.145 54.4076 285.033 54.4271 284.921 54.4453C284.809 54.4609 284.707 54.4753 284.616 54.4883C284.421 54.5169 284.25 54.5625 284.104 54.625C283.959 54.6875 283.845 54.7721 283.765 54.8789C283.684 54.9831 283.644 55.1133 283.644 55.2695C283.644 55.4961 283.726 55.6693 283.89 55.7891C284.056 55.9062 284.267 55.9648 284.522 55.9648ZM288.716 57V51H290.302V52.0586H290.372C290.497 51.707 290.705 51.4297 290.997 51.2266C291.289 51.0234 291.638 50.9219 292.044 50.9219C292.455 50.9219 292.806 51.0247 293.095 51.2305C293.384 51.4336 293.576 51.7096 293.673 52.0586H293.735C293.858 51.7148 294.079 51.4401 294.399 51.2344C294.722 51.026 295.104 50.9219 295.544 50.9219C296.104 50.9219 296.558 51.1003 296.907 51.457C297.259 51.8112 297.435 52.3138 297.435 52.9648V57H295.774V53.293C295.774 52.9596 295.686 52.7096 295.509 52.543C295.332 52.3763 295.11 52.293 294.845 52.293C294.543 52.293 294.307 52.3893 294.138 52.582C293.968 52.7721 293.884 53.0234 293.884 53.3359V57H292.271V53.2578C292.271 52.9635 292.186 52.7292 292.017 52.5547C291.85 52.3802 291.63 52.293 291.356 52.293C291.172 52.293 291.005 52.3398 290.856 52.4336C290.711 52.5247 290.595 52.6536 290.509 52.8203C290.423 52.9844 290.38 53.1771 290.38 53.3984V57H288.716ZM301.483 57.1172C300.866 57.1172 300.335 56.9922 299.89 56.7422C299.447 56.4896 299.106 56.1328 298.866 55.6719C298.627 55.2083 298.507 54.6602 298.507 54.0273C298.507 53.4102 298.627 52.8685 298.866 52.4023C299.106 51.9362 299.443 51.5729 299.878 51.3125C300.315 51.0521 300.828 50.9219 301.417 50.9219C301.813 50.9219 302.181 50.9857 302.522 51.1133C302.866 51.2383 303.166 51.4271 303.421 51.6797C303.679 51.9323 303.879 52.25 304.022 52.6328C304.166 53.013 304.237 53.4583 304.237 53.9687V54.4258H299.171V53.3945H302.671C302.671 53.1549 302.619 52.9427 302.515 52.7578C302.41 52.5729 302.266 52.4284 302.081 52.3242C301.899 52.2174 301.687 52.1641 301.444 52.1641C301.192 52.1641 300.968 52.2227 300.772 52.3398C300.58 52.4544 300.429 52.6094 300.319 52.8047C300.21 52.9974 300.154 53.2122 300.151 53.4492V54.4297C300.151 54.7266 300.206 54.9831 300.315 55.1992C300.427 55.4154 300.585 55.582 300.788 55.6992C300.991 55.8164 301.232 55.875 301.511 55.875C301.696 55.875 301.865 55.849 302.019 55.7969C302.172 55.7448 302.304 55.6667 302.413 55.5625C302.522 55.4583 302.606 55.3307 302.663 55.1797L304.202 55.2812C304.124 55.651 303.964 55.974 303.722 56.25C303.482 56.5234 303.172 56.737 302.792 56.8906C302.414 57.0417 301.978 57.1172 301.483 57.1172ZM308.515 51V52.25H304.901V51H308.515ZM305.722 49.5625H307.386V55.1562C307.386 55.3099 307.409 55.4297 307.456 55.5156C307.503 55.599 307.568 55.6576 307.651 55.6914C307.737 55.7253 307.836 55.7422 307.948 55.7422C308.026 55.7422 308.104 55.7357 308.183 55.7227C308.261 55.707 308.321 55.6953 308.362 55.6875L308.624 56.9258C308.541 56.9518 308.424 56.9818 308.272 57.0156C308.121 57.0521 307.938 57.0742 307.722 57.082C307.321 57.0977 306.969 57.0443 306.667 56.9219C306.368 56.7995 306.134 56.6094 305.968 56.3516C305.801 56.0937 305.719 55.7682 305.722 55.375V49.5625ZM312.269 57.1172C311.651 57.1172 311.12 56.9922 310.675 56.7422C310.232 56.4896 309.891 56.1328 309.651 55.6719C309.412 55.2083 309.292 54.6602 309.292 54.0273C309.292 53.4102 309.412 52.8685 309.651 52.4023C309.891 51.9362 310.228 51.5729 310.663 51.3125C311.101 51.0521 311.614 50.9219 312.202 50.9219C312.598 50.9219 312.966 50.9857 313.308 51.1133C313.651 51.2383 313.951 51.4271 314.206 51.6797C314.464 51.9323 314.664 52.25 314.808 52.6328C314.951 53.013 315.022 53.4583 315.022 53.9687V54.4258H309.956V53.3945H313.456C313.456 53.1549 313.404 52.9427 313.3 52.7578C313.196 52.5729 313.051 52.4284 312.866 52.3242C312.684 52.2174 312.472 52.1641 312.229 52.1641C311.977 52.1641 311.753 52.2227 311.558 52.3398C311.365 52.4544 311.214 52.6094 311.104 52.8047C310.995 52.9974 310.939 53.2122 310.937 53.4492V54.4297C310.937 54.7266 310.991 54.9831 311.101 55.1992C311.213 55.4154 311.37 55.582 311.573 55.6992C311.776 55.8164 312.017 55.875 312.296 55.875C312.481 55.875 312.65 55.849 312.804 55.7969C312.957 55.7448 313.089 55.6667 313.198 55.5625C313.308 55.4583 313.391 55.3307 313.448 55.1797L314.987 55.2812C314.909 55.651 314.749 55.974 314.507 56.25C314.267 56.5234 313.957 56.737 313.577 56.8906C313.2 57.0417 312.763 57.1172 312.269 57.1172ZM316.108 57V51H317.722V52.0469H317.784C317.894 51.6745 318.077 51.3932 318.335 51.2031C318.593 51.0104 318.89 50.9141 319.226 50.9141C319.309 50.9141 319.399 50.9193 319.495 50.9297C319.591 50.9401 319.676 50.9544 319.749 50.9727V52.4492C319.671 52.4258 319.563 52.4049 319.425 52.3867C319.287 52.3685 319.16 52.3594 319.046 52.3594C318.801 52.3594 318.582 52.4128 318.39 52.5195C318.2 52.6237 318.049 52.7695 317.937 52.957C317.827 53.1445 317.772 53.3607 317.772 53.6055V57H316.108ZM325.602 52.7109L324.078 52.8047C324.052 52.6745 323.996 52.5573 323.91 52.4531C323.824 52.3464 323.711 52.2617 323.57 52.1992C323.432 52.1341 323.267 52.1016 323.074 52.1016C322.816 52.1016 322.599 52.1562 322.422 52.2656C322.245 52.3724 322.156 52.5156 322.156 52.6953C322.156 52.8385 322.214 52.9596 322.328 53.0586C322.443 53.1576 322.639 53.237 322.918 53.2969L324.004 53.5156C324.587 53.6354 325.022 53.8281 325.309 54.0937C325.595 54.3594 325.738 54.7083 325.738 55.1406C325.738 55.5339 325.622 55.8789 325.391 56.1758C325.161 56.4727 324.846 56.7044 324.445 56.8711C324.047 57.0352 323.587 57.1172 323.066 57.1172C322.272 57.1172 321.639 56.9518 321.168 56.6211C320.699 56.2878 320.424 55.8346 320.344 55.2617L321.98 55.1758C322.03 55.418 322.15 55.6029 322.34 55.7305C322.53 55.8555 322.773 55.918 323.07 55.918C323.362 55.918 323.596 55.862 323.773 55.75C323.953 55.6354 324.044 55.4883 324.047 55.3086C324.044 55.1576 323.98 55.0339 323.855 54.9375C323.73 54.8385 323.538 54.763 323.277 54.7109L322.238 54.5039C321.652 54.3867 321.216 54.1836 320.93 53.8945C320.646 53.6055 320.504 53.237 320.504 52.7891C320.504 52.4036 320.608 52.0716 320.816 51.793C321.027 51.5143 321.323 51.2995 321.703 51.1484C322.086 50.9974 322.534 50.9219 323.047 50.9219C323.805 50.9219 324.401 51.082 324.836 51.4023C325.273 51.7227 325.529 52.1589 325.602 52.7109ZM330.271 48.625L327.692 58.2031H326.259L328.837 48.625H330.271ZM332.795 49V57H331.104V49H332.795ZM335.819 53.5313V57H334.155V51H335.741V52.0586H335.812C335.944 51.7096 336.167 51.4336 336.479 51.2305C336.792 51.0247 337.171 50.9219 337.616 50.9219C338.033 50.9219 338.396 51.013 338.706 51.1953C339.016 51.3776 339.257 51.638 339.429 51.9766C339.601 52.3125 339.687 52.7135 339.687 53.1797V57H338.022V53.4766C338.025 53.1094 337.931 52.8229 337.741 52.6172C337.551 52.4089 337.289 52.3047 336.956 52.3047C336.732 52.3047 336.534 52.3529 336.362 52.4492C336.193 52.5456 336.06 52.6862 335.964 52.8711C335.87 53.0534 335.822 53.2734 335.819 53.5313ZM340.998 59.25V51H342.639V52.0078H342.713C342.786 51.8464 342.891 51.6823 343.029 51.5156C343.17 51.3464 343.352 51.2057 343.576 51.0938C343.803 50.9792 344.084 50.9219 344.42 50.9219C344.857 50.9219 345.261 51.0365 345.631 51.2656C346.001 51.4922 346.296 51.8346 346.518 52.293C346.739 52.7487 346.85 53.3203 346.85 54.0078C346.85 54.6771 346.742 55.2422 346.525 55.7031C346.312 56.1615 346.02 56.5091 345.65 56.7461C345.283 56.9805 344.872 57.0977 344.416 57.0977C344.093 57.0977 343.818 57.0443 343.592 56.9375C343.368 56.8307 343.184 56.6966 343.041 56.5352C342.898 56.3711 342.788 56.2057 342.713 56.0391H342.662V59.25H340.998ZM342.627 54C342.627 54.3568 342.676 54.668 342.775 54.9336C342.874 55.1992 343.018 55.4062 343.205 55.5547C343.393 55.7005 343.62 55.7734 343.889 55.7734C344.16 55.7734 344.389 55.6992 344.576 55.5508C344.764 55.3997 344.906 55.1914 345.002 54.9258C345.101 54.6576 345.15 54.349 345.15 54C345.15 53.6536 345.102 53.349 345.006 53.0859C344.91 52.8229 344.768 52.6172 344.58 52.4687C344.393 52.3203 344.162 52.2461 343.889 52.2461C343.618 52.2461 343.389 52.3177 343.201 52.4609C343.016 52.6042 342.874 52.8073 342.775 53.0703C342.676 53.3333 342.627 53.6432 342.627 54ZM351.807 54.4453V51H353.471V57H351.873V55.9102H351.811C351.675 56.2617 351.45 56.5443 351.135 56.7578C350.822 56.9714 350.441 57.0781 349.99 57.0781C349.589 57.0781 349.236 56.987 348.932 56.8047C348.627 56.6224 348.389 56.3633 348.217 56.0273C348.048 55.6914 347.962 55.2891 347.959 54.8203V51H349.623V54.5234C349.626 54.8776 349.721 55.1576 349.908 55.3633C350.096 55.569 350.347 55.6719 350.662 55.6719C350.863 55.6719 351.05 55.6263 351.225 55.5352C351.399 55.4414 351.54 55.3034 351.646 55.1211C351.756 54.9388 351.809 54.7135 351.807 54.4453ZM357.993 51V52.25H354.38V51H357.993ZM355.2 49.5625H356.864V55.1562C356.864 55.3099 356.888 55.4297 356.935 55.5156C356.981 55.599 357.047 55.6576 357.13 55.6914C357.216 55.7253 357.315 55.7422 357.427 55.7422C357.505 55.7422 357.583 55.7357 357.661 55.7227C357.739 55.707 357.799 55.6953 357.841 55.6875L358.103 56.9258C358.019 56.9518 357.902 56.9818 357.751 57.0156C357.6 57.0521 357.416 57.0742 357.2 57.082C356.799 57.0977 356.448 57.0443 356.146 56.9219C355.846 56.7995 355.613 56.6094 355.446 56.3516C355.28 56.0937 355.198 55.7682 355.2 55.375V49.5625Z" fill="white"/>
<path d="M275.012 74.98V66.95H276.002V68.105H276.2L276.002 68.336C276.002 67.874 276.152 67.511 276.453 67.247C276.761 66.9757 277.164 66.84 277.663 66.84C278.272 66.84 278.756 67.0417 279.115 67.445C279.482 67.841 279.665 68.3873 279.665 69.084V70.855C279.665 71.317 279.581 71.7167 279.412 72.054C279.251 72.3913 279.02 72.6517 278.719 72.835C278.426 73.0183 278.074 73.11 277.663 73.11C277.172 73.11 276.772 72.9743 276.464 72.703C276.156 72.4317 276.002 72.0687 276.002 71.614L276.2 71.845H275.98L276.002 73.22V74.98H275.012ZM277.333 72.252C277.751 72.252 278.077 72.1273 278.312 71.878C278.554 71.6287 278.675 71.2693 278.675 70.8V69.15C278.675 68.6807 278.554 68.3213 278.312 68.072C278.077 67.8227 277.751 67.698 277.333 67.698C276.93 67.698 276.607 67.8263 276.365 68.083C276.123 68.3397 276.002 68.6953 276.002 69.15V70.8C276.002 71.2547 276.123 71.6103 276.365 71.867C276.607 72.1237 276.93 72.252 277.333 72.252ZM283.368 73.11C282.73 73.11 282.227 72.9487 281.861 72.626C281.494 72.296 281.311 71.8523 281.311 71.295C281.311 70.7303 281.494 70.2867 281.861 69.964C282.227 69.6413 282.722 69.48 283.346 69.48H285.216V68.875C285.216 68.501 285.102 68.215 284.875 68.017C284.655 67.8117 284.339 67.709 283.929 67.709C283.569 67.709 283.269 67.786 283.027 67.94C282.785 68.0867 282.645 68.2883 282.609 68.545H281.619C281.685 68.0243 281.93 67.61 282.356 67.302C282.781 66.994 283.313 66.84 283.951 66.84C284.647 66.84 285.197 67.0197 285.601 67.379C286.004 67.7383 286.206 68.226 286.206 68.842V73H285.238V71.845H285.073L285.238 71.68C285.238 72.12 285.065 72.4683 284.721 72.725C284.383 72.9817 283.932 73.11 283.368 73.11ZM283.61 72.329C284.079 72.329 284.464 72.2117 284.765 71.977C285.065 71.7423 285.216 71.4417 285.216 71.075V70.217H283.368C283.038 70.217 282.777 70.3087 282.587 70.492C282.396 70.6753 282.301 70.9247 282.301 71.24C282.301 71.5773 282.414 71.845 282.642 72.043C282.876 72.2337 283.199 72.329 283.61 72.329ZM288.412 73V66.95H289.38V68.105H289.611L289.292 68.82C289.292 68.1673 289.432 67.676 289.71 67.346C289.996 67.0087 290.418 66.84 290.975 66.84C291.613 66.84 292.119 67.0417 292.493 67.445C292.875 67.841 293.065 68.38 293.065 69.062V69.425H292.075V69.15C292.075 68.6733 291.958 68.3103 291.723 68.061C291.496 67.8043 291.17 67.676 290.744 67.676C290.326 67.676 289.996 67.8043 289.754 68.061C289.52 68.3177 289.402 68.6807 289.402 69.15V73H288.412ZM296.559 73.11C295.921 73.11 295.419 72.9487 295.052 72.626C294.685 72.296 294.502 71.8523 294.502 71.295C294.502 70.7303 294.685 70.2867 295.052 69.964C295.419 69.6413 295.914 69.48 296.537 69.48H298.407V68.875C298.407 68.501 298.293 68.215 298.066 68.017C297.846 67.8117 297.531 67.709 297.12 67.709C296.761 67.709 296.46 67.786 296.218 67.94C295.976 68.0867 295.837 68.2883 295.8 68.545H294.81C294.876 68.0243 295.122 67.61 295.547 67.302C295.972 66.994 296.504 66.84 297.142 66.84C297.839 66.84 298.389 67.0197 298.792 67.379C299.195 67.7383 299.397 68.226 299.397 68.842V73H298.429V71.845H298.264L298.429 71.68C298.429 72.12 298.257 72.4683 297.912 72.725C297.575 72.9817 297.124 73.11 296.559 73.11ZM296.801 72.329C297.27 72.329 297.655 72.2117 297.956 71.977C298.257 71.7423 298.407 71.4417 298.407 71.075V70.217H296.559C296.229 70.217 295.969 70.3087 295.778 70.492C295.587 70.6753 295.492 70.9247 295.492 71.24C295.492 71.5773 295.606 71.845 295.833 72.043C296.068 72.2337 296.39 72.329 296.801 72.329ZM301.109 73V66.95H301.978V67.676H302.176L302.022 67.94C302.022 67.6027 302.11 67.335 302.286 67.137C302.469 66.939 302.715 66.84 303.023 66.84C303.36 66.84 303.62 66.9647 303.804 67.214C303.987 67.4633 304.079 67.8153 304.079 68.27L303.782 67.676H304.244L304.035 67.94C304.035 67.6027 304.126 67.335 304.31 67.137C304.5 66.939 304.75 66.84 305.058 66.84C305.439 66.84 305.732 66.983 305.938 67.269C306.15 67.555 306.257 67.9327 306.257 68.402V73H305.344V68.391C305.344 68.1417 305.289 67.9473 305.179 67.808C305.076 67.6687 304.922 67.599 304.717 67.599C304.519 67.599 304.361 67.6687 304.244 67.808C304.134 67.94 304.079 68.1307 304.079 68.38V73H303.287V68.391C303.287 68.1343 303.228 67.94 303.111 67.808C303.001 67.6687 302.843 67.599 302.638 67.599C302.432 67.599 302.278 67.6687 302.176 67.808C302.073 67.94 302.022 68.1307 302.022 68.38V73H301.109ZM310.092 73.088C309.681 73.088 309.322 73.0257 309.014 72.901C308.713 72.769 308.471 72.5857 308.288 72.351C308.112 72.1163 308.005 71.8377 307.969 71.515H308.959C309.003 71.7277 309.12 71.8963 309.311 72.021C309.509 72.1457 309.769 72.208 310.092 72.208H310.554C310.942 72.208 311.232 72.131 311.423 71.977C311.613 71.8157 311.709 71.603 311.709 71.339C311.709 71.0823 311.621 70.8807 311.445 70.734C311.276 70.58 311.023 70.4773 310.686 70.426L309.872 70.294C309.278 70.1913 308.834 70.008 308.541 69.744C308.255 69.4727 308.112 69.0803 308.112 68.567C308.112 68.0243 308.284 67.6063 308.629 67.313C308.973 67.0123 309.49 66.862 310.18 66.862H310.598C311.177 66.862 311.643 66.9977 311.995 67.269C312.347 67.5403 312.559 67.907 312.633 68.369H311.643C311.599 68.1783 311.489 68.028 311.313 67.918C311.137 67.8007 310.898 67.742 310.598 67.742H310.18C309.806 67.742 309.531 67.8117 309.355 67.951C309.186 68.0903 309.102 68.2993 309.102 68.578C309.102 68.8273 309.175 69.0107 309.322 69.128C309.468 69.2453 309.699 69.3297 310.015 69.381L310.829 69.513C311.481 69.6157 311.954 69.8063 312.248 70.085C312.548 70.3637 312.699 70.767 312.699 71.295C312.699 71.8523 312.519 72.2923 312.16 72.615C311.808 72.9303 311.272 73.088 310.554 73.088H310.092ZM316.599 74.54V73.099C315.91 73.0403 315.367 72.8203 314.971 72.439C314.583 72.0503 314.381 71.5407 314.366 70.91H315.356C315.356 71.2693 315.463 71.5627 315.675 71.79C315.895 72.0173 316.203 72.1567 316.599 72.208V69.326L316.302 69.238C315.752 69.0693 315.327 68.787 315.026 68.391C314.733 67.995 314.586 67.5293 314.586 66.994C314.586 66.4073 314.766 65.9233 315.125 65.542C315.492 65.1607 315.983 64.9407 316.599 64.882V63.43H317.259V64.871C317.868 64.9297 318.356 65.1497 318.722 65.531C319.089 65.9123 319.276 66.4037 319.283 67.005H318.293C318.293 66.6603 318.202 66.3817 318.018 66.169C317.842 65.949 317.589 65.8133 317.259 65.762V68.49L317.699 68.633C318.235 68.8017 318.649 69.0877 318.942 69.491C319.236 69.8943 319.382 70.3673 319.382 70.91C319.382 71.5113 319.188 72.01 318.799 72.406C318.418 72.802 317.905 73.033 317.259 73.099V74.54H316.599ZM317.259 72.208C317.619 72.1493 317.897 72.01 318.095 71.79C318.293 71.57 318.392 71.284 318.392 70.932C318.392 70.6093 318.304 70.327 318.128 70.085C317.96 69.843 317.714 69.6743 317.391 69.579L317.259 69.535V72.208ZM316.599 68.721V65.762C316.277 65.8133 316.024 65.938 315.84 66.136C315.664 66.334 315.576 66.5907 315.576 66.906C315.576 67.2873 315.694 67.61 315.928 67.874C316.163 68.1307 316.5 68.292 316.94 68.358L316.599 68.721ZM322.128 74.98L323.019 72.626L320.775 66.95H321.875L323.283 70.69C323.334 70.8147 323.382 70.965 323.426 71.141C323.47 71.3097 323.507 71.4527 323.536 71.57C323.565 71.4527 323.602 71.3097 323.646 71.141C323.69 70.965 323.734 70.8147 323.778 70.69L325.098 66.95H326.165L323.184 74.98H322.128ZM330.066 73.11C329.589 73.11 329.171 73.0147 328.812 72.824C328.46 72.6333 328.185 72.3657 327.987 72.021C327.796 71.669 327.701 71.262 327.701 70.8V69.15C327.701 68.6807 327.796 68.2737 327.987 67.929C328.185 67.5843 328.46 67.3167 328.812 67.126C329.171 66.9353 329.589 66.84 330.066 66.84C330.542 66.84 330.957 66.9353 331.309 67.126C331.668 67.3167 331.943 67.5843 332.134 67.929C332.332 68.2737 332.431 68.6807 332.431 69.15V70.217H328.669V70.8C328.669 71.2767 328.79 71.6433 329.032 71.9C329.274 72.1493 329.618 72.274 330.066 72.274C330.447 72.274 330.755 72.208 330.99 72.076C331.224 71.9367 331.367 71.7313 331.419 71.46H332.409C332.343 71.966 332.093 72.3693 331.661 72.67C331.235 72.9633 330.704 73.11 330.066 73.11ZM331.463 69.557V69.15C331.463 68.6733 331.342 68.3067 331.1 68.05C330.865 67.7933 330.52 67.665 330.066 67.665C329.618 67.665 329.274 67.7933 329.032 68.05C328.79 68.3067 328.669 68.6733 328.669 69.15V69.469H331.54L331.463 69.557ZM336.133 73.11C335.495 73.11 334.993 72.9487 334.626 72.626C334.26 72.296 334.076 71.8523 334.076 71.295C334.076 70.7303 334.26 70.2867 334.626 69.964C334.993 69.6413 335.488 69.48 336.111 69.48H337.981V68.875C337.981 68.501 337.868 68.215 337.64 68.017C337.42 67.8117 337.105 67.709 336.694 67.709C336.335 67.709 336.034 67.786 335.792 67.94C335.55 68.0867 335.411 68.2883 335.374 68.545H334.384C334.45 68.0243 334.696 67.61 335.121 67.302C335.547 66.994 336.078 66.84 336.716 66.84C337.413 66.84 337.963 67.0197 338.366 67.379C338.77 67.7383 338.971 68.226 338.971 68.842V73H338.003V71.845H337.838L338.003 71.68C338.003 72.12 337.831 72.4683 337.486 72.725C337.149 72.9817 336.698 73.11 336.133 73.11ZM336.375 72.329C336.845 72.329 337.23 72.2117 337.53 71.977C337.831 71.7423 337.981 71.4417 337.981 71.075V70.217H336.133C335.803 70.217 335.543 70.3087 335.352 70.492C335.162 70.6753 335.066 70.9247 335.066 71.24C335.066 71.5773 335.18 71.845 335.407 72.043C335.642 72.2337 335.965 72.329 336.375 72.329ZM341.178 73V66.95H342.146V68.105H342.377L342.058 68.82C342.058 68.1673 342.197 67.676 342.476 67.346C342.762 67.0087 343.184 66.84 343.741 66.84C344.379 66.84 344.885 67.0417 345.259 67.445C345.64 67.841 345.831 68.38 345.831 69.062V69.425H344.841V69.15C344.841 68.6733 344.724 68.3103 344.489 68.061C344.262 67.8043 343.935 67.676 343.51 67.676C343.092 67.676 342.762 67.8043 342.52 68.061C342.285 68.3177 342.168 68.6807 342.168 69.15V73H341.178Z" fill="white"/>
</g>
<defs>
<filter id="filter0_d_5_76" x="-4" y="0" width="417" height="257" filterUnits="userSpaceOnUse" color-interpolation-filters="sRGB">
<feFlood flood-opacity="0" result="BackgroundImageFix"/>
<feColorMatrix in="SourceAlpha" type="matrix" values="0 0 0 0 0 0 0 0 0 0 0 0 0 0 0 0 0 0 127 0" result="hardAlpha"/>
<feOffset dy="4"/>
<feGaussianBlur stdDeviation="2"/>
<feComposite in2="hardAlpha" operator="out"/>
<feColorMatrix type="matrix" values="0 0 0 0 0 0 0 0 0 0 0 0 0 0 0 0 0 0 0.25 0"/>
<feBlend mode="normal" in2="BackgroundImageFix" result="effect1_dropShadow_5_76"/>
<feBlend mode="normal" in="SourceGraphic" in2="effect1_dropShadow_5_76" result="shape"/>
</filter>
</defs>
</svg>
