<svg width="409" height="249" viewBox="0 0 409 249" fill="none" xmlns="http://www.w3.org/2000/svg">
<g filter="url(#filter0_d_0_1)">
<path d="M204 42H190C188.939 42 187.922 42.4214 187.172 43.1716C186.421 43.9217 186 44.9391 186 46V78C186 79.0609 186.421 80.0783 187.172 80.8284C187.922 81.5786 188.939 82 190 82H214C215.061 82 216.078 81.5786 216.828 80.8284C217.579 80.0783 218 79.0609 218 78V56M204 42L218 56M204 42V56H218" stroke="#14AE5C" stroke-width="4" stroke-linecap="round" stroke-linejoin="round"/>
<path d="M191.3 69.11C191.021 69.11 190.798 69.0293 190.629 68.868C190.468 68.7067 190.387 68.4903 190.387 68.219C190.387 67.933 190.468 67.7057 190.629 67.537C190.798 67.3683 191.021 67.284 191.3 67.284C191.579 67.284 191.799 67.3683 191.96 67.537C192.129 67.7057 192.213 67.933 192.213 68.219C192.213 68.4903 192.129 68.7067 191.96 68.868C191.799 69.0293 191.579 69.11 191.3 69.11ZM199.194 70.98V69.22L199.216 67.845H198.996L199.194 67.614C199.194 68.0687 199.043 68.4317 198.743 68.703C198.442 68.9743 198.042 69.11 197.544 69.11C196.935 69.11 196.451 68.9083 196.092 68.505C195.74 68.1017 195.564 67.5517 195.564 66.855V65.084C195.564 64.3873 195.743 63.841 196.103 63.445C196.462 63.0417 196.942 62.84 197.544 62.84C198.042 62.84 198.442 62.9757 198.743 63.247C199.043 63.511 199.194 63.874 199.194 64.336L198.996 64.105H199.194V62.95H200.184V70.98H199.194ZM197.874 68.252C198.284 68.252 198.607 68.1237 198.842 67.867C199.076 67.6103 199.194 67.2547 199.194 66.8V65.15C199.194 64.6953 199.076 64.3397 198.842 64.083C198.607 63.8263 198.284 63.698 197.874 63.698C197.456 63.698 197.129 63.8227 196.895 64.072C196.667 64.3213 196.554 64.6807 196.554 65.15V66.8C196.554 67.2693 196.667 67.6287 196.895 67.878C197.129 68.1273 197.456 68.252 197.874 68.252ZM201.917 69V62.95H202.786V63.676H202.984L202.83 63.94C202.83 63.6027 202.918 63.335 203.094 63.137C203.278 62.939 203.523 62.84 203.831 62.84C204.169 62.84 204.429 62.9647 204.612 63.214C204.796 63.4633 204.887 63.8153 204.887 64.27L204.59 63.676H205.052L204.843 63.94C204.843 63.6027 204.935 63.335 205.118 63.137C205.309 62.939 205.558 62.84 205.866 62.84C206.248 62.84 206.541 62.983 206.746 63.269C206.959 63.555 207.065 63.9327 207.065 64.402V69H206.152V64.391C206.152 64.1417 206.097 63.9473 205.987 63.808C205.885 63.6687 205.731 63.599 205.525 63.599C205.327 63.599 205.17 63.6687 205.052 63.808C204.942 63.94 204.887 64.1307 204.887 64.38V69H204.095V64.391C204.095 64.1343 204.037 63.94 203.919 63.808C203.809 63.6687 203.652 63.599 203.446 63.599C203.241 63.599 203.087 63.6687 202.984 63.808C202.882 63.94 202.83 64.1307 202.83 64.38V69H201.917ZM210.735 69.11C210.134 69.11 209.646 68.9083 209.272 68.505C208.905 68.1017 208.722 67.5553 208.722 66.866V65.095C208.722 64.3983 208.905 63.8483 209.272 63.445C209.639 63.0417 210.126 62.84 210.735 62.84C211.234 62.84 211.633 62.9757 211.934 63.247C212.235 63.5183 212.385 63.8813 212.385 64.336L212.187 64.105H212.407L212.385 62.73V60.97H213.375V69H212.385V67.845H212.187L212.385 67.614C212.385 68.076 212.235 68.4427 211.934 68.714C211.633 68.978 211.234 69.11 210.735 69.11ZM211.065 68.252C211.476 68.252 211.798 68.1237 212.033 67.867C212.268 67.6103 212.385 67.2547 212.385 66.8V65.15C212.385 64.6953 212.268 64.3397 212.033 64.083C211.798 63.8263 211.476 63.698 211.065 63.698C210.647 63.698 210.317 63.8227 210.075 64.072C209.833 64.3213 209.712 64.6807 209.712 65.15V66.8C209.712 67.2693 209.833 67.6287 210.075 67.878C210.317 68.1273 210.647 68.252 211.065 68.252Z" fill="#070813"/>
<path d="M178.391 21.3945V20H184.961V21.3945H182.512V28H180.84V21.3945H178.391ZM187.876 28.1172C187.259 28.1172 186.728 27.9922 186.282 27.7422C185.84 27.4896 185.498 27.1328 185.259 26.6719C185.019 26.2083 184.899 25.6602 184.899 25.0273C184.899 24.4102 185.019 23.8685 185.259 23.4023C185.498 22.9362 185.836 22.5729 186.271 22.3125C186.708 22.0521 187.221 21.9219 187.81 21.9219C188.205 21.9219 188.574 21.9857 188.915 22.1133C189.259 22.2383 189.558 22.4271 189.813 22.6797C190.071 22.9323 190.272 23.25 190.415 23.6328C190.558 24.013 190.63 24.4583 190.63 24.9687V25.4258H185.563V24.3945H189.063C189.063 24.1549 189.011 23.9427 188.907 23.7578C188.803 23.5729 188.659 23.4284 188.474 23.3242C188.291 23.2174 188.079 23.1641 187.837 23.1641C187.584 23.1641 187.36 23.2227 187.165 23.3398C186.972 23.4544 186.821 23.6094 186.712 23.8047C186.603 23.9974 186.547 24.2122 186.544 24.4492V25.4297C186.544 25.7266 186.599 25.9831 186.708 26.1992C186.82 26.4154 186.978 26.582 187.181 26.6992C187.384 26.8164 187.625 26.875 187.903 26.875C188.088 26.875 188.257 26.849 188.411 26.7969C188.565 26.7448 188.696 26.6667 188.806 26.5625C188.915 26.4583 188.998 26.3307 189.056 26.1797L190.595 26.2812C190.517 26.651 190.356 26.974 190.114 27.25C189.875 27.5234 189.565 27.737 189.185 27.8906C188.807 28.0417 188.371 28.1172 187.876 28.1172ZM191.716 28V22H193.302V23.0586H193.372C193.497 22.707 193.705 22.4297 193.997 22.2266C194.289 22.0234 194.638 21.9219 195.044 21.9219C195.455 21.9219 195.806 22.0247 196.095 22.2305C196.384 22.4336 196.576 22.7096 196.673 23.0586H196.735C196.858 22.7148 197.079 22.4401 197.399 22.2344C197.722 22.026 198.104 21.9219 198.544 21.9219C199.104 21.9219 199.558 22.1003 199.907 22.457C200.259 22.8112 200.435 23.3138 200.435 23.9648V28H198.774V24.293C198.774 23.9596 198.686 23.7096 198.509 23.543C198.332 23.3763 198.11 23.293 197.845 23.293C197.543 23.293 197.307 23.3893 197.138 23.582C196.968 23.7721 196.884 24.0234 196.884 24.3359V28H195.271V24.2578C195.271 23.9635 195.186 23.7292 195.017 23.5547C194.85 23.3802 194.63 23.293 194.356 23.293C194.172 23.293 194.005 23.3398 193.856 23.4336C193.711 23.5247 193.595 23.6536 193.509 23.8203C193.423 23.9844 193.38 24.1771 193.38 24.3984V28H191.716ZM201.749 30.25V22H203.39V23.0078H203.464C203.537 22.8464 203.642 22.6823 203.78 22.5156C203.921 22.3464 204.103 22.2057 204.327 22.0938C204.554 21.9792 204.835 21.9219 205.171 21.9219C205.608 21.9219 206.012 22.0365 206.382 22.2656C206.752 22.4922 207.047 22.8346 207.269 23.293C207.49 23.7487 207.601 24.3203 207.601 25.0078C207.601 25.6771 207.493 26.2422 207.276 26.7031C207.063 27.1615 206.771 27.5091 206.401 27.7461C206.034 27.9805 205.623 28.0977 205.167 28.0977C204.844 28.0977 204.569 28.0443 204.343 27.9375C204.119 27.8307 203.935 27.6966 203.792 27.5352C203.649 27.3711 203.539 27.2057 203.464 27.0391H203.413V30.25H201.749ZM203.378 25C203.378 25.3568 203.427 25.668 203.526 25.9336C203.625 26.1992 203.769 26.4062 203.956 26.5547C204.144 26.7005 204.371 26.7734 204.64 26.7734C204.91 26.7734 205.14 26.6992 205.327 26.5508C205.515 26.3997 205.657 26.1914 205.753 25.9258C205.852 25.6576 205.901 25.349 205.901 25C205.901 24.6536 205.853 24.349 205.757 24.0859C205.66 23.8229 205.519 23.6172 205.331 23.4687C205.144 23.3203 204.913 23.2461 204.64 23.2461C204.369 23.2461 204.14 23.3177 203.952 23.4609C203.767 23.6042 203.625 23.8073 203.526 24.0703C203.427 24.3333 203.378 24.6432 203.378 25ZM210.374 20V28H208.71V20H210.374ZM213.418 28.1133C213.035 28.1133 212.694 28.0469 212.395 27.9141C212.095 27.7786 211.858 27.5794 211.684 27.3164C211.512 27.0508 211.426 26.7201 211.426 26.3242C211.426 25.9909 211.487 25.7109 211.609 25.4844C211.732 25.2578 211.898 25.0755 212.109 24.9375C212.32 24.7995 212.56 24.6953 212.828 24.625C213.099 24.5547 213.383 24.5052 213.68 24.4766C214.029 24.4401 214.31 24.4062 214.523 24.375C214.737 24.3411 214.892 24.2917 214.988 24.2266C215.085 24.1615 215.133 24.0651 215.133 23.9375V23.9141C215.133 23.6667 215.055 23.4753 214.898 23.3398C214.745 23.2044 214.526 23.1367 214.242 23.1367C213.943 23.1367 213.704 23.2031 213.527 23.3359C213.35 23.4661 213.233 23.6302 213.176 23.8281L211.637 23.7031C211.715 23.3385 211.868 23.0234 212.098 22.7578C212.327 22.4896 212.622 22.2839 212.984 22.1406C213.349 21.9948 213.771 21.9219 214.25 21.9219C214.583 21.9219 214.902 21.9609 215.207 22.0391C215.514 22.1172 215.786 22.2383 216.023 22.4023C216.263 22.5664 216.452 22.7773 216.59 23.0352C216.728 23.2904 216.797 23.5964 216.797 23.9531V28H215.219V27.168H215.172C215.076 27.3555 214.947 27.5208 214.785 27.6641C214.624 27.8047 214.43 27.9154 214.203 27.9961C213.977 28.0742 213.715 28.1133 213.418 28.1133ZM213.895 26.9648C214.139 26.9648 214.355 26.9167 214.543 26.8203C214.73 26.7214 214.878 26.5885 214.984 26.4219C215.091 26.2552 215.145 26.0664 215.145 25.8555V25.2188C215.092 25.2526 215.021 25.2839 214.93 25.3125C214.841 25.3385 214.741 25.3633 214.629 25.3867C214.517 25.4076 214.405 25.4271 214.293 25.4453C214.181 25.4609 214.079 25.4753 213.988 25.4883C213.793 25.5169 213.622 25.5625 213.477 25.625C213.331 25.6875 213.217 25.7721 213.137 25.8789C213.056 25.9831 213.016 26.1133 213.016 26.2695C213.016 26.4961 213.098 26.6693 213.262 26.7891C213.428 26.9062 213.639 26.9648 213.895 26.9648ZM221.279 22V23.25H217.666V22H221.279ZM218.486 20.5625H220.15V26.1562C220.15 26.3099 220.174 26.4297 220.221 26.5156C220.268 26.599 220.333 26.6576 220.416 26.6914C220.502 26.7253 220.601 26.7422 220.713 26.7422C220.791 26.7422 220.869 26.7357 220.947 26.7227C221.025 26.707 221.085 26.6953 221.127 26.6875L221.389 27.9258C221.305 27.9518 221.188 27.9818 221.037 28.0156C220.886 28.0521 220.702 28.0742 220.486 28.082C220.085 28.0977 219.734 28.0443 219.432 27.9219C219.132 27.7995 218.899 27.6094 218.732 27.3516C218.566 27.0937 218.484 26.7682 218.486 26.375V20.5625ZM225.033 28.1172C224.416 28.1172 223.885 27.9922 223.439 27.7422C222.997 27.4896 222.656 27.1328 222.416 26.6719C222.176 26.2083 222.057 25.6602 222.057 25.0273C222.057 24.4102 222.176 23.8685 222.416 23.4023C222.656 22.9362 222.993 22.5729 223.428 22.3125C223.865 22.0521 224.378 21.9219 224.967 21.9219C225.363 21.9219 225.731 21.9857 226.072 22.1133C226.416 22.2383 226.715 22.4271 226.971 22.6797C227.229 22.9323 227.429 23.25 227.572 23.6328C227.715 24.013 227.787 24.4583 227.787 24.9687V25.4258H222.721V24.3945H226.221C226.221 24.1549 226.169 23.9427 226.064 23.7578C225.96 23.5729 225.816 23.4284 225.631 23.3242C225.449 23.2174 225.236 23.1641 224.994 23.1641C224.742 23.1641 224.518 23.2227 224.322 23.3398C224.13 23.4544 223.979 23.6094 223.869 23.8047C223.76 23.9974 223.704 24.2122 223.701 24.4492V25.4297C223.701 25.7266 223.756 25.9831 223.865 26.1992C223.977 26.4154 224.135 26.582 224.338 26.6992C224.541 26.8164 224.782 26.875 225.061 26.875C225.245 26.875 225.415 26.849 225.568 26.7969C225.722 26.7448 225.854 26.6667 225.963 26.5625C226.072 26.4583 226.156 26.3307 226.213 26.1797L227.752 26.2812C227.674 26.651 227.514 26.974 227.271 27.25C227.032 27.5234 226.722 27.737 226.342 27.8906C225.964 28.0417 225.528 28.1172 225.033 28.1172Z" fill="#070813"/>
<path d="M233.293 64.2929C232.902 64.6834 232.902 65.3166 233.293 65.7071L239.657 72.0711C240.047 72.4616 240.681 72.4616 241.071 72.0711C241.462 71.6805 241.462 71.0474 241.071 70.6569L235.414 65L241.071 59.3431C241.462 58.9526 241.462 58.3195 241.071 57.9289C240.681 57.5384 240.047 57.5384 239.657 57.9289L233.293 64.2929ZM255 64H234V66H255V64Z" fill="#070813"/>
<path d="M264.605 57V49H267.91C268.509 49 269.026 49.1172 269.461 49.3516C269.898 49.5833 270.236 49.9076 270.473 50.3242C270.71 50.7383 270.828 51.2201 270.828 51.7695C270.828 52.3216 270.707 52.8047 270.465 53.2188C270.225 53.6302 269.883 53.9492 269.438 54.1758C268.992 54.4023 268.464 54.5156 267.852 54.5156H265.813V52.9922H267.492C267.784 52.9922 268.027 52.9414 268.223 52.8398C268.421 52.7383 268.57 52.5964 268.672 52.4141C268.773 52.2292 268.824 52.0143 268.824 51.7695C268.824 51.5221 268.773 51.3086 268.672 51.1289C268.57 50.9466 268.421 50.806 268.223 50.707C268.025 50.6081 267.781 50.5586 267.492 50.5586H266.539V57H264.605ZM273.258 57.1016C272.875 57.1016 272.535 57.0378 272.238 56.9102C271.944 56.7799 271.711 56.5846 271.539 56.3242C271.37 56.0612 271.285 55.7318 271.285 55.3359C271.285 55.0026 271.344 54.7214 271.461 54.4922C271.578 54.263 271.74 54.0768 271.945 53.9336C272.151 53.7904 272.388 53.6823 272.656 53.6094C272.924 53.5339 273.211 53.4831 273.516 53.457C273.857 53.4258 274.132 53.3932 274.34 53.3594C274.548 53.3229 274.699 53.2721 274.793 53.207C274.889 53.1393 274.938 53.0443 274.938 52.9219V52.9023C274.938 52.7018 274.868 52.5469 274.73 52.4375C274.592 52.3281 274.406 52.2734 274.172 52.2734C273.919 52.2734 273.716 52.3281 273.563 52.4375C273.409 52.5469 273.311 52.6979 273.27 52.8906L271.508 52.8281C271.56 52.4635 271.694 52.138 271.91 51.8516C272.129 51.5625 272.428 51.3359 272.809 51.1719C273.191 51.0052 273.651 50.9219 274.188 50.9219C274.57 50.9219 274.923 50.9674 275.246 51.0586C275.569 51.1471 275.85 51.2773 276.09 51.4492C276.329 51.6185 276.514 51.8268 276.645 52.0742C276.777 52.3216 276.844 52.6042 276.844 52.9219V57H275.047V56.1641H275C274.893 56.3672 274.757 56.5391 274.59 56.6797C274.426 56.8203 274.232 56.9258 274.008 56.9961C273.786 57.0664 273.536 57.1016 273.258 57.1016ZM273.848 55.8516C274.053 55.8516 274.238 55.8099 274.402 55.7266C274.569 55.6432 274.702 55.5286 274.801 55.3828C274.9 55.2344 274.949 55.0625 274.949 54.8672V54.2969C274.895 54.3255 274.828 54.3516 274.75 54.375C274.674 54.3984 274.591 54.4206 274.5 54.4414C274.409 54.4622 274.315 54.4805 274.219 54.4961C274.122 54.5117 274.03 54.526 273.941 54.5391C273.762 54.5677 273.608 54.612 273.48 54.6719C273.355 54.7318 273.259 54.8099 273.191 54.9062C273.126 55 273.094 55.112 273.094 55.2422C273.094 55.4401 273.164 55.5911 273.305 55.6953C273.448 55.7995 273.629 55.8516 273.848 55.8516ZM278.012 57V51H279.867V52.0937H279.93C280.039 51.6979 280.217 51.4036 280.465 51.2109C280.712 51.0156 281 50.918 281.328 50.918C281.417 50.918 281.508 50.9245 281.602 50.9375C281.695 50.9479 281.783 50.9648 281.863 50.9883V52.6484C281.772 52.6172 281.652 52.5924 281.504 52.5742C281.358 52.556 281.228 52.5469 281.113 52.5469C280.887 52.5469 280.682 52.5977 280.5 52.6992C280.32 52.7982 280.178 52.9375 280.074 53.1172C279.973 53.2943 279.922 53.5026 279.922 53.7422V57H278.012ZM284.107 57.1016C283.725 57.1016 283.385 57.0378 283.088 56.9102C282.794 56.7799 282.561 56.5846 282.389 56.3242C282.219 56.0612 282.135 55.7318 282.135 55.3359C282.135 55.0026 282.193 54.7214 282.311 54.4922C282.428 54.263 282.589 54.0768 282.795 53.9336C283.001 53.7904 283.238 53.6823 283.506 53.6094C283.774 53.5339 284.061 53.4831 284.365 53.457C284.706 53.4258 284.981 53.3932 285.189 53.3594C285.398 53.3229 285.549 53.2721 285.643 53.207C285.739 53.1393 285.787 53.0443 285.787 52.9219V52.9023C285.787 52.7018 285.718 52.5469 285.58 52.4375C285.442 52.3281 285.256 52.2734 285.021 52.2734C284.769 52.2734 284.566 52.3281 284.412 52.4375C284.258 52.5469 284.161 52.6979 284.119 52.8906L282.357 52.8281C282.41 52.4635 282.544 52.138 282.76 51.8516C282.979 51.5625 283.278 51.3359 283.658 51.1719C284.041 51.0052 284.501 50.9219 285.037 50.9219C285.42 50.9219 285.773 50.9674 286.096 51.0586C286.419 51.1471 286.7 51.2773 286.939 51.4492C287.179 51.6185 287.364 51.8268 287.494 52.0742C287.627 52.3216 287.693 52.6042 287.693 52.9219V57H285.896V56.1641H285.85C285.743 56.3672 285.606 56.5391 285.439 56.6797C285.275 56.8203 285.081 56.9258 284.857 56.9961C284.636 57.0664 284.386 57.1016 284.107 57.1016ZM284.697 55.8516C284.903 55.8516 285.088 55.8099 285.252 55.7266C285.419 55.6432 285.551 55.5286 285.65 55.3828C285.749 55.2344 285.799 55.0625 285.799 54.8672V54.2969C285.744 54.3255 285.678 54.3516 285.6 54.375C285.524 54.3984 285.441 54.4206 285.35 54.4414C285.258 54.4622 285.165 54.4805 285.068 54.4961C284.972 54.5117 284.88 54.526 284.791 54.5391C284.611 54.5677 284.458 54.612 284.33 54.6719C284.205 54.7318 284.109 54.8099 284.041 54.9062C283.976 55 283.943 55.112 283.943 55.2422C283.943 55.4401 284.014 55.5911 284.154 55.6953C284.298 55.7995 284.479 55.8516 284.697 55.8516ZM288.861 57V51H290.678V52.1016H290.744C290.869 51.737 291.08 51.4492 291.377 51.2383C291.674 51.0273 292.028 50.9219 292.439 50.9219C292.856 50.9219 293.213 51.0286 293.51 51.2422C293.807 51.4557 293.995 51.7422 294.076 52.1016H294.139C294.251 51.7448 294.469 51.4596 294.795 51.2461C295.12 51.0299 295.505 50.9219 295.947 50.9219C296.515 50.9219 296.976 51.1042 297.33 51.4687C297.684 51.8307 297.861 52.3281 297.861 52.9609V57H295.951V53.3984C295.951 53.099 295.874 52.8711 295.721 52.7148C295.567 52.556 295.368 52.4766 295.123 52.4766C294.86 52.4766 294.653 52.5625 294.502 52.7344C294.354 52.9036 294.279 53.1315 294.279 53.418V57H292.443V53.3789C292.443 53.1003 292.368 52.8802 292.217 52.7187C292.066 52.5573 291.867 52.4766 291.619 52.4766C291.452 52.4766 291.305 52.5169 291.178 52.5977C291.05 52.6758 290.95 52.7878 290.877 52.9336C290.807 53.0794 290.771 53.2513 290.771 53.4492V57H288.861ZM301.85 57.1133C301.222 57.1133 300.68 56.9896 300.225 56.7422C299.771 56.4922 299.423 56.1367 299.178 55.6758C298.936 55.2122 298.814 54.6615 298.814 54.0234C298.814 53.4036 298.937 52.862 299.182 52.3984C299.426 51.9323 299.771 51.5703 300.217 51.3125C300.662 51.0521 301.187 50.9219 301.791 50.9219C302.218 50.9219 302.609 50.9883 302.963 51.1211C303.317 51.2539 303.623 51.4505 303.881 51.7109C304.139 51.9714 304.339 52.293 304.482 52.6758C304.626 53.056 304.697 53.4922 304.697 53.9844V54.4609H299.482V53.3516H302.92C302.917 53.1484 302.869 52.9674 302.775 52.8086C302.682 52.6497 302.553 52.526 302.389 52.4375C302.227 52.3464 302.041 52.3008 301.83 52.3008C301.617 52.3008 301.425 52.349 301.256 52.4453C301.087 52.5391 300.952 52.668 300.854 52.832C300.755 52.9935 300.702 53.1771 300.697 53.3828V54.5117C300.697 54.7565 300.745 54.9714 300.842 55.1562C300.938 55.3385 301.075 55.4805 301.252 55.582C301.429 55.6836 301.64 55.7344 301.885 55.7344C302.054 55.7344 302.208 55.7109 302.346 55.6641C302.484 55.6172 302.602 55.5482 302.701 55.457C302.8 55.3659 302.874 55.2539 302.924 55.1211L304.678 55.1719C304.605 55.5651 304.445 55.9076 304.197 56.1992C303.952 56.4883 303.631 56.7135 303.232 56.875C302.834 57.0339 302.373 57.1133 301.85 57.1133ZM309.06 51V52.4062H305.274V51H309.06ZM306.067 49.5625H307.978V55.1133C307.978 55.2305 307.996 55.3255 308.032 55.3984C308.071 55.4687 308.127 55.5195 308.2 55.5508C308.273 55.5794 308.36 55.5938 308.462 55.5938C308.535 55.5938 308.612 55.5872 308.692 55.5742C308.776 55.5586 308.838 55.5456 308.88 55.5352L309.169 56.9141C309.078 56.9401 308.949 56.9727 308.782 57.0117C308.618 57.0508 308.422 57.0755 308.192 57.0859C307.744 57.1068 307.36 57.0547 307.04 56.9297C306.722 56.8021 306.479 56.6042 306.31 56.3359C306.143 56.0677 306.062 55.7305 306.067 55.3242V49.5625ZM312.774 57.1133C312.147 57.1133 311.605 56.9896 311.149 56.7422C310.696 56.4922 310.347 56.1367 310.103 55.6758C309.86 55.2122 309.739 54.6615 309.739 54.0234C309.739 53.4036 309.862 52.862 310.106 52.3984C310.351 51.9323 310.696 51.5703 311.142 51.3125C311.587 51.0521 312.112 50.9219 312.716 50.9219C313.143 50.9219 313.534 50.9883 313.888 51.1211C314.242 51.2539 314.548 51.4505 314.806 51.7109C315.063 51.9714 315.264 52.293 315.407 52.6758C315.55 53.056 315.622 53.4922 315.622 53.9844V54.4609H310.407V53.3516H313.845C313.842 53.1484 313.794 52.9674 313.7 52.8086C313.606 52.6497 313.478 52.526 313.313 52.4375C313.152 52.3464 312.966 52.3008 312.755 52.3008C312.541 52.3008 312.35 52.349 312.181 52.4453C312.011 52.5391 311.877 52.668 311.778 52.832C311.679 52.9935 311.627 53.1771 311.622 53.3828V54.5117C311.622 54.7565 311.67 54.9714 311.767 55.1562C311.863 55.3385 312 55.4805 312.177 55.582C312.354 55.6836 312.565 55.7344 312.81 55.7344C312.979 55.7344 313.132 55.7109 313.271 55.6641C313.409 55.6172 313.527 55.5482 313.626 55.457C313.725 55.3659 313.799 55.2539 313.849 55.1211L315.603 55.1719C315.53 55.5651 315.369 55.9076 315.122 56.1992C314.877 56.4883 314.556 56.7135 314.157 56.875C313.759 57.0339 313.298 57.1133 312.774 57.1133ZM316.598 57V51H318.453V52.0937H318.516C318.625 51.6979 318.803 51.4036 319.051 51.2109C319.298 51.0156 319.586 50.918 319.914 50.918C320.003 50.918 320.094 50.9245 320.188 50.9375C320.281 50.9479 320.368 50.9648 320.449 50.9883V52.6484C320.358 52.6172 320.238 52.5924 320.09 52.5742C319.944 52.556 319.814 52.5469 319.699 52.5469C319.473 52.5469 319.268 52.5977 319.086 52.6992C318.906 52.7982 318.764 52.9375 318.66 53.1172C318.559 53.2943 318.508 53.5026 318.508 53.7422V57H316.598ZM326.466 52.832L324.712 52.8789C324.694 52.7539 324.644 52.6432 324.563 52.5469C324.483 52.4479 324.377 52.3711 324.247 52.3164C324.119 52.2591 323.971 52.2305 323.802 52.2305C323.58 52.2305 323.392 52.2747 323.235 52.3633C323.082 52.4518 323.006 52.5716 323.009 52.7227C323.006 52.8398 323.053 52.9414 323.149 53.0273C323.248 53.1133 323.424 53.1823 323.677 53.2344L324.833 53.4531C325.432 53.5677 325.877 53.7578 326.169 54.0234C326.463 54.2891 326.612 54.6406 326.614 55.0781C326.612 55.4896 326.489 55.8477 326.247 56.1523C326.007 56.457 325.679 56.694 325.263 56.8633C324.846 57.0299 324.369 57.1133 323.833 57.1133C322.976 57.1133 322.3 56.9375 321.806 56.5859C321.313 56.2318 321.032 55.7578 320.962 55.1641L322.849 55.1172C322.89 55.3359 322.998 55.5026 323.173 55.6172C323.347 55.7318 323.57 55.7891 323.841 55.7891C324.086 55.7891 324.285 55.7435 324.438 55.6523C324.592 55.5612 324.67 55.4401 324.673 55.2891C324.67 55.1536 324.61 55.0456 324.493 54.9648C324.376 54.8815 324.192 54.8164 323.942 54.7695L322.896 54.5703C322.294 54.4609 321.846 54.2591 321.552 53.9648C321.257 53.668 321.112 53.2904 321.114 52.832C321.112 52.431 321.218 52.0885 321.435 51.8047C321.651 51.5182 321.958 51.2995 322.356 51.1484C322.755 50.9974 323.225 50.9219 323.767 50.9219C324.579 50.9219 325.22 51.0924 325.688 51.4336C326.157 51.7721 326.416 52.2383 326.466 52.832ZM331.258 48.625L328.68 58.2031H327.051L329.629 48.625H331.258ZM333.903 49V57H331.97V49H333.903ZM337.027 53.5781V57H335.117V51H336.934V52.1016H337C337.133 51.7344 337.359 51.4466 337.68 51.2383C338 51.0273 338.382 50.9219 338.824 50.9219C339.246 50.9219 339.612 51.0169 339.922 51.207C340.234 51.3945 340.477 51.6576 340.648 51.9961C340.823 52.332 340.909 52.7253 340.906 53.1758V57H338.996V53.5508C338.999 53.2174 338.914 52.957 338.742 52.7695C338.573 52.582 338.337 52.4883 338.035 52.4883C337.835 52.4883 337.658 52.5326 337.504 52.6211C337.353 52.707 337.236 52.8307 337.152 52.9922C337.072 53.1536 337.03 53.349 337.027 53.5781ZM342.089 59.25V51H343.979V52.0273H344.038C344.116 51.8451 344.227 51.6693 344.37 51.5C344.516 51.3307 344.701 51.1927 344.925 51.0859C345.151 50.9766 345.422 50.9219 345.737 50.9219C346.154 50.9219 346.543 51.0312 346.905 51.25C347.27 51.4687 347.564 51.806 347.788 52.2617C348.012 52.7174 348.124 53.2982 348.124 54.0039C348.124 54.6836 348.016 55.2526 347.8 55.7109C347.586 56.1693 347.297 56.513 346.933 56.7422C346.571 56.9714 346.168 57.0859 345.726 57.0859C345.424 57.0859 345.162 57.0365 344.94 56.9375C344.719 56.8385 344.533 56.7083 344.382 56.5469C344.233 56.3854 344.119 56.2122 344.038 56.0273H343.999V59.25H342.089ZM343.96 54C343.96 54.3229 344.003 54.6042 344.089 54.8437C344.177 55.0833 344.304 55.2695 344.468 55.4023C344.634 55.5326 344.834 55.5977 345.065 55.5977C345.3 55.5977 345.499 55.5326 345.663 55.4023C345.827 55.2695 345.951 55.0833 346.034 54.8437C346.12 54.6042 346.163 54.3229 346.163 54C346.163 53.6771 346.12 53.3971 346.034 53.1602C345.951 52.9232 345.827 52.7396 345.663 52.6094C345.502 52.4792 345.302 52.4141 345.065 52.4141C344.831 52.4141 344.632 52.4779 344.468 52.6055C344.304 52.7331 344.177 52.9154 344.089 53.1523C344.003 53.3893 343.96 53.6719 343.96 54ZM352.996 54.4102V51H354.902V57H353.082V55.8828H353.02C352.887 56.25 352.66 56.5417 352.34 56.7578C352.022 56.9714 351.638 57.0781 351.188 57.0781C350.779 57.0781 350.419 56.9844 350.109 56.7969C349.799 56.6094 349.559 56.3477 349.387 56.0117C349.215 55.6732 349.128 55.2773 349.125 54.8242V51H351.035V54.4492C351.038 54.7747 351.124 55.0312 351.293 55.2187C351.462 55.4062 351.693 55.5 351.984 55.5C352.174 55.5 352.345 55.4583 352.496 55.375C352.65 55.2891 352.771 55.1654 352.859 55.0039C352.951 54.8398 352.996 54.6419 352.996 54.4102ZM359.505 51V52.4062H355.72V51H359.505ZM356.513 49.5625H358.423V55.1133C358.423 55.2305 358.441 55.3255 358.478 55.3984C358.517 55.4687 358.573 55.5195 358.646 55.5508C358.718 55.5794 358.806 55.5938 358.907 55.5938C358.98 55.5938 359.057 55.5872 359.138 55.5742C359.221 55.5586 359.284 55.5456 359.325 55.5352L359.614 56.9141C359.523 56.9401 359.394 56.9727 359.228 57.0117C359.063 57.0508 358.867 57.0755 358.638 57.0859C358.19 57.1068 357.806 57.0547 357.485 56.9297C357.168 56.8021 356.924 56.6042 356.755 56.3359C356.588 56.0677 356.507 55.7305 356.513 55.3242V49.5625Z" fill="#070813"/>
<path d="M64.8438 211.832L63.0898 211.879C63.0716 211.754 63.0221 211.643 62.9414 211.547C62.8607 211.448 62.7552 211.371 62.625 211.316C62.4974 211.259 62.349 211.23 62.1797 211.23C61.9583 211.23 61.7695 211.275 61.6133 211.363C61.4596 211.452 61.3841 211.572 61.3867 211.723C61.3841 211.84 61.431 211.941 61.5273 212.027C61.6263 212.113 61.8021 212.182 62.0547 212.234L63.2109 212.453C63.8099 212.568 64.2552 212.758 64.5469 213.023C64.8411 213.289 64.9896 213.641 64.9922 214.078C64.9896 214.49 64.8672 214.848 64.625 215.152C64.3854 215.457 64.0573 215.694 63.6406 215.863C63.224 216.03 62.7474 216.113 62.2109 216.113C61.3542 216.113 60.6784 215.937 60.1836 215.586C59.6914 215.232 59.4102 214.758 59.3398 214.164L61.2266 214.117C61.2682 214.336 61.3763 214.503 61.5508 214.617C61.7253 214.732 61.9479 214.789 62.2188 214.789C62.4635 214.789 62.6628 214.743 62.8164 214.652C62.9701 214.561 63.0482 214.44 63.0508 214.289C63.0482 214.154 62.9883 214.046 62.8711 213.965C62.7539 213.882 62.5703 213.816 62.3203 213.77L61.2734 213.57C60.6719 213.461 60.224 213.259 59.9297 212.965C59.6354 212.668 59.4896 212.29 59.4922 211.832C59.4896 211.431 59.5964 211.089 59.8125 210.805C60.0286 210.518 60.3359 210.299 60.7344 210.148C61.1328 209.997 61.6029 209.922 62.1445 209.922C62.957 209.922 63.5977 210.092 64.0664 210.434C64.5352 210.772 64.7943 211.238 64.8438 211.832ZM67.624 216.102C67.2412 216.102 66.9014 216.038 66.6045 215.91C66.3102 215.78 66.0771 215.585 65.9053 215.324C65.736 215.061 65.6514 214.732 65.6514 214.336C65.6514 214.003 65.71 213.721 65.8271 213.492C65.9443 213.263 66.1058 213.077 66.3115 212.934C66.5173 212.79 66.7542 212.682 67.0225 212.609C67.2907 212.534 67.5771 212.483 67.8818 212.457C68.223 212.426 68.4977 212.393 68.7061 212.359C68.9144 212.323 69.0654 212.272 69.1592 212.207C69.2555 212.139 69.3037 212.044 69.3037 211.922V211.902C69.3037 211.702 69.2347 211.547 69.0967 211.437C68.9587 211.328 68.7725 211.273 68.5381 211.273C68.2855 211.273 68.0824 211.328 67.9287 211.437C67.7751 211.547 67.6774 211.698 67.6357 211.891L65.874 211.828C65.9261 211.464 66.0602 211.138 66.2764 210.852C66.4951 210.563 66.7946 210.336 67.1748 210.172C67.5576 210.005 68.0173 209.922 68.5537 209.922C68.9365 209.922 69.2894 209.967 69.6123 210.059C69.9352 210.147 70.2165 210.277 70.4561 210.449C70.6956 210.618 70.8805 210.827 71.0107 211.074C71.1436 211.322 71.21 211.604 71.21 211.922V216H69.4131V215.164H69.3662C69.2594 215.367 69.1227 215.539 68.9561 215.68C68.792 215.82 68.598 215.926 68.374 215.996C68.1527 216.066 67.9027 216.102 67.624 216.102ZM68.2139 214.852C68.4196 214.852 68.6045 214.81 68.7686 214.727C68.9352 214.643 69.068 214.529 69.167 214.383C69.266 214.234 69.3154 214.062 69.3154 213.867V213.297C69.2607 213.326 69.1943 213.352 69.1162 213.375C69.0407 213.398 68.9574 213.421 68.8662 213.441C68.7751 213.462 68.6813 213.48 68.585 213.496C68.4886 213.512 68.3962 213.526 68.3076 213.539C68.1279 213.568 67.9743 213.612 67.8467 213.672C67.7217 213.732 67.6253 213.81 67.5576 213.906C67.4925 214 67.46 214.112 67.46 214.242C67.46 214.44 67.5303 214.591 67.6709 214.695C67.8141 214.799 67.9951 214.852 68.2139 214.852ZM72.3779 216V210H74.2334V211.094H74.2959C74.4053 210.698 74.5837 210.404 74.8311 210.211C75.0785 210.016 75.3662 209.918 75.6943 209.918C75.7829 209.918 75.874 209.924 75.9678 209.937C76.0615 209.948 76.1488 209.965 76.2295 209.988V211.648C76.1383 211.617 76.0186 211.592 75.8701 211.574C75.7243 211.556 75.5941 211.547 75.4795 211.547C75.2529 211.547 75.0485 211.598 74.8662 211.699C74.6865 211.798 74.5446 211.937 74.4404 212.117C74.3389 212.294 74.2881 212.503 74.2881 212.742V216H72.3779ZM82.2461 211.832L80.4922 211.879C80.474 211.754 80.4245 211.643 80.3437 211.547C80.263 211.448 80.1576 211.371 80.0273 211.316C79.8997 211.259 79.7513 211.23 79.582 211.23C79.3607 211.23 79.1719 211.275 79.0156 211.363C78.862 211.452 78.7865 211.572 78.7891 211.723C78.7865 211.84 78.8333 211.941 78.9297 212.027C79.0286 212.113 79.2044 212.182 79.457 212.234L80.6133 212.453C81.2122 212.568 81.6576 212.758 81.9492 213.023C82.2435 213.289 82.3919 213.641 82.3945 214.078C82.3919 214.49 82.2695 214.848 82.0273 215.152C81.7878 215.457 81.4596 215.694 81.043 215.863C80.6263 216.03 80.1497 216.113 79.6133 216.113C78.7565 216.113 78.0807 215.937 77.5859 215.586C77.0938 215.232 76.8125 214.758 76.7422 214.164L78.6289 214.117C78.6706 214.336 78.7786 214.503 78.9531 214.617C79.1276 214.732 79.3503 214.789 79.6211 214.789C79.8659 214.789 80.0651 214.743 80.2188 214.652C80.3724 214.561 80.4505 214.44 80.4531 214.289C80.4505 214.154 80.3906 214.046 80.2734 213.965C80.1563 213.882 79.9727 213.816 79.7227 213.77L78.6758 213.57C78.0742 213.461 77.6263 213.259 77.332 212.965C77.0378 212.668 76.8919 212.29 76.8945 211.832C76.8919 211.431 76.9987 211.089 77.2148 210.805C77.431 210.518 77.7383 210.299 78.1367 210.148C78.5352 209.997 79.0052 209.922 79.5469 209.922C80.3594 209.922 81 210.092 81.4688 210.434C81.9375 210.772 82.1966 211.238 82.2461 211.832Z" fill="#070813"/>
<path d="M326.605 216V210H328.461V211.094H328.523C328.633 210.698 328.811 210.404 329.059 210.211C329.306 210.016 329.594 209.918 329.922 209.918C330.01 209.918 330.102 209.924 330.195 209.937C330.289 209.948 330.376 209.965 330.457 209.988V211.648C330.366 211.617 330.246 211.592 330.098 211.574C329.952 211.556 329.822 211.547 329.707 211.547C329.48 211.547 329.276 211.598 329.094 211.699C328.914 211.798 328.772 211.937 328.668 212.117C328.566 212.294 328.516 212.503 328.516 212.742V216H326.605ZM336.474 211.832L334.72 211.879C334.701 211.754 334.652 211.643 334.571 211.547C334.491 211.448 334.385 211.371 334.255 211.316C334.127 211.259 333.979 211.23 333.81 211.23C333.588 211.23 333.399 211.275 333.243 211.363C333.09 211.452 333.014 211.572 333.017 211.723C333.014 211.84 333.061 211.941 333.157 212.027C333.256 212.113 333.432 212.182 333.685 212.234L334.841 212.453C335.44 212.568 335.885 212.758 336.177 213.023C336.471 213.289 336.619 213.641 336.622 214.078C336.619 214.49 336.497 214.848 336.255 215.152C336.015 215.457 335.687 215.694 335.271 215.863C334.854 216.03 334.377 216.113 333.841 216.113C332.984 216.113 332.308 215.937 331.813 215.586C331.321 215.232 331.04 214.758 330.97 214.164L332.856 214.117C332.898 214.336 333.006 214.503 333.181 214.617C333.355 214.732 333.578 214.789 333.849 214.789C334.093 214.789 334.293 214.743 334.446 214.652C334.6 214.561 334.678 214.44 334.681 214.289C334.678 214.154 334.618 214.046 334.501 213.965C334.384 213.882 334.2 213.816 333.95 213.77L332.903 213.57C332.302 213.461 331.854 213.259 331.56 212.965C331.265 212.668 331.119 212.29 331.122 211.832C331.119 211.431 331.226 211.089 331.442 210.805C331.659 210.518 331.966 210.299 332.364 210.148C332.763 209.997 333.233 209.922 333.774 209.922C334.587 209.922 335.228 210.092 335.696 210.434C336.165 210.772 336.424 211.238 336.474 211.832ZM343.383 210L341.324 216H339.137L337.082 210H339.094L340.199 214.133H340.262L341.371 210H343.383Z" fill="#070813"/>
<path d="M260.605 216V210H262.422V211.102H262.488C262.613 210.737 262.824 210.449 263.121 210.238C263.418 210.027 263.772 209.922 264.184 209.922C264.6 209.922 264.957 210.029 265.254 210.242C265.551 210.456 265.74 210.742 265.82 211.102H265.883C265.995 210.745 266.214 210.46 266.539 210.246C266.865 210.03 267.249 209.922 267.691 209.922C268.259 209.922 268.72 210.104 269.074 210.469C269.428 210.831 269.605 211.328 269.605 211.961V216H267.695V212.398C267.695 212.099 267.618 211.871 267.465 211.715C267.311 211.556 267.112 211.477 266.867 211.477C266.604 211.477 266.397 211.562 266.246 211.734C266.098 211.904 266.023 212.132 266.023 212.418V216H264.188V212.379C264.188 212.1 264.112 211.88 263.961 211.719C263.81 211.557 263.611 211.477 263.363 211.477C263.197 211.477 263.049 211.517 262.922 211.598C262.794 211.676 262.694 211.788 262.621 211.934C262.551 212.079 262.516 212.251 262.516 212.449V216H260.605ZM270.789 218.25V210H272.68V211.027H272.738C272.816 210.845 272.927 210.669 273.07 210.5C273.216 210.331 273.401 210.193 273.625 210.086C273.852 209.977 274.122 209.922 274.438 209.922C274.854 209.922 275.243 210.031 275.605 210.25C275.97 210.469 276.264 210.806 276.488 211.262C276.712 211.717 276.824 212.298 276.824 213.004C276.824 213.684 276.716 214.253 276.5 214.711C276.286 215.169 275.997 215.513 275.633 215.742C275.271 215.971 274.868 216.086 274.426 216.086C274.124 216.086 273.862 216.036 273.641 215.937C273.419 215.839 273.233 215.708 273.082 215.547C272.934 215.385 272.819 215.212 272.738 215.027H272.699V218.25H270.789ZM272.66 213C272.66 213.323 272.703 213.604 272.789 213.844C272.878 214.083 273.004 214.27 273.168 214.402C273.335 214.533 273.534 214.598 273.766 214.598C274 214.598 274.199 214.533 274.363 214.402C274.527 214.27 274.651 214.083 274.734 213.844C274.82 213.604 274.863 213.323 274.863 213C274.863 212.677 274.82 212.397 274.734 212.16C274.651 211.923 274.527 211.74 274.363 211.609C274.202 211.479 274.003 211.414 273.766 211.414C273.531 211.414 273.332 211.478 273.168 211.605C273.004 211.733 272.878 211.915 272.789 212.152C272.703 212.389 272.66 212.672 272.66 213ZM283.452 210L281.394 216H279.206L277.151 210H279.163L280.269 214.133H280.331L281.44 210H283.452Z" fill="#070813"/>
<path d="M199.844 211.832L198.09 211.879C198.072 211.754 198.022 211.643 197.941 211.547C197.861 211.448 197.755 211.371 197.625 211.316C197.497 211.259 197.349 211.23 197.18 211.23C196.958 211.23 196.77 211.275 196.613 211.363C196.46 211.452 196.384 211.572 196.387 211.723C196.384 211.84 196.431 211.941 196.527 212.027C196.626 212.113 196.802 212.182 197.055 212.234L198.211 212.453C198.81 212.568 199.255 212.758 199.547 213.023C199.841 213.289 199.99 213.641 199.992 214.078C199.99 214.49 199.867 214.848 199.625 215.152C199.385 215.457 199.057 215.694 198.641 215.863C198.224 216.03 197.747 216.113 197.211 216.113C196.354 216.113 195.678 215.937 195.184 215.586C194.691 215.232 194.41 214.758 194.34 214.164L196.227 214.117C196.268 214.336 196.376 214.503 196.551 214.617C196.725 214.732 196.948 214.789 197.219 214.789C197.464 214.789 197.663 214.743 197.816 214.652C197.97 214.561 198.048 214.44 198.051 214.289C198.048 214.154 197.988 214.046 197.871 213.965C197.754 213.882 197.57 213.816 197.32 213.77L196.273 213.57C195.672 213.461 195.224 213.259 194.93 212.965C194.635 212.668 194.49 212.29 194.492 211.832C194.49 211.431 194.596 211.089 194.813 210.805C195.029 210.518 195.336 210.299 195.734 210.148C196.133 209.997 196.603 209.922 197.145 209.922C197.957 209.922 198.598 210.092 199.066 210.434C199.535 210.772 199.794 211.238 199.844 211.832ZM202.843 212.578V216H200.933V208H202.78V211.102H202.847C202.982 210.732 203.203 210.443 203.511 210.234C203.821 210.026 204.2 209.922 204.647 209.922C205.069 209.922 205.437 210.016 205.749 210.203C206.062 210.388 206.304 210.65 206.476 210.988C206.65 211.327 206.736 211.723 206.733 212.176V216H204.823V212.551C204.826 212.217 204.743 211.957 204.573 211.77C204.404 211.582 204.166 211.488 203.858 211.488C203.658 211.488 203.481 211.533 203.327 211.621C203.176 211.707 203.058 211.831 202.972 211.992C202.888 212.154 202.845 212.349 202.843 212.578ZM207.926 216V210H209.836V216H207.926ZM208.883 209.301C208.615 209.301 208.384 209.212 208.191 209.035C207.999 208.855 207.902 208.639 207.902 208.387C207.902 208.137 207.999 207.923 208.191 207.746C208.384 207.566 208.615 207.477 208.883 207.477C209.154 207.477 209.384 207.566 209.574 207.746C209.767 207.923 209.863 208.137 209.863 208.387C209.863 208.639 209.767 208.855 209.574 209.035C209.384 209.212 209.154 209.301 208.883 209.301ZM213.849 218.375C213.278 218.375 212.79 218.296 212.384 218.137C211.978 217.978 211.659 217.76 211.427 217.484C211.195 217.208 211.056 216.896 211.009 216.547L212.817 216.445C212.851 216.568 212.914 216.674 213.005 216.766C213.099 216.857 213.22 216.927 213.368 216.977C213.519 217.026 213.696 217.051 213.899 217.051C214.22 217.051 214.484 216.973 214.692 216.816C214.903 216.663 215.009 216.393 215.009 216.008V214.953H214.942C214.867 215.138 214.752 215.303 214.599 215.449C214.445 215.595 214.254 215.71 214.024 215.793C213.798 215.876 213.537 215.918 213.243 215.918C212.806 215.918 212.405 215.816 212.04 215.613C211.678 215.408 211.388 215.09 211.169 214.66C210.953 214.228 210.845 213.672 210.845 212.992C210.845 212.292 210.957 211.715 211.181 211.262C211.405 210.806 211.698 210.469 212.06 210.25C212.424 210.031 212.816 209.922 213.235 209.922C213.55 209.922 213.82 209.977 214.044 210.086C214.271 210.193 214.457 210.331 214.603 210.5C214.748 210.669 214.859 210.845 214.935 211.027H214.989V210H216.892V216.023C216.892 216.531 216.764 216.96 216.509 217.309C216.254 217.658 215.897 217.922 215.438 218.102C214.98 218.284 214.45 218.375 213.849 218.375ZM213.907 214.527C214.139 214.527 214.337 214.466 214.501 214.344C214.665 214.221 214.791 214.046 214.88 213.816C214.968 213.587 215.013 213.312 215.013 212.992C215.013 212.667 214.968 212.387 214.88 212.152C214.794 211.915 214.668 211.733 214.501 211.605C214.337 211.478 214.139 211.414 213.907 211.414C213.67 211.414 213.47 211.479 213.306 211.609C213.142 211.74 213.017 211.923 212.931 212.16C212.847 212.395 212.806 212.672 212.806 212.992C212.806 213.312 212.849 213.587 212.935 213.816C213.021 214.046 213.144 214.221 213.306 214.344C213.47 214.466 213.67 214.527 213.907 214.527Z" fill="#070813"/>
<path d="M133.016 210V211.406H129.156V210H133.016ZM129.961 216V209.695C129.961 209.232 130.048 208.848 130.223 208.543C130.397 208.236 130.639 208.007 130.949 207.855C131.259 207.702 131.617 207.625 132.023 207.625C132.289 207.625 132.539 207.646 132.773 207.688C133.01 207.727 133.186 207.762 133.301 207.793L132.996 209.191C132.926 209.168 132.84 209.148 132.738 209.133C132.639 209.117 132.546 209.109 132.457 209.109C132.233 209.109 132.079 209.159 131.996 209.258C131.913 209.357 131.871 209.492 131.871 209.664V216H129.961ZM135.845 208V216H133.935V208H135.845ZM140.932 213.41V210H142.838V216H141.018V214.883H140.955C140.822 215.25 140.596 215.542 140.275 215.758C139.958 215.971 139.574 216.078 139.123 216.078C138.714 216.078 138.355 215.984 138.045 215.797C137.735 215.609 137.494 215.348 137.322 215.012C137.15 214.673 137.063 214.277 137.061 213.824V210H138.971V213.449C138.973 213.775 139.059 214.031 139.229 214.219C139.398 214.406 139.628 214.5 139.92 214.5C140.11 214.5 140.281 214.458 140.432 214.375C140.585 214.289 140.706 214.165 140.795 214.004C140.886 213.84 140.932 213.642 140.932 213.41Z" fill="#070813"/>
<path d="M264.924 74.98V66.95H266.101V68.105H266.354L266.101 68.38C266.101 67.9033 266.248 67.5293 266.541 67.258C266.842 66.9793 267.241 66.84 267.74 66.84C268.349 66.84 268.833 67.0453 269.192 67.456C269.559 67.8593 269.742 68.413 269.742 69.117V70.822C269.742 71.2913 269.658 71.6983 269.489 72.043C269.328 72.3803 269.097 72.6443 268.796 72.835C268.503 73.0183 268.151 73.11 267.74 73.11C267.249 73.11 266.853 72.9743 266.552 72.703C266.251 72.4243 266.101 72.0467 266.101 71.57L266.354 71.845H266.079L266.112 73.253V74.98H264.924ZM267.333 72.076C267.722 72.076 268.022 71.966 268.235 71.746C268.455 71.5187 268.565 71.1923 268.565 70.767V69.183C268.565 68.7577 268.455 68.435 268.235 68.215C268.022 67.9877 267.722 67.874 267.333 67.874C266.959 67.874 266.662 67.9913 266.442 68.226C266.222 68.4533 266.112 68.7723 266.112 69.183V70.767C266.112 71.1777 266.222 71.5003 266.442 71.735C266.662 71.9623 266.959 72.076 267.333 72.076ZM273.291 73.11C272.66 73.11 272.161 72.9487 271.795 72.626C271.435 72.296 271.256 71.8487 271.256 71.284C271.256 70.712 271.446 70.2647 271.828 69.942C272.216 69.612 272.748 69.447 273.423 69.447H275.106V68.886C275.106 68.556 275.003 68.2993 274.798 68.116C274.592 67.9327 274.303 67.841 273.929 67.841C273.599 67.841 273.324 67.9143 273.104 68.061C272.884 68.2003 272.755 68.3873 272.719 68.622H271.553C271.619 68.0793 271.868 67.6467 272.301 67.324C272.741 67.0013 273.294 66.84 273.962 66.84C274.68 66.84 275.249 67.0233 275.667 67.39C276.085 67.7493 276.294 68.2407 276.294 68.864V73H275.139V71.889H274.941L275.139 71.669C275.139 72.109 274.97 72.461 274.633 72.725C274.295 72.9817 273.848 73.11 273.291 73.11ZM273.643 72.197C274.068 72.197 274.416 72.0907 274.688 71.878C274.966 71.658 275.106 71.3793 275.106 71.042V70.25H273.445C273.137 70.25 272.891 70.3343 272.708 70.503C272.532 70.6717 272.444 70.9027 272.444 71.196C272.444 71.504 272.55 71.7497 272.763 71.933C272.975 72.109 273.269 72.197 273.643 72.197ZM278.313 73V66.95H279.457V68.105H279.743L279.38 68.82C279.38 68.1673 279.523 67.676 279.809 67.346C280.095 67.0087 280.521 66.84 281.085 66.84C281.731 66.84 282.24 67.0417 282.614 67.445C282.996 67.841 283.186 68.3873 283.186 69.084V69.491H281.965V69.183C281.965 68.7503 281.855 68.4203 281.635 68.193C281.423 67.9583 281.122 67.841 280.733 67.841C280.345 67.841 280.04 67.9583 279.82 68.193C279.608 68.4277 279.501 68.7577 279.501 69.183V73H278.313ZM286.482 73.11C285.851 73.11 285.353 72.9487 284.986 72.626C284.627 72.296 284.447 71.8487 284.447 71.284C284.447 70.712 284.638 70.2647 285.019 69.942C285.408 69.612 285.939 69.447 286.614 69.447H288.297V68.886C288.297 68.556 288.194 68.2993 287.989 68.116C287.784 67.9327 287.494 67.841 287.12 67.841C286.79 67.841 286.515 67.9143 286.295 68.061C286.075 68.2003 285.947 68.3873 285.91 68.622H284.744C284.81 68.0793 285.059 67.6467 285.492 67.324C285.932 67.0013 286.486 66.84 287.153 66.84C287.872 66.84 288.44 67.0233 288.858 67.39C289.276 67.7493 289.485 68.2407 289.485 68.864V73H288.33V71.889H288.132L288.33 71.669C288.33 72.109 288.161 72.461 287.824 72.725C287.487 72.9817 287.039 73.11 286.482 73.11ZM286.834 72.197C287.259 72.197 287.608 72.0907 287.879 71.878C288.158 71.658 288.297 71.3793 288.297 71.042V70.25H286.636C286.328 70.25 286.082 70.3343 285.899 70.503C285.723 70.6717 285.635 70.9027 285.635 71.196C285.635 71.504 285.741 71.7497 285.954 71.933C286.167 72.109 286.46 72.197 286.834 72.197ZM291.032 73V66.95H292.022V67.72H292.242L292.077 67.951C292.077 67.6137 292.168 67.346 292.352 67.148C292.535 66.9427 292.781 66.84 293.089 66.84C293.419 66.84 293.672 66.9683 293.848 67.225C294.031 67.4817 294.123 67.8337 294.123 68.281L293.859 67.72H294.277L294.101 67.951C294.101 67.6137 294.192 67.346 294.376 67.148C294.566 66.9427 294.819 66.84 295.135 66.84C295.509 66.84 295.802 66.983 296.015 67.269C296.227 67.5477 296.334 67.9217 296.334 68.391V73H295.278V68.424C295.278 68.1967 295.226 68.0207 295.124 67.896C295.028 67.7713 294.889 67.709 294.706 67.709C294.522 67.709 294.379 67.7713 294.277 67.896C294.181 68.0133 294.134 68.1857 294.134 68.413V73H293.243V68.424C293.243 68.1893 293.191 68.0133 293.089 67.896C292.986 67.7713 292.839 67.709 292.649 67.709C292.465 67.709 292.326 67.7713 292.231 67.896C292.143 68.0133 292.099 68.1857 292.099 68.413V73H291.032ZM300.07 73.099C299.637 73.099 299.256 73.0293 298.926 72.89C298.603 72.7507 298.346 72.56 298.156 72.318C297.972 72.0687 297.866 71.7753 297.837 71.438H299.025C299.054 71.636 299.16 71.7973 299.344 71.922C299.527 72.0393 299.769 72.098 300.07 72.098H300.543C300.902 72.098 301.173 72.0247 301.357 71.878C301.54 71.7313 301.632 71.537 301.632 71.295C301.632 71.0603 301.547 70.877 301.379 70.745C301.217 70.6057 300.975 70.514 300.653 70.47L299.872 70.349C299.226 70.2463 298.75 70.063 298.442 69.799C298.141 69.5277 297.991 69.128 297.991 68.6C297.991 68.0427 298.17 67.6137 298.53 67.313C298.896 67.005 299.435 66.851 300.147 66.851H300.565C301.195 66.851 301.698 66.9977 302.072 67.291C302.453 67.577 302.669 67.962 302.721 68.446H301.533C301.503 68.27 301.404 68.127 301.236 68.017C301.074 67.907 300.851 67.852 300.565 67.852H300.147C299.802 67.852 299.549 67.918 299.388 68.05C299.234 68.1747 299.157 68.3617 299.157 68.611C299.157 68.831 299.226 68.996 299.366 69.106C299.505 69.216 299.721 69.293 300.015 69.337L300.818 69.469C301.5 69.5643 301.998 69.755 302.314 70.041C302.636 70.3197 302.798 70.7267 302.798 71.262C302.798 71.8413 302.607 72.2923 302.226 72.615C301.852 72.9377 301.291 73.099 300.543 73.099H300.07ZM306.566 74.54V73.099C305.862 73.0403 305.309 72.8167 304.905 72.428C304.502 72.032 304.297 71.515 304.289 70.877H305.466C305.466 71.1923 305.562 71.4527 305.752 71.658C305.95 71.856 306.222 71.9807 306.566 72.032V69.436L306.313 69.37C305.727 69.2013 305.272 68.9153 304.949 68.512C304.634 68.1013 304.476 67.6137 304.476 67.049C304.476 66.4403 304.663 65.9417 305.037 65.553C305.411 65.1643 305.921 64.9407 306.566 64.882V63.43H307.237V64.871C307.883 64.9297 308.396 65.1533 308.777 65.542C309.159 65.9233 309.353 66.422 309.36 67.038H308.172C308.172 66.7373 308.092 66.4917 307.93 66.301C307.769 66.103 307.538 65.9783 307.237 65.927V68.402L307.633 68.523C308.22 68.6843 308.671 68.9703 308.986 69.381C309.302 69.7917 309.459 70.283 309.459 70.855C309.459 71.4783 309.258 71.9917 308.854 72.395C308.458 72.7983 307.919 73.033 307.237 73.099V74.54H306.566ZM307.237 72.043C307.567 71.9917 307.824 71.867 308.007 71.669C308.191 71.471 308.282 71.2143 308.282 70.899C308.282 70.5763 308.18 70.3013 307.974 70.074C307.776 69.8467 307.498 69.7037 307.138 69.645L307.237 69.414V72.043ZM306.566 68.732V65.927C306.273 65.9783 306.046 66.0957 305.884 66.279C305.73 66.455 305.653 66.686 305.653 66.972C305.653 67.324 305.767 67.621 305.994 67.863C306.229 68.0977 306.559 68.237 306.984 68.281L306.566 68.732ZM311.094 74.98V66.95H312.271V68.105H312.524L312.271 68.38C312.271 67.9033 312.418 67.5293 312.711 67.258C313.012 66.9793 313.411 66.84 313.91 66.84C314.519 66.84 315.003 67.0453 315.362 67.456C315.729 67.8593 315.912 68.413 315.912 69.117V70.822C315.912 71.2913 315.828 71.6983 315.659 72.043C315.498 72.3803 315.267 72.6443 314.966 72.835C314.673 73.0183 314.321 73.11 313.91 73.11C313.419 73.11 313.023 72.9743 312.722 72.703C312.421 72.4243 312.271 72.0467 312.271 71.57L312.524 71.845H312.249L312.282 73.253V74.98H311.094ZM313.503 72.076C313.892 72.076 314.192 71.966 314.405 71.746C314.625 71.5187 314.735 71.1923 314.735 70.767V69.183C314.735 68.7577 314.625 68.435 314.405 68.215C314.192 67.9877 313.892 67.874 313.503 67.874C313.129 67.874 312.832 67.9913 312.612 68.226C312.392 68.4533 312.282 68.7723 312.282 69.183V70.767C312.282 71.1777 312.392 71.5003 312.612 71.735C312.832 71.9623 313.129 72.076 313.503 72.076ZM319.461 73.11C318.83 73.11 318.331 72.9487 317.965 72.626C317.605 72.296 317.426 71.8487 317.426 71.284C317.426 70.712 317.616 70.2647 317.998 69.942C318.386 69.612 318.918 69.447 319.593 69.447H321.276V68.886C321.276 68.556 321.173 68.2993 320.968 68.116C320.762 67.9327 320.473 67.841 320.099 67.841C319.769 67.841 319.494 67.9143 319.274 68.061C319.054 68.2003 318.925 68.3873 318.889 68.622H317.723C317.789 68.0793 318.038 67.6467 318.471 67.324C318.911 67.0013 319.464 66.84 320.132 66.84C320.85 66.84 321.419 67.0233 321.837 67.39C322.255 67.7493 322.464 68.2407 322.464 68.864V73H321.309V71.889H321.111L321.309 71.669C321.309 72.109 321.14 72.461 320.803 72.725C320.465 72.9817 320.018 73.11 319.461 73.11ZM319.813 72.197C320.238 72.197 320.586 72.0907 320.858 71.878C321.136 71.658 321.276 71.3793 321.276 71.042V70.25H319.615C319.307 70.25 319.061 70.3343 318.878 70.503C318.702 70.6717 318.614 70.9027 318.614 71.196C318.614 71.504 318.72 71.7497 318.933 71.933C319.145 72.109 319.439 72.197 319.813 72.197ZM327.321 73C326.771 73 326.342 72.8497 326.034 72.549C325.726 72.2483 325.572 71.8303 325.572 71.295V68.028H323.9V66.95H325.572V65.245H326.76V66.95H329.125V68.028H326.76V71.295C326.76 71.713 326.962 71.922 327.365 71.922H329.015V73H327.321ZM330.881 73V64.97H332.069V66.95L332.058 68.105H332.344L332.058 68.38C332.058 67.896 332.201 67.5183 332.487 67.247C332.773 66.9757 333.169 66.84 333.675 66.84C334.276 66.84 334.757 67.0343 335.116 67.423C335.475 67.8043 335.655 68.3213 335.655 68.974V73H334.467V69.106C334.467 68.71 334.361 68.402 334.148 68.182C333.935 67.962 333.646 67.852 333.279 67.852C332.905 67.852 332.608 67.9693 332.388 68.204C332.175 68.4313 332.069 68.7577 332.069 69.183V73H330.881ZM339.853 73.099C339.354 73.099 338.921 73.0037 338.555 72.813C338.188 72.6223 337.906 72.351 337.708 71.999C337.51 71.647 337.411 71.2327 337.411 70.756V69.194C337.411 68.71 337.51 68.2957 337.708 67.951C337.906 67.599 338.188 67.3277 338.555 67.137C338.921 66.9463 339.354 66.851 339.853 66.851C340.351 66.851 340.784 66.9463 341.151 67.137C341.517 67.3277 341.8 67.599 341.998 67.951C342.196 68.2957 342.295 68.71 342.295 69.194V70.756C342.295 71.2327 342.196 71.647 341.998 71.999C341.8 72.351 341.517 72.6223 341.151 72.813C340.784 73.0037 340.351 73.099 339.853 73.099ZM339.853 72.054C340.256 72.054 340.568 71.944 340.788 71.724C341.008 71.4967 341.118 71.174 341.118 70.756V69.194C341.118 68.7687 341.008 68.446 340.788 68.226C340.568 68.006 340.256 67.896 339.853 67.896C339.457 67.896 339.145 68.006 338.918 68.226C338.698 68.446 338.588 68.7687 338.588 69.194V70.756C338.588 71.174 338.698 71.4967 338.918 71.724C339.145 71.944 339.457 72.054 339.853 72.054ZM344.864 74.98V73.957H346.723C347.031 73.957 347.259 73.8837 347.405 73.737C347.559 73.5903 347.636 73.374 347.636 73.088V72.483L347.658 71.361H347.405L347.647 71.141C347.647 71.603 347.501 71.966 347.207 72.23C346.921 72.494 346.533 72.626 346.041 72.626C345.418 72.626 344.927 72.4207 344.567 72.01C344.208 71.5993 344.028 71.0457 344.028 70.349V69.117C344.028 68.4203 344.208 67.8667 344.567 67.456C344.927 67.0453 345.418 66.84 346.041 66.84C346.533 66.84 346.921 66.9757 347.207 67.247C347.501 67.511 347.647 67.874 347.647 68.336L347.405 68.105H347.647L347.636 66.95H348.813V73.11C348.813 73.6893 348.63 74.144 348.263 74.474C347.897 74.8113 347.387 74.98 346.734 74.98H344.864ZM346.426 71.603C346.8 71.603 347.094 71.4893 347.306 71.262C347.526 71.0273 347.636 70.7047 347.636 70.294V69.183C347.636 68.7723 347.526 68.4533 347.306 68.226C347.094 67.9913 346.8 67.874 346.426 67.874C346.038 67.874 345.737 67.9877 345.524 68.215C345.319 68.435 345.216 68.7577 345.216 69.183V70.294C345.216 70.712 345.319 71.0347 345.524 71.262C345.737 71.4893 346.038 71.603 346.426 71.603ZM353.044 73.11C352.553 73.11 352.12 73.0147 351.746 72.824C351.379 72.626 351.097 72.351 350.899 71.999C350.701 71.647 350.602 71.2363 350.602 70.767V69.183C350.602 68.7063 350.701 68.2957 350.899 67.951C351.097 67.599 351.379 67.3277 351.746 67.137C352.12 66.939 352.553 66.84 353.044 66.84C353.543 66.84 353.975 66.939 354.342 67.137C354.709 67.3277 354.991 67.599 355.189 67.951C355.387 68.2957 355.486 68.7063 355.486 69.183V70.261H351.746V70.767C351.746 71.2143 351.856 71.5553 352.076 71.79C352.303 72.0247 352.63 72.142 353.055 72.142C353.4 72.142 353.678 72.0833 353.891 71.966C354.104 71.8413 354.236 71.6617 354.287 71.427H355.464C355.376 71.9403 355.112 72.351 354.672 72.659C354.232 72.9597 353.689 73.11 353.044 73.11ZM354.342 69.546V69.172C354.342 68.732 354.232 68.391 354.012 68.149C353.792 67.907 353.469 67.786 353.044 67.786C352.626 67.786 352.303 67.907 352.076 68.149C351.856 68.391 351.746 68.7357 351.746 69.183V69.458L354.43 69.447L354.342 69.546ZM357.264 73V66.95H358.441V68.105H358.727L358.441 68.38C358.441 67.896 358.584 67.5183 358.87 67.247C359.156 66.9757 359.552 66.84 360.058 66.84C360.659 66.84 361.14 67.0343 361.499 67.423C361.858 67.8043 362.038 68.3213 362.038 68.974V73H360.85V69.106C360.85 68.71 360.744 68.4057 360.531 68.193C360.318 67.9803 360.029 67.874 359.662 67.874C359.288 67.874 358.991 67.9877 358.771 68.215C358.558 68.435 358.452 68.7577 358.452 69.183V73H357.264Z" fill="#070813"/>
<path d="M203.293 148.707C203.683 149.098 204.317 149.098 204.707 148.707L211.071 142.343C211.462 141.953 211.462 141.319 211.071 140.929C210.681 140.538 210.047 140.538 209.657 140.929L204 146.586L198.343 140.929C197.953 140.538 197.319 140.538 196.929 140.929C196.538 141.319 196.538 141.953 196.929 142.343L203.293 148.707ZM203 89V148H205V89H203Z" fill="#070813"/>
<line x1="69" y1="117.5" x2="340" y2="117.5" stroke="#070813"/>
<path d="M136.293 148.857C136.683 149.247 137.317 149.247 137.707 148.857L144.071 142.493C144.462 142.102 144.462 141.469 144.071 141.079C143.681 140.688 143.047 140.688 142.657 141.079L137 146.735L131.343 141.079C130.953 140.688 130.319 140.688 129.929 141.079C129.538 141.469 129.538 142.102 129.929 142.493L136.293 148.857ZM136 118V148.15H138V118H136Z" fill="#070813"/>
<path d="M68.7929 148.782C69.1834 149.172 69.8166 149.172 70.2071 148.782L76.5711 142.418C76.9616 142.027 76.9616 141.394 76.5711 141.004C76.1805 140.613 75.5474 140.613 75.1569 141.004L69.5 146.661L63.8431 141.004C63.4526 140.613 62.8195 140.613 62.4289 141.004C62.0384 141.394 62.0384 142.027 62.4289 142.418L68.7929 148.782ZM68.5 117.925V148.075H70.5V117.925H68.5Z" fill="#070813"/>
<path d="M339.293 148.857C339.683 149.247 340.317 149.247 340.707 148.857L347.071 142.493C347.462 142.102 347.462 141.469 347.071 141.079C346.681 140.688 346.047 140.688 345.657 141.079L340 146.735L334.343 141.079C333.953 140.688 333.319 140.688 332.929 141.079C332.538 141.469 332.538 142.102 332.929 142.493L339.293 148.857ZM339 118V148.15H341V118H339Z" fill="#070813"/>
<path d="M270.293 148.857C270.683 149.247 271.317 149.247 271.707 148.857L278.071 142.493C278.462 142.102 278.462 141.469 278.071 141.079C277.681 140.688 277.047 140.688 276.657 141.079L271 146.735L265.343 141.079C264.953 140.688 264.319 140.688 263.929 141.079C263.538 141.469 263.538 142.102 263.929 142.493L270.293 148.857ZM270 118V148.15H272V118H270Z" fill="#070813"/>
</g>
<g filter="url(#filter1_d_0_1)">
<path d="M75 155H59C57.9391 155 56.9217 155.421 56.1716 156.172C55.4214 156.922 55 157.939 55 159V191C55 192.061 55.4214 193.078 56.1716 193.828C56.9217 194.579 57.9391 195 59 195H83C84.0609 195 85.0783 194.579 85.8284 193.828C86.5786 193.078 87 192.061 87 191V167M75 155L87 167M75 155V167H87M79 177H63M79 185H63M67 169H63" stroke="#070813" stroke-width="4" stroke-linecap="round" stroke-linejoin="round"/>
</g>
<g filter="url(#filter2_d_0_1)">
<path d="M208 155H192C190.939 155 189.922 155.421 189.172 156.172C188.421 156.922 188 157.939 188 159V191C188 192.061 188.421 193.078 189.172 193.828C189.922 194.579 190.939 195 192 195H216C217.061 195 218.078 194.579 218.828 193.828C219.579 193.078 220 192.061 220 191V167M208 155L220 167M208 155V167H220M212 177H196M212 185H196M200 169H196" stroke="#070813" stroke-width="4" stroke-linecap="round" stroke-linejoin="round"/>
</g>
<g filter="url(#filter3_d_0_1)">
<path d="M340 155H324C322.939 155 321.922 155.421 321.172 156.172C320.421 156.922 320 157.939 320 159V191C320 192.061 320.421 193.078 321.172 193.828C321.922 194.579 322.939 195 324 195H348C349.061 195 350.078 194.579 350.828 193.828C351.579 193.078 352 192.061 352 191V167M340 155L352 167M340 155V167H352M344 177H328M344 185H328M332 169H328" stroke="#070813" stroke-width="4" stroke-linecap="round" stroke-linejoin="round"/>
</g>
<g filter="url(#filter4_d_0_1)">
<path d="M274 155H258C256.939 155 255.922 155.421 255.172 156.172C254.421 156.922 254 157.939 254 159V191C254 192.061 254.421 193.078 255.172 193.828C255.922 194.579 256.939 195 258 195H282C283.061 195 284.078 194.579 284.828 193.828C285.579 193.078 286 192.061 286 191V167M274 155L286 167M274 155V167H286M278 177H262M278 185H262M266 169H262" stroke="#070813" stroke-width="4" stroke-linecap="round" stroke-linejoin="round"/>
</g>
<g filter="url(#filter5_d_0_1)">
<path d="M141 155H125C123.939 155 122.922 155.421 122.172 156.172C121.421 156.922 121 157.939 121 159V191C121 192.061 121.421 193.078 122.172 193.828C122.922 194.579 123.939 195 125 195H149C150.061 195 151.078 194.579 151.828 193.828C152.579 193.078 153 192.061 153 191V167M141 155L153 167M141 155V167H153M145 177H129M145 185H129M133 169H129" stroke="#070813" stroke-width="4" stroke-linecap="round" stroke-linejoin="round"/>
</g>
<path d="M218.605 112V104H221.91C222.509 104 223.026 104.108 223.461 104.324C223.898 104.538 224.236 104.845 224.473 105.246C224.71 105.645 224.828 106.117 224.828 106.664C224.828 107.219 224.707 107.69 224.465 108.078C224.223 108.464 223.879 108.758 223.434 108.961C222.988 109.161 222.461 109.262 221.852 109.262H219.762V107.738H221.492C221.784 107.738 222.027 107.701 222.223 107.625C222.421 107.547 222.57 107.43 222.672 107.273C222.773 107.115 222.824 106.911 222.824 106.664C222.824 106.417 222.773 106.212 222.672 106.051C222.57 105.887 222.421 105.764 222.223 105.684C222.025 105.6 221.781 105.559 221.492 105.559H220.539V112H218.605ZM223.109 108.344L225.102 112H222.992L221.039 108.344H223.109ZM228.575 112.113C227.948 112.113 227.406 111.99 226.95 111.742C226.497 111.492 226.148 111.137 225.903 110.676C225.661 110.212 225.54 109.661 225.54 109.023C225.54 108.404 225.662 107.862 225.907 107.398C226.152 106.932 226.497 106.57 226.942 106.312C227.388 106.052 227.912 105.922 228.517 105.922C228.944 105.922 229.334 105.988 229.688 106.121C230.043 106.254 230.349 106.451 230.606 106.711C230.864 106.971 231.065 107.293 231.208 107.676C231.351 108.056 231.423 108.492 231.423 108.984V109.461H226.208V108.352H229.646C229.643 108.148 229.595 107.967 229.501 107.809C229.407 107.65 229.278 107.526 229.114 107.437C228.953 107.346 228.767 107.301 228.556 107.301C228.342 107.301 228.151 107.349 227.981 107.445C227.812 107.539 227.678 107.668 227.579 107.832C227.48 107.993 227.428 108.177 227.423 108.383V109.512C227.423 109.757 227.471 109.971 227.567 110.156C227.664 110.339 227.8 110.48 227.978 110.582C228.155 110.684 228.366 110.734 228.61 110.734C228.78 110.734 228.933 110.711 229.071 110.664C229.209 110.617 229.328 110.548 229.427 110.457C229.526 110.366 229.6 110.254 229.649 110.121L231.403 110.172C231.33 110.565 231.17 110.908 230.923 111.199C230.678 111.488 230.356 111.714 229.958 111.875C229.56 112.034 229.099 112.113 228.575 112.113ZM232.398 114.25V106H234.289V107.027H234.348C234.426 106.845 234.536 106.669 234.68 106.5C234.826 106.331 235.01 106.193 235.234 106.086C235.461 105.977 235.732 105.922 236.047 105.922C236.464 105.922 236.853 106.031 237.215 106.25C237.579 106.469 237.874 106.806 238.098 107.262C238.322 107.717 238.434 108.298 238.434 109.004C238.434 109.684 238.326 110.253 238.109 110.711C237.896 111.169 237.607 111.513 237.242 111.742C236.88 111.971 236.478 112.086 236.035 112.086C235.733 112.086 235.471 112.036 235.25 111.937C235.029 111.839 234.842 111.708 234.691 111.547C234.543 111.385 234.428 111.212 234.348 111.027H234.309V114.25H232.398ZM234.27 109C234.27 109.323 234.313 109.604 234.398 109.844C234.487 110.083 234.613 110.27 234.777 110.402C234.944 110.533 235.143 110.598 235.375 110.598C235.609 110.598 235.809 110.533 235.973 110.402C236.137 110.27 236.26 110.083 236.344 109.844C236.43 109.604 236.473 109.323 236.473 109C236.473 108.677 236.43 108.397 236.344 108.16C236.26 107.923 236.137 107.74 235.973 107.609C235.811 107.479 235.612 107.414 235.375 107.414C235.141 107.414 234.941 107.478 234.777 107.605C234.613 107.733 234.487 107.915 234.398 108.152C234.313 108.389 234.27 108.672 234.27 109ZM242.235 112.113C241.605 112.113 241.063 111.984 240.61 111.727C240.16 111.466 239.812 111.104 239.567 110.641C239.325 110.174 239.204 109.634 239.204 109.02C239.204 108.402 239.325 107.862 239.567 107.398C239.812 106.932 240.16 106.57 240.61 106.312C241.063 106.052 241.605 105.922 242.235 105.922C242.866 105.922 243.406 106.052 243.856 106.312C244.31 106.57 244.657 106.932 244.899 107.398C245.144 107.862 245.267 108.402 245.267 109.02C245.267 109.634 245.144 110.174 244.899 110.641C244.657 111.104 244.31 111.466 243.856 111.727C243.406 111.984 242.866 112.113 242.235 112.113ZM242.247 110.672C242.476 110.672 242.67 110.602 242.829 110.461C242.988 110.32 243.109 110.125 243.192 109.875C243.278 109.625 243.321 109.336 243.321 109.008C243.321 108.674 243.278 108.383 243.192 108.133C243.109 107.883 242.988 107.687 242.829 107.547C242.67 107.406 242.476 107.336 242.247 107.336C242.01 107.336 241.81 107.406 241.646 107.547C241.484 107.687 241.36 107.883 241.274 108.133C241.191 108.383 241.149 108.674 241.149 109.008C241.149 109.336 241.191 109.625 241.274 109.875C241.36 110.125 241.484 110.32 241.646 110.461C241.81 110.602 242.01 110.672 242.247 110.672ZM246.245 112V106H248.101V107.094H248.163C248.272 106.698 248.451 106.404 248.698 106.211C248.946 106.016 249.233 105.918 249.562 105.918C249.65 105.918 249.741 105.924 249.835 105.937C249.929 105.948 250.016 105.965 250.097 105.988V107.648C250.006 107.617 249.886 107.592 249.737 107.574C249.591 107.556 249.461 107.547 249.347 107.547C249.12 107.547 248.916 107.598 248.733 107.699C248.554 107.798 248.412 107.937 248.308 108.117C248.206 108.294 248.155 108.503 248.155 108.742V112H246.245ZM254.541 106V107.406H250.756V106H254.541ZM251.549 104.562H253.459V110.113C253.459 110.23 253.477 110.326 253.514 110.398C253.553 110.469 253.609 110.52 253.682 110.551C253.755 110.579 253.842 110.594 253.943 110.594C254.016 110.594 254.093 110.587 254.174 110.574C254.257 110.559 254.32 110.546 254.361 110.535L254.65 111.914C254.559 111.94 254.43 111.973 254.264 112.012C254.1 112.051 253.903 112.076 253.674 112.086C253.226 112.107 252.842 112.055 252.521 111.93C252.204 111.802 251.96 111.604 251.791 111.336C251.624 111.068 251.544 110.73 251.549 110.324V104.562ZM260.679 107.832L258.925 107.879C258.907 107.754 258.857 107.643 258.776 107.547C258.696 107.448 258.59 107.371 258.46 107.316C258.332 107.259 258.184 107.23 258.015 107.23C257.793 107.23 257.604 107.275 257.448 107.363C257.295 107.452 257.219 107.572 257.222 107.723C257.219 107.84 257.266 107.941 257.362 108.027C257.461 108.113 257.637 108.182 257.89 108.234L259.046 108.453C259.645 108.568 260.09 108.758 260.382 109.023C260.676 109.289 260.825 109.641 260.827 110.078C260.825 110.49 260.702 110.848 260.46 111.152C260.22 111.457 259.892 111.694 259.476 111.863C259.059 112.03 258.582 112.113 258.046 112.113C257.189 112.113 256.513 111.937 256.019 111.586C255.526 111.232 255.245 110.758 255.175 110.164L257.062 110.117C257.103 110.336 257.211 110.503 257.386 110.617C257.56 110.732 257.783 110.789 258.054 110.789C258.299 110.789 258.498 110.743 258.651 110.652C258.805 110.561 258.883 110.44 258.886 110.289C258.883 110.154 258.823 110.046 258.706 109.965C258.589 109.882 258.405 109.816 258.155 109.77L257.108 109.57C256.507 109.461 256.059 109.259 255.765 108.965C255.47 108.668 255.325 108.29 255.327 107.832C255.325 107.431 255.431 107.089 255.647 106.805C255.864 106.518 256.171 106.299 256.569 106.148C256.968 105.997 257.438 105.922 257.979 105.922C258.792 105.922 259.433 106.092 259.901 106.434C260.37 106.772 260.629 107.238 260.679 107.832ZM265.471 103.625L262.893 113.203H261.264L263.842 103.625H265.471ZM273.733 108C273.733 108.88 273.564 109.626 273.226 110.238C272.887 110.85 272.429 111.315 271.851 111.633C271.275 111.951 270.629 112.109 269.913 112.109C269.194 112.109 268.547 111.949 267.972 111.629C267.396 111.309 266.939 110.844 266.601 110.234C266.265 109.622 266.097 108.878 266.097 108C266.097 107.12 266.265 106.374 266.601 105.762C266.939 105.15 267.396 104.685 267.972 104.367C268.547 104.049 269.194 103.891 269.913 103.891C270.629 103.891 271.275 104.049 271.851 104.367C272.429 104.685 272.887 105.15 273.226 105.762C273.564 106.374 273.733 107.12 273.733 108ZM271.757 108C271.757 107.479 271.683 107.039 271.534 106.68C271.388 106.32 271.177 106.048 270.901 105.863C270.628 105.678 270.299 105.586 269.913 105.586C269.53 105.586 269.201 105.678 268.925 105.863C268.649 106.048 268.437 106.32 268.288 106.68C268.142 107.039 268.069 107.479 268.069 108C268.069 108.521 268.142 108.961 268.288 109.32C268.437 109.68 268.649 109.952 268.925 110.137C269.201 110.322 269.53 110.414 269.913 110.414C270.299 110.414 270.628 110.322 270.901 110.137C271.177 109.952 271.388 109.68 271.534 109.32C271.683 108.961 271.757 108.521 271.757 108ZM278.733 109.41V106H280.64V112H278.819V110.883H278.757C278.624 111.25 278.397 111.542 278.077 111.758C277.759 111.971 277.375 112.078 276.925 112.078C276.516 112.078 276.157 111.984 275.847 111.797C275.537 111.609 275.296 111.348 275.124 111.012C274.952 110.673 274.865 110.277 274.862 109.824V106H276.772V109.449C276.775 109.775 276.861 110.031 277.03 110.219C277.2 110.406 277.43 110.5 277.722 110.5C277.912 110.5 278.082 110.458 278.233 110.375C278.387 110.289 278.508 110.165 278.597 110.004C278.688 109.84 278.733 109.642 278.733 109.41ZM285.242 106V107.406H281.457V106H285.242ZM282.25 104.562H284.16V110.113C284.16 110.23 284.178 110.326 284.215 110.398C284.254 110.469 284.31 110.52 284.383 110.551C284.456 110.579 284.543 110.594 284.645 110.594C284.717 110.594 284.794 110.587 284.875 110.574C284.958 110.559 285.021 110.546 285.062 110.535L285.352 111.914C285.26 111.94 285.132 111.973 284.965 112.012C284.801 112.051 284.604 112.076 284.375 112.086C283.927 112.107 283.543 112.055 283.223 111.93C282.905 111.802 282.661 111.604 282.492 111.336C282.326 111.068 282.245 110.73 282.25 110.324V104.562ZM286.217 114.25V106H288.107V107.027H288.166C288.244 106.845 288.355 106.669 288.498 106.5C288.644 106.331 288.829 106.193 289.053 106.086C289.279 105.977 289.55 105.922 289.865 105.922C290.282 105.922 290.671 106.031 291.033 106.25C291.398 106.469 291.692 106.806 291.916 107.262C292.14 107.717 292.252 108.298 292.252 109.004C292.252 109.684 292.144 110.253 291.928 110.711C291.714 111.169 291.425 111.513 291.061 111.742C290.699 111.971 290.296 112.086 289.854 112.086C289.551 112.086 289.29 112.036 289.068 111.937C288.847 111.839 288.661 111.708 288.51 111.547C288.361 111.385 288.247 111.212 288.166 111.027H288.127V114.25H286.217ZM288.088 109C288.088 109.323 288.131 109.604 288.217 109.844C288.305 110.083 288.432 110.27 288.596 110.402C288.762 110.533 288.962 110.598 289.193 110.598C289.428 110.598 289.627 110.533 289.791 110.402C289.955 110.27 290.079 110.083 290.162 109.844C290.248 109.604 290.291 109.323 290.291 109C290.291 108.677 290.248 108.397 290.162 108.16C290.079 107.923 289.955 107.74 289.791 107.609C289.63 107.479 289.43 107.414 289.193 107.414C288.959 107.414 288.76 107.478 288.596 107.605C288.432 107.733 288.305 107.915 288.217 108.152C288.131 108.389 288.088 108.672 288.088 109ZM297.124 109.41V106H299.03V112H297.21V110.883H297.147C297.015 111.25 296.788 111.542 296.468 111.758C296.15 111.971 295.766 112.078 295.315 112.078C294.907 112.078 294.547 111.984 294.237 111.797C293.927 111.609 293.687 111.348 293.515 111.012C293.343 110.673 293.256 110.277 293.253 109.824V106H295.163V109.449C295.166 109.775 295.252 110.031 295.421 110.219C295.59 110.406 295.821 110.5 296.112 110.5C296.302 110.5 296.473 110.458 296.624 110.375C296.778 110.289 296.899 110.165 296.987 110.004C297.078 109.84 297.124 109.642 297.124 109.41ZM303.633 106V107.406H299.848V106H303.633ZM300.641 104.562H302.551V110.113C302.551 110.23 302.569 110.326 302.605 110.398C302.645 110.469 302.701 110.52 302.773 110.551C302.846 110.579 302.934 110.594 303.035 110.594C303.108 110.594 303.185 110.587 303.266 110.574C303.349 110.559 303.411 110.546 303.453 110.535L303.742 111.914C303.651 111.94 303.522 111.973 303.355 112.012C303.191 112.051 302.995 112.076 302.766 112.086C302.318 112.107 301.934 112.055 301.613 111.93C301.296 111.802 301.052 111.604 300.883 111.336C300.716 111.068 300.635 110.73 300.641 110.324V104.562Z" fill="#070813"/>
<defs>
<filter id="filter0_d_0_1" x="-4" y="0" width="417" height="257" filterUnits="userSpaceOnUse" color-interpolation-filters="sRGB">
<feFlood flood-opacity="0" result="BackgroundImageFix"/>
<feColorMatrix in="SourceAlpha" type="matrix" values="0 0 0 0 0 0 0 0 0 0 0 0 0 0 0 0 0 0 127 0" result="hardAlpha"/>
<feOffset dy="4"/>
<feGaussianBlur stdDeviation="2"/>
<feComposite in2="hardAlpha" operator="out"/>
<feColorMatrix type="matrix" values="0 0 0 0 0 0 0 0 0 0 0 0 0 0 0 0 0 0 0.25 0"/>
<feBlend mode="normal" in2="BackgroundImageFix" result="effect1_dropShadow_0_1"/>
<feBlend mode="normal" in="SourceGraphic" in2="effect1_dropShadow_0_1" result="shape"/>
</filter>
<filter id="filter1_d_0_1" x="43" y="151" width="56" height="56" filterUnits="userSpaceOnUse" color-interpolation-filters="sRGB">
<feFlood flood-opacity="0" result="BackgroundImageFix"/>
<feColorMatrix in="SourceAlpha" type="matrix" values="0 0 0 0 0 0 0 0 0 0 0 0 0 0 0 0 0 0 127 0" result="hardAlpha"/>
<feOffset dy="4"/>
<feGaussianBlur stdDeviation="2"/>
<feComposite in2="hardAlpha" operator="out"/>
<feColorMatrix type="matrix" values="0 0 0 0 0 0 0 0 0 0 0 0 0 0 0 0 0 0 0.25 0"/>
<feBlend mode="normal" in2="BackgroundImageFix" result="effect1_dropShadow_0_1"/>
<feBlend mode="normal" in="SourceGraphic" in2="effect1_dropShadow_0_1" result="shape"/>
</filter>
<filter id="filter2_d_0_1" x="176" y="151" width="56" height="56" filterUnits="userSpaceOnUse" color-interpolation-filters="sRGB">
<feFlood flood-opacity="0" result="BackgroundImageFix"/>
<feColorMatrix in="SourceAlpha" type="matrix" values="0 0 0 0 0 0 0 0 0 0 0 0 0 0 0 0 0 0 127 0" result="hardAlpha"/>
<feOffset dy="4"/>
<feGaussianBlur stdDeviation="2"/>
<feComposite in2="hardAlpha" operator="out"/>
<feColorMatrix type="matrix" values="0 0 0 0 0 0 0 0 0 0 0 0 0 0 0 0 0 0 0.25 0"/>
<feBlend mode="normal" in2="BackgroundImageFix" result="effect1_dropShadow_0_1"/>
<feBlend mode="normal" in="SourceGraphic" in2="effect1_dropShadow_0_1" result="shape"/>
</filter>
<filter id="filter3_d_0_1" x="308" y="151" width="56" height="56" filterUnits="userSpaceOnUse" color-interpolation-filters="sRGB">
<feFlood flood-opacity="0" result="BackgroundImageFix"/>
<feColorMatrix in="SourceAlpha" type="matrix" values="0 0 0 0 0 0 0 0 0 0 0 0 0 0 0 0 0 0 127 0" result="hardAlpha"/>
<feOffset dy="4"/>
<feGaussianBlur stdDeviation="2"/>
<feComposite in2="hardAlpha" operator="out"/>
<feColorMatrix type="matrix" values="0 0 0 0 0 0 0 0 0 0 0 0 0 0 0 0 0 0 0.25 0"/>
<feBlend mode="normal" in2="BackgroundImageFix" result="effect1_dropShadow_0_1"/>
<feBlend mode="normal" in="SourceGraphic" in2="effect1_dropShadow_0_1" result="shape"/>
</filter>
<filter id="filter4_d_0_1" x="242" y="151" width="56" height="56" filterUnits="userSpaceOnUse" color-interpolation-filters="sRGB">
<feFlood flood-opacity="0" result="BackgroundImageFix"/>
<feColorMatrix in="SourceAlpha" type="matrix" values="0 0 0 0 0 0 0 0 0 0 0 0 0 0 0 0 0 0 127 0" result="hardAlpha"/>
<feOffset dy="4"/>
<feGaussianBlur stdDeviation="2"/>
<feComposite in2="hardAlpha" operator="out"/>
<feColorMatrix type="matrix" values="0 0 0 0 0 0 0 0 0 0 0 0 0 0 0 0 0 0 0.25 0"/>
<feBlend mode="normal" in2="BackgroundImageFix" result="effect1_dropShadow_0_1"/>
<feBlend mode="normal" in="SourceGraphic" in2="effect1_dropShadow_0_1" result="shape"/>
</filter>
<filter id="filter5_d_0_1" x="109" y="151" width="56" height="56" filterUnits="userSpaceOnUse" color-interpolation-filters="sRGB">
<feFlood flood-opacity="0" result="BackgroundImageFix"/>
<feColorMatrix in="SourceAlpha" type="matrix" values="0 0 0 0 0 0 0 0 0 0 0 0 0 0 0 0 0 0 127 0" result="hardAlpha"/>
<feOffset dy="4"/>
<feGaussianBlur stdDeviation="2"/>
<feComposite in2="hardAlpha" operator="out"/>
<feColorMatrix type="matrix" values="0 0 0 0 0 0 0 0 0 0 0 0 0 0 0 0 0 0 0.25 0"/>
<feBlend mode="normal" in2="BackgroundImageFix" result="effect1_dropShadow_0_1"/>
<feBlend mode="normal" in="SourceGraphic" in2="effect1_dropShadow_0_1" result="shape"/>
</filter>
</defs>
</svg>
